<svg width="24" height="24" viewBox="0 0 24 24" fill="none" xmlns="http://www.w3.org/2000/svg">
<g id="ep:back">
<path id="Vector" d="M3.5625 11.0625H22.3125C22.5611 11.0625 22.7996 11.1613 22.9754 11.3371C23.1512 11.5129 23.25 11.7514 23.25 12C23.25 12.2486 23.1512 12.4871 22.9754 12.6629C22.7996 12.8387 22.5611 12.9375 22.3125 12.9375H3.5625C3.31386 12.9375 3.0754 12.8387 2.89959 12.6629C2.72377 12.4871 2.625 12.2486 2.625 12C2.625 11.7514 2.72377 11.5129 2.89959 11.3371C3.0754 11.1613 3.31386 11.0625 3.5625 11.0625Z" fill="black"/>
<path id="Vector_2" d="M3.95059 11.9992L11.7262 19.773C11.9023 19.949 12.0012 20.1878 12.0012 20.4367C12.0012 20.6857 11.9023 20.9244 11.7262 21.1005C11.5502 21.2765 11.3114 21.3754 11.0625 21.3754C10.8135 21.3754 10.5748 21.2765 10.3987 21.1005L1.96122 12.663C1.87391 12.5759 1.80464 12.4724 1.75738 12.3585C1.71012 12.2446 1.68579 12.1225 1.68579 11.9992C1.68579 11.8759 1.71012 11.7538 1.75738 11.6399C1.80464 11.526 1.87391 11.4226 1.96122 11.3355L10.3987 2.89798C10.5748 2.72194 10.8135 2.62305 11.0625 2.62305C11.3114 2.62305 11.5502 2.72194 11.7262 2.89798C11.9023 3.07402 12.0012 3.31278 12.0012 3.56173C12.0012 3.81069 11.9023 4.04944 11.7262 4.22548L3.95059 11.9992Z" fill="black"/>
</g>
</svg>
