<svg width="69" height="69" viewBox="0 0 69 69" fill="none" xmlns="http://www.w3.org/2000/svg">
<path fill-rule="evenodd" clip-rule="evenodd" d="M34.5 69C53.5539 69 69 53.5539 69 34.5C69 15.4461 53.5539 0 34.5 0C15.4461 0 0 15.4461 0 34.5C0 53.5539 15.4461 69 34.5 69ZM56.1287 27.0445L30.5053 52.5383C29.635 53.4039 28.2243 53.4039 27.3541 52.5381L12.8713 38.1286C12.0012 37.2629 12.0012 35.8592 12.8713 34.9935L16.0223 31.8585C16.8925 30.9928 18.3033 30.9928 19.1734 31.8585L28.9297 41.5654L49.8266 20.7744C50.6968 19.9085 52.1076 19.9085 52.9777 20.7744L56.1287 23.9094C56.9988 24.7751 56.9988 26.1788 56.1287 27.0445Z" fill="#F0C414"/>
</svg>
