<svg width="45" height="44" viewBox="0 0 45 44" fill="none" xmlns="http://www.w3.org/2000/svg">
<g id="fluent-mdl2:block-contact" clip-path="url(#clip0_853_937)">
<path id="Vector" d="M28.4512 23.8477C28.0645 24.0911 27.6921 24.3418 27.334 24.5996C26.9759 24.8574 26.625 25.1582 26.2812 25.502C25.0065 24.3561 23.5742 23.4896 21.9844 22.9023C20.3945 22.3151 18.7331 22.0143 17 22C15.0807 22 13.2832 22.3509 11.6074 23.0527C9.93164 23.7546 8.47786 24.7285 7.24609 25.9746C6.01432 27.2207 5.04036 28.6816 4.32422 30.3574C3.60807 32.0332 3.25 33.8307 3.25 35.75H0.5C0.5 34.0312 0.750651 32.3698 1.25195 30.7656C1.75326 29.1615 2.4694 27.6862 3.40039 26.3398C4.33138 24.9935 5.44857 23.7975 6.75195 22.752C8.05534 21.7064 9.5306 20.89 11.1777 20.3027C10.39 19.8014 9.68099 19.2142 9.05078 18.541C8.42057 17.8678 7.8763 17.123 7.41797 16.3066C6.95964 15.4902 6.60872 14.6452 6.36523 13.7715C6.12174 12.8978 6 11.974 6 11C6 9.48177 6.28646 8.05664 6.85938 6.72461C7.43229 5.39258 8.22005 4.23242 9.22266 3.24414C10.2253 2.25586 11.3926 1.4681 12.7246 0.880859C14.0566 0.29362 15.4818 0 17 0C18.5182 0 19.9434 0.286458 21.2754 0.859375C22.6074 1.43229 23.7676 2.22005 24.7559 3.22266C25.7441 4.22526 26.5319 5.39258 27.1191 6.72461C27.7064 8.05664 28 9.48177 28 11C28 11.9453 27.8783 12.862 27.6348 13.75C27.3913 14.638 27.0475 15.4902 26.6035 16.3066C26.1595 17.123 25.6152 17.8607 24.9707 18.5195C24.3262 19.1784 23.61 19.7728 22.8223 20.3027C23.8822 20.6751 24.8776 21.1621 25.8086 21.7637C26.7396 22.3652 27.6204 23.0599 28.4512 23.8477ZM8.75 11C8.75 12.1315 8.96484 13.1986 9.39453 14.2012C9.82422 15.2038 10.4186 16.0775 11.1777 16.8223C11.9368 17.5671 12.8105 18.1543 13.7988 18.584C14.7871 19.0137 15.8542 19.2357 17 19.25C18.1315 19.25 19.1986 19.0352 20.2012 18.6055C21.2038 18.1758 22.0775 17.5814 22.8223 16.8223C23.5671 16.0632 24.1543 15.1895 24.584 14.2012C25.0137 13.2129 25.2357 12.1458 25.25 11C25.25 9.86849 25.0352 8.80143 24.6055 7.79883C24.1758 6.79622 23.5814 5.92253 22.8223 5.17773C22.0632 4.43294 21.1895 3.8457 20.2012 3.41602C19.2129 2.98633 18.1458 2.76432 17 2.75C15.8685 2.75 14.8014 2.96484 13.7988 3.39453C12.7962 3.82422 11.9225 4.41862 11.1777 5.17773C10.4329 5.93685 9.8457 6.81055 9.41602 7.79883C8.98633 8.78711 8.76432 9.85417 8.75 11ZM34.875 24.75C36.207 24.75 37.4531 25.0007 38.6133 25.502C39.7734 26.0033 40.7904 26.6908 41.6641 27.5645C42.5378 28.4382 43.2253 29.4551 43.7266 30.6152C44.2279 31.7754 44.4857 33.0286 44.5 34.375C44.5 35.707 44.2493 36.9531 43.748 38.1133C43.2467 39.2734 42.5592 40.2904 41.6855 41.1641C40.8118 42.0378 39.7949 42.7253 38.6348 43.2266C37.4746 43.7279 36.2214 43.9857 34.875 44C33.543 44 32.2969 43.7493 31.1367 43.248C29.9766 42.7467 28.9596 42.0592 28.0859 41.1855C27.2122 40.3118 26.5247 39.2949 26.0234 38.1348C25.5221 36.9746 25.2643 35.7214 25.25 34.375C25.25 33.043 25.5007 31.7969 26.002 30.6367C26.5033 29.4766 27.1908 28.4596 28.0645 27.5859C28.9382 26.7122 29.9551 26.0247 31.1152 25.5234C32.2754 25.0221 33.5286 24.7643 34.875 24.75ZM34.875 41.25C35.5482 41.25 36.207 41.1569 36.8516 40.9707C37.4961 40.7845 38.0977 40.498 38.6562 40.1113L29.1387 30.5938C28.7663 31.1523 28.487 31.7539 28.3008 32.3984C28.1146 33.043 28.0143 33.7018 28 34.375C28 35.3203 28.179 36.2083 28.5371 37.0391C28.8952 37.8698 29.3893 38.5931 30.0195 39.209C30.6497 39.8249 31.3802 40.319 32.2109 40.6914C33.0417 41.0638 33.9297 41.25 34.875 41.25ZM40.6113 38.1562C40.9837 37.5977 41.263 36.9961 41.4492 36.3516C41.6354 35.707 41.7357 35.0482 41.75 34.375C41.75 33.4297 41.571 32.5417 41.2129 31.7109C40.8548 30.8802 40.3607 30.1569 39.7305 29.541C39.1003 28.9251 38.3698 28.431 37.5391 28.0586C36.7083 27.6862 35.8203 27.5 34.875 27.5C34.2018 27.5 33.543 27.5931 32.8984 27.7793C32.2539 27.9655 31.6523 28.252 31.0938 28.6387L40.6113 38.1562Z" fill="#979797"/>
</g>
<defs>
<clipPath id="clip0_853_937">
<rect width="44" height="44" fill="white" transform="translate(0.5)"/>
</clipPath>
</defs>
</svg>
