<svg width="21" height="20" viewBox="0 0 21 20" fill="none" xmlns="http://www.w3.org/2000/svg">
<circle cx="10.3784" cy="10" r="10" fill="#B8B8B8" fill-opacity="0.57"/>
<circle cx="10.3784" cy="10" r="5" fill="#3D6DFE"/>
<path d="M10.3784 12.5162C9.21161 10.9937 8.62836 9.91049 8.62836 9.26624C8.62836 8.80211 8.81273 8.35699 9.14092 8.0288C9.46911 7.70061 9.91423 7.51624 10.3784 7.51624C10.8425 7.51624 11.2876 7.70061 11.6158 8.0288C11.944 8.35699 12.1284 8.80211 12.1284 9.26624C12.1284 9.91049 11.5451 10.9937 10.3784 12.5162ZM10.3784 10.2662C10.6436 10.2662 10.8979 10.1609 11.0855 9.97334C11.273 9.78581 11.3784 9.53145 11.3784 9.26624C11.3784 9.00102 11.273 8.74666 11.0855 8.55913C10.8979 8.37159 10.6436 8.26624 10.3784 8.26624C10.1131 8.26624 9.85879 8.37159 9.67125 8.55913C9.48371 8.74666 9.37836 9.00102 9.37836 9.26624C9.37836 9.53145 9.48371 9.78581 9.67125 9.97334C9.85879 10.1609 10.1131 10.2662 10.3784 10.2662Z" fill="white"/>
</svg>
