<svg width="16" height="17" viewBox="0 0 16 17" fill="none" xmlns="http://www.w3.org/2000/svg">
<rect y="0.09375" width="16" height="16" rx="8" fill="#EFEFEF"/>
<path d="M8.00004 8.17018C8.22424 8.17018 8.41624 8.09029 8.57604 7.93049C8.73583 7.77069 8.8156 7.57883 8.81532 7.3549C8.81532 7.13069 8.73543 6.93869 8.57563 6.7789C8.41583 6.6191 8.22397 6.53934 8.00004 6.53961C7.77583 6.53961 7.58383 6.61951 7.42404 6.7793C7.26424 6.9391 7.18448 7.13096 7.18475 7.3549C7.18475 7.5791 7.26465 7.7711 7.42445 7.9309C7.58424 8.09069 7.77611 8.17045 8.00004 8.17018ZM8.00004 12.0938C7.94569 12.0938 7.89133 12.0836 7.83698 12.0632C7.78263 12.0428 7.73507 12.0156 7.69431 11.9816C6.70237 11.1052 5.96182 10.2916 5.47265 9.54068C4.98348 8.7898 4.73889 8.08838 4.73889 7.43642C4.73889 6.41732 5.06677 5.60543 5.72253 5.00076C6.3783 4.39609 7.13746 4.09375 8.00004 4.09375C8.86288 4.09375 9.62219 4.39609 10.2779 5.00076C10.9337 5.60543 11.2615 6.41732 11.2612 7.43642C11.2612 8.08865 11.0166 8.79021 10.5274 9.54109C10.0383 10.292 9.2977 11.1055 8.30577 11.9816C8.26501 12.0156 8.21745 12.0428 8.1631 12.0632C8.10874 12.0836 8.05439 12.0938 8.00004 12.0938Z" fill="#220000" fill-opacity="0.3"/>
</svg>
