<svg width="51" height="51" viewBox="0 0 51 51" fill="none" xmlns="http://www.w3.org/2000/svg">
<rect x="0.0178223" y="0.25" width="50" height="50" rx="25" fill="#F0F0F0" fill-opacity="0.6"/>
<path d="M31.6428 32.75C29.8512 32.75 28.1048 32.3542 26.4037 31.5625C24.702 30.7708 23.195 29.7153 21.8828 28.3958C20.57 27.0764 19.5145 25.5658 18.7162 23.8642C17.9173 22.1631 17.5178 20.4167 17.5178 18.625V18.1875C17.5178 18.0347 17.5317 17.8889 17.5595 17.75H22.4345L23.2053 21.9375L20.8303 24.3333C21.4137 25.3333 22.1464 26.2708 23.0287 27.1458C23.9103 28.0208 24.8789 28.7778 25.9345 29.4167L28.3512 27L32.5178 27.8333V32.7083C32.3789 32.7222 32.2331 32.7328 32.0803 32.74C31.9275 32.7467 31.7817 32.75 31.6428 32.75Z" fill="black"/>
</svg>
