<svg width="37" height="37" viewBox="0 0 37 37" fill="none" xmlns="http://www.w3.org/2000/svg">
<rect x="1.5647" y="1.72424" width="34.5" height="34.5" rx="17.25" fill="white" stroke="#3D6DFE" stroke-width="1.5"/>
<path d="M24.1147 24.568C22.6814 24.568 21.2843 24.2513 19.9234 23.618C18.562 22.9847 17.3565 22.1402 16.3067 21.0847C15.2565 20.0291 14.412 18.8207 13.7734 17.4593C13.1343 16.0984 12.8147 14.7013 12.8147 13.268V12.918C12.8147 12.7958 12.8258 12.6791 12.848 12.568H16.748L17.3647 15.918L15.4647 17.8347C15.9314 18.6347 16.5176 19.3847 17.2234 20.0847C17.9287 20.7847 18.7036 21.3902 19.548 21.9013L21.4814 19.968L24.8147 20.6347V24.5347C24.7036 24.5458 24.5869 24.5542 24.4647 24.56C24.3425 24.5653 24.2258 24.568 24.1147 24.568Z" fill="#3D6DFE"/>
</svg>
