<svg width="24" height="24" viewBox="0 0 24 24" fill="none" xmlns="http://www.w3.org/2000/svg">
<path d="M6.56549 1.50441L6.52671 1.67782L6.56549 1.50441ZM6.56549 1.50441C6.5334 1.49723 6.49997 1.49884 6.46871 1.50907L8.70231 4.2461C7.68137 2.65845 6.91168 1.79454 6.65106 1.54985C6.62714 1.52728 6.59758 1.51158 6.56549 1.50441ZM16.5404 13.466C16.5727 13.4619 16.6056 13.4668 16.6354 13.48L16.5404 13.466ZM16.5404 13.466C16.508 13.47 16.4773 13.4828 16.4517 13.503L16.5404 13.466ZM19.4832 15.7198L19.4834 15.72C20.8169 16.576 21.6147 17.243 21.9508 17.5589C21.6588 18.3716 21.2954 19.157 20.8647 19.9058C20.4438 20.63 19.9644 21.3184 19.4312 21.964C18.7893 21.8083 17.0607 21.31 14.7508 20.0385L14.7505 20.0384C12.0965 18.5795 10.7099 17.519 8.564 15.3805C6.42116 13.2451 5.42203 11.9029 3.96161 9.24896L3.96159 9.24891C2.69055 6.93971 2.19247 5.2121 2.03588 4.56868C2.68157 4.03544 3.36991 3.55589 4.09404 3.13487C4.84296 2.70405 5.6285 2.34056 6.4414 2.04863C6.75681 2.38424 7.4237 3.18219 8.28172 4.51648C9.16683 5.89337 9.75256 6.94033 9.98198 7.39524C9.55189 7.93378 8.90902 8.68899 8.87018 8.7343L8.86279 8.7429C8.80132 8.81437 8.74153 8.88389 8.69519 8.94482C8.64769 9.00727 8.58378 9.09893 8.54577 9.21618C8.46859 9.4543 8.54636 9.67675 8.5794 9.77127C8.58251 9.78016 8.58522 9.78792 8.58737 9.79445L9.06197 9.63825L8.58724 9.79405C8.68199 10.0828 8.94471 10.6031 9.32504 11.1925C9.71188 11.792 10.2413 12.4954 10.8904 13.146C12.1758 14.4344 13.6628 15.2359 14.2058 15.4139L14.2065 15.4141C14.213 15.4163 14.2208 15.4189 14.2297 15.422C14.3242 15.4548 14.5459 15.5315 14.7832 15.4546C14.9 15.4167 14.9914 15.3531 15.0538 15.3058C15.1147 15.2596 15.1842 15.2 15.2557 15.1388L15.2648 15.1309L15.2649 15.1309C15.3101 15.0922 16.0654 14.4496 16.6043 14.0196C17.0592 14.2491 18.1066 14.8349 19.4832 15.7198ZM19.6183 22.0069L19.6163 22.0064L19.6183 22.0069Z" stroke="#5925DC"/>
</svg>
