<svg width="11" height="13" viewBox="0 0 11 13" fill="none" xmlns="http://www.w3.org/2000/svg">
<path id="Vector" d="M10.0364 12.8066C8.76333 12.8066 7.52245 12.4871 6.31374 11.848C5.10503 11.2089 4.03429 10.3644 3.10151 9.31464C2.16873 8.26486 1.41871 7.05931 0.851464 5.69797C0.284216 4.33664 0.000394745 2.93953 0 1.50664C0 1.30664 0.0592117 1.13997 0.177635 1.00664C0.296058 0.873307 0.444088 0.806641 0.621723 0.806641H3.0198C3.15796 0.806641 3.28131 0.856641 3.38987 0.956641C3.49842 1.05664 3.56257 1.18442 3.58231 1.33997L3.96718 3.67331C3.98692 3.82886 3.98435 3.97064 3.95949 4.09864C3.93462 4.22664 3.87797 4.34042 3.78955 4.43997L2.36847 6.07331C2.78295 6.87331 3.30105 7.62331 3.92277 8.32331C4.5445 9.02331 5.23037 9.62886 5.98038 10.14L7.37186 8.57331C7.46067 8.47331 7.57673 8.39842 7.72002 8.34864C7.86331 8.29886 8.00384 8.28486 8.14161 8.30664L10.1844 8.77331C10.3226 8.80664 10.4361 8.88175 10.5249 8.99864C10.6137 9.11553 10.6581 9.25153 10.6581 9.40664V12.1066C10.6581 12.3066 10.5989 12.4733 10.4805 12.6066C10.362 12.74 10.214 12.8066 10.0364 12.8066Z" fill="#E8505B"/>
</svg>
