<svg width="21" height="19" viewBox="0 0 21 19" fill="none" xmlns="http://www.w3.org/2000/svg">
<path d="M10.5178 15.0781C11.7678 15.0781 12.8305 14.6405 13.7058 13.7651C14.5812 12.8898 15.0185 11.8275 15.0178 10.5781C15.0178 9.32812 14.5802 8.26546 13.7048 7.39013C12.8295 6.51479 11.7672 6.07746 10.5178 6.07812C9.26782 6.07812 8.20516 6.51579 7.32982 7.39112C6.45449 8.26646 6.01716 9.32879 6.01782 10.5781C6.01782 11.8281 6.45549 12.8908 7.33082 13.7661C8.20616 14.6415 9.26849 15.0788 10.5178 15.0781ZM2.51782 18.5781C1.96782 18.5781 1.49682 18.3821 1.10482 17.9901C0.712824 17.5981 0.517157 17.1275 0.517824 16.5781V4.57812C0.517824 4.02813 0.713824 3.55712 1.10582 3.16512C1.49782 2.77312 1.96849 2.57746 2.51782 2.57812H5.66782L7.51782 0.578125H13.5178L15.3678 2.57812H18.5178C19.0678 2.57812 19.5388 2.77412 19.9308 3.16612C20.3228 3.55812 20.5185 4.02879 20.5178 4.57812V16.5781C20.5178 17.1281 20.3218 17.5991 19.9298 17.9911C19.5378 18.3831 19.0672 18.5788 18.5178 18.5781H2.51782Z" fill="black"/>
</svg>
