<svg width="71" height="71" viewBox="0 0 71 71" fill="none" xmlns="http://www.w3.org/2000/svg">
<rect x="0.0783691" y="0.389648" width="70" height="70" rx="35" fill="white"/>
<path d="M35.0784 40.8896C36.3284 40.8896 37.391 40.452 38.2664 39.5766C39.1417 38.7013 39.579 37.639 39.5784 36.3896C39.5784 35.1396 39.1407 34.077 38.2654 33.2016C37.39 32.3263 36.3277 31.889 35.0784 31.8896C33.8284 31.8896 32.7657 32.3273 31.8904 33.2026C31.015 34.078 30.5777 35.1403 30.5784 36.3896C30.5784 37.6396 31.016 38.7023 31.8914 39.5776C32.7667 40.453 33.829 40.8903 35.0784 40.8896ZM27.0784 44.3896C26.5284 44.3896 26.0574 44.1936 25.6654 43.8016C25.2734 43.4096 25.0777 42.939 25.0784 42.3896V30.3896C25.0784 29.8396 25.2744 29.3686 25.6664 28.9766C26.0584 28.5846 26.529 28.389 27.0784 28.3896H30.2284L32.0784 26.3896H38.0784L39.9284 28.3896H43.0784C43.6284 28.3896 44.0994 28.5856 44.4914 28.9776C44.8834 29.3696 45.079 29.8403 45.0784 30.3896V42.3896C45.0784 42.9396 44.8824 43.4106 44.4904 43.8026C44.0984 44.1946 43.6277 44.3903 43.0784 44.3896H27.0784Z" fill="black"/>
</svg>
