<svg width="20" height="20" viewBox="0 0 20 20" fill="none" xmlns="http://www.w3.org/2000/svg">
<g id="mdi:car">
<path id="Vector" d="M4.16667 9.16666L5.41667 5.41666H14.5833L15.8333 9.16666M14.5833 13.3333C14.2518 13.3333 13.9339 13.2016 13.6995 12.9672C13.465 12.7328 13.3333 12.4148 13.3333 12.0833C13.3333 11.7518 13.465 11.4339 13.6995 11.1994C13.9339 10.965 14.2518 10.8333 14.5833 10.8333C14.9149 10.8333 15.2328 10.965 15.4672 11.1994C15.7016 11.4339 15.8333 11.7518 15.8333 12.0833C15.8333 12.4148 15.7016 12.7328 15.4672 12.9672C15.2328 13.2016 14.9149 13.3333 14.5833 13.3333ZM5.41667 13.3333C5.08515 13.3333 4.7672 13.2016 4.53278 12.9672C4.29836 12.7328 4.16667 12.4148 4.16667 12.0833C4.16667 11.7518 4.29836 11.4339 4.53278 11.1994C4.7672 10.965 5.08515 10.8333 5.41667 10.8333C5.74819 10.8333 6.06613 10.965 6.30055 11.1994C6.53497 11.4339 6.66667 11.7518 6.66667 12.0833C6.66667 12.4148 6.53497 12.7328 6.30055 12.9672C6.06613 13.2016 5.74819 13.3333 5.41667 13.3333ZM15.7667 4.99999C15.6 4.51666 15.1333 4.16666 14.5833 4.16666H5.41667C4.86667 4.16666 4.4 4.51666 4.23333 4.99999L2.5 9.99999V16.6667C2.5 16.8877 2.5878 17.0996 2.74408 17.2559C2.90036 17.4122 3.11232 17.5 3.33333 17.5H4.16667C4.38768 17.5 4.59964 17.4122 4.75592 17.2559C4.9122 17.0996 5 16.8877 5 16.6667V15.8333H15V16.6667C15 16.8877 15.0878 17.0996 15.2441 17.2559C15.4004 17.4122 15.6123 17.5 15.8333 17.5H16.6667C16.8877 17.5 17.0996 17.4122 17.2559 17.2559C17.4122 17.0996 17.5 16.8877 17.5 16.6667V9.99999L15.7667 4.99999Z" fill="black" fill-opacity="0.5"/>
</g>
</svg>
