<svg width="33" height="32" viewBox="0 0 33 32" fill="none" xmlns="http://www.w3.org/2000/svg">
<g id="carbon:add-filled">
<path id="Vector" d="M15 4C11.8293 4.03825 8.79921 5.31482 6.55702 7.55702C4.31482 9.79921 3.03825 12.8293 3 16C3.03825 19.1707 4.31482 22.2008 6.55702 24.443C8.79921 26.6852 11.8293 27.9617 15 28C18.1707 27.9617 21.2008 26.6852 23.443 24.443C25.6852 22.2008 26.9617 19.1707 27 16C26.9617 12.8293 25.6852 9.79921 23.443 7.55702C21.2008 5.31482 18.1707 4.03825 15 4ZM21.8571 16.8571H15.8571V22.8571H14.1429V16.8571H8.14286V15.1429H14.1429V9.14286H15.8571V15.1429H21.8571V16.8571Z" fill="#0C84FF"/>
</g>
</svg>
