<svg width="17" height="17" viewBox="0 0 17 17" fill="none" xmlns="http://www.w3.org/2000/svg">
<g id="mdi:clock-outline">
<path id="Vector" d="M8.49992 14.1787C9.91441 14.1787 11.271 13.6168 12.2712 12.6166C13.2713 11.6164 13.8333 10.2599 13.8333 8.84538C13.8333 7.43089 13.2713 6.07434 12.2712 5.07414C11.271 4.07395 9.91441 3.51204 8.49992 3.51204C7.08543 3.51204 5.72888 4.07395 4.72868 5.07414C3.72849 6.07434 3.16659 7.43089 3.16659 8.84538C3.16659 10.2599 3.72849 11.6164 4.72868 12.6166C5.72888 13.6168 7.08543 14.1787 8.49992 14.1787ZM8.49992 2.17871C9.3754 2.17871 10.2423 2.35115 11.0511 2.68618C11.86 3.02121 12.5949 3.51228 13.214 4.13133C13.833 4.75039 14.3241 5.48532 14.6591 6.29415C14.9941 7.10299 15.1666 7.9699 15.1666 8.84538C15.1666 10.6135 14.4642 12.3092 13.214 13.5594C11.9637 14.8097 10.268 15.512 8.49992 15.512C4.81325 15.512 1.83325 12.512 1.83325 8.84538C1.83325 7.07727 2.53563 5.38158 3.78587 4.13133C5.03612 2.88109 6.73181 2.17871 8.49992 2.17871ZM8.83325 5.51204V9.01204L11.8333 10.792L11.3333 11.612L7.83325 9.51204V5.51204H8.83325Z" fill="white"/>
</g>
</svg>
