<svg width="21" height="21" viewBox="0 0 21 21" fill="none" xmlns="http://www.w3.org/2000/svg">
<path d="M10.251 2.3855C8.64401 2.3855 7.07312 2.86202 5.73697 3.75481C4.40082 4.64759 3.35942 5.91655 2.74446 7.4012C2.1295 8.88584 1.96859 10.5195 2.2821 12.0956C2.5956 13.6717 3.36944 15.1194 4.50574 16.2557C5.64204 17.392 7.08978 18.1659 8.66587 18.4794C10.242 18.7929 11.8756 18.632 13.3603 18.017C14.8449 17.4021 16.1139 16.3607 17.0067 15.0245C17.8995 13.6884 18.376 12.1175 18.376 10.5105C18.3737 8.35631 17.5169 6.29101 15.9937 4.76777C14.4705 3.24453 12.4052 2.38777 10.251 2.3855ZM10.251 17.3855C8.89123 17.3855 7.56202 16.9823 6.43143 16.2269C5.30085 15.4714 4.41966 14.3977 3.89931 13.1414C3.37896 11.8852 3.24281 10.5029 3.50808 9.16925C3.77335 7.83563 4.42813 6.61062 5.38962 5.64914C6.35111 4.68765 7.57611 4.03287 8.90973 3.7676C10.2434 3.50233 11.6257 3.63847 12.8819 4.15883C14.1382 4.67918 15.2119 5.56036 15.9673 6.69095C16.7228 7.82154 17.126 9.15075 17.126 10.5105C17.1239 12.3332 16.3989 14.0807 15.1101 15.3696C13.8212 16.6584 12.0737 17.3834 10.251 17.3855ZM13.376 12.073C13.376 12.6532 13.1455 13.2096 12.7353 13.6198C12.325 14.03 11.7686 14.2605 11.1885 14.2605H10.876V14.8855C10.876 15.0513 10.8101 15.2102 10.6929 15.3274C10.5757 15.4447 10.4167 15.5105 10.251 15.5105C10.0852 15.5105 9.92625 15.4447 9.80904 15.3274C9.69183 15.2102 9.62598 15.0513 9.62598 14.8855V14.2605H8.37598C8.21022 14.2605 8.05125 14.1947 7.93404 14.0774C7.81683 13.9602 7.75098 13.8013 7.75098 13.6355C7.75098 13.4697 7.81683 13.3108 7.93404 13.1936C8.05125 13.0763 8.21022 13.0105 8.37598 13.0105H11.1885C11.4371 13.0105 11.6756 12.9117 11.8514 12.7359C12.0272 12.5601 12.126 12.3216 12.126 12.073C12.126 11.8244 12.0272 11.5859 11.8514 11.4101C11.6756 11.2343 11.4371 11.1355 11.1885 11.1355H9.31348C8.73332 11.1355 8.17692 10.905 7.76668 10.4948C7.35645 10.0846 7.12598 9.52816 7.12598 8.948C7.12598 8.36784 7.35645 7.81144 7.76668 7.4012C8.17692 6.99097 8.73332 6.7605 9.31348 6.7605H9.62598V6.1355C9.62598 5.96974 9.69183 5.81077 9.80904 5.69356C9.92625 5.57635 10.0852 5.5105 10.251 5.5105C10.4167 5.5105 10.5757 5.57635 10.6929 5.69356C10.8101 5.81077 10.876 5.96974 10.876 6.1355V6.7605H12.126C12.2917 6.7605 12.4507 6.82635 12.5679 6.94356C12.6851 7.06077 12.751 7.21974 12.751 7.3855C12.751 7.55126 12.6851 7.71023 12.5679 7.82744C12.4507 7.94465 12.2917 8.0105 12.126 8.0105H9.31348C9.06484 8.0105 8.82638 8.10927 8.65057 8.28509C8.47475 8.4609 8.37598 8.69936 8.37598 8.948C8.37598 9.19664 8.47475 9.4351 8.65057 9.61091C8.82638 9.78673 9.06484 9.8855 9.31348 9.8855H11.1885C11.7686 9.8855 12.325 10.116 12.7353 10.5262C13.1455 10.9364 13.376 11.4928 13.376 12.073Z" fill="black" fill-opacity="0.5"/>
</svg>
