<svg width="41" height="41" viewBox="0 0 41 41" fill="none" xmlns="http://www.w3.org/2000/svg">
<path d="M19.0713 13.2695C17.5113 13.6962 16.5713 14.8945 16.5713 16.0245C16.5713 17.1545 17.5113 18.3529 19.0713 18.7779V13.2695ZM21.5713 21.6045V27.1112C23.1313 26.6862 24.0713 25.4879 24.0713 24.3579C24.0713 23.2279 23.1313 22.0295 21.5713 21.6045Z" fill="black" fill-opacity="0.4"/>
<path fill-rule="evenodd" clip-rule="evenodd" d="M36.9867 20.1921C36.9867 29.3971 29.525 36.8587 20.32 36.8587C11.115 36.8587 3.65332 29.3971 3.65332 20.1921C3.65332 10.9871 11.115 3.52539 20.32 3.52539C29.525 3.52539 36.9867 10.9871 36.9867 20.1921ZM20.32 8.94206C20.6515 8.94206 20.9694 9.07375 21.2039 9.30817C21.4383 9.54259 21.57 9.86054 21.57 10.1921V10.7204C24.2867 11.2071 26.57 13.2487 26.57 16.0254C26.57 16.3569 26.4383 16.6749 26.2039 16.9093C25.9694 17.1437 25.6515 17.2754 25.32 17.2754C24.9885 17.2754 24.6705 17.1437 24.4361 16.9093C24.2017 16.6749 24.07 16.3569 24.07 16.0254C24.07 14.8954 23.13 13.6971 21.57 13.2704V19.0537C24.2867 19.5404 26.57 21.5821 26.57 24.3587C26.57 27.1354 24.2867 29.1771 21.57 29.6637V30.1921C21.57 30.5236 21.4383 30.8415 21.2039 31.0759C20.9694 31.3104 20.6515 31.4421 20.32 31.4421C19.9885 31.4421 19.6705 31.3104 19.4361 31.0759C19.2017 30.8415 19.07 30.5236 19.07 30.1921V29.6637C16.3533 29.1771 14.07 27.1354 14.07 24.3587C14.07 24.0272 14.2017 23.7093 14.4361 23.4748C14.6705 23.2404 14.9885 23.1087 15.32 23.1087C15.6515 23.1087 15.9694 23.2404 16.2039 23.4748C16.4383 23.7093 16.57 24.0272 16.57 24.3587C16.57 25.4887 17.51 26.6871 19.07 27.1121V21.3304C16.3533 20.8437 14.07 18.8021 14.07 16.0254C14.07 13.2487 16.3533 11.2071 19.07 10.7204V10.1921C19.07 9.86054 19.2017 9.54259 19.4361 9.30817C19.6705 9.07375 19.9885 8.94206 20.32 8.94206Z" fill="black" fill-opacity="0.4"/>
</svg>
