<svg width="41" height="41" viewBox="0 0 41 41" fill="none" xmlns="http://www.w3.org/2000/svg">
<g id="solar:dollar-bold">
<g id="Group">
<path id="Vector" d="M19.043 13.2695C17.483 13.6962 16.543 14.8945 16.543 16.0245C16.543 17.1545 17.483 18.3529 19.043 18.7779V13.2695ZM21.543 21.6045V27.1112C23.103 26.6862 24.043 25.4879 24.043 24.3579C24.043 23.2279 23.103 22.0295 21.543 21.6045Z" fill="black" fill-opacity="0.4"/>
<path id="Vector_2" fill-rule="evenodd" clip-rule="evenodd" d="M36.9583 20.1921C36.9583 29.3971 29.4967 36.8587 20.2917 36.8587C11.0867 36.8587 3.625 29.3971 3.625 20.1921C3.625 10.9871 11.0867 3.52539 20.2917 3.52539C29.4967 3.52539 36.9583 10.9871 36.9583 20.1921ZM20.2917 8.94206C20.6232 8.94206 20.9411 9.07375 21.1755 9.30817C21.41 9.54259 21.5417 9.86054 21.5417 10.1921V10.7204C24.2583 11.2071 26.5417 13.2487 26.5417 16.0254C26.5417 16.3569 26.41 16.6749 26.1755 16.9093C25.9411 17.1437 25.6232 17.2754 25.2917 17.2754C24.9601 17.2754 24.6422 17.1437 24.4078 16.9093C24.1734 16.6749 24.0417 16.3569 24.0417 16.0254C24.0417 14.8954 23.1017 13.6971 21.5417 13.2704V19.0537C24.2583 19.5404 26.5417 21.5821 26.5417 24.3587C26.5417 27.1354 24.2583 29.1771 21.5417 29.6637V30.1921C21.5417 30.5236 21.41 30.8415 21.1755 31.0759C20.9411 31.3104 20.6232 31.4421 20.2917 31.4421C19.9601 31.4421 19.6422 31.3104 19.4078 31.0759C19.1734 30.8415 19.0417 30.5236 19.0417 30.1921V29.6637C16.325 29.1771 14.0417 27.1354 14.0417 24.3587C14.0417 24.0272 14.1734 23.7093 14.4078 23.4748C14.6422 23.2404 14.9601 23.1087 15.2917 23.1087C15.6232 23.1087 15.9411 23.2404 16.1755 23.4748C16.41 23.7093 16.5417 24.0272 16.5417 24.3587C16.5417 25.4887 17.4817 26.6871 19.0417 27.1121V21.3304C16.325 20.8437 14.0417 18.8021 14.0417 16.0254C14.0417 13.2487 16.325 11.2071 19.0417 10.7204V10.1921C19.0417 9.86054 19.1734 9.54259 19.4078 9.30817C19.6422 9.07375 19.9601 8.94206 20.2917 8.94206Z" fill="black" fill-opacity="0.4"/>
</g>
</g>
</svg>
