<svg width="20" height="20" viewBox="0 0 20 20" fill="none" xmlns="http://www.w3.org/2000/svg">
<path fill-rule="evenodd" clip-rule="evenodd" d="M6.25014 3.95833C6.25014 3.77625 8.1318 2.5 10.0001 2.5C11.8685 2.5 13.7501 3.77625 13.7501 3.95833C13.7501 4.60833 13.681 4.99333 13.6226 5.20292C13.5839 5.34042 13.4551 5.41667 13.3122 5.41667H6.68805C6.54514 5.41667 6.41639 5.34042 6.37764 5.20292C6.3193 4.99333 6.25014 4.60833 6.25014 3.95833ZM9.37514 3.75C9.26463 3.75 9.15865 3.7939 9.08051 3.87204C9.00237 3.95018 8.95847 4.05616 8.95847 4.16667C8.95847 4.27717 9.00237 4.38315 9.08051 4.46129C9.15865 4.53943 9.26463 4.58333 9.37514 4.58333H10.6251C10.7356 4.58333 10.8416 4.53943 10.9198 4.46129C10.9979 4.38315 11.0418 4.27717 11.0418 4.16667C11.0418 4.05616 10.9979 3.95018 10.9198 3.87204C10.8416 3.7939 10.7356 3.75 10.6251 3.75H9.37514ZM6.68264 8.0075C5.29514 7.57833 5.64514 6.81167 6.1743 6.25H13.9418C14.3651 6.79083 14.5922 7.52042 13.3126 7.95708C13.3649 8.42126 13.3191 8.89124 13.1781 9.33656C13.0371 9.78188 12.804 10.1926 12.4941 10.5421C12.1842 10.8915 11.8042 11.172 11.3789 11.3652C10.9536 11.5584 10.4925 11.66 10.0254 11.6635C9.5583 11.6671 9.09568 11.5724 8.66752 11.3856C8.23937 11.1988 7.85525 10.9242 7.54007 10.5794C7.22489 10.2347 6.98569 9.82752 6.83798 9.38438C6.69027 8.94124 6.63734 8.47199 6.68264 8.00708M9.8868 8.33292C10.9876 8.33292 11.841 8.27458 12.4951 8.17292C12.5166 8.51263 12.4685 8.85316 12.3538 9.17363C12.239 9.4941 12.0601 9.78776 11.8278 10.0366C11.5955 10.2855 11.3149 10.4843 11.0031 10.6208C10.6913 10.7574 10.3549 10.8288 10.0145 10.8308C9.67414 10.8328 9.33694 10.7652 9.02358 10.6322C8.71023 10.4993 8.42734 10.3037 8.19223 10.0576C7.95713 9.81139 7.77477 9.51981 7.65633 9.20069C7.5379 8.88156 7.48588 8.54161 7.50347 8.20167C8.11305 8.28583 8.8943 8.33292 9.8868 8.33292ZM13.5072 14.4167C13.1303 13.8287 12.6116 13.3449 11.9987 13.01C11.3858 12.675 10.6986 12.4997 10.0001 12.5C9.30143 12.4995 8.61384 12.675 8.00073 13.0101C7.38762 13.3452 6.86871 13.8292 6.4918 14.4175C6.35192 14.2021 6.13709 14.0462 5.88889 13.98L5.08389 13.7646C4.81707 13.6931 4.53276 13.7304 4.2935 13.8685C4.05424 14.0066 3.87963 14.234 3.80805 14.5008L3.48472 15.7083C3.44931 15.8405 3.44027 15.9783 3.45813 16.1139C3.47599 16.2496 3.52039 16.3804 3.5888 16.4988C3.6572 16.6173 3.74828 16.7211 3.85682 16.8044C3.96536 16.8877 4.08924 16.9488 4.22139 16.9842L5.02597 17.2C5.16131 17.2365 5.30262 17.2451 5.4414 17.2255C5.58018 17.2059 5.71355 17.1584 5.83347 17.0858C5.8338 17.1963 5.87802 17.3022 5.95639 17.3801C6.03477 17.458 6.14088 17.5016 6.25139 17.5012C6.36189 17.5009 6.46774 17.4567 6.54565 17.3783C6.62355 17.3 6.66714 17.1938 6.6668 17.0833V16.6667C6.6668 16.5079 6.67805 16.3517 6.6993 16.1987L8.86764 16.78C8.96829 16.9954 9.1283 17.1777 9.3289 17.3054C9.52949 17.4331 9.76235 17.5009 10.0001 17.5009C10.2379 17.5009 10.4708 17.4331 10.6714 17.3054C10.872 17.1777 11.032 16.9954 11.1326 16.78L13.301 16.1987C13.3222 16.3517 13.3335 16.5079 13.3335 16.6667V17.0833C13.3329 17.1938 13.3763 17.3 13.454 17.3786C13.5318 17.4571 13.6375 17.5015 13.7481 17.5021C13.8586 17.5026 13.9648 17.4593 14.0433 17.3815C14.1218 17.3038 14.1663 17.198 14.1668 17.0875C14.4001 17.2275 14.6885 17.2762 14.9722 17.2L15.7772 16.9846C15.9094 16.9492 16.0332 16.8881 16.1418 16.8048C16.2503 16.7216 16.3414 16.6177 16.4098 16.4992C16.4782 16.3808 16.5226 16.25 16.5405 16.1144C16.5583 15.9787 16.5493 15.8409 16.5139 15.7087L16.1901 14.5013C16.1186 14.2344 15.9439 14.007 15.7047 13.8689C15.4654 13.7308 15.1811 13.6935 14.9143 13.765L14.1093 13.9804C13.8617 14.0464 13.6472 14.202 13.5072 14.4167ZM6.91805 15.3942C7.14319 14.8499 7.50839 14.3749 7.97654 14.0175C8.44469 13.6601 8.99911 13.4329 9.58347 13.3592V15.0712C9.39674 15.1375 9.22838 15.2471 9.09221 15.391C8.95604 15.5349 8.85595 15.7091 8.80014 15.8992L6.91805 15.3942ZM13.0822 15.3942C12.857 14.8499 12.4918 14.375 12.0237 14.0175C11.5556 13.6601 11.0012 13.433 10.4168 13.3592V15.0712C10.7935 15.2046 11.0876 15.5129 11.2001 15.8992L13.0822 15.3942ZM10.0001 16.6667C10.1106 16.6667 10.2166 16.6228 10.2948 16.5446C10.3729 16.4665 10.4168 16.3605 10.4168 16.25C10.4168 16.1395 10.3729 16.0335 10.2948 15.9554C10.2166 15.8772 10.1106 15.8333 10.0001 15.8333C9.88963 15.8333 9.78365 15.8772 9.70551 15.9554C9.62737 16.0335 9.58347 16.1395 9.58347 16.25C9.58347 16.3605 9.62737 16.4665 9.70551 16.5446C9.78365 16.6228 9.88963 16.6667 10.0001 16.6667Z" fill="black"/>
</svg>
