<svg width="10" height="10" viewBox="0 0 10 10" fill="none" xmlns="http://www.w3.org/2000/svg">
<g id="ic:round-stop-circle" clip-path="url(#clip0_4059_6285)">
<path id="Vector" d="M5.00016 0.833984C2.70016 0.833984 0.833496 2.70065 0.833496 5.00065C0.833496 7.30065 2.70016 9.16732 5.00016 9.16732C7.30016 9.16732 9.16683 7.30065 9.16683 5.00065C9.16683 2.70065 7.30016 0.833984 5.00016 0.833984ZM6.25016 6.66732H3.75016C3.521 6.66732 3.3335 6.47982 3.3335 6.25065V3.75065C3.3335 3.52148 3.521 3.33398 3.75016 3.33398H6.25016C6.47933 3.33398 6.66683 3.52148 6.66683 3.75065V6.25065C6.66683 6.47982 6.47933 6.66732 6.25016 6.66732Z" fill="#5925DC"/>
</g>
<defs>
<clipPath id="clip0_4059_6285">
<rect width="10" height="10" fill="white"/>
</clipPath>
</defs>
</svg>
