<svg width="19" height="19" viewBox="0 0 19 19" fill="none" xmlns="http://www.w3.org/2000/svg">
<g id="basil:edit-outline">
<path id="Vector" fill-rule="evenodd" clip-rule="evenodd" d="M16.3414 4.26072C16.4127 4.36888 16.4444 4.49831 16.4313 4.62716C16.4182 4.75602 16.361 4.8764 16.2694 4.96797L9.37466 11.862C9.30413 11.9325 9.21613 11.9829 9.11966 12.0082L6.24791 12.7582C6.15299 12.783 6.05323 12.7825 5.95856 12.7568C5.86388 12.7311 5.77758 12.681 5.70821 12.6117C5.63884 12.5423 5.58882 12.456 5.56311 12.3613C5.53741 12.2667 5.53691 12.1669 5.56166 12.072L6.31166 9.20097C6.33356 9.11479 6.37486 9.03475 6.43241 8.96697L13.3527 2.05122C13.4581 1.94589 13.6011 1.88672 13.7502 1.88672C13.8992 1.88672 14.0422 1.94589 14.1477 2.05122L16.2694 4.17222C16.2963 4.19923 16.3204 4.22888 16.3414 4.26072ZM15.0762 4.56972L13.7502 3.24447L7.36166 9.63297L6.89291 11.4277L8.68766 10.959L15.0762 4.56972Z" fill="black" fill-opacity="0.56"/>
<path id="Vector_2" d="M14.9807 13.0679C15.1857 11.3159 15.2511 9.55032 15.1764 7.78791C15.1748 7.74639 15.1817 7.70498 15.1968 7.66627C15.2119 7.62755 15.2349 7.59237 15.2642 7.56291L16.0022 6.82491C16.0223 6.80463 16.0479 6.79061 16.0759 6.78452C16.1038 6.77844 16.1329 6.78055 16.1597 6.79061C16.1865 6.80067 16.2098 6.81825 16.2268 6.84123C16.2438 6.86421 16.2538 6.89162 16.2557 6.92016C16.3946 9.01359 16.3419 11.1153 16.0982 13.1992C15.9212 14.7157 14.7032 15.9044 13.1934 16.0732C10.5724 16.3634 7.92741 16.3634 5.30642 16.0732C3.79742 15.9044 2.57867 14.7157 2.40167 13.1992C2.09072 10.5407 2.09072 7.8551 2.40167 5.19666C2.57867 3.68016 3.79667 2.49141 5.30642 2.32266C7.2957 2.10207 9.29996 2.04864 11.2982 2.16291C11.3268 2.16497 11.3542 2.17517 11.3772 2.19232C11.4001 2.20947 11.4177 2.23285 11.4278 2.25968C11.4379 2.28651 11.4401 2.31568 11.4341 2.34372C11.4282 2.37176 11.4143 2.39751 11.3942 2.41791L10.6494 3.16191C10.6203 3.19097 10.5854 3.21375 10.5471 3.22885C10.5088 3.24394 10.4678 3.25102 10.4267 3.24966C8.75924 3.19298 7.08989 3.2569 5.43167 3.44091C4.94713 3.49454 4.49481 3.70996 4.14779 4.05235C3.80076 4.39475 3.5793 4.84413 3.51917 5.32791C3.21846 7.89915 3.21846 10.4967 3.51917 13.0679C3.5793 13.5517 3.80076 14.0011 4.14779 14.3435C4.49481 14.6859 4.94713 14.9013 5.43167 14.9549C7.94792 15.2362 10.5519 15.2362 13.0689 14.9549C13.5535 14.9013 14.0058 14.6859 14.3528 14.3435C14.6998 14.0011 14.9205 13.5517 14.9807 13.0679Z" fill="black" fill-opacity="0.56"/>
</g>
</svg>
