<svg width="20" height="20" viewBox="0 0 20 20" fill="none" xmlns="http://www.w3.org/2000/svg">
<path d="M8.99512 12.7507H10.8285V14.584H8.99512V12.7507ZM8.99512 5.41732H10.8285V10.9173H8.99512V5.41732ZM9.90262 0.833984C4.84262 0.833984 0.745117 4.94065 0.745117 10.0007C0.745117 15.0607 4.84262 19.1673 9.90262 19.1673C14.9718 19.1673 19.0784 15.0607 19.0784 10.0007C19.0784 4.94065 14.9718 0.833984 9.90262 0.833984ZM9.91178 17.334C5.86012 17.334 2.57845 14.0523 2.57845 10.0007C2.57845 5.94898 5.86012 2.66732 9.91178 2.66732C13.9635 2.66732 17.2451 5.94898 17.2451 10.0007C17.2451 14.0523 13.9635 17.334 9.91178 17.334Z" fill="white"/>
</svg>
