<svg width="20" height="20" viewBox="0 0 20 20" fill="none" xmlns="http://www.w3.org/2000/svg">
<g clip-path="url(#clip0_4062_2686)">
<path d="M0 15C0 15.5894 0.234126 16.1546 0.650874 16.5714C1.06762 16.9881 1.63285 17.2223 2.22222 17.2223H17.7778C18.3671 17.2223 18.9324 16.9881 19.3491 16.5714C19.7659 16.1546 20 15.5894 20 15V12.2223H0V15Z" fill="#138808"/>
<path d="M20 7.7778V5.00002C20 4.41065 19.7659 3.84542 19.3491 3.42868C18.9324 3.01193 18.3671 2.7778 17.7778 2.7778H2.22222C1.63285 2.7778 1.06762 3.01193 0.650874 3.42868C0.234126 3.84542 0 4.41065 0 5.00002L0 7.7778H20Z" fill="#FF9933"/>
<path d="M0 7.5928H20V12.4078H0V7.5928Z" fill="#F7F7F7"/>
<path d="M9.99957 12.2222C11.2269 12.2222 12.2218 11.2273 12.2218 10C12.2218 8.77272 11.2269 7.7778 9.99957 7.7778C8.77227 7.7778 7.77734 8.77272 7.77734 10C7.77734 11.2273 8.77227 12.2222 9.99957 12.2222Z" fill="#000080"/>
<path d="M10 11.875C11.0355 11.875 11.875 11.0356 11.875 10C11.875 8.9645 11.0355 8.12503 10 8.12503C8.96447 8.12503 8.125 8.9645 8.125 10C8.125 11.0356 8.96447 11.875 10 11.875Z" fill="#F7F7F7"/>
<path d="M10.056 9.30559L10.0004 9.6667L9.94488 9.30559L10.0004 8.22226L10.056 9.30559ZM9.54043 8.28282L9.7671 9.34337L9.91432 9.67781L9.87432 9.31504L9.54043 8.28282ZM9.11154 8.46059L9.60488 9.42615L9.83377 9.71115L9.70154 9.37059L9.11154 8.46059ZM8.74321 8.74282L9.46988 9.54837L9.76488 9.76448L9.54877 9.46948L8.74321 8.74282ZM8.46099 9.11115L9.37099 9.70115L9.71154 9.83337L9.42654 9.60448L8.46099 9.11115ZM8.28321 9.54004L9.31543 9.87393L9.67821 9.91393L9.34377 9.7667L8.28321 9.54004ZM8.22266 10L9.30599 10.0556L9.6671 10L9.30599 9.94448L8.22266 10ZM8.28321 10.46L9.34377 10.2334L9.67821 10.0861L9.31543 10.1261L8.28321 10.46ZM8.46099 10.8889L9.42654 10.3956L9.71154 10.1667L9.37099 10.2989L8.46099 10.8889ZM8.74321 11.2573L9.54877 10.5306L9.76488 10.2356L9.46988 10.4517L8.74321 11.2573ZM9.11154 11.5395L9.70154 10.6295L9.83377 10.2889L9.60488 10.5739L9.11154 11.5395ZM9.54043 11.7173L9.87432 10.685L9.91432 10.3223L9.7671 10.6567L9.54043 11.7173ZM10.0004 11.7778L10.056 10.6945L10.0004 10.3334L9.94488 10.6945L10.0004 11.7778ZM10.4604 11.7173L10.2338 10.6567L10.0865 10.3223L10.1265 10.685L10.4604 11.7173ZM10.8893 11.5395L10.396 10.5739L10.1671 10.2889L10.2993 10.6295L10.8893 11.5395ZM11.2577 11.2573L10.531 10.4517L10.236 10.2356L10.4521 10.5306L11.2577 11.2573ZM11.5399 10.8889L10.6299 10.2989L10.2893 10.1667L10.5743 10.3956L11.5399 10.8889ZM11.7177 10.46L10.6854 10.1261L10.3227 10.0861L10.6571 10.2334L11.7177 10.46ZM11.7782 10L10.6949 9.94448L10.3338 10L10.6949 10.0556L11.7782 10ZM11.7177 9.54004L10.6571 9.7667L10.3227 9.91393L10.6854 9.87393L11.7177 9.54004ZM11.5399 9.11115L10.5743 9.60448L10.2893 9.83337L10.6299 9.70115L11.5399 9.11115ZM11.2577 8.74282L10.4521 9.46948L10.236 9.76448L10.531 9.54837L11.2577 8.74282ZM10.8893 8.46059L10.2993 9.37059L10.1671 9.71115L10.396 9.42615L10.8893 8.46059ZM10.4604 8.28282L10.1265 9.31504L10.0865 9.67781L10.2338 9.34337L10.4604 8.28282Z" fill="#6666B3"/>
<path d="M9.75564 8.25503C9.81701 8.25503 9.86675 8.20528 9.86675 8.14392C9.86675 8.08255 9.81701 8.03281 9.75564 8.03281C9.69428 8.03281 9.64453 8.08255 9.64453 8.14392C9.64453 8.20528 9.69428 8.25503 9.75564 8.25503Z" fill="#000080"/>
<path d="M9.28396 8.38169C9.34533 8.38169 9.39507 8.33195 9.39507 8.27058C9.39507 8.20922 9.34533 8.15947 9.28396 8.15947C9.2226 8.15947 9.17285 8.20922 9.17285 8.27058C9.17285 8.33195 9.2226 8.38169 9.28396 8.38169Z" fill="#000080"/>
<path d="M8.86013 8.62559C8.9215 8.62559 8.97125 8.57584 8.97125 8.51448C8.97125 8.45311 8.9215 8.40337 8.86013 8.40337C8.79877 8.40337 8.74902 8.45311 8.74902 8.51448C8.74902 8.57584 8.79877 8.62559 8.86013 8.62559Z" fill="#000080"/>
<path d="M8.51443 8.97114C8.5758 8.97114 8.62554 8.92139 8.62554 8.86003C8.62554 8.79866 8.5758 8.74892 8.51443 8.74892C8.45307 8.74892 8.40332 8.79866 8.40332 8.86003C8.40332 8.92139 8.45307 8.97114 8.51443 8.97114Z" fill="#000080"/>
<path d="M8.27127 9.39448C8.33263 9.39448 8.38238 9.34473 8.38238 9.28337C8.38238 9.222 8.33263 9.17226 8.27127 9.17226C8.2099 9.17226 8.16016 9.222 8.16016 9.28337C8.16016 9.34473 8.2099 9.39448 8.27127 9.39448Z" fill="#000080"/>
<path d="M8.14431 9.86669C8.20568 9.86669 8.25543 9.81695 8.25543 9.75558C8.25543 9.69422 8.20568 9.64447 8.14431 9.64447C8.08295 9.64447 8.0332 9.69422 8.0332 9.75558C8.0332 9.81695 8.08295 9.86669 8.14431 9.86669Z" fill="#000080"/>
<path d="M8.14431 10.3556C8.20568 10.3556 8.25543 10.3058 8.25543 10.2445C8.25543 10.1831 8.20568 10.1334 8.14431 10.1334C8.08295 10.1334 8.0332 10.1831 8.0332 10.2445C8.0332 10.3058 8.08295 10.3556 8.14431 10.3556Z" fill="#000080"/>
<path d="M8.27127 10.8278C8.33263 10.8278 8.38238 10.7781 8.38238 10.7167C8.38238 10.6553 8.33263 10.6056 8.27127 10.6056C8.2099 10.6056 8.16016 10.6553 8.16016 10.7167C8.16016 10.7781 8.2099 10.8278 8.27127 10.8278Z" fill="#000080"/>
<path d="M8.51443 11.2511C8.5758 11.2511 8.62554 11.2014 8.62554 11.14C8.62554 11.0787 8.5758 11.0289 8.51443 11.0289C8.45307 11.0289 8.40332 11.0787 8.40332 11.14C8.40332 11.2014 8.45307 11.2511 8.51443 11.2511Z" fill="#000080"/>
<path d="M8.86013 11.5967C8.9215 11.5967 8.97125 11.547 8.97125 11.4856C8.97125 11.4242 8.9215 11.3745 8.86013 11.3745C8.79877 11.3745 8.74902 11.4242 8.74902 11.4856C8.74902 11.547 8.79877 11.5967 8.86013 11.5967Z" fill="#000080"/>
<path d="M9.28396 11.8406C9.34533 11.8406 9.39507 11.7908 9.39507 11.7295C9.39507 11.6681 9.34533 11.6184 9.28396 11.6184C9.2226 11.6184 9.17285 11.6681 9.17285 11.7295C9.17285 11.7908 9.2226 11.8406 9.28396 11.8406Z" fill="#000080"/>
<path d="M9.75564 11.9672C9.81701 11.9672 9.86675 11.9175 9.86675 11.8561C9.86675 11.7948 9.81701 11.745 9.75564 11.745C9.69428 11.745 9.64453 11.7948 9.64453 11.8561C9.64453 11.9175 9.69428 11.9672 9.75564 11.9672Z" fill="#000080"/>
<path d="M10.2449 11.9672C10.3063 11.9672 10.356 11.9175 10.356 11.8561C10.356 11.7948 10.3063 11.745 10.2449 11.745C10.1835 11.745 10.1338 11.7948 10.1338 11.8561C10.1338 11.9175 10.1835 11.9672 10.2449 11.9672Z" fill="#000080"/>
<path d="M10.7176 11.8406C10.7789 11.8406 10.8287 11.7908 10.8287 11.7295C10.8287 11.6681 10.7789 11.6184 10.7176 11.6184C10.6562 11.6184 10.6064 11.6681 10.6064 11.7295C10.6064 11.7908 10.6562 11.8406 10.7176 11.8406Z" fill="#000080"/>
<path d="M11.1404 11.5967C11.2018 11.5967 11.2515 11.547 11.2515 11.4856C11.2515 11.4242 11.2018 11.3745 11.1404 11.3745C11.079 11.3745 11.0293 11.4242 11.0293 11.4856C11.0293 11.547 11.079 11.5967 11.1404 11.5967Z" fill="#000080"/>
<path d="M11.4861 11.2511C11.5475 11.2511 11.5972 11.2014 11.5972 11.14C11.5972 11.0787 11.5475 11.0289 11.4861 11.0289C11.4247 11.0289 11.375 11.0787 11.375 11.14C11.375 11.2014 11.4247 11.2511 11.4861 11.2511Z" fill="#000080"/>
<path d="M11.7303 10.8278C11.7916 10.8278 11.8414 10.7781 11.8414 10.7167C11.8414 10.6553 11.7916 10.6056 11.7303 10.6056C11.6689 10.6056 11.6191 10.6553 11.6191 10.7167C11.6191 10.7781 11.6689 10.8278 11.7303 10.8278Z" fill="#000080"/>
<path d="M11.8562 10.3556C11.9176 10.3556 11.9673 10.3058 11.9673 10.2445C11.9673 10.1831 11.9176 10.1334 11.8562 10.1334C11.7949 10.1334 11.7451 10.1831 11.7451 10.2445C11.7451 10.3058 11.7949 10.3556 11.8562 10.3556Z" fill="#000080"/>
<path d="M11.8562 9.86669C11.9176 9.86669 11.9673 9.81695 11.9673 9.75558C11.9673 9.69422 11.9176 9.64447 11.8562 9.64447C11.7949 9.64447 11.7451 9.69422 11.7451 9.75558C11.7451 9.81695 11.7949 9.86669 11.8562 9.86669Z" fill="#000080"/>
<path d="M11.7303 9.39448C11.7916 9.39448 11.8414 9.34473 11.8414 9.28337C11.8414 9.222 11.7916 9.17226 11.7303 9.17226C11.6689 9.17226 11.6191 9.222 11.6191 9.28337C11.6191 9.34473 11.6689 9.39448 11.7303 9.39448Z" fill="#000080"/>
<path d="M11.4861 8.97114C11.5475 8.97114 11.5972 8.92139 11.5972 8.86003C11.5972 8.79866 11.5475 8.74892 11.4861 8.74892C11.4247 8.74892 11.375 8.79866 11.375 8.86003C11.375 8.92139 11.4247 8.97114 11.4861 8.97114Z" fill="#000080"/>
<path d="M11.1404 8.62559C11.2018 8.62559 11.2515 8.57584 11.2515 8.51448C11.2515 8.45311 11.2018 8.40337 11.1404 8.40337C11.079 8.40337 11.0293 8.45311 11.0293 8.51448C11.0293 8.57584 11.079 8.62559 11.1404 8.62559Z" fill="#000080"/>
<path d="M10.7176 8.38169C10.7789 8.38169 10.8287 8.33195 10.8287 8.27058C10.8287 8.20922 10.7789 8.15947 10.7176 8.15947C10.6562 8.15947 10.6064 8.20922 10.6064 8.27058C10.6064 8.33195 10.6562 8.38169 10.7176 8.38169Z" fill="#000080"/>
<path d="M10.2449 8.25503C10.3063 8.25503 10.356 8.20528 10.356 8.14392C10.356 8.08255 10.3063 8.03281 10.2449 8.03281C10.1835 8.03281 10.1338 8.08255 10.1338 8.14392C10.1338 8.20528 10.1835 8.25503 10.2449 8.25503Z" fill="#000080"/>
<path d="M10 10.5C10.2761 10.5 10.5 10.2762 10.5 10C10.5 9.72389 10.2761 9.50003 10 9.50003C9.72386 9.50003 9.5 9.72389 9.5 10C9.5 10.2762 9.72386 10.5 10 10.5Z" fill="#000080"/>
</g>
<defs>
<clipPath id="clip0_4062_2686">
<rect width="20" height="20" fill="white"/>
</clipPath>
</defs>
</svg>
