<svg width="51" height="51" viewBox="0 0 51 51" fill="none" xmlns="http://www.w3.org/2000/svg">
<rect x="0.578369" y="0.389648" width="50" height="50" rx="25" fill="white"/>
<path d="M23.5784 35.3897C23.0284 35.3897 22.5574 35.1937 22.1654 34.8017C21.7734 34.4097 21.5777 33.939 21.5784 33.3897V24.3897L19.5784 21.3897V20.3897H31.5784V21.3897L29.5784 24.3897V33.3897C29.5784 33.9396 29.3824 34.4107 28.9904 34.8027C28.5984 35.1947 28.1277 35.3903 27.5784 35.3897H23.5784ZM25.5784 28.8897C25.995 28.8897 26.3494 28.7437 26.6414 28.4517C26.9334 28.1597 27.079 27.8057 27.0784 27.3897C27.0784 26.973 26.9324 26.6187 26.6404 26.3267C26.3484 26.0347 25.9944 25.889 25.5784 25.8897C25.1617 25.8897 24.8074 26.0357 24.5154 26.3277C24.2234 26.6196 24.0777 26.9736 24.0784 27.3897C24.0784 27.8063 24.2244 28.1607 24.5164 28.4527C24.8084 28.7446 25.1624 28.8903 25.5784 28.8897ZM19.5784 18.3897V17.3897C19.5784 16.8397 19.7744 16.3686 20.1664 15.9766C20.5584 15.5847 21.029 15.389 21.5784 15.3897H29.5784C30.1284 15.3897 30.5994 15.5857 30.9914 15.9777C31.3834 16.3697 31.579 16.8403 31.5784 17.3897V18.3897H19.5784Z" fill="black"/>
</svg>
