<svg width="275" height="120" viewBox="0 0 275 120" fill="none" xmlns="http://www.w3.org/2000/svg">
<g filter="url(#filter0_d_333_375)">
<path d="M56.0216 61.4193L55.6134 24.2776C55.5966 22.746 56.2543 21.2845 57.4118 20.2813C58.3595 19.4599 59.5716 19.0078 60.8257 19.0078H65.208C66.5006 19.0078 67.7403 19.5213 68.6544 20.4353C69.5684 21.3494 70.0819 22.5891 70.0819 23.8817V61.0574C70.0819 61.5546 69.8844 62.0314 69.5328 62.383C69.1813 62.7345 68.7045 62.932 68.2073 62.932H57.551C57.0138 62.932 56.5159 62.6501 56.2395 62.1894C56.0998 61.9566 56.0246 61.6908 56.0216 61.4193Z" fill="#FEC200"/>
</g>
<circle cx="62.8344" cy="8.24749" r="5.54671" fill="#FEC200" stroke="white" stroke-width="3.40157"/>
<circle cx="62.9443" cy="8.08595" r="3.9685" fill="#FEC200" stroke="black" stroke-width="0.566929"/>
<g filter="url(#filter1_d_333_375)">
<path d="M102.365 12.393L106.96 13.0775C106.973 13.0794 106.986 13.0803 106.999 13.0803H114.355C116.228 13.0803 117.748 14.5936 117.757 16.466L117.946 57.0656C117.956 59.0545 117.566 61.0251 116.801 62.8611C116.116 64.507 115.14 66.0164 113.92 67.3173L113.334 67.9422C112.759 68.556 112.14 69.1278 111.483 69.6534C109.955 70.8756 108.235 71.8354 106.393 72.4935L105.257 72.8989C103.776 73.4281 102.235 73.7749 100.669 73.9315C99.3159 74.0667 97.9526 74.0593 96.6013 73.9091L94.6807 73.6957L93.065 73.3367C91.5125 72.9917 90.0082 72.4576 88.5858 71.7464C87.3814 71.1442 86.2428 70.4185 85.1883 69.5812L80.1227 65.5584C79.6773 65.2048 79.6148 64.552 79.9849 64.1203L86.787 56.1844C87.0275 55.9039 87.4437 55.8564 87.7412 56.0756L90.0753 57.7954C90.9451 58.4364 91.8995 58.9539 92.9112 59.3333C94.2265 59.8266 95.6199 60.0792 97.0246 60.0792H100.61C101.187 60.0792 101.753 59.9324 102.257 59.6526L102.521 59.506C103.104 59.182 103.466 58.5674 103.466 57.9004C103.466 57.889 103.462 57.878 103.456 57.8685L103.293 57.6247C103.124 57.3709 102.851 57.2057 102.548 57.1737L98.8535 56.7849C95.8078 56.4948 92.8476 55.6155 90.1374 54.1959L89.6294 53.9298L88.9651 53.5186C86.3637 51.9082 84.139 49.7572 82.4419 47.2116C81.8172 46.2746 81.2677 45.2896 80.7985 44.2658L80.7429 44.1445C79.6474 41.7544 78.9695 39.1944 78.7384 36.5755L78.6428 35.4918C78.5009 33.884 78.6069 32.264 78.957 30.6884L79.4752 28.3565C79.6556 27.5448 79.9143 26.7525 80.2475 25.9907L80.8164 24.6905C82.1364 21.6732 84.1093 18.9863 86.5928 16.8232L88.3207 15.3182C89.1861 14.5645 90.1797 13.972 91.2543 13.5691C94.7979 12.2402 98.6214 11.8355 102.365 12.393Z" fill="#FEC200" stroke="#FEC200" stroke-width="0.566929"/>
<circle cx="98.1944" cy="34.3834" r="10.6976" fill="white" stroke="black" stroke-width="0.566929"/>
</g>
<g filter="url(#filter2_d_333_375)">
<path d="M28.7274 11.7543L29.245 11.819C30.1134 11.9275 30.9689 12.1216 31.7991 12.3983C33.1542 12.85 34.5733 13.0803 36.0016 13.0803H42.1972C44.862 13.0803 47.0223 15.2406 47.0223 17.9055V55.1644C47.0223 56.8129 46.6848 58.444 46.0304 59.957L45.2239 61.8222C44.0915 64.441 42.4509 66.8091 40.3971 68.7895L39.7959 69.3693C38.1871 70.9206 36.2883 72.1398 34.2081 72.957L33.7967 73.1186C32.0872 73.7902 30.2667 74.135 28.43 74.135H27.3386C25.9815 74.135 24.6399 73.847 23.4024 73.2901L22.9904 73.1047C21.6162 72.4863 20.4441 71.4934 19.6082 70.2396C19.008 69.3392 18.6612 68.2938 18.6043 67.2132L18.569 66.5415C18.5063 65.351 18.8899 64.1799 19.6449 63.2572C20.1713 62.6138 20.8562 62.1185 21.6322 61.82L22.234 61.5886C22.9424 61.3161 23.6893 61.157 24.4473 61.1171L25.8976 61.0408C26.9475 60.9855 27.9895 60.8293 29.0094 60.5743L29.6746 60.4081C29.9605 60.3366 30.2216 60.1888 30.4299 59.9804L30.6104 59.7999C30.9723 59.438 31.0774 58.8923 30.8758 58.4219C30.6786 57.9617 30.2261 57.6634 29.7255 57.6634H26.3779H23.1863C21.3737 57.6634 19.574 57.3593 17.862 56.7639C16.2291 56.1959 14.6976 55.3703 13.3256 54.3184L11.9162 53.2379C9.85483 51.6575 8.03016 49.7904 6.49763 47.6932L5.58912 46.45C4.95584 45.5834 4.43378 44.6408 4.03516 43.6443L3.62802 42.6264C3.12959 41.3803 2.75754 40.0873 2.51746 38.7669C2.17426 36.8794 2.10378 34.9523 2.30817 33.0447L2.31866 32.9467C2.54413 30.8423 3.09053 28.7849 3.93884 26.8458L4.13748 26.3918C5.19428 23.9763 6.64271 21.7518 8.42432 19.8083L10.5652 17.4727L12.4645 15.9086C13.6822 14.9058 15.0249 14.0652 16.4589 13.408C18.5148 12.4657 20.7281 11.9141 22.9857 11.7813L25.336 11.643C26.4675 11.5765 27.6027 11.6137 28.7274 11.7543Z" fill="#FEC200"/>
<circle cx="24.4019" cy="34.3834" r="10.6976" fill="white" stroke="black" stroke-width="0.566929"/>
</g>
<g filter="url(#filter3_d_333_375)">
<path d="M139.483 44.0457V4.009C139.483 3.33987 139.26 2.68983 138.849 2.16165C138.279 1.4287 137.402 1 136.474 1H129.68C128.785 1 127.927 1.3555 127.294 1.98829C126.661 2.62109 126.306 3.47934 126.306 4.37425V57.6622C126.306 58.0261 126.601 58.3211 126.965 58.3211H148.818C149.177 58.3211 149.53 58.2274 149.842 58.0493C150.496 57.6752 150.895 56.9738 150.881 56.22L150.689 45.863C150.685 45.6802 150.63 45.5022 150.528 45.3501C150.351 45.084 150.052 44.9242 149.732 44.9242H148.268H144.315H142.118H140.361C139.876 44.9242 139.483 44.5309 139.483 44.0457Z" fill="#FEC200"/>
<path d="M139.483 44.0457V4.009C139.483 3.33987 139.26 2.68983 138.849 2.16165C138.279 1.4287 137.402 1 136.474 1H129.68C128.785 1 127.927 1.3555 127.294 1.98829C126.661 2.62109 126.306 3.47934 126.306 4.37425V57.6622C126.306 58.0261 126.601 58.3211 126.965 58.3211H148.818C149.177 58.3211 149.53 58.2274 149.842 58.0493C150.496 57.6752 150.895 56.9738 150.881 56.22L150.689 45.863C150.685 45.6802 150.63 45.5022 150.528 45.3501C150.351 45.084 150.052 44.9242 149.732 44.9242H148.268H144.315H142.118H140.361C139.876 44.9242 139.483 44.5309 139.483 44.0457Z" stroke="#FEC200" stroke-width="0.566929"/>
</g>
<g filter="url(#filter4_d_333_375)">
<path d="M165.597 13.0788H156.423C154.663 13.0788 153.306 14.6288 153.538 16.3731L154.856 22.0832L155.434 24.9707C155.78 26.7024 156.284 28.3988 156.94 30.0385L158.15 33.0643L159.963 36.9677C160.657 38.4623 161.477 39.8948 162.415 41.2497L162.982 42.0688L166.716 46.6808L169.666 50.0968C170.454 51.01 170.888 52.1764 170.888 53.383V53.8693C170.888 54.8914 170.482 55.8717 169.76 56.5944L169.294 57.0603C168.747 57.6069 168.159 58.1099 167.533 58.5645L166.43 59.3672C164.617 60.6854 162.434 61.3954 160.193 61.3954H159.155C158.491 61.3954 157.834 61.5221 157.217 61.7686C157.108 61.8122 157.01 61.8774 156.927 61.9604L156.325 62.5624C155.384 63.5026 154.856 64.7779 154.856 66.1076V66.2835C154.856 67.2531 155.115 68.2051 155.607 69.0409L155.991 69.6938C156.687 70.8777 157.669 71.8682 158.847 72.5749L159.03 72.6846C160.603 73.6282 162.425 74.0722 164.255 73.9578L165.91 73.8543C167.605 73.7484 169.268 73.3433 170.822 72.6579L172.217 72.0422C174.68 70.9558 176.932 69.4446 178.87 67.5776L179.889 66.5967C181.206 65.3282 182.4 63.9377 183.455 62.4437L187.14 57.2226L189.402 53.3033C190.089 52.1109 190.691 50.8709 191.203 49.5928L193.07 44.9238L195.047 38.9941L197.023 31.527L198.341 24.9383L199 18.5693V14.1448C199 13.8771 198.938 13.613 198.818 13.3734C198.526 12.7891 197.928 12.4199 197.275 12.4199H186.698C186.014 12.4199 185.375 12.7619 184.995 13.3312C184.817 13.5984 184.705 13.9038 184.666 14.2226L184.066 19.2282L182.968 26.4757L182.308 28.8519C182.021 29.8827 181.453 30.8133 180.667 31.5389L180.288 31.889C179.469 32.6447 178.396 33.0643 177.282 33.0643C176.407 33.0643 175.551 32.8053 174.823 32.32L174.185 31.8943C173.176 31.2218 172.36 30.2977 171.818 29.2134L171.024 27.6262C170.497 26.5708 170.108 25.4514 169.868 24.2961L167.935 14.9811C167.855 14.5973 167.682 14.239 167.432 13.9378C166.978 13.3935 166.306 13.0788 165.597 13.0788Z" fill="#FEC200"/>
<path d="M165.597 13.0788H156.423C154.663 13.0788 153.306 14.6288 153.538 16.3731L154.856 22.0832L155.434 24.9707C155.78 26.7024 156.284 28.3988 156.94 30.0385L158.15 33.0643L159.963 36.9677C160.657 38.4623 161.477 39.8948 162.415 41.2497L162.982 42.0688L166.716 46.6808L169.666 50.0968C170.454 51.01 170.888 52.1764 170.888 53.383V53.8693C170.888 54.8914 170.482 55.8717 169.76 56.5944L169.294 57.0603C168.747 57.6069 168.159 58.1099 167.533 58.5645L166.43 59.3672C164.617 60.6854 162.434 61.3954 160.193 61.3954H159.155C158.491 61.3954 157.834 61.5221 157.217 61.7686C157.108 61.8122 157.01 61.8774 156.927 61.9604L156.325 62.5624C155.384 63.5026 154.856 64.7779 154.856 66.1076V66.2835C154.856 67.2531 155.115 68.2051 155.607 69.0409L155.991 69.6938C156.687 70.8777 157.669 71.8682 158.847 72.5749L159.03 72.6846C160.603 73.6282 162.425 74.0722 164.255 73.9578L165.91 73.8543C167.605 73.7484 169.268 73.3433 170.822 72.6579L172.217 72.0422C174.68 70.9558 176.932 69.4446 178.87 67.5776L179.889 66.5967C181.206 65.3282 182.4 63.9377 183.455 62.4437L187.14 57.2226L189.402 53.3033C190.089 52.1109 190.691 50.8709 191.203 49.5928L193.07 44.9238L195.047 38.9941L197.023 31.527L198.341 24.9383L199 18.5693V14.1448C199 13.8771 198.938 13.613 198.818 13.3734C198.526 12.7891 197.928 12.4199 197.275 12.4199H186.698C186.014 12.4199 185.375 12.7619 184.995 13.3312C184.817 13.5984 184.705 13.9038 184.666 14.2226L184.066 19.2282L182.968 26.4757L182.308 28.8519C182.021 29.8827 181.453 30.8133 180.667 31.5389L180.288 31.889C179.469 32.6447 178.396 33.0643 177.282 33.0643C176.407 33.0643 175.551 32.8053 174.823 32.32L174.185 31.8943C173.176 31.2218 172.36 30.2977 171.818 29.2134L171.024 27.6262C170.497 26.5708 170.108 25.4514 169.868 24.2961L167.935 14.9811C167.855 14.5973 167.682 14.239 167.432 13.9378C166.978 13.3935 166.306 13.0788 165.597 13.0788Z" stroke="#FEC200" stroke-width="0.566929"/>
</g>
<circle cx="24.3936" cy="34.7324" r="4.13858" fill="#FEC200" stroke="black" stroke-width="0.226771"/>
<circle cx="98.0943" cy="34.7324" r="4.13858" fill="#FEC200" stroke="black" stroke-width="0.226771"/>
<rect x="1" y="87.1348" width="109" height="31" rx="15.5" stroke="white" stroke-width="2"/>
<path d="M37.8695 102.635C37.8695 106.555 34.6695 109.635 30.6895 109.635H25.3295V95.6348H30.6895C34.6695 95.6348 37.8695 98.7348 37.8695 102.635ZM30.5095 97.4748H27.4295V107.795H30.5095C33.4295 107.795 35.7495 105.515 35.7495 102.635C35.7495 99.7548 33.4295 97.4748 30.5095 97.4748ZM46.7255 101.235H45.8855C44.5655 101.235 43.6055 102.255 43.6055 103.835V109.635H41.5855V99.4348H43.5855V100.695C44.0855 99.8748 44.9055 99.3548 46.0255 99.3548H46.7255V101.235ZM51.0898 98.0148C50.4098 98.0148 49.8698 97.4748 49.8698 96.7948C49.8698 96.1348 50.4098 95.5948 51.0898 95.5948C51.7498 95.5948 52.2698 96.1348 52.2698 96.7948C52.2698 97.4748 51.7498 98.0148 51.0898 98.0148ZM52.0898 99.4348V109.635H50.0698V99.4348H52.0898ZM59.3342 109.635L54.9742 99.4348H57.1542L60.1942 106.915L63.2342 99.4348H65.3542L61.0342 109.635H59.3342ZM67.3031 104.535C67.3031 101.655 69.5631 99.2348 72.5431 99.2348C75.4831 99.2348 77.6431 101.495 77.6431 104.535V105.195H69.3431C69.6231 106.855 71.0031 108.095 72.7231 108.095C73.9031 108.095 74.9031 107.615 75.6631 106.595L77.1231 107.675C76.1031 109.035 74.5831 109.855 72.7231 109.855C69.6631 109.855 67.3031 107.575 67.3031 104.535ZM72.5031 100.995C71.0031 100.995 69.7431 102.035 69.3831 103.595H75.6031C75.2631 102.035 74.0031 100.995 72.5031 100.995ZM86.3661 101.235H85.5261C84.2061 101.235 83.2461 102.255 83.2461 103.835V109.635H81.2261V99.4348H83.2261V100.695C83.7261 99.8748 84.5461 99.3548 85.6661 99.3548H86.3661V101.235Z" fill="#FEC200"/>
<g filter="url(#filter5_d_333_375)">
<path fill-rule="evenodd" clip-rule="evenodd" d="M228.185 37.3846L231.588 30.6397C232.075 29.6741 233.459 29.6892 233.925 30.6651L237.133 37.3846H228.185ZM224.573 44.5443L215.099 63.3238C214.767 63.9819 214.093 64.3969 213.355 64.3969H207.962C206.508 64.3969 205.559 62.8741 206.208 61.5734C207.757 58.4681 209.438 55.064 211.178 51.5398C220.155 33.3649 230.707 12 232.782 12C235.683 11.999 250.977 43.5015 259.478 61.6319C260.084 62.9249 259.135 64.3969 257.707 64.3969H255.4H251.262C250.51 64.3969 249.824 63.9646 249.5 63.2856L240.552 44.5443H224.573Z" fill="white"/>
</g>
<g filter="url(#filter6_d_333_375)">
<path d="M263.939 63.0696L263.676 16.6718C263.668 15.2727 264.188 13.9219 265.131 12.8885C265.648 12.3225 266.379 12 267.145 12H268.565H269.768C270.653 12 271.476 12.4521 271.951 13.1986C272.49 14.0457 272.776 15.029 272.776 16.0331V62.8776C272.776 63.1571 272.713 63.4329 272.591 63.6842C272.282 64.3189 271.638 64.7217 270.932 64.7217H265.6C264.862 64.7217 264.212 64.2345 264.005 63.5257C263.962 63.3775 263.94 63.224 263.939 63.0696Z" fill="white"/>
</g>
<defs>
<filter id="filter0_d_333_375" x="55.6133" y="19.0078" width="16.7365" height="46.1915" filterUnits="userSpaceOnUse" color-interpolation-filters="sRGB">
<feFlood flood-opacity="0" result="BackgroundImageFix"/>
<feColorMatrix in="SourceAlpha" type="matrix" values="0 0 0 0 0 0 0 0 0 0 0 0 0 0 0 0 0 0 127 0" result="hardAlpha"/>
<feOffset dx="2.26771" dy="2.26771"/>
<feComposite in2="hardAlpha" operator="out"/>
<feColorMatrix type="matrix" values="0 0 0 0 1 0 0 0 0 1 0 0 0 0 1 0 0 0 1 0"/>
<feBlend mode="normal" in2="BackgroundImageFix" result="effect1_dropShadow_333_375"/>
<feBlend mode="normal" in="SourceGraphic" in2="effect1_dropShadow_333_375" result="shape"/>
</filter>
<filter id="filter1_d_333_375" x="78.2983" y="11.3003" width="41.6324" height="63.0103" filterUnits="userSpaceOnUse" color-interpolation-filters="sRGB">
<feFlood flood-opacity="0" result="BackgroundImageFix"/>
<feColorMatrix in="SourceAlpha" type="matrix" values="0 0 0 0 0 0 0 0 0 0 0 0 0 0 0 0 0 0 127 0" result="hardAlpha"/>
<feOffset dx="1.70079" dy="-0.566929"/>
<feComposite in2="hardAlpha" operator="out"/>
<feColorMatrix type="matrix" values="0 0 0 0 1 0 0 0 0 1 0 0 0 0 1 0 0 0 1 0"/>
<feBlend mode="normal" in2="BackgroundImageFix" result="effect1_dropShadow_333_375"/>
<feBlend mode="normal" in="SourceGraphic" in2="effect1_dropShadow_333_375" result="shape"/>
</filter>
<filter id="filter2_d_333_375" x="2.19385" y="11.0444" width="47.0963" height="63.0904" filterUnits="userSpaceOnUse" color-interpolation-filters="sRGB">
<feFlood flood-opacity="0" result="BackgroundImageFix"/>
<feColorMatrix in="SourceAlpha" type="matrix" values="0 0 0 0 0 0 0 0 0 0 0 0 0 0 0 0 0 0 127 0" result="hardAlpha"/>
<feOffset dx="2.26771" dy="-0.566929"/>
<feComposite in2="hardAlpha" operator="out"/>
<feColorMatrix type="matrix" values="0 0 0 0 1 0 0 0 0 1 0 0 0 0 1 0 0 0 1 0"/>
<feBlend mode="normal" in2="BackgroundImageFix" result="effect1_dropShadow_333_375"/>
<feBlend mode="normal" in="SourceGraphic" in2="effect1_dropShadow_333_375" result="shape"/>
</filter>
<filter id="filter3_d_333_375" x="123.754" y="0.716797" width="27.4103" height="60.1564" filterUnits="userSpaceOnUse" color-interpolation-filters="sRGB">
<feFlood flood-opacity="0" result="BackgroundImageFix"/>
<feColorMatrix in="SourceAlpha" type="matrix" values="0 0 0 0 0 0 0 0 0 0 0 0 0 0 0 0 0 0 127 0" result="hardAlpha"/>
<feOffset dx="-2.26771" dy="2.26771"/>
<feComposite in2="hardAlpha" operator="out"/>
<feColorMatrix type="matrix" values="0 0 0 0 1 0 0 0 0 1 0 0 0 0 1 0 0 0 1 0"/>
<feBlend mode="normal" in2="BackgroundImageFix" result="effect1_dropShadow_333_375"/>
<feBlend mode="normal" in="SourceGraphic" in2="effect1_dropShadow_333_375" result="shape"/>
</filter>
<filter id="filter4_d_333_375" x="150.961" y="10.4359" width="48.3219" height="63.8238" filterUnits="userSpaceOnUse" color-interpolation-filters="sRGB">
<feFlood flood-opacity="0" result="BackgroundImageFix"/>
<feColorMatrix in="SourceAlpha" type="matrix" values="0 0 0 0 0 0 0 0 0 0 0 0 0 0 0 0 0 0 127 0" result="hardAlpha"/>
<feOffset dx="-2.26771" dy="-1.70079"/>
<feComposite in2="hardAlpha" operator="out"/>
<feColorMatrix type="matrix" values="0 0 0 0 1 0 0 0 0 1 0 0 0 0 1 0 0 0 1 0"/>
<feBlend mode="normal" in2="BackgroundImageFix" result="effect1_dropShadow_333_375"/>
<feBlend mode="normal" in="SourceGraphic" in2="effect1_dropShadow_333_375" result="shape"/>
</filter>
<filter id="filter5_d_333_375" x="204.047" y="10.0473" width="55.6167" height="54.3491" filterUnits="userSpaceOnUse" color-interpolation-filters="sRGB">
<feFlood flood-opacity="0" result="BackgroundImageFix"/>
<feColorMatrix in="SourceAlpha" type="matrix" values="0 0 0 0 0 0 0 0 0 0 0 0 0 0 0 0 0 0 127 0" result="hardAlpha"/>
<feOffset dx="-1.95266" dy="-1.95266"/>
<feComposite in2="hardAlpha" operator="out"/>
<feColorMatrix type="matrix" values="0 0 0 0 0.996078 0 0 0 0 0.760784 0 0 0 0 0 0 0 0 1 0"/>
<feBlend mode="normal" in2="BackgroundImageFix" result="effect1_dropShadow_333_375"/>
<feBlend mode="normal" in="SourceGraphic" in2="effect1_dropShadow_333_375" result="shape"/>
</filter>
<filter id="filter6_d_333_375" x="263.676" y="12" width="10.5761" height="54.1987" filterUnits="userSpaceOnUse" color-interpolation-filters="sRGB">
<feFlood flood-opacity="0" result="BackgroundImageFix"/>
<feColorMatrix in="SourceAlpha" type="matrix" values="0 0 0 0 0 0 0 0 0 0 0 0 0 0 0 0 0 0 127 0" result="hardAlpha"/>
<feOffset dx="1.47602" dy="1.47602"/>
<feComposite in2="hardAlpha" operator="out"/>
<feColorMatrix type="matrix" values="0 0 0 0 0.996078 0 0 0 0 0.760784 0 0 0 0 0 0 0 0 1 0"/>
<feBlend mode="normal" in2="BackgroundImageFix" result="effect1_dropShadow_333_375"/>
<feBlend mode="normal" in="SourceGraphic" in2="effect1_dropShadow_333_375" result="shape"/>
</filter>
</defs>
</svg>
