<svg width="22" height="22" viewBox="0 0 22 22" fill="none" xmlns="http://www.w3.org/2000/svg">
<rect x="0.235352" y="0.422852" width="21" height="21" rx="10.5" fill="#2E7D32" fill-opacity="0.04"/>
<path d="M10.735 8.21444C9.24003 8.21444 8.02669 9.42777 8.02669 10.9228C8.02669 12.4178 9.24003 13.6311 10.735 13.6311C12.23 13.6311 13.4434 12.4178 13.4434 10.9228C13.4434 9.42777 12.23 8.21444 10.735 8.21444ZM10.735 5.5061C7.74503 5.5061 5.31836 7.93277 5.31836 10.9228C5.31836 13.9128 7.74503 16.3394 10.735 16.3394C13.725 16.3394 16.1517 13.9128 16.1517 10.9228C16.1517 7.93277 13.725 5.5061 10.735 5.5061ZM10.735 15.2561C8.34086 15.2561 6.40169 13.3169 6.40169 10.9228C6.40169 8.5286 8.34086 6.58944 10.735 6.58944C13.1292 6.58944 15.0684 8.5286 15.0684 10.9228C15.0684 13.3169 13.1292 15.2561 10.735 15.2561Z" fill="#2E7D32" fill-opacity="0.5"/>
</svg>
