<svg width="14" height="10" viewBox="0 0 14 10" fill="none" xmlns="http://www.w3.org/2000/svg">
<g id="hand-money-dollar-coin-icon 10" clip-path="url(#clip0_3830_1570)">
<g id="Group">
<path id="Vector" fill-rule="evenodd" clip-rule="evenodd" d="M0.261719 4.24932H2.98523V9.01781H0.261719V4.24932ZM9.22639 0C10.5646 0 11.6516 1.06746 11.6516 2.3864C11.6516 3.70318 10.5668 4.7728 9.22639 4.7728C7.88821 4.7728 6.80122 3.70534 6.80122 2.3864C6.80232 1.06962 7.88712 0 9.22639 0ZM9.51267 2.97571C9.51267 2.88613 9.49073 2.81597 9.44576 2.76525C9.40079 2.71452 9.32181 2.66595 9.20884 2.62169C9.09696 2.57636 8.99275 2.53103 8.89733 2.48462C8.8019 2.43821 8.71964 2.38424 8.65053 2.32272C8.58143 2.26228 8.52878 2.19104 8.49149 2.11117C8.45529 2.0313 8.43664 1.93416 8.43664 1.81975C8.43664 1.62871 8.50246 1.47113 8.63298 1.34808C8.76351 1.22396 8.93791 1.15165 9.15619 1.13222V0.874258H9.4304V1.13761C9.6399 1.16784 9.80553 1.2531 9.92509 1.39234C10.0446 1.53157 10.1061 1.70858 10.1061 1.92337H9.52364C9.52364 1.80572 9.5006 1.71614 9.45453 1.65246C9.40846 1.58985 9.34375 1.55747 9.25819 1.55747C9.18251 1.55747 9.12328 1.58122 9.0816 1.62763C9.03992 1.67404 9.01908 1.7388 9.01908 1.82191C9.01908 1.9061 9.04321 1.97194 9.09147 2.02051C9.13973 2.07016 9.21761 2.11657 9.32401 2.1619C9.4315 2.20615 9.53131 2.25256 9.62674 2.30113C9.72107 2.3497 9.80334 2.40367 9.87244 2.46411C9.94154 2.52563 9.99529 2.59687 10.0337 2.67782C10.0732 2.75877 10.0929 2.85699 10.0929 2.97032C10.0929 3.16352 10.0304 3.3211 9.90644 3.44306C9.7814 3.56503 9.61248 3.63627 9.3975 3.65677V3.89638H9.12438V3.65461C8.87429 3.62871 8.68124 3.54452 8.54852 3.40097C8.41471 3.2585 8.3478 3.06962 8.3478 2.8354H8.92694C8.92694 2.96492 8.95546 3.06206 9.01359 3.13006C9.07063 3.19698 9.15399 3.23044 9.26039 3.23044C9.33827 3.23044 9.39969 3.20777 9.44466 3.16136C9.48963 3.11819 9.51267 3.05451 9.51267 2.97571ZM3.53366 8.61738V4.63141H5.35555C6.12775 4.7674 6.89994 5.17971 7.67213 5.65785H9.08708C9.72765 5.69563 10.0633 6.33459 9.44027 6.75445C8.94449 7.11279 8.28966 7.09228 7.61838 7.03292C7.15551 7.01025 7.13576 7.62223 7.61838 7.62439C7.7862 7.63734 7.96828 7.59849 8.12733 7.59849C8.96533 7.59741 9.65416 7.43983 10.0765 6.78899L10.2881 6.30221L12.393 5.27577C13.446 4.9347 14.1941 6.01835 13.4186 6.7728C11.894 7.864 10.3309 8.76201 8.7317 9.48732C7.57012 10.1824 6.40854 10.1587 5.24806 9.48732L3.53366 8.61738Z" fill="black" fill-opacity="0.6"/>
</g>
</g>
<defs>
<clipPath id="clip0_3830_1570">
<rect width="13.4783" height="10" fill="white" transform="translate(0.261719)"/>
</clipPath>
</defs>
</svg>
