<svg width="19" height="18" viewBox="0 0 19 18" fill="none" xmlns="http://www.w3.org/2000/svg">
<g id="Group 1261156547">
<g id="Group">
<path id="Vector" fill-rule="evenodd" clip-rule="evenodd" d="M9.0791 0C4.11563 0 0.0791016 4.03653 0.0791016 9C0.0791016 13.9635 4.11563 18 9.0791 18C14.0426 18 18.0791 13.9635 18.0791 9C18.0791 4.03653 14.0426 0 9.0791 0ZM9.0791 1.19999C13.3942 1.19999 16.8837 4.68486 16.8837 9C16.8837 13.3151 13.3942 16.8046 9.0791 16.8046C4.76397 16.8046 1.27909 13.3151 1.27909 9C1.27909 4.68486 4.76397 1.19999 9.0791 1.19999ZM9.03338 3.60346C8.4703 3.6114 7.93039 3.77856 7.47128 4.07098C6.85899 4.46103 6.38274 5.07555 6.18224 5.82421C6.16858 5.87485 6.16176 5.92708 6.16176 5.97947C6.16176 6.30919 6.43306 6.58049 6.76278 6.58049C7.03409 6.58049 7.27348 6.39682 7.34349 6.13473C7.46493 5.68134 7.74513 5.31939 8.11343 5.08475C8.48173 4.85012 8.9321 4.74662 9.39422 4.82806C9.8565 4.90965 10.244 5.15889 10.5099 5.50544C10.7758 5.85199 10.9141 6.29173 10.8731 6.75941C10.8323 7.22692 10.6198 7.6338 10.2978 7.92892C10.1369 8.07639 9.94873 8.19673 9.74347 8.27801C9.64092 8.31865 9.53535 8.35055 9.4247 8.37183C9.31421 8.3931 9.19642 8.40231 9.0791 8.40231C8.7516 8.40358 8.48268 8.6725 8.48141 9V11.4011C8.48125 11.4055 8.48125 11.41 8.48125 11.4144C8.48125 11.7437 8.75224 12.0147 9.08132 12.0147C9.41057 12.0147 9.68156 11.7437 9.68156 11.4144C9.68156 11.41 9.68156 11.4055 9.6814 11.4011V9.54023C9.85491 9.50482 10.0249 9.45418 10.1865 9.39021C10.5293 9.25432 10.84 9.0589 11.1076 8.81363C11.6428 8.32325 12.0009 7.63809 12.0685 6.86593C12.136 6.09393 11.9045 5.3513 11.4626 4.77535C11.0208 4.19941 10.365 3.78491 9.60171 3.65029C9.41089 3.61664 9.22102 3.60076 9.03338 3.60346ZM9.08132 13.2023C8.75224 13.2023 8.48141 13.4731 8.48141 13.8023C8.48141 14.1314 8.75224 14.4023 9.08132 14.4023C9.41057 14.4023 9.6814 14.1314 9.6814 13.8023C9.6814 13.4731 9.41057 13.2023 9.08132 13.2023Z" fill="black"/>
</g>
</g>
</svg>
