<svg width="32" height="20" viewBox="0 0 32 20" fill="none" xmlns="http://www.w3.org/2000/svg">
<path fill-rule="evenodd" clip-rule="evenodd" d="M8.40078 16.222C8.49567 16.3192 8.59149 16.4142 8.74362 16.5629C8.81994 16.6411 8.89704 16.7165 9.00366 16.8189C9.03314 16.8457 9.03939 16.8522 9.10807 16.9249C9.13119 16.9493 9.14887 16.9678 9.15809 16.9769C9.36863 17.187 9.61072 17.3629 9.87417 17.4975C10.1413 17.6332 10.4277 17.7274 10.7229 17.7767C11.0527 17.8315 11.3862 17.8612 11.7311 17.8655C11.832 17.8683 11.876 17.8695 11.9307 17.8708C12.0408 17.8733 12.132 17.8746 12.2186 17.8746H25.18L25.1819 18.575V17.8746H25.7822C25.9146 17.8746 26.0236 17.8723 26.2795 17.8653C26.6146 17.8612 26.9489 17.8315 27.2789 17.7767C27.5733 17.7276 27.8584 17.6336 28.1255 17.4974C28.3901 17.363 28.6318 17.1876 28.8398 16.9793C29.0504 16.7671 29.2274 16.5241 29.3605 16.2668C29.4959 15.9966 29.5908 15.7079 29.6412 15.4168C29.695 15.0865 29.7241 14.7527 29.7286 14.4062C29.734 14.225 29.7367 14.0676 29.7367 13.9178V6.71538L29.7368 6.42497L29.7352 6.29729C29.733 6.11075 29.7316 6.02919 29.7283 5.91491C29.7241 5.58031 29.695 5.24648 29.6423 4.92294C29.5908 4.62511 29.4959 4.33646 29.3635 4.07207C29.2279 3.80754 29.0519 3.56581 28.8415 3.35538C28.6318 3.14541 28.3901 2.96999 28.1243 2.83506C27.8584 2.69947 27.5733 2.60545 27.2752 2.55566C26.9478 2.49917 26.6162 2.46976 26.2687 2.46749C26.0236 2.46068 25.9146 2.45842 25.7822 2.45842H12.2168C12.1301 2.45842 12.0389 2.4597 11.9288 2.46226L11.7142 2.46775C11.3827 2.46978 11.052 2.49917 10.7214 2.5563C10.4258 2.60564 10.1395 2.69982 9.87372 2.83483C9.60885 2.97016 9.36676 3.14606 9.14209 3.36988C9.06748 3.44973 9.03782 3.48099 9.01222 3.50536C8.91089 3.60096 8.82393 3.68593 8.72967 3.78219C8.57669 3.93143 8.49105 4.01628 8.39303 4.11703L6.02932 6.48169C5.99102 6.51319 5.97579 6.52816 5.95899 6.54475L5.9038 6.59945C5.78558 6.71502 5.73752 6.76283 5.67624 6.82681L3.58153 8.92007L3.56055 8.94076L3.53751 8.96376L3.48992 9.01183C3.43962 9.06289 3.414 9.08879 3.38687 9.11572C3.31208 9.19051 3.28135 9.22214 3.24791 9.25961C3.06863 9.43581 2.93411 9.58453 2.80985 9.74164L2.75869 9.79947C2.72825 9.83028 2.70265 9.86545 2.68271 9.90378C2.63469 10.0751 2.63455 10.2564 2.68229 10.4277C2.70509 10.4716 2.73394 10.512 2.76805 10.5479C2.93386 10.7474 3.0735 10.901 3.22704 11.0533L3.26885 11.0959L3.309 11.1368C3.34933 11.1777 3.36494 11.1935 3.38697 11.2156C3.41675 11.2451 3.44097 11.2696 3.4919 11.3212C3.54118 11.3712 3.56133 11.3915 3.58854 11.4185L5.67241 13.5053L5.87641 13.7045L6.01262 13.8392C6.03703 13.8594 6.06021 13.8811 6.08204 13.9041L8.40078 16.222ZM25.1819 19.2761L25.18 18.5753V19.2761H12.2186C12.1198 19.2761 12.0182 19.2747 11.8981 19.2719C11.8407 19.2706 11.7943 19.2694 11.7031 19.2668C11.2975 19.2617 10.893 19.2258 10.4925 19.1591C10.0563 19.0863 9.63369 18.9473 9.23796 18.7463C8.84301 18.5445 8.48204 18.2822 8.18224 17.9826C8.15732 17.9591 8.14364 17.9449 8.08951 17.8876L8.04782 17.8437C7.91752 17.719 7.83067 17.6341 7.75285 17.5541C7.6053 17.4101 7.50234 17.308 7.4039 17.2071L5.13854 14.9426L5.06095 14.8692L4.89402 14.7041L4.68695 14.5018L2.59899 12.411C2.56921 12.3814 2.54498 12.357 2.49405 12.3054C2.44478 12.2554 2.42462 12.2351 2.39774 12.2084C2.37075 12.1814 2.35278 12.1632 2.30968 12.1194L2.234 12.0423C2.05794 11.8677 1.89075 11.6844 1.73308 11.493C1.58893 11.3369 1.47151 11.158 1.38563 10.9635L1.35975 10.8955C1.20691 10.4216 1.20691 9.91158 1.35975 9.43764L1.38373 9.37402C1.46844 9.17859 1.58651 8.99951 1.73256 8.84476C1.88381 8.65583 2.04647 8.47631 2.21962 8.30722C2.2687 8.253 2.3124 8.20827 2.39764 8.12303C2.42141 8.09944 2.44227 8.07835 2.49207 8.02781L2.5448 7.97456C2.57216 7.94718 2.57239 7.94695 2.59599 7.92375L4.67372 5.8477C4.7385 5.77975 4.7968 5.72176 4.88835 5.63279L4.97417 5.54769C5.0086 5.51368 5.03818 5.48479 5.06749 5.45666L7.39495 3.13329C7.49707 3.02823 7.58966 2.9365 7.7389 2.79119C7.83563 2.69209 7.93604 2.59399 8.0481 2.48828C8.13634 2.39395 8.15517 2.3743 8.16624 2.36424C8.48017 2.05095 8.84114 1.78866 9.23751 1.58615C9.63182 1.38583 10.0544 1.24685 10.4867 1.17469C10.8893 1.1051 11.297 1.06887 11.6906 1.06662C11.7924 1.0638 11.8388 1.06257 11.8962 1.06123C12.0164 1.05844 12.1179 1.05701 12.2168 1.05701H25.7822C25.9318 1.05701 26.0496 1.05945 26.2924 1.06636C26.7017 1.06885 27.1101 1.10507 27.5098 1.17402C27.9455 1.24678 28.3675 1.38594 28.7599 1.58605C29.1565 1.7874 29.5187 2.05032 29.8328 2.36481C30.1461 2.67818 30.4086 3.03854 30.6136 3.43873C30.8104 3.83161 30.9484 4.25125 31.0244 4.69095C31.0894 5.08988 31.1246 5.49308 31.1294 5.88528C31.1328 5.99874 31.1342 6.08596 31.1365 6.28084L31.1382 6.4153V13.9179C31.1382 14.0829 31.1352 14.2537 31.1297 14.4359C31.1246 14.8401 31.0894 15.2433 31.0233 15.6489C30.9484 16.0819 30.8104 16.5015 30.6095 16.9026C30.4067 17.2945 30.1455 17.6533 29.8331 17.9681C29.5187 18.2828 29.1565 18.5458 28.761 18.7465C28.3675 18.9472 27.9455 19.0864 27.5092 19.1592C27.1083 19.2258 26.7031 19.2617 26.3076 19.2665C26.0496 19.2737 25.9318 19.2761 25.7822 19.2761L25.1819 19.2761Z" fill="#4B4B4B" fill-opacity="0.5" stroke="#4B4B4B" stroke-opacity="0.5"/>
</svg>
