<svg width="20" height="21" viewBox="0 0 20 21" fill="none" xmlns="http://www.w3.org/2000/svg">
<circle cx="10" cy="10.4941" r="10" fill="#B8B8B8" fill-opacity="0.57"/>
<circle cx="10" cy="10.4941" r="5" fill="#3D6DFE"/>
<g clip-path="url(#clip0_3029_1085)">
<path d="M10 13.0104C8.83325 11.4879 8.25 10.4046 8.25 9.76038C8.25 9.29625 8.43437 8.85113 8.76256 8.52294C9.09075 8.19475 9.53587 8.01038 10 8.01038C10.4641 8.01038 10.9092 8.19475 11.2374 8.52294C11.5656 8.85113 11.75 9.29625 11.75 9.76038C11.75 10.4046 11.1668 11.4879 10 13.0104ZM10 10.7604C10.2652 10.7604 10.5196 10.655 10.7071 10.4675C10.8946 10.2799 11 10.0256 11 9.76038C11 9.49516 10.8946 9.24081 10.7071 9.05327C10.5196 8.86573 10.2652 8.76038 10 8.76038C9.73478 8.76038 9.48043 8.86573 9.29289 9.05327C9.10536 9.24081 9 9.49516 9 9.76038C9 10.0256 9.10536 10.2799 9.29289 10.4675C9.48043 10.655 9.73478 10.7604 10 10.7604Z" fill="white"/>
</g>
<defs>
<clipPath id="clip0_3029_1085">
<rect width="6" height="6" fill="white" transform="translate(7 7.49414)"/>
</clipPath>
</defs>
</svg>
