<svg width="20" height="20" viewBox="0 0 20 20" fill="none" xmlns="http://www.w3.org/2000/svg">
<g id="Group">
<path id="Vector" d="M17.4088 1.67102L17.4972 1.66602L17.6055 1.67268L17.6805 1.68602L17.783 1.71518L17.8722 1.75352L17.9555 1.80102L18.0305 1.85685L18.0988 1.91935L18.1422 1.96852L18.2105 2.06518L18.2538 2.14518C18.293 2.22852 18.318 2.31685 18.3288 2.40852L18.333 2.49685C18.333 2.55935 18.3263 2.62102 18.313 2.68018L18.2838 2.78268L12.8405 17.8468C12.7373 18.0715 12.5718 18.2618 12.3637 18.3952C12.1556 18.5286 11.9135 18.5994 11.6663 18.5993C11.4437 18.6001 11.2247 18.5431 11.0306 18.434C10.8365 18.3249 10.674 18.1674 10.5588 17.9769L10.5047 17.871L7.71132 12.286L2.15299 9.50602C1.94733 9.41195 1.76996 9.26554 1.63864 9.08143C1.50731 8.89731 1.42663 8.68193 1.40466 8.45685L1.39966 8.33268C1.39966 7.86602 1.65049 7.43935 2.10049 7.19102L2.21716 7.13268L17.2313 1.71102L17.3197 1.68602L17.4088 1.67102Z" fill="black"/>
</g>
</svg>
