<svg width="14" height="17" viewBox="0 0 14 17" fill="none" xmlns="http://www.w3.org/2000/svg">
<path d="M8.57601 8.74145C8.12651 9.19095 7.56524 9.42566 6.92988 9.42586C6.9296 9.42586 6.92931 9.42586 6.92903 9.42586V8.72586L8.57601 8.74145ZM8.57601 8.74145C9.02573 8.29173 9.26038 7.73016 9.2596 7.09444M8.57601 8.74145L9.2596 7.09444M9.2596 7.09444C9.2594 6.45908 9.02468 5.89781 8.57519 5.44832M9.2596 7.09444C9.2596 7.09472 9.2596 7.09501 9.2596 7.09529H8.5596L8.57519 5.44832M8.57519 5.44832C8.12556 4.99869 7.56413 4.76404 6.92856 4.76472M8.57519 5.44832L6.92856 4.76472M6.92856 4.76472C6.29304 4.76483 5.73164 4.99955 5.28206 5.44913C4.83243 5.89876 4.59778 6.4602 4.59846 7.09576M6.92856 4.76472L4.59846 7.09576M6.92856 4.76472C6.92872 4.76472 6.92887 4.76472 6.92903 4.76472V5.46472L6.92856 4.76472ZM4.59846 7.09576C4.59846 7.0956 4.59846 7.09545 4.59846 7.09529H5.29846L4.59846 7.09614C4.59846 7.09601 4.59846 7.09589 4.59846 7.09576ZM6.84871 15.8564L6.60292 16.5119L6.8487 15.8564C6.81084 15.8422 6.78662 15.8274 6.77067 15.815C4.81915 14.0896 3.39092 12.5125 2.46077 11.0848C1.52965 9.65549 1.10674 8.38462 1.10674 7.25835C1.10674 5.38496 1.70184 3.95899 2.84855 2.90163C4.03566 1.807 5.38624 1.273 6.92903 1.273C8.47243 1.273 9.82326 1.80704 11.0103 2.90163C12.157 3.95894 12.7518 5.38482 12.7513 7.25816V7.25835C12.7513 8.38521 12.3284 9.65637 11.3973 11.0856C10.4672 12.5133 9.03894 14.0902 7.08742 15.815C7.07147 15.8274 7.04724 15.8422 7.00936 15.8564C6.97387 15.8697 6.94824 15.873 6.92903 15.873C6.90983 15.873 6.8842 15.8697 6.84871 15.8564Z" stroke="black" stroke-opacity="0.5" stroke-width="1.4"/>
</svg>
