<svg width="10" height="10" viewBox="0 0 10 10" fill="none" xmlns="http://www.w3.org/2000/svg">
<g id="fluent:location-16-filled">
<path id="Vector" d="M5.7225 9.09C6.81188 8.13125 8.75 6.1725 8.75 4.375C8.75 3.38044 8.35491 2.42661 7.65165 1.72335C6.94839 1.02009 5.99456 0.625 5 0.625C4.00544 0.625 3.05161 1.02009 2.34835 1.72335C1.64509 2.42661 1.25 3.38044 1.25 4.375C1.25 6.1725 3.1875 8.13125 4.2775 9.09C4.47632 9.26746 4.7335 9.36554 5 9.36554C5.2665 9.36554 5.52368 9.26746 5.7225 9.09ZM3.75 4.375C3.75 4.04348 3.8817 3.72554 4.11612 3.49112C4.35054 3.2567 4.66848 3.125 5 3.125C5.33152 3.125 5.64946 3.2567 5.88388 3.49112C6.1183 3.72554 6.25 4.04348 6.25 4.375C6.25 4.70652 6.1183 5.02446 5.88388 5.25888C5.64946 5.4933 5.33152 5.625 5 5.625C4.66848 5.625 4.35054 5.4933 4.11612 5.25888C3.8817 5.02446 3.75 4.70652 3.75 4.375Z" fill="#5925DC"/>
</g>
</svg>
