<svg width="31" height="30" viewBox="0 0 31 30" fill="none" xmlns="http://www.w3.org/2000/svg">
<circle cx="15.7837" cy="15.0001" r="15" fill="#009965"/>
<path d="M15.7837 5.00012C11.5837 5.00012 7.78369 8.22012 7.78369 13.2001C7.78369 16.3801 10.2337 20.1201 15.1237 24.4301C15.5037 24.7601 16.0737 24.7601 16.4537 24.4301C21.3337 20.1201 23.7837 16.3801 23.7837 13.2001C23.7837 8.22012 19.9837 5.00012 15.7837 5.00012ZM15.7837 15.0001C14.6837 15.0001 13.7837 14.1001 13.7837 13.0001C13.7837 11.9001 14.6837 11.0001 15.7837 11.0001C16.8837 11.0001 17.7837 11.9001 17.7837 13.0001C17.7837 14.1001 16.8837 15.0001 15.7837 15.0001Z" fill="white"/>
</svg>
