<svg width="41" height="41" viewBox="0 0 41 41" fill="none" xmlns="http://www.w3.org/2000/svg">
<g id="Group 1000006814">
<circle id="Ellipse 1982" cx="20.25" cy="20.3877" r="20" fill="#D9D9D9" fill-opacity="0.46"/>
<path id="Vector" d="M20.25 30.3877C15.583 24.2977 13.25 19.9647 13.25 17.3877C13.25 15.5312 13.9875 13.7507 15.3003 12.4379C16.613 11.1252 18.3935 10.3877 20.25 10.3877C22.1065 10.3877 23.887 11.1252 25.1997 12.4379C26.5125 13.7507 27.25 15.5312 27.25 17.3877C27.25 19.9647 24.917 24.2977 20.25 30.3877ZM20.25 21.3877C21.3109 21.3877 22.3283 20.9663 23.0784 20.2161C23.8286 19.466 24.25 18.4486 24.25 17.3877C24.25 16.3268 23.8286 15.3094 23.0784 14.5593C22.3283 13.8091 21.3109 13.3877 20.25 13.3877C19.1891 13.3877 18.1717 13.8091 17.4216 14.5593C16.6714 15.3094 16.25 16.3268 16.25 17.3877C16.25 18.4486 16.6714 19.466 17.4216 20.2161C18.1717 20.9663 19.1891 21.3877 20.25 21.3877Z" fill="#7A7A7A"/>
</g>
</svg>
