<svg width="13" height="12" viewBox="0 0 13 12" fill="none" xmlns="http://www.w3.org/2000/svg">
<path d="M9.71035 0C10.582 0 11.4205 0.353333 12.0373 0.987333C12.6548 1.62 13 2.47333 13 3.36667V8.63333C13 10.4933 11.5245 12 9.71035 12H3.289C1.47485 12 0 10.4933 0 8.63333V3.36667C0 1.50667 1.46835 0 3.289 0H9.71035ZM10.4455 3.46667C10.309 3.45933 10.179 3.50667 10.0808 3.6L7.15 6C6.773 6.32067 6.23285 6.32067 5.85 6L2.925 3.6C2.72285 3.44667 2.44335 3.46667 2.275 3.64667C2.0995 3.82667 2.08 4.11333 2.22885 4.31333L2.314 4.4L5.2715 6.76667C5.6355 7.06 6.07685 7.22 6.539 7.22C6.99985 7.22 7.449 7.06 7.81235 6.76667L10.7445 4.36L10.7965 4.30667C10.9519 4.11333 10.9519 3.83333 10.7894 3.64C10.699 3.54067 10.5748 3.48 10.4455 3.46667Z" fill="#3D6DFE"/>
</svg>
