<svg width="26" height="26" viewBox="0 0 26 26" fill="none" xmlns="http://www.w3.org/2000/svg">
<g id="zondicons:minus-solid" clip-path="url(#clip0_2147_3529)">
<path id="Vector" d="M13 26C9.55219 26 6.24558 24.6304 3.80761 22.1924C1.36964 19.7544 0 16.4478 0 13C0 9.55219 1.36964 6.24558 3.80761 3.80761C6.24558 1.36964 9.55219 0 13 0C16.4478 0 19.7544 1.36964 22.1924 3.80761C24.6304 6.24558 26 9.55219 26 13C26 16.4478 24.6304 19.7544 22.1924 22.1924C19.7544 24.6304 16.4478 26 13 26ZM19.5 11.7H6.5V14.3H19.5V11.7Z" fill="#707072" fill-opacity="0.3"/>
</g>
<defs>
<clipPath id="clip0_2147_3529">
<rect width="26" height="26" fill="white"/>
</clipPath>
</defs>
</svg>
