<svg width="143" height="118" viewBox="0 0 143 118" fill="none" xmlns="http://www.w3.org/2000/svg">
<path opacity="0.15" d="M66.7726 20.8932C72.7168 18.7895 79.2825 17.8851 85.3415 19.6313C89.8982 20.945 97.5093 32.3991 95.3375 46.0209C94.4027 51.8829 98.5808 57.9559 104.178 61.4606C106.83 63.1212 110.236 62.8571 113.235 63.2671C119.885 64.1767 126.518 68.9314 127.289 75.5995C128.034 82.0403 122.926 89.6218 119.033 94.3929C109.009 106.679 91.2241 113.336 75.9824 106.652C68.5919 103.412 62.1424 96.5522 56.9781 90.4939C51.5646 84.1429 49.1252 75.6478 48.7194 67.4319C48.2162 57.2456 50.5161 47.2048 53.0471 37.4103C54.9813 29.9262 59.1921 23.5759 66.7726 20.8932Z" fill="#E69784"/>
<path opacity="0.15" d="M48.6174 80.8948C47.9367 78.7365 47.1185 76.5647 45.6594 74.8351C43.6361 72.437 40.6169 71.1522 37.6829 70.0404C34.9629 69.0096 32.1831 68.0481 29.2902 67.7467C21.8109 66.9679 14.0554 71.1261 10.5646 77.7861C9.41275 79.9834 8.77243 82.8652 10.3169 84.8067C10.992 85.6555 11.9834 86.1799 12.9453 86.6807C16.1772 88.3633 19.409 90.0458 22.6409 91.7284C26.0172 93.4862 29.849 95.925 29.9949 99.7286C30.1368 103.435 27.8279 106.66 31.2922 109.659C33.6235 111.677 37.947 112.383 40.9123 111.676C47.4728 110.113 50.198 101.181 50.6695 95.3462C51.0645 90.4541 50.0832 85.542 48.6174 80.8948Z" fill="#E69784"/>
<path opacity="0.15" d="M47.1614 26.5707C49.5831 19.7976 47.2762 5.83581 40.9792 1.67826C38.0574 -0.250706 35.1237 -0.43271 31.8904 0.702814C28.9356 1.7409 25.9908 3.28706 23.5771 5.29572C21.4571 7.06008 19.9899 9.47798 18.7688 11.9168C16.4521 16.5434 14.4828 22.4678 9.31359 24.6497C7.32895 25.4874 5.06417 25.6259 3.2135 26.7283C-0.943358 29.2051 -0.916214 35.8477 2.42354 39.0399C5.29245 41.7821 9.97828 42.666 13.7795 42.6079C27.427 42.3995 42.6736 39.1224 47.1614 26.5707Z" fill="#E69784"/>
<path opacity="0.15" d="M118.284 58.4689C125.372 59.6946 138.732 55.03 141.749 48.1135C143.149 44.9042 142.826 41.9828 141.153 38.9921C139.624 36.2589 137.596 33.6221 135.204 31.5884C133.102 29.8021 130.469 28.7706 127.857 27.9855C122.902 26.4957 116.728 25.5704 113.693 20.8512C112.528 19.0395 112.003 16.8318 110.6 15.1976C107.448 11.5262 100.908 12.6913 98.3348 16.5283C96.1246 19.8246 96.0564 24.5925 96.765 28.3276C99.3085 41.7381 105.149 56.1979 118.284 58.4689Z" fill="#E69784"/>
<path d="M36.3804 94.5884C35.3956 94.5884 34.5969 95.387 34.5969 96.3719C34.5969 97.3571 35.3956 98.1554 36.3804 98.1554C37.3656 98.1554 38.1639 97.3567 38.1639 96.3719C38.1639 95.3867 37.3653 94.5884 36.3804 94.5884ZM36.3804 97.5297C35.7411 97.5297 35.2226 97.0112 35.2226 96.3719C35.2226 95.7326 35.7408 95.2141 36.3804 95.2141C37.02 95.2141 37.5382 95.7323 37.5382 96.3719C37.5379 97.0112 37.0197 97.5297 36.3804 97.5297Z" fill="#E69784"/>
<path d="M38.6374 94.1601C38.6374 94.4218 38.4252 94.6341 38.1638 94.6341C37.9021 94.6341 37.6902 94.4218 37.6902 94.1601C37.6902 93.8985 37.9021 93.6865 38.1638 93.6865C38.4255 93.6862 38.6374 93.8985 38.6374 94.1601Z" fill="#E69784"/>
<path opacity="0.15" d="M50.2742 26.9624C51.2736 26.929 52.1551 25.9967 52.1322 24.9969C52.1057 23.8422 50.2345 23.2225 49.4473 24.0023C48.483 24.9579 48.6257 27.017 50.2742 26.9624Z" fill="#E69784"/>
<path opacity="0.15" d="M124.52 23.3526C127.122 23.266 129.418 20.838 129.358 18.2346C129.289 15.2275 124.416 13.6138 122.367 15.6451C119.855 18.1326 120.227 23.4953 124.52 23.3526Z" fill="#E69784"/>
<path opacity="0.15" d="M57.7898 117.496C61.4093 117.376 64.6015 113.999 64.5183 110.378C64.4226 106.196 57.6453 103.952 54.7945 106.777C51.3027 110.236 51.8191 117.694 57.7898 117.496Z" fill="#E69784"/>
<path d="M32.9964 12.3688C32.9964 12.3688 29.8606 12.39 29.158 12.3914C28.7641 12.3924 28.7157 11.7629 28.7707 11.599C28.7964 11.5221 28.8577 11.4633 28.9175 11.4083C29.4736 10.8978 30.9436 9.84019 31.0038 9.70447C31.1145 9.45599 29.5951 7.06906 29.7399 5.64957C29.9006 4.07487 31.2725 2.70549 32.9961 2.81581H32.7915C34.5151 2.70549 35.8869 4.07487 36.0477 5.64957C36.1925 7.06871 34.6735 9.45599 34.7838 9.70447C34.8443 9.84019 36.3139 10.8978 36.87 11.4083C36.9299 11.4633 36.9915 11.5221 37.0169 11.599C37.0715 11.7629 37.0235 12.3921 36.6296 12.3914C35.9269 12.3896 32.7911 12.3688 32.7911 12.3688H32.9964Z" stroke="#6676DE" stroke-width="0.906" stroke-miterlimit="10"/>
<path d="M107.901 64.992C107.564 65.0098 107.518 64.439 107.491 64.2789C107.435 63.948 107.379 63.6171 107.323 63.2861C107.279 63.0248 107.272 62.7443 107.011 62.6005C106.587 62.3667 105.873 62.4836 105.803 62.1513C105.716 61.7406 106.562 61.7866 106.781 61.7925C106.995 61.7984 107.409 61.7859 107.462 61.5461C107.508 61.3373 107.46 61.1682 107.462 60.9573C107.465 60.5331 107.482 60.0615 107.532 59.7014C107.582 59.3377 107.757 58.9646 107.901 58.9629C108.071 58.9608 108.265 59.2977 108.32 59.7567C108.36 60.0929 108.393 61.3373 108.439 61.5461C108.492 61.7859 108.807 61.7981 109.021 61.7925C109.24 61.7866 110.087 61.7406 110 62.1513C109.929 62.484 109.215 62.3667 108.791 62.6005C108.53 62.7443 108.523 63.0248 108.479 63.2861C108.423 63.6171 108.367 63.948 108.311 64.2789C108.285 64.439 108.239 65.0098 107.901 64.992Z" stroke="#6676DE" stroke-miterlimit="10"/>
<path d="M123.847 25.0768C123.509 25.0946 123.463 24.5242 123.436 24.3638C123.38 24.0328 123.324 23.7019 123.268 23.3706C123.224 23.1092 123.217 22.8287 122.957 22.685C122.533 22.4512 121.819 22.5684 121.748 22.2357C121.661 21.8251 122.508 21.871 122.726 21.877C122.94 21.8829 123.354 21.8704 123.407 21.6306C123.453 21.4218 123.405 21.2526 123.407 21.0418C123.411 20.6175 123.428 20.146 123.478 19.7858C123.528 19.4222 123.702 19.0491 123.846 19.0474C124.017 19.0453 124.21 19.3822 124.265 19.8412C124.306 20.1773 124.338 21.4218 124.384 21.6306C124.437 21.8704 124.753 21.8825 124.967 21.877C125.185 21.871 126.032 21.8251 125.945 22.2357C125.874 22.5684 125.16 22.4512 124.736 22.685C124.476 22.8287 124.469 23.1092 124.424 23.3706C124.368 23.7015 124.313 24.0325 124.257 24.3638C124.23 24.5242 124.184 25.0946 123.847 25.0768Z" stroke="#6676DE" stroke-miterlimit="10"/>
<path d="M36.2614 25.6818C35.9235 25.6995 35.8779 25.1288 35.8508 24.9687C35.7951 24.6378 35.7391 24.3068 35.6834 23.9756C35.6392 23.7142 35.6322 23.4337 35.3716 23.29C34.9477 23.0561 34.2336 23.1734 34.163 22.8407C34.076 22.4301 34.9227 22.476 35.1412 22.4819C35.3552 22.4875 35.7694 22.4753 35.8223 22.2356C35.8682 22.0268 35.8205 21.8576 35.8223 21.6467C35.8257 21.2225 35.8428 20.751 35.8925 20.3908C35.9427 20.0271 36.117 19.6541 36.2614 19.6524C36.4316 19.6503 36.6254 19.9871 36.6804 20.4461C36.7208 20.7823 36.7535 22.0268 36.7994 22.2356C36.852 22.4753 37.1676 22.4875 37.3816 22.4819C37.6002 22.476 38.4472 22.4301 38.3599 22.8407C38.2892 23.1734 37.5755 23.0561 37.1513 23.29C36.8906 23.4337 36.8837 23.7142 36.8395 23.9756C36.7838 24.3065 36.7277 24.6375 36.6721 24.9687C36.6449 25.1288 36.5993 25.6995 36.2614 25.6818Z" stroke="#6676DE" stroke-miterlimit="10"/>
<path d="M10.663 10.1974C10.3251 10.2152 10.2795 9.64445 10.2524 9.48437C10.1967 9.15342 10.1407 8.82248 10.085 8.49118C10.0408 8.22983 10.0339 7.94934 9.7732 7.80562C9.34934 7.57176 8.63524 7.68904 8.5646 7.35635C8.4776 6.94571 9.32428 6.99165 9.54283 6.99757C9.75685 7.00313 10.171 6.99095 10.2239 6.75118C10.2698 6.54238 10.2221 6.37325 10.2239 6.16236C10.2273 5.73815 10.2444 5.26661 10.2942 4.90643C10.3443 4.54277 10.5186 4.16972 10.663 4.16798C10.8332 4.16589 11.027 4.50241 11.082 4.96177C11.1224 5.29793 11.1551 6.54238 11.201 6.75118C11.2536 6.99095 11.5692 7.00313 11.7832 6.99757C12.0018 6.99165 12.8488 6.94571 12.7615 7.35635C12.6908 7.68904 11.9771 7.57176 11.5529 7.80562C11.2922 7.94934 11.2853 8.22983 11.2411 8.49118C11.1854 8.82213 11.1294 9.15308 11.0737 9.48437C11.0465 9.6448 11.0006 10.2155 10.663 10.1974Z" stroke="#6676DE" stroke-miterlimit="10"/>
<path d="M9.87427 41.9883L19.5643 44.0296" stroke="#6676DE" stroke-miterlimit="10"/>
<path d="M90.1624 66.9342C98.0815 73.2887 110.345 80.2511 111.556 81.3539C112.536 82.2448 114.459 83.5307 114.259 86.5784C114.029 90.0929 111.199 95.7479 104.346 102.352C95.7384 110.649 88.7787 118.342 83.2904 116.5C78.5071 114.894 30.8921 72.8331 30.8921 72.8331C26.7265 69.3792 23.0728 66.2967 19.4192 62.3058C18.3331 61.1198 16.6923 59.3374 15.7631 58.0226C13.443 54.7389 14.0088 52.8472 16.1577 50.8559C17.0246 50.0527 17.7377 51.2728 18.6658 50.5403C26.5309 44.3479 34.4124 38.1435 42.8476 32.7543C43.8171 32.1342 44.8576 31.5057 46.0102 31.4852C47.2171 31.4685 48.3199 32.1258 49.3228 32.7961C50.9501 33.8822 59.2088 41.1147 69.3749 49.1587" fill="#47549B"/>
<path d="M90.1623 66.9342C98.0813 73.2887 110.307 80.295 111.556 81.3539C115.696 84.8628 116.339 89.5027 104.346 102.352C97.0909 110.125 87.7722 118.226 83.2903 116.499C78.5836 114.681 30.8919 72.8328 30.8919 72.8328C26.7264 69.3789 23.0727 66.2963 19.4191 62.3055C18.333 61.1195 16.7304 59.3092 15.763 58.0223C13.9102 55.5577 14.0446 53.9019 15.0687 52.1759C17.3742 48.2908 34.4123 38.1435 42.8475 32.7543C43.817 32.1342 44.8575 31.5057 46.0101 31.4852C47.217 31.4685 48.3198 32.1258 49.3227 32.7961C50.95 33.8822 59.2087 41.1147 69.3748 49.1587" stroke="#444C73" stroke-width="0.9794" stroke-miterlimit="10"/>
<path d="M90.1623 64.9933C98.0813 71.3478 109.07 79.2101 110.281 80.3129C111.336 81.272 113.525 83.4853 113.084 86.7224C112.644 89.9595 109.573 94.2201 103.45 100.436C95.9888 108.012 87.7722 116.286 83.2903 114.559C78.5836 112.74 30.8919 70.8919 30.8919 70.8919C26.7264 67.438 22.8023 63.697 19.1483 59.7061C18.0622 58.5201 16.9845 57.2882 16.3351 55.8151C15.6819 54.3462 15.5069 52.5819 16.2394 51.1502C16.7764 50.0975 17.7375 49.3315 18.6657 48.5993C26.5308 42.407 34.4123 36.2025 42.8475 30.8134C43.817 30.1933 44.8575 29.5651 46.0101 29.5443C47.217 29.5276 48.3198 30.1849 49.3227 30.8552C50.95 31.9413 59.3256 39.8715 69.4921 47.9155" fill="#6676DE"/>
<path opacity="0.2" d="M84.7505 114.559C80.0442 112.74 32.3522 70.8923 32.3522 70.8923C28.1866 67.4384 24.2622 63.6971 20.6086 59.7066C19.5225 58.5206 18.4447 57.2887 17.7957 55.8156C17.1421 54.3467 16.9678 52.5823 17.7 51.1507C18.2369 50.098 19.1981 49.332 20.1262 48.5998C27.9914 42.4075 35.8729 36.203 44.3081 30.8139C45.0844 30.3173 45.9075 29.821 46.7963 29.63C46.5391 29.5747 46.2777 29.5409 46.0108 29.5447C44.8579 29.5656 43.8177 30.1937 42.8482 30.8139C34.413 36.203 26.5312 42.4075 18.6664 48.5998C17.7383 49.3324 16.7771 50.098 16.2401 51.1507C15.5079 52.5823 15.6823 54.3467 16.3358 55.8156C16.9852 57.2887 18.0629 58.5206 19.149 59.7066C22.8027 63.6974 26.7267 67.4384 30.8927 70.8923C30.8927 70.8923 78.5843 112.741 83.291 114.559C83.9223 114.802 84.6371 114.847 85.4145 114.733C85.1852 114.693 84.9621 114.64 84.7505 114.559Z" fill="#DFE4F2"/>
<path d="M88.7791 66.2042L107.697 81.3154C108.687 82.1067 109.064 83.4434 108.624 84.6325C108.449 85.1072 108.226 85.6873 107.942 86.3944C106.288 90.5238 89.0645 111.234 83.3719 109.354C78.8649 107.868 63.8425 95.5782 63.8425 95.5782L34.1539 69.2339C30.0068 64.7774 24.3264 61.3005 20.932 56.1355C20.3049 55.4026 20.3251 54.2876 20.7298 53.4155C21.1345 52.5393 21.8545 51.8544 22.5665 51.1974C28.89 45.335 37.8517 39.2457 44.9683 34.3434C46.2914 33.4313 48.1605 32.9455 50.5113 34.7137L69.4094 49.8927" fill="#DFE4F2"/>
<path d="M85.5704 61.2815C93.4895 67.636 109.07 79.2101 110.281 80.3129C111.446 81.3719 113.851 83.8239 112.912 87.718C112.151 90.8789 108.873 94.9303 103.45 100.436C95.9895 108.012 87.7722 116.286 83.2903 114.559C78.5836 112.74 30.8919 70.8919 30.8919 70.8919C26.7264 67.438 22.8023 63.697 19.1483 59.7061C18.0622 58.5201 16.9845 57.2882 16.3351 55.8151C15.6819 54.3462 15.5069 52.5819 16.2394 51.1502C16.7764 50.0975 17.7375 49.3315 18.6657 48.5993C26.5308 42.407 34.4123 36.2025 42.8475 30.8134C43.817 30.1933 44.8575 29.5651 46.0101 29.5443C47.217 29.5276 48.3198 30.1849 49.3227 30.8552C50.95 31.9413 75.6103 53.4031 85.7768 61.4472" stroke="#444C73" stroke-width="0.9794" stroke-miterlimit="10"/>
<path d="M84.6612 62.7893L107.697 81.3154C108.687 82.1067 109.064 83.4434 108.624 84.6325C108.449 85.1072 108.226 85.6873 107.942 86.3944C106.288 90.5238 89.0645 111.234 83.3719 109.354C78.8649 107.868 63.8425 95.5782 63.8425 95.5782L34.1539 69.2339C30.0068 64.7774 24.3264 61.3005 20.932 56.1355C20.3049 55.4026 20.3251 54.2876 20.7298 53.4155C21.1345 52.5393 21.8545 51.8544 22.5665 51.1974C28.89 45.335 37.8517 39.2457 44.9683 34.3434C46.2914 33.4313 48.1605 32.9455 50.5113 34.7137L69.4094 49.8927L84.6612 62.7893Z" stroke="#444C73" stroke-width="0.9448" stroke-miterlimit="10"/>
<path opacity="0.15" d="M92.9857 68.4281L69.2862 49.7113L50.5735 34.8082C48.4647 33.2353 46.3276 33.103 44.392 34.4254L43.308 35.1656C36.412 39.872 27.8297 45.7295 21.7431 51.3243C20.9212 52.0767 20.2053 52.7748 19.7738 53.7022C19.2365 54.8499 19.3385 56.118 20.031 56.9445C22.1708 60.1631 25.1991 62.747 28.1279 65.2457C29.9361 66.7887 31.8059 68.3846 33.4015 70.0846L63.3932 96.4759C64.0147 96.9801 78.6686 108.842 83.2508 110.34C83.5351 110.433 83.8423 110.478 84.1712 110.478C91.0703 110.477 107.161 90.7976 108.66 87.0879C108.922 86.4417 109.155 85.8445 109.353 85.3131C109.874 83.9162 109.433 82.3513 92.9857 68.4281ZM108.399 84.9578C108.204 85.4808 107.974 86.069 107.717 86.7068C106.921 88.6765 102.151 94.8984 96.9595 100.277C90.7693 106.691 85.7644 110.094 83.5671 109.373C79.1628 107.934 64.1852 95.8084 64.0499 95.6992L34.1274 69.3709C32.497 67.6364 30.6119 66.0276 28.7888 64.4721C25.9059 62.0121 22.925 59.4685 20.8631 56.3571L20.8244 56.3056C20.3115 55.7115 20.3905 54.7865 20.6967 54.1327C21.0496 53.3747 21.6906 52.7525 22.4315 52.0742C28.4648 46.5285 37.0134 40.6939 43.8822 36.006L44.9669 35.2655C46.5535 34.1811 48.1887 34.2977 49.9527 35.6138L68.6135 50.4759L68.6132 50.4762L107.625 82.2169C108.454 82.8743 108.765 83.9754 108.399 84.9578Z" fill="#4455B0"/>
<path d="M31.0404 42.3437C30.8762 42.3437 30.7147 42.2665 30.6127 42.122C30.4471 41.8861 30.5038 41.5607 30.7397 41.3947L34.8799 38.4837C35.1148 38.318 35.4405 38.3744 35.6072 38.6104C35.7729 38.8463 35.7161 39.1717 35.4802 39.3377L31.34 42.2487C31.2492 42.3127 31.1445 42.3437 31.0404 42.3437Z" fill="#444C73"/>
<path d="M30.0611 42.7271C30.0364 42.6387 29.9915 42.5618 29.9268 42.4967L29.821 42.4149C29.7396 42.3676 29.6519 42.3439 29.5576 42.3436H29.4149C29.3429 42.3408 29.2761 42.3558 29.2138 42.3885C29.149 42.4094 29.093 42.4456 29.0457 42.4964C28.9949 42.5437 28.9587 42.5997 28.9378 42.6644C28.9051 42.7267 28.8901 42.7936 28.8929 42.8656C28.8992 42.9119 28.9054 42.9582 28.9113 43.0044C28.9361 43.0928 28.9809 43.1697 29.0457 43.2348L29.1515 43.3162C29.2329 43.3636 29.3206 43.3872 29.4149 43.3876H29.5576C29.6296 43.3904 29.6964 43.3754 29.7587 43.3427C29.8235 43.3218 29.8795 43.2856 29.9268 43.2348C29.9776 43.1875 30.0135 43.1315 30.0347 43.0667C30.0674 43.0044 30.0824 42.9376 30.0796 42.8656C30.0737 42.8197 30.0674 42.7734 30.0611 42.7271Z" fill="#444C73"/>
<path opacity="0.15" d="M107.946 86.6912C108.228 85.982 108.45 85.4008 108.625 84.9251C109.063 83.7332 108.688 82.393 107.701 81.6L86.2453 64.5841L69.556 50.1032L51.4213 34.2149C49.0793 32.4425 47.2192 33.1914 45.2057 34.5169C40.9754 37.3016 36.2482 40.6988 31.7217 44.1176C31.7367 44.1089 26.2675 48.3743 26.4903 48.2483C28.7631 46.9659 46.5605 35.9782 50.8099 38.5718C55.5037 41.4366 104.478 81.7614 106.212 84.2263C107.891 86.6136 90.6301 104.212 82.6334 109.363C82.9397 109.506 83.2198 109.623 83.4666 109.705C89.1376 111.589 106.297 90.8299 107.946 86.6912Z" fill="#6676DE"/>
<path d="M48.1136 56.6472C50.3906 54.6876 52.6668 52.7266 54.9445 50.7674C55.9265 49.9228 56.9375 49.0604 58.1652 48.608C61.9174 47.2251 67.1882 51.8013 69.9516 53.8315C73.8687 56.7091 77.4813 59.9466 81.2606 62.987C83.5445 64.8245 86.0226 66.4201 88.1952 68.3863C88.7388 68.8783 89.2789 69.4303 89.4643 70.1284C89.8256 71.489 87.749 73.1323 86.9417 74.0597C83.5497 77.9556 79.7753 81.7338 75.7744 85.1334C73.6805 86.9127 71.0134 89.3794 68.7615 90.9683C66.8753 92.2991 65.8536 94.1125 63.5147 92.5009C61.0453 90.7996 38.9045 71.6877 37.5629 70.4266C36.0923 69.044 35.8842 67.2118 37.5629 65.7787C40.8929 62.9362 44.7954 59.5032 48.1136 56.6472Z" stroke="#444C73" stroke-width="0.7283" stroke-miterlimit="10" stroke-linecap="round"/>
<path opacity="0.64" d="M48.1136 56.6472C50.3906 54.6876 52.6668 52.7266 54.9445 50.7674C55.9265 49.9228 56.9375 49.0604 58.1652 48.608C61.9174 47.2251 67.1882 51.8013 69.9516 53.8315C73.8687 56.7091 77.4813 59.9466 81.2606 62.987C83.5445 64.8245 86.0226 66.4201 88.1952 68.3863C88.7388 68.8783 89.2789 69.4303 89.4643 70.1284C89.8256 71.489 87.749 73.1323 86.9417 74.0597C83.5497 77.9556 79.7753 81.7338 75.7744 85.1334C73.6805 86.9127 71.0134 89.3794 68.7615 90.9683C66.8753 92.2991 65.8536 94.1125 63.5147 92.5009C61.0453 90.7995 38.9045 71.6877 37.5629 70.4266C36.0923 69.044 35.8842 67.2118 37.5629 65.7787C40.8929 62.9362 44.7954 59.5032 48.1136 56.6472Z" fill="#6775E1"/>
<path d="M74.0002 99.556C73.5993 99.5062 73.196 99.2751 72.8925 98.8798C72.3072 98.1163 72.3155 97.0274 72.9117 96.448L87.8468 81.9253C88.4429 81.3458 89.4003 81.4955 89.9859 82.2586C90.5713 83.0221 90.5629 84.111 89.9668 84.6905L75.0317 99.2132C74.7446 99.4923 74.3733 99.6023 74.0002 99.556Z" fill="#6775E1" stroke="#444C73" stroke-width="0.4469" stroke-miterlimit="10" stroke-linecap="round"/>
<path d="M70.9535 95.5329C70.8672 95.5221 70.7802 95.4723 70.7148 95.387C70.5888 95.2224 70.5902 94.9875 70.719 94.8626L84.0007 81.9476C84.1295 81.823 84.3355 81.8547 84.4622 82.0193C84.5882 82.1839 84.5868 82.4188 84.458 82.5437L71.1762 95.4587C71.1143 95.5193 71.0343 95.5429 70.9535 95.5329Z" fill="#6775E1" stroke="#444C73" stroke-width="0.4469" stroke-miterlimit="10" stroke-linecap="round"/>
<path d="M92.4546 73.8574C91.4639 74.0941 91.5272 75.2581 91.6153 75.8045C91.6361 75.9339 91.5328 76.0446 91.4148 76.0188C90.9175 75.9103 89.8554 75.8149 89.617 76.8937C88.9172 80.0602 93.372 79.1328 94.1121 78.9584C94.1755 78.9434 94.2256 78.8902 94.2406 78.8209C94.4166 78.0153 95.3632 73.1625 92.4546 73.8574Z" fill="#6775E1" stroke="#444C73" stroke-width="0.481" stroke-miterlimit="10" stroke-linecap="round"/>
<path d="M33.4872 65.2729C32.9569 65.2054 32.4189 64.9294 32.0086 64.4662C31.2172 63.5715 31.2012 62.317 31.9738 61.6634L51.3295 45.2911C52.1021 44.6379 53.3695 44.8342 54.1612 45.7282C54.9525 46.6229 54.9686 47.8774 54.196 48.531L34.8402 64.9033C34.4682 65.2179 33.9807 65.3355 33.4872 65.2729Z" fill="#6775E1" stroke="#444C73" stroke-width="0.5511" stroke-miterlimit="10" stroke-linecap="round"/>
<path d="M29.3669 60.5605C29.2527 60.5458 29.1368 60.4863 29.0481 60.3865C28.8776 60.1933 28.8741 59.9229 29.0408 59.782L46.2536 45.2223C46.4203 45.0818 46.6931 45.1235 46.8643 45.3163C47.0348 45.5091 47.0383 45.7798 46.8716 45.9208L29.6589 60.4804C29.5785 60.5486 29.4734 60.574 29.3669 60.5605Z" fill="#6775E1" stroke="#444C73" stroke-width="0.5511" stroke-miterlimit="10" stroke-linecap="round"/>
<path d="M72.3568 75.3978C72.2858 76.217 73.3281 76.5786 73.975 77.0863C75.1725 78.0266 74.9233 80.2315 73.5466 80.8809C71.9632 81.6277 70.162 80.3784 68.4116 80.3916C67.1789 80.4006 66.0424 81.0399 64.8296 81.2612C63.3777 81.5264 61.8211 81.1565 60.6438 80.2667C58.4118 78.5799 57.4798 75.1747 54.7724 74.4693C53.8206 74.2216 52.7891 74.3715 51.8593 74.0517C50.1576 73.4664 49.3147 71.2768 49.978 69.6039C50.6413 67.9311 52.5334 66.9205 54.3283 67.0461C54.3283 67.0461 61.6259 72.7165 65.0986 73.2259C68.5706 73.7351 72.3568 75.3978 72.3568 75.3978Z" fill="#6775E1" stroke="#444C73" stroke-width="0.4469" stroke-miterlimit="10" stroke-linecap="round"/>
</svg>
