<svg width="162" height="162" viewBox="0 0 162 162" fill="none" xmlns="http://www.w3.org/2000/svg">
<g id="Group 1000007149">
<path id="Vector" d="M146.241 96.7593C154.944 60.7278 132.791 24.4629 96.7593 15.7593C60.7278 7.05569 24.4629 29.2093 15.7593 65.2407C7.05567 101.272 29.2093 137.537 65.2407 146.241C101.272 154.944 137.537 132.791 146.241 96.7593Z" fill="#E75E3A"/>
<path id="Vector_2" d="M83.9955 110.548C83.9929 111.645 83.6646 112.717 83.0524 113.628C82.4402 114.539 81.5715 115.247 80.5563 115.664C79.5412 116.081 78.4251 116.188 77.3495 115.97C76.2739 115.752 75.287 115.22 74.5138 114.441C73.7407 113.662 73.216 112.672 73.0061 111.595C72.7963 110.517 72.9108 109.402 73.335 108.39C73.7593 107.378 74.4744 106.514 75.3896 105.909C76.3049 105.303 77.3792 104.983 78.4766 104.988C79.944 104.999 81.3477 105.589 82.3816 106.631C83.4154 107.672 83.9956 109.08 83.9955 110.548Z" fill="white"/>
<path id="Vector_3" d="M67.3714 103.424C68.7864 101.901 70.4957 100.681 72.3959 99.8372C74.2961 98.9936 76.3477 98.5444 78.4265 98.5166C80.5054 98.4889 82.5683 98.8832 84.4903 99.6757C86.4124 100.468 88.1536 101.642 89.6088 103.127C92.4424 105.988 96.8683 101.603 94.0347 98.7419C91.9977 96.6891 89.5707 95.0644 86.8965 93.9636C84.2223 92.8627 81.3549 92.3079 78.4631 92.3318C75.5712 92.3557 72.7134 92.9578 70.0577 94.1027C67.402 95.2476 65.0022 96.9121 62.9994 98.9983C60.2333 101.899 64.6187 106.339 67.3983 103.424H67.3714Z" fill="white"/>
<path id="Vector_4" d="M48.534 77.6514C56.9675 70.3648 67.0337 65.777 78.3008 65.75C89.5485 65.5895 100.433 69.7308 108.729 77.3275C111.643 80.0262 116.083 75.6948 113.155 72.9421C103.698 64.1831 91.258 59.3578 78.3683 59.4485C65.4009 59.4485 53.8774 64.846 44.1755 73.1715C41.1395 75.8027 45.5249 80.2152 48.5744 77.5974L48.534 77.6514Z" fill="white"/>
<path id="Vector_5" d="M55.969 91.9134C58.7807 88.7754 62.2122 86.2541 66.0469 84.5085C69.8817 82.763 74.0366 81.831 78.2496 81.7715C82.4626 81.7119 86.6422 82.5259 90.5248 84.1623C94.4074 85.7987 97.9088 88.222 100.808 91.2792C103.615 94.1533 108.041 89.7679 105.234 86.8802C101.756 83.2447 97.5673 80.3625 92.9292 78.412C88.291 76.4615 83.3016 75.4845 78.2703 75.5414C73.239 75.5983 68.2731 76.688 63.6802 78.7429C59.0873 80.7978 54.9655 83.7742 51.5701 87.4874C48.8713 90.4291 53.2298 94.8685 55.969 91.9134Z" fill="white"/>
<path id="Vector_6" d="M130.849 65.8943C132.485 56.6405 126.311 47.8121 117.057 46.1754C107.803 44.5387 98.9747 50.7136 97.338 59.9673C95.7013 69.221 101.876 78.0494 111.13 79.6861C120.384 81.3228 129.212 75.148 130.849 65.8943Z" fill="#FF725E"/>
<path id="Vector_7" d="M121.106 58.1728L118.692 55.7588L107.882 66.5692L110.296 68.9832L121.106 58.1728Z" fill="white"/>
<path id="Vector_8" d="M110.302 55.7462L107.888 58.1602L118.698 68.9706L121.112 66.5566L110.302 55.7462Z" fill="white"/>
</g>
</svg>
