<svg width="200" height="151" viewBox="0 0 200 151" fill="none" xmlns="http://www.w3.org/2000/svg">
<path fill-rule="evenodd" clip-rule="evenodd" d="M98.4295 147.135C87.9474 145.261 76.5647 130.93 65.9747 129.827C49.2997 128.091 27.2266 153.299 18.6487 138.83C9.30458 123.068 34.0997 107.277 30.2586 89.3424C26.4928 71.7591 2.44575 70.212 0.133216 52.377C-1.78079 37.6155 17.333 27.5813 30.2586 20.3017C41.8423 13.7777 55.7482 13.8501 69.0253 13.5771C79.1089 13.3698 92.3532 15.6299 102.23 13.5771C115.631 10.7918 120.657 -0.166772 134.341 0.0019588C147.292 0.161641 167.127 6.7394 167.29 19.7491C167.53 38.9194 150.91 51.5314 157.821 69.4021C166.317 91.3735 185.632 77.2152 197.399 97.6079C204.963 110.716 187.476 127.307 175.803 136.902C164.449 146.234 148.752 147.625 134.207 149.549C122.206 151.136 110.347 149.265 98.4295 147.135Z" fill="#E2F7ED"/>
<path d="M51.4348 61.6771C25.5204 76.6382 25.5231 100.897 51.4348 115.858C77.3465 130.82 119.363 130.82 145.277 115.858C171.192 100.897 171.189 76.6518 145.277 61.6771C119.366 46.7024 77.3493 46.716 51.4348 61.6771Z" fill="#F5F5F5"/>
<path d="M118.149 5.61454C118.149 4.73239 117.182 4.11979 116.088 4.01633C114.8 3.89381 113.885 4.4683 113.855 5.48385C113.011 5.13807 112.124 5.36133 112.189 6.30066C111.971 6.04745 111.149 6.05562 110.855 6.12641C110.697 6.16867 110.55 6.24423 110.424 6.34801C110.297 6.45179 110.195 6.58139 110.123 6.72812C110.052 6.87623 110.025 7.04173 110.046 7.20459C109.553 7.04395 108.437 6.93232 108.157 7.39517C107.659 8.21198 109.646 8.21198 110.046 7.98055C110.133 8.60404 112.268 8.7075 112.785 8.1303C113.191 8.5387 113.771 8.62855 114.397 8.67483C115.454 8.73745 116.102 8.38078 116.927 7.95877C117.822 8.7184 119.377 8.73201 120.18 7.86347C120.387 8.05951 120.953 8.11941 121.408 8.0105C121.708 7.93971 121.776 7.81174 121.776 7.81174C121.951 7.88571 122.133 7.94049 122.32 7.9751C122.908 8.09763 123.997 7.9751 123.54 7.43057C123.259 7.23246 122.914 7.14784 122.573 7.1937C122.317 6.69 121.291 6.21353 120.703 6.64916C120.678 6.03928 120.123 5.56009 119.342 5.44301C119.08 5.39945 118.448 5.36678 118.149 5.61454Z" fill="#F5F5F5"/>
<path d="M48.3774 8.04041C48.3774 6.98129 47.2175 6.24617 45.9024 6.13454C44.3532 5.98751 43.256 6.67907 43.2179 7.89883C42.4964 7.31618 41.1378 7.74909 41.2194 8.86266C40.9472 8.55772 39.9697 8.56861 39.6158 8.65301C39.4241 8.7055 39.2459 8.79854 39.0932 8.92583C38.9405 9.05312 38.817 9.21171 38.7309 9.39086C38.6468 9.56794 38.6156 9.76553 38.6411 9.9599C38.0502 9.76659 36.708 9.64951 36.3703 10.1886C35.7741 11.1524 38.1619 11.1851 38.6438 10.8938C38.7445 11.6425 41.312 11.765 41.9328 11.0735C42.4987 11.5866 43.2254 11.8869 43.9884 11.923C45.2653 11.9992 46.5259 11.4111 46.8989 10.8557C47.988 11.7678 49.8394 11.7841 50.8087 10.7413C51.0565 10.9727 51.7371 11.0462 52.2844 10.9156C52.6438 10.8312 52.7255 10.676 52.7255 10.676C52.9369 10.7668 53.158 10.8335 53.3844 10.8747C54.0895 11.0217 55.3991 10.8747 54.8492 10.2322C54.6613 10.0171 53.9752 9.88094 53.6866 9.9599C53.3789 9.35547 52.1455 8.7837 51.4404 9.29557C51.4131 8.56317 50.7434 7.9914 49.8068 7.84438C49.4937 7.78448 48.7367 7.74092 48.3774 8.04041Z" fill="#F5F5F5"/>
<path d="M115.26 14.6837C114.999 14.5855 114.722 14.5348 114.443 14.534C114.171 14.5122 114.1 14.4604 114.048 14.4033C113.798 14.0424 113.432 13.7779 113.01 13.6536C112.589 13.5293 112.138 13.5527 111.731 13.7199C111.618 13.3653 111.375 13.0666 111.051 12.8834C110.727 12.7002 110.346 12.646 109.983 12.7315C110.011 11.9147 108.971 11.0408 108.037 10.842C107.103 10.6433 106.36 10.7304 105.859 11.3212C105.314 10.2512 103.163 9.95986 102.001 10.5044C101.333 10.8284 100.767 11.1633 100.489 11.7759C100.307 12.1547 100.221 12.5728 100.239 12.9929C99.787 12.5927 98.8776 12.4865 98.2759 12.7207C97.6225 12.9711 97.5734 13.4639 97.5408 13.9622C97.1539 13.8506 96.7444 13.8431 96.3537 13.9404C95.9426 14.0629 95.7084 14.3842 95.7629 14.6456C95.4389 14.6293 94.6738 14.8906 94.7527 15.2337C94.8317 15.5767 95.7384 15.5795 96.0678 15.5686C96.3801 15.5495 96.6905 15.5067 96.9962 15.4406C97.1503 15.499 97.3134 15.5303 97.4782 15.5332C98.0417 15.5332 98.2786 15.2881 98.3685 15.0785C98.6407 15.6557 99.6209 16.0968 100.312 16.2738C101.614 16.6086 103.457 16.4044 104.258 15.4324C104.352 15.6154 104.485 15.7759 104.647 15.9035C104.991 16.1818 105.41 16.3515 105.85 16.3908C106.395 16.4426 107.819 16.5106 108.222 15.6611C108.51 16.2247 109.787 16.478 110.757 16.3445C111.133 16.2875 111.5 16.1775 111.846 16.0178C112.06 15.9043 112.269 15.7789 112.469 15.6421C112.548 15.586 112.64 15.553 112.736 15.5468C112.833 15.5405 112.929 15.5613 113.014 15.6067C113.7 15.8477 114.448 15.8477 115.135 15.6067C115.655 15.3671 115.783 14.9124 115.26 14.6837Z" fill="#F5F5F5"/>
<path d="M81.2397 54.3995L48.1346 73.4337C43.4625 76.121 44.0179 80.8013 49.3762 83.8915L102.359 114.405C129.151 129.924 173.873 97.7037 152.457 85.6939L96.9767 53.6099C91.6185 50.5197 85.9118 51.7149 81.2397 54.3995Z" fill="#E0E0E0"/>
<path d="M130.695 56.7465C132.905 59.0798 136.186 63.2619 130.087 59.8749C123.989 56.4878 93.6035 42.1448 93.6035 42.1448V57.7239L124.065 74.7053C124.065 74.7053 129.753 70.5423 132.581 67.5419C135.41 64.5415 134.528 60.7951 134.528 60.7951L130.695 56.7465Z" fill="black"/>
<path d="M133.023 58.764L133.295 59.9103C133.927 61.0946 135.329 62.5921 135.83 62.4696C136.279 62.3579 136.554 61.7045 136.696 60.8986C136.762 60.5115 136.801 60.1203 136.813 59.7278C136.856 58.4591 136.29 55.4968 134.526 54.7099C134.349 54.6335 134.154 54.615 133.966 54.657C133.779 54.6991 133.61 54.7996 133.483 54.9441C133.247 55.1795 133.072 55.468 132.971 55.7854C132.68 56.6648 132.982 58.715 133.023 58.764Z" fill="#263238"/>
<path d="M133.298 59.9103C133.93 61.0946 135.332 62.5921 135.833 62.4696C136.282 62.3579 136.557 61.7045 136.698 60.8986C136.765 60.5115 136.804 60.1203 136.816 59.7278C136.859 58.4591 136.293 55.4968 134.529 54.7099C134.352 54.6335 134.156 54.615 133.969 54.657C133.782 54.6991 133.612 54.7996 133.486 54.9441L133.725 55.4886C134.959 56.0141 135.291 57.9173 135.177 59.3657C135.062 60.8142 134.003 60.6563 133.298 59.9103Z" fill="#455A64"/>
<path d="M132.977 55.7744C133.423 55.3034 134.528 55.2789 135.46 56.5585C136.391 57.8382 136.696 60.0354 136.701 60.8876C136.767 60.5005 136.806 60.1093 136.818 59.7168C136.862 58.4481 136.296 55.4858 134.534 54.6962C133.796 54.3749 133.189 55.121 132.977 55.7744Z" fill="#37474F"/>
<path d="M62.2273 52.197L90.4751 35.8882C91.407 36.4264 92.1923 37.1854 92.7621 38.0983C93.3318 39.0113 93.6684 40.0503 93.7423 41.1239L94.5101 49.8664L66.2596 66.1752L62.2246 63.8474L62.2273 52.197Z" fill="#37474F"/>
<path d="M62.2275 55.5539L92.7433 38.0771C92.1759 37.1772 91.3973 36.4295 90.4753 35.8989L62.2275 52.1969V55.5539Z" fill="#455A64"/>
<path d="M62.2275 63.8555V52.197C63.1591 52.7356 63.9442 53.4947 64.5139 54.4076C65.0835 55.3204 65.4204 56.3592 65.4948 57.4327L66.2598 66.1752L62.2275 63.8555Z" fill="#263238"/>
<path d="M65.4951 57.438L66.2629 66.1859L72.9607 70.0494L95.1587 57.2365L93.7456 41.1318L65.4951 57.438Z" fill="#37474F"/>
<path d="M94.4177 56.8118L123.27 73.4691L101.075 86.2848L72.2197 69.6247L94.4177 56.8118Z" fill="black"/>
<path d="M105.246 70.319L108.459 70.2537L113.36 67.4547C113.816 67.2254 114.315 67.0941 114.826 67.0693C115.336 67.0444 115.845 67.1266 116.322 67.3104L122.252 69.9841L126.314 69.9051V72.2766C126.314 72.5489 126.126 72.8211 125.742 73.0389L115.099 79.184C114.668 79.4063 114.184 79.5036 113.7 79.4651C113.217 79.4267 112.754 79.2539 112.363 78.9662L105.753 73.5998C105.608 73.495 105.489 73.3586 105.405 73.201C105.321 73.0435 105.274 72.8689 105.268 72.6904L105.246 70.319Z" fill="#37474F"/>
<path d="M125.728 70.6676L115.086 76.8127C114.654 77.0349 114.17 77.1323 113.686 77.0938C113.203 77.0553 112.74 76.8825 112.349 76.5949L105.739 71.2312C105.025 70.6513 105.093 69.81 105.891 69.3526L113.348 65.0807C113.805 64.852 114.304 64.7211 114.814 64.6962C115.324 64.6714 115.834 64.7532 116.311 64.9364L125.652 69.1511C126.491 69.5295 126.523 70.2075 125.728 70.6676Z" fill="#455A64"/>
<path d="M105.243 70.3218V72.6878C105.25 72.8661 105.297 73.0406 105.381 73.1978C105.466 73.355 105.585 73.4907 105.731 73.5944L112.338 78.9608C112.712 79.2473 113.162 79.4186 113.632 79.4536V77.0822C113.162 77.0471 112.712 76.8759 112.338 76.5894L105.741 71.2284C105.595 71.125 105.474 70.9896 105.388 70.8325C105.301 70.6755 105.252 70.5008 105.243 70.3218Z" fill="#263238"/>
<path d="M104.219 69.6221C104.202 69.7277 104.215 69.8359 104.254 69.9352C104.294 70.0344 104.36 70.121 104.445 70.1857L107.154 71.7512C107.066 71.6889 106.998 71.6028 106.957 71.503C106.916 71.4032 106.904 71.2939 106.923 71.1877L107.511 57.9445C107.541 57.6428 107.638 57.3517 107.796 57.0926C107.953 56.8334 108.167 56.6128 108.42 56.4471L114.808 52.7415C114.905 52.6743 115.019 52.6338 115.137 52.6243C115.255 52.6147 115.373 52.6364 115.48 52.6871L112.79 51.1351C112.682 51.0803 112.561 51.0555 112.44 51.0631C112.319 51.0708 112.202 51.1107 112.101 51.1787L105.709 54.8761C105.454 55.0414 105.241 55.2619 105.083 55.5211C104.926 55.7804 104.829 56.0717 104.799 56.3736L104.219 69.6221Z" fill="#263238"/>
<path d="M114.808 52.7414L108.431 56.4361C108.178 56.6024 107.965 56.8232 107.808 57.0822C107.65 57.3412 107.553 57.6321 107.522 57.9336L106.934 71.1821C106.909 71.7267 107.277 71.9554 107.751 71.6804L116.842 66.431C117.086 66.2726 117.283 66.0499 117.41 65.7872C117.537 65.5245 117.589 65.232 117.56 64.9417L115.823 53.2342C115.822 53.1171 115.788 53.0028 115.725 52.904C115.662 52.8052 115.573 52.7258 115.467 52.6747C115.362 52.6236 115.245 52.6028 115.128 52.6145C115.012 52.6263 114.901 52.6702 114.808 52.7414Z" fill="#37474F"/>
<path d="M105.088 55.5241L107.792 57.0869C107.946 56.8232 108.162 56.6009 108.42 56.4389L114.808 52.7415C114.905 52.6743 115.019 52.6338 115.137 52.6243C115.255 52.6147 115.373 52.6364 115.48 52.6871L112.79 51.1351C112.682 51.0803 112.561 51.0555 112.44 51.0631C112.319 51.0708 112.202 51.1107 112.102 51.1787L105.709 54.8761C105.453 55.0391 105.24 55.2614 105.088 55.5241Z" fill="#455A64"/>
<path d="M106.204 53.5991V50.2911C106.204 47.9196 107.718 45.118 109.586 44.0452C110.441 43.5497 111.219 43.5007 111.818 43.8301L113.88 45.0281L112.965 46.7788V49.6893C112.949 49.9895 112.862 50.2817 112.711 50.542C112.561 50.8022 112.351 51.0232 112.099 51.1868L110.041 52.3766L108.491 55.3389L106.455 54.1545C106.368 54.0922 106.299 54.0081 106.255 53.9105C106.211 53.813 106.193 53.7055 106.204 53.5991Z" fill="#263238"/>
<path d="M109.585 48.7501L106.934 47.22C107.552 45.8586 108.51 44.677 109.585 44.0562C110.44 43.5607 111.219 43.5117 111.818 43.8411L113.879 45.0391L112.964 46.7898V47.3616L109.585 48.7501Z" fill="#455A64"/>
<path d="M108.232 54.7806V51.4835C108.232 49.112 109.746 46.3104 111.614 45.2349C113.482 44.1595 114.996 45.205 114.996 47.5792V50.8736C114.98 51.1743 114.893 51.467 114.743 51.7277C114.592 51.9885 114.382 52.2099 114.13 52.3738L109.098 55.2789C108.619 55.5539 108.232 55.3306 108.232 54.7806Z" fill="#37474F"/>
<path d="M114.614 55.5567C115.399 58.4793 115.776 61.4966 115.733 64.5225C115.711 64.832 115.627 65.1339 115.487 65.4107C115.347 65.6875 115.153 65.9335 114.916 66.1343C113.34 67.3074 111.633 68.295 109.83 69.0775C109.728 69.1344 109.611 69.1625 109.494 69.159C109.376 69.1554 109.262 69.1204 109.162 69.0575C109.063 68.9946 108.982 68.9062 108.929 68.8015C108.875 68.6967 108.851 68.5796 108.858 68.4622C108.678 65.2241 108.668 61.9787 108.829 58.7395C108.905 58.1139 109.217 57.5406 109.7 57.1359C110.858 56.2902 112.103 55.5709 113.414 54.9904C113.528 54.9368 113.654 54.9092 113.78 54.9094C113.907 54.9097 114.032 54.9378 114.147 54.9919C114.261 55.0459 114.363 55.1246 114.443 55.2222C114.524 55.3198 114.583 55.434 114.614 55.5567Z" fill="#263238"/>
<path opacity="0.15" d="M108.929 68.7536C108.888 68.657 108.864 68.5537 108.858 68.4486C108.678 65.2105 108.668 61.9651 108.829 58.726C108.859 58.4174 108.952 58.1183 109.101 57.8465C109.455 57.3428 109.577 61.5848 109.577 64.1686C109.577 66.7524 109.542 69.3117 109.117 69.0122C109.1 69.0009 109.084 68.9871 109.071 68.9714C109.016 68.904 108.969 68.831 108.929 68.7536Z" fill="black"/>
<g opacity="0.15">
<path d="M115.14 64.3047C115.14 64.3047 115.064 64.3482 114.933 64.4354C114.802 64.5225 114.62 64.6396 114.388 64.7839C113.947 65.0698 113.356 65.4428 112.755 65.7858C112.153 66.1289 111.535 66.4556 111.064 66.6898C110.827 66.8068 110.634 66.913 110.492 66.9784C110.351 67.0437 110.274 67.09 110.274 67.09C110.274 67.09 110.364 67.0737 110.514 67.0383C110.664 67.0029 110.882 66.9511 111.135 66.8667C111.424 66.7743 111.709 66.6671 111.987 66.5455C112.139 66.4747 112.297 66.4093 112.453 66.3249C112.608 66.2405 112.766 66.1616 112.921 66.0744C113.223 65.9003 113.516 65.7103 113.798 65.5054C114.044 65.328 114.28 65.1371 114.505 64.9336C114.707 64.7594 114.859 64.5933 114.968 64.4844C115.077 64.3755 115.14 64.3047 115.14 64.3047Z" fill="black"/>
<path d="M115.14 62.6304L114.933 62.7611C114.808 62.8509 114.62 62.9653 114.388 63.1096C113.947 63.3982 113.356 63.7684 112.755 64.1142C112.153 64.46 111.535 64.7813 111.064 65.0154C110.827 65.1325 110.634 65.2387 110.492 65.304C110.351 65.3694 110.274 65.4157 110.274 65.4157C110.274 65.4157 110.364 65.3993 110.514 65.3639C110.664 65.3285 110.882 65.2768 111.135 65.1924C111.425 65.1012 111.709 64.9939 111.987 64.8711C112.139 64.8003 112.297 64.735 112.453 64.6506C112.608 64.5662 112.766 64.4872 112.921 64.4028C113.229 64.2204 113.528 64.0298 113.798 63.8338C114.043 63.6547 114.28 63.463 114.505 63.2593C114.707 63.0851 114.859 62.919 114.968 62.8101C115.077 62.7012 115.14 62.6304 115.14 62.6304Z" fill="black"/>
<path d="M114.794 61.2444C114.794 61.2444 114.723 61.2852 114.603 61.3642C114.483 61.4431 114.309 61.5493 114.108 61.6827C113.699 61.955 113.155 62.2817 112.591 62.5839C112.027 62.8862 111.45 63.1639 111.012 63.3762L110.484 63.6485C110.356 63.7111 110.282 63.752 110.282 63.752L110.505 63.7084C110.644 63.6757 110.846 63.6349 111.08 63.5641C111.349 63.4868 111.615 63.3959 111.875 63.2918C112.017 63.2292 112.166 63.1748 112.311 63.1013C112.455 63.0277 112.605 62.9597 112.749 62.8834C112.893 62.8072 113.035 62.7201 113.174 62.6357C113.313 62.5513 113.446 62.456 113.569 62.3634C113.797 62.1955 114.016 62.0136 114.222 61.8189C114.404 61.6555 114.546 61.503 114.644 61.3996C114.742 61.2961 114.794 61.2444 114.794 61.2444Z" fill="black"/>
<path d="M114.655 59.6843C114.655 59.6843 114.584 59.7224 114.47 59.7987C114.356 59.8749 114.184 59.9757 113.988 60.1036C113.604 60.365 113.06 60.6781 112.515 60.964C111.971 61.2499 111.404 61.5085 110.98 61.7127L110.468 61.9659L110.274 62.0667C110.274 62.0667 110.353 62.0667 110.49 62.0258C110.626 61.985 110.819 61.9578 111.048 61.8924C111.276 61.8271 111.54 61.7481 111.818 61.6419C111.954 61.5848 112.09 61.533 112.24 61.465C112.39 61.3969 112.526 61.3315 112.67 61.258C112.815 61.1845 112.943 61.1028 113.081 61.0212C113.22 60.9395 113.34 60.8496 113.465 60.7652C113.687 60.6082 113.898 60.4372 114.097 60.2534C114.274 60.0954 114.407 59.9457 114.503 59.8477L114.655 59.6843Z" fill="black"/>
<path d="M114.421 58.187L114.244 58.2932L113.792 58.5655C113.345 58.8554 112.884 59.1216 112.409 59.3632C111.894 59.6355 111.355 59.8533 110.952 60.0412C110.549 60.229 110.288 60.3733 110.288 60.3733C110.534 60.3355 110.777 60.2846 111.018 60.2209C111.55 60.0881 112.066 59.9001 112.559 59.66C112.692 59.5892 112.831 59.5184 112.951 59.4422C113.071 59.3659 113.199 59.2815 113.316 59.2026C113.522 59.0582 113.718 58.9008 113.904 58.7315C114.09 58.5635 114.263 58.3814 114.421 58.187Z" fill="black"/>
<path d="M113.877 56.7603C113.877 56.7603 113.645 56.8909 113.332 57.0951C113.019 57.2993 112.575 57.558 112.126 57.7867C111.677 58.0154 111.222 58.2387 110.876 58.4129C110.531 58.5872 110.305 58.7179 110.305 58.7179C110.521 58.6909 110.734 58.649 110.945 58.5926C111.407 58.4705 111.855 58.2998 112.281 58.0835C112.396 58.0181 112.51 57.9555 112.622 57.8874C112.733 57.8194 112.834 57.7459 112.935 57.6751C113.117 57.5451 113.289 57.4012 113.449 57.2449C113.604 57.0944 113.747 56.9324 113.877 56.7603Z" fill="black"/>
</g>
<path d="M117.34 67.6045C119.017 67.904 120.678 68.7617 122.325 69.9977C122.427 70.0649 122.511 70.1564 122.569 70.2641C122.627 70.3717 122.658 70.4921 122.658 70.6144C122.658 70.7367 122.627 70.8571 122.569 70.9648C122.511 71.0724 122.427 71.164 122.325 71.2311C120.333 72.6933 118.183 73.9271 115.916 74.9095C115.329 75.1335 114.677 75.1159 114.103 74.8604C112.698 74.148 111.407 73.2304 110.272 72.1378C110.18 72.0493 110.11 71.9415 110.066 71.8223C110.022 71.7031 110.005 71.5755 110.016 71.4489C110.028 71.3223 110.067 71.1999 110.132 71.0906C110.197 70.9813 110.286 70.8879 110.392 70.8173C111.956 69.6557 113.643 68.6671 115.42 67.8686C116.029 67.6247 116.688 67.534 117.34 67.6045Z" fill="#263238"/>
<g opacity="0.2">
<path d="M121.43 70.616C121.43 70.616 121.323 70.6432 121.144 70.7004C120.964 70.7575 120.705 70.8365 120.403 70.9536C119.661 71.2353 118.941 71.5721 118.249 71.961C117.559 72.352 116.901 72.7991 116.284 73.2978C116.003 73.525 115.735 73.7668 115.48 74.022L116.395 73.453C116.94 73.1127 117.672 72.6716 118.416 72.2523C119.159 71.833 119.91 71.4355 120.479 71.1278L121.168 70.7603L121.43 70.616Z" fill="black"/>
<path d="M119.829 69.6956C119.829 69.6956 119.726 69.7228 119.543 69.78C119.361 69.8371 119.105 69.9161 118.803 70.0332C118.061 70.3138 117.342 70.6506 116.652 71.0406C115.961 71.4309 115.303 71.8781 114.686 72.3774C114.401 72.603 114.128 72.8438 113.869 73.0989L114.781 72.5326C115.326 72.1923 116.058 71.7485 116.801 71.3292C117.545 70.9099 118.299 70.5124 118.868 70.2074L119.557 69.8399C119.737 69.75 119.829 69.6956 119.829 69.6956Z" fill="black"/>
<path d="M118.454 68.9143C118.454 68.9143 118.35 68.9415 118.182 68.9987C118.013 69.0559 117.74 69.1348 117.438 69.2519C116.697 69.5337 115.978 69.8705 115.287 70.2593C114.596 70.6497 113.939 71.0968 113.322 71.5961C113.04 71.822 112.771 72.0629 112.516 72.3177L113.428 71.7513C113.972 71.411 114.705 70.9699 115.448 70.5506C116.191 70.1313 116.945 69.7338 117.514 69.4262L118.203 69.0586C118.361 68.9688 118.454 68.9143 118.454 68.9143Z" fill="black"/>
<path d="M116.956 68.2744C116.956 68.2744 116.858 68.2989 116.684 68.3479C116.51 68.3969 116.281 68.4705 116.003 68.5766C115.321 68.831 114.659 69.1387 114.024 69.4969C113.389 69.8553 112.787 70.267 112.222 70.7275C111.966 70.938 111.722 71.1615 111.489 71.3973C111.489 71.3973 111.576 71.3483 111.723 71.2557L112.333 70.8827C112.837 70.5751 113.507 70.1694 114.19 69.7937C114.874 69.4179 115.551 69.0368 116.082 68.7591L116.709 68.416C116.872 68.3262 116.956 68.2744 116.956 68.2744Z" fill="black"/>
</g>
<path d="M90.5703 78.9227L93.7858 78.8601L98.6866 76.0585C99.1432 75.8297 99.6424 75.6986 100.153 75.6738C100.663 75.6489 101.172 75.7308 101.649 75.9142L107.576 78.5906L111.638 78.5089V80.8803C111.638 81.1526 111.451 81.4249 111.064 81.6427L100.421 87.7878C99.9917 88.0079 99.5096 88.1041 99.0287 88.0656C98.5478 88.0272 98.0871 87.8555 97.6983 87.57L91.0876 82.2036C90.9427 82.0995 90.8234 81.9638 90.739 81.8067C90.6545 81.6495 90.6071 81.4752 90.6003 81.2969L90.5703 78.9227Z" fill="#37474F"/>
<path d="M111.053 79.2739L100.41 85.4135C99.9811 85.634 99.4991 85.7307 99.0182 85.6927C98.5374 85.6547 98.0765 85.4835 97.6875 85.1984L91.0768 79.832C90.3607 79.2521 90.4288 78.4108 91.2265 77.9534L98.6867 73.6815C99.1432 73.4524 99.6427 73.3215 100.153 73.2971C100.663 73.2728 101.173 73.3555 101.649 73.5399L110.988 77.7519C111.815 78.1331 111.848 78.8137 111.053 79.2739Z" fill="#455A64"/>
<path d="M90.5703 78.9253V81.2913C90.5767 81.47 90.6239 81.6449 90.7084 81.8026C90.7929 81.9602 90.9124 82.0964 91.0577 82.2007L97.6683 87.5643C98.0414 87.8508 98.4899 88.022 98.9589 88.0571V85.6857C98.4899 85.6506 98.0414 85.4793 97.6683 85.1929L91.0577 79.8265C90.914 79.7225 90.7956 79.5875 90.7112 79.4315C90.6269 79.2754 90.5787 79.1025 90.5703 78.9253Z" fill="#263238"/>
<path d="M89.5443 78.2229C89.5277 78.3281 89.5399 78.4358 89.5797 78.5346C89.6195 78.6334 89.6854 78.7195 89.7703 78.7838L92.493 80.3493C92.404 80.2878 92.3346 80.2019 92.293 80.102C92.2515 80.002 92.2396 79.8922 92.2588 79.7857L92.8469 66.5426C92.877 66.2409 92.9742 65.9498 93.1316 65.6906C93.289 65.4315 93.5025 65.2109 93.7563 65.0452L100.144 61.3586C100.241 61.2919 100.355 61.2518 100.473 61.2422C100.591 61.2327 100.709 61.254 100.816 61.3042L98.1262 59.7523C98.0177 59.6983 97.8969 59.6739 97.7759 59.6815C97.655 59.6892 97.5382 59.7286 97.4374 59.7958L91.0527 63.4823C90.7986 63.6485 90.5851 63.8696 90.4277 64.1292C90.2703 64.3888 90.1732 64.6804 90.1433 64.9825L89.5443 78.2229Z" fill="#263238"/>
<path d="M100.133 61.3559L93.7457 65.0424C93.4918 65.2082 93.2784 65.4288 93.121 65.6879C92.9636 65.9471 92.8664 66.2382 92.8363 66.5399L92.2482 79.7857C92.2237 80.3302 92.5913 80.559 93.065 80.284L102.17 75.0346C102.415 74.8771 102.612 74.6549 102.738 74.3926C102.865 74.1303 102.917 73.838 102.888 73.5481L101.151 61.8405C101.149 61.7237 101.114 61.6099 101.05 61.5118C100.986 61.4137 100.897 61.3352 100.791 61.2849C100.686 61.2347 100.568 61.2147 100.452 61.2273C100.336 61.2398 100.226 61.2843 100.133 61.3559Z" fill="#37474F"/>
<path d="M90.4131 64.1304L93.1167 65.6905C93.2709 65.4268 93.4867 65.2045 93.7456 65.0425L100.133 61.356C100.231 61.2892 100.344 61.2491 100.462 61.2396C100.58 61.23 100.698 61.2514 100.806 61.3015L98.1155 59.7496C98.007 59.6956 97.8862 59.6712 97.7653 59.6789C97.6443 59.6865 97.5275 59.7259 97.4267 59.7931L91.042 63.4797C90.7832 63.6429 90.5674 63.8661 90.4131 64.1304Z" fill="#455A64"/>
<path d="M91.5293 62.2027V58.9082C91.5293 56.534 93.0431 53.7351 94.9109 52.6461C95.7685 52.1505 96.5445 52.1015 97.1434 52.431L99.2045 53.6289L98.2897 55.3796V58.2875C98.2737 58.5877 98.1869 58.8798 98.0365 59.1401C97.886 59.4003 97.6761 59.6213 97.4239 59.7849L95.3628 60.9856L93.8163 63.9506L91.7771 62.7635C91.6897 62.7004 91.6207 62.6152 91.5772 62.5167C91.5336 62.4181 91.5171 62.3097 91.5293 62.2027Z" fill="#263238"/>
<path d="M94.9107 57.3536L92.2588 55.8235C92.8796 54.4621 93.8352 53.2805 94.9107 52.6597C95.7683 52.1642 96.5443 52.1152 97.1433 52.4446L99.2043 53.6426L98.2895 55.3933V55.9651L94.9107 57.3536Z" fill="#455A64"/>
<path d="M93.5576 63.3844V60.0927C93.5576 57.7212 95.0714 54.9196 96.9392 53.8441C98.8069 52.7687 100.321 53.8169 100.321 56.1883V59.4855C100.305 59.7857 100.218 60.0779 100.068 60.3381C99.917 60.5984 99.7071 60.8194 99.4549 60.983L94.4234 63.8881C93.9442 64.1603 93.5576 63.9371 93.5576 63.3844Z" fill="#37474F"/>
<path d="M99.9394 64.1602C100.726 67.0826 101.103 70.1 101.058 73.126C101.038 73.4358 100.954 73.7381 100.814 74.015C100.674 74.292 100.479 74.5378 100.242 74.7378C98.6634 75.9064 96.956 76.8894 95.153 77.6674C95.0502 77.7245 94.934 77.7528 94.8165 77.7494C94.699 77.7459 94.5847 77.7109 94.4854 77.6479C94.3862 77.5849 94.3058 77.4963 94.2527 77.3914C94.1996 77.2866 94.1758 77.1694 94.1837 77.0521C94.0014 73.8149 93.9914 70.5704 94.1538 67.3321C94.2269 66.7053 94.5389 66.1309 95.025 65.7285C96.1811 64.8803 97.4264 64.1608 98.7387 63.583C98.8543 63.5295 98.9803 63.5023 99.1076 63.5032C99.2349 63.5041 99.3605 63.5332 99.4753 63.5884C99.59 63.6436 99.6912 63.7234 99.7714 63.8223C99.8517 63.9212 99.909 64.0366 99.9394 64.1602Z" fill="#263238"/>
<path opacity="0.15" d="M94.2547 77.3571C94.214 77.2603 94.1909 77.157 94.1866 77.0522C94.0043 73.815 93.9944 70.5704 94.1567 67.3322C94.1856 67.0225 94.2783 66.7222 94.429 66.45C94.7829 65.9463 94.9081 70.1883 94.9054 72.7748C94.9027 75.3614 94.87 77.9152 94.448 77.6185L94.399 77.5776C94.3449 77.5083 94.2966 77.4345 94.2547 77.3571Z" fill="black"/>
<g opacity="0.15">
<path d="M100.465 72.9082L100.261 73.0389C100.133 73.1287 99.9452 73.2431 99.7165 73.3874C99.2754 73.676 98.6873 74.0463 98.0829 74.3921C97.4785 74.7378 96.8604 75.0591 96.3894 75.296C96.1525 75.4131 95.9592 75.5165 95.8176 75.5819L95.6025 75.6935L95.8421 75.6418C95.9919 75.6036 96.2097 75.5546 96.4629 75.473C96.7517 75.3802 97.0352 75.2721 97.3124 75.149C97.4649 75.0782 97.6255 75.0128 97.778 74.9312C97.9304 74.8495 98.0911 74.7651 98.2463 74.6807C98.5539 74.4982 98.8561 74.3077 99.123 74.1116C99.3697 73.9327 99.6069 73.7409 99.8336 73.5371C100.032 73.3629 100.185 73.1995 100.294 73.0879C100.403 72.9763 100.465 72.9082 100.465 72.9082Z" fill="black"/>
<path d="M100.465 71.2339L100.261 71.3646C100.133 71.4544 99.9452 71.5688 99.7165 71.7131C99.2754 72.0017 98.6873 72.372 98.0829 72.7177C97.4785 73.0635 96.8604 73.3848 96.3894 73.6217C96.1525 73.7387 95.9592 73.8422 95.8176 73.9076L95.6025 74.0192C95.6025 74.0192 95.6897 74.0192 95.8421 73.9702C95.9946 73.9212 96.2097 73.883 96.4629 73.7986C96.7517 73.7059 97.0352 73.5978 97.3124 73.4746C97.4649 73.4039 97.6255 73.3385 97.778 73.2568C97.9304 73.1752 98.0911 73.0907 98.2463 73.0063C98.5539 72.8239 98.8561 72.6333 99.123 72.4373C99.3898 72.2413 99.6348 72.0452 99.8336 71.8655C100.032 71.6858 100.185 71.5252 100.294 71.4163C100.403 71.3074 100.465 71.2339 100.465 71.2339Z" fill="black"/>
<path d="M100.119 69.8508L99.9285 69.9679C99.8114 70.0496 99.6345 70.153 99.433 70.2865C99.0246 70.5587 98.4801 70.8854 97.9165 71.1877C97.3529 71.4899 96.7757 71.7676 96.3373 71.98L95.8091 72.2522C95.6811 72.3149 95.6104 72.3557 95.6104 72.3557C95.6104 72.3557 95.692 72.3557 95.8309 72.3121C95.9697 72.2686 96.1712 72.2386 96.4054 72.1705C96.6395 72.1025 96.9145 72.0099 97.2004 71.8983C97.342 71.8384 97.4917 71.7812 97.636 71.7104C97.7803 71.6396 97.9301 71.5661 98.0771 71.4899C98.2241 71.4136 98.363 71.3292 98.4991 71.2421C98.6352 71.155 98.7714 71.0624 98.8939 70.9699C99.1223 70.8063 99.3405 70.629 99.5473 70.4389C99.7325 70.2756 99.8713 70.1231 99.9694 70.0196C100.067 69.9162 100.119 69.8508 100.119 69.8508Z" fill="black"/>
<path d="M99.992 68.2878C99.992 68.2878 99.9212 68.326 99.8068 68.4022C99.6925 68.4784 99.5346 68.5792 99.3276 68.7071C98.9328 68.9603 98.4074 69.2843 97.8601 69.5675C97.3129 69.8507 96.7493 70.112 96.3272 70.319L95.8154 70.5694L95.6221 70.6702C95.6221 70.6702 95.701 70.6702 95.8344 70.6321C95.9679 70.5939 96.1639 70.5613 96.3926 70.4959C96.6537 70.4263 96.9109 70.3427 97.1631 70.2454C97.302 70.1883 97.4354 70.1365 97.5878 70.0685C97.7403 70.0004 97.8737 69.9351 98.0153 69.8643C98.1569 69.7935 98.2876 69.7091 98.4264 69.6247C98.5653 69.5403 98.6987 69.4531 98.8103 69.3715C99.0316 69.2135 99.2426 69.0417 99.442 68.8569C99.619 68.699 99.7524 68.5519 99.8477 68.4512C99.943 68.3505 99.992 68.2878 99.992 68.2878Z" fill="black"/>
<path d="M99.7407 66.7986L99.5664 66.9048L99.1117 67.1907C98.6652 67.4802 98.2035 67.7456 97.7286 67.9857C97.214 68.2579 96.6749 68.4758 96.2747 68.6636C95.8745 68.8515 95.6104 68.9985 95.6104 68.9985C95.6104 68.9985 95.9071 68.9549 96.3373 68.8433C96.8693 68.711 97.3858 68.523 97.8783 68.2824C98.0118 68.2116 98.1506 68.1409 98.2704 68.0646C98.3902 67.9884 98.5182 67.904 98.6352 67.825C98.844 67.6773 99.0423 67.5153 99.2288 67.3404C99.4129 67.173 99.584 66.9919 99.7407 66.7986Z" fill="black"/>
<path d="M99.1886 65.3638C99.1886 65.3638 98.9599 65.4945 98.644 65.6987C98.3282 65.9029 97.8871 66.1615 97.4406 66.3929C96.9941 66.6244 96.534 66.8422 96.1882 67.0164C95.8424 67.1907 95.6191 67.3241 95.6191 67.3241C95.834 67.295 96.0468 67.2523 96.2562 67.1961C96.7195 67.0769 97.1679 66.9061 97.5931 66.687C97.7074 66.6244 97.8218 66.559 97.9334 66.491C98.0417 66.4271 98.1462 66.3571 98.2465 66.2813C98.4283 66.1496 98.6002 66.0049 98.7611 65.8484C98.9166 65.6988 99.0595 65.5367 99.1886 65.3638Z" fill="black"/>
</g>
<path d="M102.665 76.208C104.345 76.5102 106.003 77.3651 107.653 78.604C107.755 78.6708 107.839 78.762 107.897 78.8695C107.956 78.9769 107.986 79.0971 107.986 79.2193C107.986 79.3414 107.956 79.4617 107.897 79.5691C107.839 79.6765 107.755 79.7678 107.653 79.8346C105.66 81.2962 103.508 82.5283 101.238 83.5075C100.651 83.7315 99.9994 83.7139 99.4252 83.4585C98.0205 82.7456 96.7295 81.828 95.5944 80.7358C95.5035 80.6471 95.4336 80.5392 95.3897 80.4201C95.3458 80.301 95.3289 80.1735 95.3404 80.0471C95.3519 79.9206 95.3914 79.7983 95.456 79.6891C95.5207 79.5798 95.6088 79.4863 95.7142 79.4153C97.2806 78.2547 98.9675 77.2661 100.746 76.4667C101.355 76.2268 102.014 76.1381 102.665 76.208Z" fill="#263238"/>
<g opacity="0.2">
<path d="M106.755 79.2222C106.755 79.2222 106.649 79.2494 106.483 79.3038C106.316 79.3583 106.044 79.4427 105.742 79.5571C105 79.8382 104.281 80.1759 103.591 80.5672C102.9 80.9577 102.241 81.4039 101.623 81.9013C101.122 82.3151 100.819 82.6255 100.819 82.6255L101.734 82.0565C102.279 81.7161 103.011 81.2751 103.754 80.8558C104.498 80.4365 105.252 80.039 105.821 79.7313L106.507 79.3637C106.662 79.2766 106.755 79.2222 106.755 79.2222Z" fill="black"/>
<path d="M105.165 78.2991L104.879 78.3835C104.699 78.4407 104.441 78.5196 104.138 78.6367C103.396 78.9179 102.676 79.2546 101.985 79.6441C101.294 80.0351 100.637 80.4822 100.019 80.9809C99.7388 81.2082 99.4707 81.4499 99.2158 81.7051L100.131 81.1361C100.675 80.7958 101.405 80.3547 102.151 79.9354C102.897 79.5161 103.646 79.1186 104.215 78.8109L104.893 78.4434L105.165 78.2991Z" fill="black"/>
<path d="M103.782 77.5178L103.496 77.6022C103.316 77.6621 103.058 77.7411 102.756 77.8554C102.013 78.1365 101.293 78.4742 100.602 78.8656C99.9113 79.2557 99.2538 79.7019 98.6361 80.1997C98.1352 80.6135 97.8193 80.9239 97.8193 80.9239L98.7342 80.3549C99.2787 80.0145 100.011 79.5734 100.754 79.1542C101.498 78.7349 102.249 78.3373 102.818 78.0297L103.507 77.6621C103.687 77.575 103.782 77.5178 103.782 77.5178Z" fill="black"/>
<path d="M102.281 76.8779L102.009 76.9514C101.843 77.0059 101.603 77.0767 101.326 77.1802C100.644 77.4345 99.9827 77.7422 99.3491 78.1004C98.7145 78.4589 98.1115 78.8705 97.5466 79.3311C97.0865 79.715 96.8115 80.0008 96.8115 80.0008L97.0457 79.862L97.6556 79.489C98.1592 79.1786 98.829 78.7756 99.5124 78.3999C100.196 78.0242 100.874 77.6403 101.418 77.3626L102.047 77.0195C102.197 76.9297 102.281 76.8779 102.281 76.8779Z" fill="black"/>
</g>
<path d="M114.462 71.577C123.423 66.3494 134.496 60.7979 134.518 60.7952L135.28 61.582C135.542 61.8569 135.773 62.1601 135.969 62.4859C135.661 64.4599 134.651 66.2351 133.921 67.463C132.058 70.5947 129.617 73.3442 126.728 75.5657C122.353 78.8492 118.56 80.4093 113.275 82.5684C106.907 85.174 98.8858 83.6575 97.5898 82.1137C97.5898 82.1137 107.342 75.7372 114.462 71.577Z" fill="#455A64"/>
<path d="M97.5898 82.1137C97.9574 81.885 109.504 75.4867 115.138 72.0997C120.504 68.8734 133.208 61.4541 134.518 60.7952C133.379 61.1546 123.423 66.3494 114.462 71.577C107.342 75.7372 100.683 79.8103 97.5898 82.1137Z" fill="#37474F"/>
<path opacity="0.2" d="M134.782 64.8983C130.817 68.2009 126.578 71.1602 122.111 73.7442C117.417 76.4506 111.699 79.1515 107.512 81.041C105.745 81.8337 103.815 82.1957 101.881 82.0973C99.9472 81.9988 98.0641 81.4427 96.3869 80.4747L93.2313 78.6505L88.3877 60.9259C88.867 60.9869 89.3505 61.0097 89.8334 60.9939C93.4192 60.8877 100.31 56.9099 105.968 53.6427C111.626 50.3755 119.737 45.6925 117.014 43.3401L117.795 44.0398C125.792 51.2141 134.899 61.288 135.28 61.582C135.357 61.6746 135.427 61.7672 135.498 61.8543C135.721 62.3714 135.772 62.9464 135.643 63.4946C135.514 64.0427 135.212 64.5348 134.782 64.8983Z" fill="black"/>
<path d="M117.014 43.3401C119.483 45.0309 132.77 58.824 133.47 59.7007L133.314 60.041C132.77 59.1942 128.449 54.759 124.937 51.2549C121.797 48.1266 117.999 44.4863 117.248 43.9418L117.014 43.3401Z" fill="black"/>
<path opacity="0.5" d="M63.8834 59.8966L93.2312 78.6504L88.3875 60.9257C85.4144 60.5609 85.8745 60.6807 81.1806 57.9716L72.792 53.1253C72.2573 52.8163 71.6507 52.6536 71.0332 52.6536C70.4156 52.6536 69.809 52.8163 69.2743 53.1253L63.946 56.1992C63.6229 56.3848 63.3535 56.6511 63.1641 56.972C62.9747 57.2929 62.8719 57.6575 62.8655 58.0301C62.8592 58.4027 62.9497 58.7705 63.1281 59.0977C63.3065 59.4248 63.5668 59.7001 63.8834 59.8966Z" fill="black"/>
<g opacity="0.2">
<path d="M108.747 80.48C111.165 79.391 113.956 78.0596 116.722 76.6492C112.573 69.2245 108.282 62.8044 102.695 55.5212C100.078 56.9997 97.3884 58.4536 95.0088 59.4882C100.424 66.3167 104.677 73.1315 108.747 80.48Z" fill="white"/>
<path d="M106.586 53.2859L105.981 53.6426L104.348 54.5819C109.447 61.36 114.068 68.4853 118.176 75.9059C118.977 75.4866 119.769 75.0619 120.542 74.6344C116.123 67.3757 111.119 59.2213 106.586 53.2859Z" fill="white"/>
</g>
<path d="M52.29 74.6291L63.1399 68.5167L57.1228 65.0398L52.3064 67.8305L52.29 74.6291Z" fill="#263238"/>
<path d="M96.3975 100.116V101.75L103.125 97.8643L107.25 94.0008L101.23 90.5239L96.4138 93.3147V100.121L96.3975 100.116Z" fill="#263238"/>
<path d="M100.876 98.6784L99.3184 95.5881L103.021 93.4454C104.2 92.7702 105.768 92.8464 107.489 93.8402C111.146 95.9503 114.111 101.398 114.111 106.002C114.111 108.415 113.294 110.116 111.998 110.89L111.946 110.92L108.151 113.111L106.517 109.844C103.394 107.467 100.996 102.79 100.876 98.6784Z" fill="#37474F"/>
<path d="M100.876 98.6784L99.3184 95.5881L103.021 93.4454C104.2 92.7702 105.768 92.8464 107.489 93.8402C111.146 95.9503 114.111 101.398 114.111 106.002C114.111 108.415 113.294 110.116 111.998 110.89L111.946 110.92L108.151 113.111L106.517 109.844C103.394 107.467 100.996 102.79 100.876 98.6784Z" fill="#263238"/>
<path d="M97.0156 100.582C97.0156 104.551 99.221 109.15 102.172 111.693H102.186C102.636 112.084 103.122 112.433 103.637 112.733C107.294 114.846 110.261 112.823 110.259 108.216C110.259 104.736 108.565 100.775 106.175 98.1421C106.167 98.1361 106.161 98.1287 106.156 98.1203C105.43 97.31 104.586 96.615 103.651 96.0593C99.9915 93.9546 97.0156 95.9749 97.0156 100.582Z" fill="#37474F"/>
<path d="M103.637 98.8445C101.309 97.4995 99.4219 98.9016 99.4219 101.973C99.4219 105.044 101.309 108.622 103.637 109.964C105.964 111.306 107.851 109.909 107.851 106.838C107.851 103.767 105.964 100.187 103.637 98.8445Z" fill="#455A64"/>
<path d="M101.734 103.555C101.892 105.082 102.877 106.702 103.926 107.17C104.104 107.271 104.309 107.315 104.514 107.298C104.718 107.28 104.913 107.202 105.072 107.072C105.442 106.757 105.616 106.111 105.54 105.254C105.379 103.726 104.399 102.106 103.348 101.641C103.111 101.52 102.839 101.483 102.578 101.537C101.971 101.69 101.625 102.444 101.734 103.555Z" fill="#FAFAFA"/>
<path d="M102.109 103.359C102.267 104.883 103.253 106.503 104.301 106.972C104.539 107.091 104.811 107.126 105.071 107.072C105.442 106.757 105.616 106.111 105.54 105.254C105.379 103.726 104.399 102.106 103.348 101.641C103.11 101.52 102.839 101.483 102.577 101.537C102.207 101.856 102.019 102.504 102.109 103.359Z" fill="#E0E0E0"/>
<path d="M97.0156 100.582C97.0156 104.551 99.221 109.15 102.172 111.693C100.424 109.787 98.6138 106.604 97.974 103.566C97.4131 100.911 97.6228 97.0994 99.9017 96.1356C102.181 95.1717 105.189 97.2029 106.142 98.1258C105.417 97.3155 104.572 96.6205 103.637 96.0648C99.9915 93.9547 97.0156 95.9749 97.0156 100.582Z" fill="#455A64"/>
<path d="M56.7666 73.2159L55.2119 70.1257L58.9148 67.9829C60.091 67.305 61.6592 67.3839 63.3827 68.3777C67.0392 70.4878 70.0015 75.9331 70.0042 80.5399C70.0042 82.9522 69.1874 84.6539 67.8914 85.4271L64.0361 87.6543L62.4025 84.3871C59.2878 82.0156 56.8891 77.3244 56.7666 73.2159Z" fill="#37474F"/>
<path d="M56.7666 73.2159L55.2119 70.1257L58.9148 67.9829C60.091 67.305 61.6592 67.3839 63.3827 68.3777C67.0392 70.4878 70.0015 75.9331 70.0042 80.5399C70.0042 82.9522 69.1874 84.6539 67.8914 85.4271L64.0361 87.6543L62.4025 84.3871C59.2878 82.0156 56.8891 77.3244 56.7666 73.2159Z" fill="#263238"/>
<path d="M52.9082 75.1191C52.9082 79.0888 55.1136 83.6847 58.065 86.2277V86.2413C58.5171 86.6313 59.0037 86.9794 59.5189 87.2813C63.1754 89.3941 66.1431 87.3712 66.1377 82.7644C66.1377 79.2848 64.4469 75.3233 62.0537 72.6905L62.0319 72.6687C61.3075 71.8584 60.4638 71.1634 59.5298 70.6076C55.8841 68.4921 52.9082 70.5124 52.9082 75.1191Z" fill="#37474F"/>
<path d="M59.5292 73.382C57.2013 72.037 55.3145 73.4365 55.3145 76.5077C55.3145 79.5788 57.2013 83.1592 59.5292 84.5014C61.857 85.8437 63.7411 84.4443 63.7411 81.3731C63.7411 78.3019 61.8543 74.7243 59.5292 73.382Z" fill="#455A64"/>
<path d="M57.6236 78.0924C57.7843 79.6198 58.7672 81.2371 59.8181 81.7054C59.9967 81.8061 60.2015 81.8509 60.4059 81.8339C60.6103 81.8169 60.8048 81.7389 60.9644 81.6101C61.3346 81.2942 61.5089 80.649 61.4327 79.7913C61.272 78.2639 60.2919 76.6439 59.2382 76.1756C59.0003 76.0553 58.7285 76.0197 58.4677 76.0749C57.8605 76.2246 57.5174 76.9733 57.6236 78.0924Z" fill="#FAFAFA"/>
<path d="M57.9996 77.8936C58.1602 79.421 59.1431 81.041 60.1941 81.5093C60.4323 81.6284 60.7037 81.6639 60.9646 81.6101C61.3349 81.2942 61.5091 80.649 61.4329 79.7913C61.2722 78.2639 60.2921 76.6439 59.2384 76.1756C59.0005 76.0553 58.7287 76.0197 58.4679 76.0749C58.1003 76.3934 57.9097 77.0387 57.9996 77.8936Z" fill="#E0E0E0"/>
<path d="M52.9082 75.1191C52.9082 79.0887 55.1136 83.6846 58.065 86.2276C56.0167 83.9069 54.5735 81.116 53.8639 78.1031C53.3193 75.4458 53.5154 71.634 55.7942 70.6729C58.0731 69.7118 61.0817 71.7402 62.0319 72.6632C61.3075 71.8529 60.4638 71.1579 59.5298 70.6021C55.8841 68.4921 52.9082 70.5123 52.9082 75.1191Z" fill="#455A64"/>
<path d="M148.61 82.1899C146.364 84.7465 143.671 86.7232 140.731 88.4221C123.738 98.2238 116.014 93.7695 101.546 85.4136C87.5186 77.3136 71.8986 65.3393 70.6271 64.4217L88.0305 75.4077C88.4398 75.663 88.9166 75.789 89.3987 75.7691C89.8807 75.7492 90.3455 75.5845 90.7325 75.2963C91.1194 75.0082 91.4105 74.61 91.5677 74.1539C91.7248 73.6978 91.7408 73.2049 91.6135 72.7395L88.3844 60.9285C87.6847 58.538 86.5384 58.0044 84.9157 57.0705C81.7955 55.2844 76.4427 52.4419 68.2012 47.6745C61.0787 43.5687 57.6862 41.6847 56.8857 39.8523V39.7652C56.8857 39.6916 56.8857 39.6209 56.8857 39.5473C56.8857 39.384 56.8857 39.2234 56.9048 39.0491C57.03 37.5979 57.8959 35.8445 66.9787 30.3556C72.1137 27.2572 76.5925 25.7461 80.6711 25.7461C84.7496 25.7461 88.2592 27.1973 92.2506 29.3781C97.2685 32.1008 114.258 40.9604 117.013 43.34C119.769 45.7197 111.631 50.3754 105.981 53.6427C100.332 56.9099 93.4322 60.8877 89.8465 60.9939C89.3635 61.0096 88.8801 60.9869 88.4007 60.9258L93.2444 78.6504L96.4 80.4746C98.0772 81.4426 99.9602 81.9987 101.894 82.0972C103.828 82.1957 105.758 81.8336 107.525 81.041C111.699 79.1514 117.416 76.4505 122.11 73.7442C126.577 71.1601 130.816 68.2008 134.782 64.8982C135.21 64.5351 135.512 64.044 135.64 63.497C135.769 62.95 135.719 62.3761 135.498 61.8597C135.427 61.7671 135.356 61.6746 135.28 61.5874C136.69 62.6765 140.042 64.8873 140.453 65.1732C143.358 67.2016 146.361 69.5295 148.147 72.6742C149.658 75.3206 150.815 79.6742 148.61 82.1899Z" fill="#455A64"/>
<path d="M153.487 92.2911C152.218 97.113 146.383 101.859 142.052 104.306C135.517 108.004 128.438 110.955 120.896 110.296C118.114 110.054 115.339 109.409 113.001 107.832C111.874 107.073 111.819 106.558 111.46 105.262C111.054 103.804 110.479 102.399 109.747 101.074C108.497 98.7956 106.817 96.7917 104.958 95.5011C104.713 95.3305 104.465 95.1726 104.215 95.0274C100.185 92.6968 96.8634 94.5754 96.4359 99.1985C96.4114 99.4899 96.3924 99.7893 96.3924 100.105L67.9758 83.6874C67.9758 83.6874 67.9758 83.3416 67.8451 82.2716C67.7641 81.6198 67.6487 80.9727 67.4993 80.3331C67.0864 78.6863 66.4632 77.0996 65.6452 75.612C64.39 73.3331 62.7156 71.3346 60.8533 70.0386C60.6082 69.8671 60.3577 69.7119 60.11 69.5731C56.0777 67.2425 52.7587 69.1129 52.334 73.736C52.3039 74.0346 52.2894 74.3345 52.2904 74.6345L50.6868 73.7061C46.8532 71.4898 46.7879 67.7162 46.8206 64.9608C46.8424 64.4708 46.8614 63.9126 46.8777 63.3272V63.0876C46.9159 61.6991 46.9567 60.0927 47.0357 58.5054C47.0656 57.9608 47.0956 57.4163 47.1364 56.8718C47.1555 56.624 47.1745 56.379 47.1936 56.1394C47.248 55.524 47.3107 54.9387 47.3842 54.3941C47.6755 52.2813 48.1275 51.3638 48.6284 50.8329C48.8933 50.5704 49.1896 50.3418 49.5106 50.1522C49.7221 50.0056 49.9411 49.8702 50.1667 49.7465C50.3519 49.6485 50.5316 49.5587 50.6949 49.4743C50.5016 49.7983 50.3492 50.0569 50.2511 50.2284L52.8377 52.6789C54.4904 54.2362 57.0279 54.4132 59.0998 53.4766C59.2926 53.3902 59.4807 53.2939 59.6634 53.188L64.7086 50.2747C64.8755 50.1803 65.0153 50.0444 65.1143 49.8802C65.2133 49.7159 65.2682 49.5289 65.2736 49.3372C65.2791 49.1454 65.235 48.9556 65.1455 48.7859C65.0561 48.6163 64.9243 48.4726 64.763 48.3689L63.9871 47.8515L63.6358 47.6119L63.2764 47.3642C62.0567 46.5283 61.0575 45.7959 59.737 44.8865C57.2321 43.1522 56.8972 42.2946 56.8591 40.9822C56.8591 40.68 56.8591 40.3533 56.8591 39.9884C56.8591 39.6236 56.8591 39.3513 56.8781 39.0273C56.9272 41.1538 59.9793 42.9426 68.1881 47.6773C76.397 52.412 81.777 55.3008 84.8999 57.0733C86.5336 58.0099 87.6716 58.5381 88.3714 60.9286C85.3982 60.5664 85.8583 60.6835 81.1644 57.9745L72.7922 53.1281C72.2577 52.8185 71.651 52.6555 71.0333 52.6555C70.4157 52.6555 69.809 52.8185 69.2745 53.1281L63.9462 56.202C63.6243 56.388 63.3561 56.6541 63.1675 56.9745C62.979 57.2948 62.8766 57.6586 62.8703 58.0303C62.864 58.4019 62.954 58.7689 63.1315 59.0955C63.3091 59.4221 63.5682 59.6972 63.8836 59.8939L92.9536 78.4708L70.6277 64.4218C71.8992 65.3366 87.5083 77.3136 101.546 85.4109C116.015 93.7668 123.739 98.2265 140.731 88.4194C142.425 87.442 144.039 86.4618 145.335 85.0052C146.539 83.5937 147.276 81.845 147.448 79.9982C147.69 77.8418 147.323 75.661 146.786 73.5563C146.356 71.8765 145.697 69.8998 144.701 68.484C146.388 69.7957 147.961 71.2475 149.403 72.8239C149.602 73.0445 149.792 73.2677 149.977 73.4964C151.868 75.8008 153.138 78.5494 153.669 81.4821C154.372 85.3728 154.601 88.0573 153.487 92.2911Z" fill="#37474F"/>
<path d="M94.1813 36.2284C96.1825 37.3447 98.1836 38.4556 100.209 39.5229C98.2708 38.3058 96.3077 37.1269 94.3419 35.9534C92.3762 34.7799 91.2789 34.151 89.2914 33.0374L86.2964 31.3712C85.2863 30.8266 84.2871 30.2821 83.2715 29.7375C84.2381 30.3502 85.221 30.941 86.193 31.5427L89.1362 33.3097C91.0965 34.4995 92.1829 35.1148 94.1813 36.2284ZM66.2793 39.5501C67.2458 40.1627 68.226 40.7535 69.2007 41.3552L72.1439 43.1222C74.1097 44.2957 75.1961 44.9219 77.1945 46.0382C79.193 47.1545 81.1941 48.2626 83.2198 49.3327C81.2813 48.1129 79.3209 46.934 77.3552 45.7605C75.3894 44.587 74.303 43.9608 72.3046 42.8445L69.3096 41.1782C68.2941 40.6364 67.2921 40.081 66.2793 39.5501ZM89.1008 39.1716C91.0992 40.2879 93.1004 41.3961 95.1261 42.4661C93.1875 41.2463 91.2245 40.0674 89.2587 38.8939C87.2929 37.7204 86.2093 37.0942 84.2109 35.9779L81.2159 34.3144C80.2085 33.7698 79.2066 33.2253 78.191 32.6808C79.1576 33.2934 80.1405 33.8842 81.1124 34.4859L84.0557 36.2529C85.9997 37.4318 87.086 38.0581 89.1008 39.1716ZM82.2941 43.095C84.2925 44.2113 86.2937 45.3194 88.3194 46.3894C86.3808 45.1697 84.4178 43.9908 82.4547 42.8173C80.4917 41.6438 79.4026 41.0176 77.4042 39.9013L74.4092 38.235C73.4018 37.6905 72.3999 37.146 71.3843 36.6014C72.3536 37.214 73.3338 37.8021 74.3085 38.4066L77.2517 40.1736C79.2038 41.3525 80.2929 41.9814 82.2941 43.095Z" fill="#263238"/>
<path d="M115.895 79.5598C117.51 80.2372 119.088 81.0007 120.621 81.8469C122.154 82.6882 123.665 83.5703 125.108 84.5695C126.205 85.2526 127.255 86.0095 128.25 86.8348C129.63 87.9239 130.918 89.1001 132.212 90.2844L131.302 89.3124C131 88.9939 130.7 88.6699 130.379 88.3731C129.739 87.7687 129.102 87.1642 128.424 86.6007C127.451 85.7349 126.41 84.9475 125.312 84.2455C123.846 83.2766 122.324 82.3939 120.755 81.6018C119.97 81.207 119.17 80.8367 118.367 80.4855C117.564 80.1343 116.736 79.8157 115.895 79.5598Z" fill="#37474F"/>
<path d="M128.928 71.3074C130.341 72.2712 131.708 73.2949 133.044 74.3541C134.381 75.4132 135.699 76.4968 136.96 77.6485C138.22 78.8002 138.443 78.9118 139.641 80.1261C140.839 81.3404 141.997 82.5956 143.151 83.8589C142.628 83.1837 142.105 82.4976 141.553 81.8496C141 81.2016 140.436 80.5509 139.848 79.9274C139.021 79.0212 138.139 78.1664 137.207 77.3681C135.922 76.2327 134.596 75.1436 133.219 74.1253C132.53 73.6162 131.827 73.1261 131.119 72.6469C130.412 72.1677 129.668 71.7185 128.928 71.3074Z" fill="#37474F"/>
<path d="M64.7162 50.2612L59.6711 53.1744C57.512 54.4214 54.6505 54.367 52.8453 52.6653L50.2588 50.2149C50.9749 48.9788 54.4408 43.1686 56.8831 40.9578C56.8831 41.9515 57.3214 42.9208 58.4486 43.8002C60.1775 45.148 62.7668 47.0293 64.7707 48.3526C64.9326 48.4562 65.0649 48.5999 65.1548 48.7699C65.2447 48.9398 65.289 49.1301 65.2835 49.3223C65.2781 49.5144 65.2229 49.7019 65.1235 49.8664C65.0241 50.0309 64.8838 50.1669 64.7162 50.2612Z" fill="black"/>
<path d="M98.8125 85.4571L101.217 86.9791C101.268 87.0124 101.31 87.0574 101.341 87.1104C101.371 87.1635 101.388 87.223 101.391 87.284L101.445 88.4738C101.448 88.5173 101.438 88.5607 101.417 88.5989C101.396 88.6372 101.365 88.6689 101.327 88.6904C101.289 88.7119 101.246 88.7224 101.202 88.7207C101.159 88.719 101.117 88.7051 101.08 88.6807L98.6845 87.186C98.6321 87.1529 98.5884 87.1076 98.5571 87.0541C98.5258 87.0006 98.5079 86.9403 98.5048 86.8783L98.4476 85.664C98.4452 85.6205 98.455 85.5772 98.4759 85.5389C98.4968 85.5006 98.528 85.469 98.5659 85.4475C98.6038 85.426 98.647 85.4155 98.6905 85.4172C98.7341 85.4189 98.7763 85.4327 98.8125 85.4571Z" fill="#BA68C8"/>
<path d="M67.9785 83.6875V85.3211L96.3978 101.728V100.094L67.9785 83.6875Z" fill="#37474F"/>
<g opacity="0.2">
<path d="M76.6556 87.9185C76.6762 87.9175 76.6964 87.9123 76.7151 87.9034C76.7337 87.8944 76.7503 87.8818 76.764 87.8664C76.7777 87.8509 76.7882 87.8329 76.7948 87.8133C76.8014 87.7937 76.8041 87.773 76.8026 87.7524C76.8026 87.649 76.2363 77.1748 76.5303 69.7473C76.5318 69.7059 76.517 69.6656 76.4889 69.635C76.4609 69.6044 76.422 69.5861 76.3806 69.584C76.3404 69.584 76.3017 69.5996 76.2727 69.6275C76.2438 69.6554 76.2268 69.6935 76.2254 69.7337C75.9205 77.1775 76.4813 87.6653 76.4977 87.7715C76.5004 87.8114 76.5183 87.8489 76.5476 87.8762C76.5769 87.9035 76.6155 87.9186 76.6556 87.9185Z" fill="black"/>
</g>
<path opacity="0.2" d="M60.7329 66.4148C62.9111 67.2316 64.7816 68.7618 66.2872 70.4988C67.8256 72.3048 69.0164 74.38 69.7994 76.6194C70.246 77.8718 70.687 79.2359 70.7143 80.5755C70.7143 80.698 70.5128 80.8096 70.4638 80.6626C70.2678 80.0772 70.1398 79.4728 69.9846 78.8765C69.8294 78.2802 69.6579 77.7221 69.4646 77.1531C69.0734 76.0103 68.5842 74.9035 68.0025 73.845C66.9149 71.8598 65.4607 70.0989 63.717 68.6556C62.7544 67.8844 61.731 67.1924 60.6567 66.5863C60.5805 66.551 60.6458 66.3821 60.7329 66.4148Z" fill="black"/>
<path d="M89.8335 60.9939C90.2261 60.9771 90.6167 60.9288 91.0015 60.8496C90.7728 61.6664 91.0424 62.7337 91.5461 64.6777C92.3629 67.9286 94.7861 75.8407 95.4504 77.9616C96.1147 80.0826 98.1132 81.2289 99.5725 81.7462C98.4608 81.472 97.393 81.0431 96.4006 80.472L93.245 78.6505L88.4014 60.9258C88.8762 60.9862 89.3551 61.009 89.8335 60.9939Z" fill="black"/>
<path d="M78.5425 69.3497L75.6973 67.5746L77.2519 55.6982L79.2476 56.8499L78.5425 69.3497Z" fill="black"/>
<path d="M48.1704 56.1095C47.8486 56.1503 47.523 56.1503 47.2012 56.1095C47.2556 55.4941 47.3182 54.9088 47.3918 54.3642C47.6831 52.2514 48.135 51.3339 48.636 50.803C48.6566 50.8268 48.6794 50.8487 48.7041 50.8683C49.4664 51.5408 50.5011 52.6789 50.9585 53.6645C51.0442 53.8465 51.1029 54.04 51.1327 54.239C51.326 55.6738 49.1588 55.9924 48.1704 56.1095Z" fill="#BA68C8"/>
<path d="M145.098 83.7527C140.395 87.1515 135.352 90.0531 130.05 92.4109C129.266 92.7648 128.874 93.7069 129.38 94.4011C130.145 95.4276 131.115 96.2843 132.228 96.9169C132.982 97.328 134.349 97.1892 135.152 96.8951C139.672 95.178 143.439 93.0253 146.454 90.4369C147.108 89.8761 147.87 88.7353 147.897 87.8749C147.938 86.6497 147.753 84.9997 147.334 83.9216C147.021 83.1211 145.793 83.2354 145.098 83.7527Z" fill="#263238"/>
<path d="M133.507 96.2418C133.954 96.2424 134.398 96.1678 134.82 96.0212C139.22 94.3495 142.931 92.2313 145.847 89.7264C146.405 89.2472 146.936 88.3324 146.963 87.845C147.007 86.6458 146.842 85.4481 146.475 84.3055C146.326 84.0006 145.833 84.3791 145.659 84.5125C140.902 87.9476 135.804 90.882 130.444 93.2686C130.365 93.3029 130.293 93.3539 130.235 93.4183C130.177 93.4827 130.133 93.5588 130.107 93.6416C130.094 93.6775 130.091 93.7161 130.097 93.7537C130.103 93.7913 130.119 93.8267 130.142 93.8567C130.825 94.7733 131.691 95.5381 132.685 96.1029C132.946 96.2093 133.226 96.2567 133.507 96.2418Z" fill="black"/>
<path d="M140.769 93.7015L141.678 93.4837C141.186 91.5923 140.461 89.7695 139.519 88.0574L138.702 88.5202C139.599 90.157 140.293 91.8969 140.769 93.7015Z" fill="#263238"/>
<path d="M140.477 90.6167C137.498 92.3857 134.388 93.9231 131.174 95.2153L131.225 95.3623C134.45 94.0664 137.57 92.5244 140.559 90.7501C144.166 88.5365 146.992 86.4101 147.02 86.3938L146.927 86.2685C146.897 86.2849 144.076 88.4086 140.477 90.6167ZM140.793 91.1421C137.865 92.8822 134.804 94.3889 131.639 95.6482L131.691 95.7952C134.866 94.5302 137.936 93.0181 140.875 91.2728C144.482 89.062 147.06 87.0826 147.085 87.0608L146.99 86.9383C146.965 86.9574 144.395 88.934 140.793 91.1312V91.1421ZM141.427 92.1904C138.6 93.8774 135.637 95.3272 132.57 96.5249L132.622 96.6719C135.699 95.4673 138.672 94.0102 141.509 92.3156C143.49 91.1242 145.399 89.8168 147.227 88.4004L147.129 88.2779C145.308 89.6946 143.404 91.0011 141.427 92.1904ZM141.103 91.6758C138.232 93.3856 135.227 94.8606 132.118 96.0865L132.17 96.2335C135.296 95.0001 138.317 93.5169 141.204 91.7983C143.261 90.5488 145.251 89.1929 147.167 87.7361L147.069 87.6135C145.154 89.0729 143.163 90.429 141.103 91.6758ZM140.153 90.1021C137.122 91.8915 133.963 93.4558 130.703 94.7824L130.754 94.9294C134.025 93.5985 137.194 92.0296 140.235 90.2355C143.842 88.0247 146.919 85.7485 146.949 85.7267L146.856 85.6015C146.821 85.6124 143.761 87.8831 140.158 90.0912L140.153 90.1021ZM129.771 93.9138L129.823 94.0608C133.192 92.6718 136.46 91.0468 139.6 89.1981C143.208 86.9846 146.78 84.4144 146.818 84.3899L146.726 84.2646C146.69 84.2892 143.121 86.8566 139.519 89.0647C136.389 90.9004 133.133 92.5135 129.777 93.892L129.771 93.9138ZM139.845 89.5875C136.763 91.4036 133.555 92.9968 130.245 94.3549L130.297 94.5019C133.616 93.1383 136.834 91.5406 139.927 89.7209C143.535 87.5101 146.859 85.0923 146.892 85.0624L146.799 84.9372C146.764 84.9399 143.445 87.3603 139.843 89.5657L139.845 89.5875Z" fill="#263238"/>
<path d="M141.719 96.3042C136.895 98.8172 130.63 102.294 123.728 102.18C116.826 102.065 110.515 97.4913 110.515 97.4913C114.166 100.764 118.791 102.746 123.679 103.133C131.768 103.718 136.93 100.385 141.888 97.7118C147.039 94.9428 151.45 89.5138 152.188 86.2629C151.162 88.7896 146.549 93.7939 141.719 96.3042Z" fill="#263238"/>
<path d="M132.715 106.452C137.145 105.123 140.314 103.206 143.404 101.18C146.495 99.1548 148.482 97.3061 149.596 95.7624C150.647 94.3057 151.229 92.4489 150.546 92.7375C149.421 93.8048 146.987 96.0727 145.416 97.1264C140.714 100.293 135.748 104.173 127.85 104.682C127.339 104.685 126.831 104.748 126.336 104.87C124.433 105.537 129.704 107.356 132.715 106.452Z" fill="#263238"/>
<path d="M116.055 103.073C116.497 102.999 117.605 103.266 119.486 103.756C121.367 104.246 121.825 104.282 122.53 104.742C123.126 105.131 124.724 106.375 125.492 106.738C126.707 107.323 125.506 107.799 122.165 107.892C118.824 107.985 117.654 107.007 116.856 105.986C116.058 104.965 115.054 103.239 116.055 103.073Z" fill="#37474F"/>
<path d="M152.891 91.4496C152.564 91.7357 152.186 91.9566 151.777 92.1004C151.205 92.0786 151.668 91.0794 152.049 89.6009C152.431 88.1225 153.599 86.557 153.955 85.457C153.87 87.4932 153.512 89.5086 152.891 91.4496Z" fill="#37474F"/>
<path d="M125.223 95.0627C126.2 95.1063 127.129 95.2506 128.013 95.8795C128.898 96.5085 130.483 98.0305 129.47 99.2039C129.053 99.6858 128.4 99.8873 127.774 100.021C125.673 100.416 123.504 100.216 121.512 99.4408C120.2 98.9692 119.009 98.2133 118.024 97.2273C117.726 96.9542 117.501 96.6119 117.368 96.2308C117.307 96.0402 117.302 95.8361 117.354 95.6429C117.406 95.4497 117.513 95.2757 117.662 95.1417C118.01 94.8694 118.574 94.8694 118.988 94.8885L122.288 95.0273C123.271 95.0464 124.245 95.0192 125.223 95.0627Z" fill="#FAFAFA"/>
<path d="M121.726 99.5035C121.154 98.1034 121.147 96.5359 121.707 95.1309C121.726 95.0819 121.751 95.0329 121.772 94.9839L118.99 94.8668C118.576 94.8477 118.012 94.8668 117.664 95.12C117.515 95.254 117.408 95.428 117.356 95.6212C117.304 95.8144 117.309 96.0185 117.37 96.2091C117.503 96.5902 117.728 96.9325 118.026 97.2056C119.011 98.1916 120.202 98.9475 121.514 99.4191L121.726 99.5035Z" fill="#BA68C8"/>
<path d="M148.755 80.3249C148.569 82.1539 148.821 84.0009 149.49 85.7131C149.527 85.8239 149.591 85.924 149.675 86.0044C150.568 86.7123 151.684 82.6855 151.744 82.2335C151.959 80.5999 151.45 78.174 150.631 76.4642C150.285 75.7399 149.866 75.4513 149.555 76.328C149.267 77.2162 149.054 78.1269 148.918 79.0507C148.847 79.47 148.793 79.8975 148.755 80.3249Z" fill="#FAFAFA"/>
<path d="M150.633 76.4642C150.285 75.7399 149.865 75.4513 149.544 76.328C149.387 76.7842 149.259 77.2498 149.16 77.7221C150.123 78.2487 150.908 79.0482 151.417 80.02C151.543 80.2596 151.649 80.5101 151.758 80.7606C151.636 79.2738 151.256 77.8197 150.633 76.4642Z" fill="#BA68C8"/>
<path d="M88.6348 80.1179C89.2011 82.8161 92.1906 83.3852 94.4287 83.3198C95.6158 83.2844 96.5905 83.0666 96.8791 82.8978C97.7422 82.3968 97.3447 81.3622 96.8791 80.7632C96.095 79.7477 92.5773 77.7084 90.3664 77.6376C89.1004 77.594 88.24 78.2257 88.6348 80.1179Z" fill="#263238"/>
<path d="M88.6348 80.1179C89.2011 82.8161 92.1906 83.3852 94.4287 83.3198C95.6158 83.2844 96.5905 83.0666 96.8791 82.8978C97.7422 82.3968 97.3447 81.3622 96.8791 80.7632C97.3147 81.58 95.0086 82.0946 92.9557 81.3595C90.9028 80.6244 89.3699 79.0316 90.3664 77.6376C89.1004 77.594 88.24 78.2257 88.6348 80.1179Z" fill="#455A64"/>
<path d="M88.6348 80.1179C89.2011 82.8161 92.1906 83.3852 94.4286 83.3198C92.2015 83.2545 90.4236 81.9721 89.7538 80.5699C89.084 79.1677 89.5931 77.8173 90.38 77.6376C89.1003 77.594 88.24 78.2257 88.6348 80.1179Z" fill="#37474F"/>
<path d="M48.3748 73.8395L50.6809 75.1682V70.6567C47.3456 68.7318 47.7948 69.1783 46.9154 67.964C46.5939 67.5514 46.3872 67.061 46.3164 66.5427C46.3164 70.5859 46.5397 72.7804 48.3748 73.8395Z" fill="#263238"/>
<path d="M46.3164 66.5427C46.3872 67.061 46.5939 67.5513 46.9154 67.9639C47.7948 69.1782 47.3456 68.7317 50.6809 70.6566L51.9551 69.8943C51.9551 69.8943 51.4432 69.573 49.4665 68.4404C47.4899 67.3078 47.0161 66.4474 46.8963 65.7177C46.8422 65.4664 46.8176 65.2096 46.8228 64.9526C46.3981 65.293 46.3164 65.7613 46.3164 66.5427Z" fill="#455A64"/>
<path d="M51.9549 69.9053V74.4331L50.6807 75.1682V70.6567L51.9549 69.9053Z" fill="#37474F"/>
</svg>
