<svg width="14" height="18" viewBox="0 0 14 18" fill="none" xmlns="http://www.w3.org/2000/svg">
<path fill-rule="evenodd" clip-rule="evenodd" d="M7.83301 1.49996C7.83301 1.27895 7.74522 1.06698 7.58894 0.910704C7.43265 0.754423 7.22069 0.666626 6.99968 0.666626C6.77867 0.666626 6.5667 0.754423 6.41042 0.910704C6.25414 1.06698 6.16635 1.27895 6.16635 1.49996V2.12496H5.70218C4.80887 2.1249 3.94912 2.46529 3.29795 3.07682C2.64678 3.68836 2.25314 4.52507 2.19718 5.41663L2.01301 8.36163C1.94279 9.4845 1.56576 10.5666 0.923012 11.49C0.790207 11.6808 0.70906 11.9029 0.687464 12.1344C0.665869 12.3659 0.704559 12.5991 0.799773 12.8113C0.894986 13.0234 1.04348 13.2073 1.23082 13.3451C1.41816 13.4829 1.63796 13.5698 1.86885 13.5975L4.70801 13.9375V14.8333C4.70801 15.4411 4.94946 16.024 5.37923 16.4537C5.809 16.8835 6.39189 17.125 6.99968 17.125C7.60747 17.125 8.19036 16.8835 8.62013 16.4537C9.0499 16.024 9.29135 15.4411 9.29135 14.8333V13.9375L12.1305 13.5966C12.3613 13.5689 12.5809 13.4819 12.7681 13.3442C12.9554 13.2065 13.1038 13.0227 13.199 12.8107C13.2942 12.5986 13.3329 12.3656 13.3114 12.1342C13.2899 11.9028 13.2089 11.6808 13.0763 11.49C12.4336 10.5666 12.0565 9.48451 11.9863 8.36163L11.8022 5.41746C11.7464 4.52576 11.3529 3.68884 10.7017 3.07713C10.0505 2.46542 9.19062 2.12491 8.29718 2.12496H7.83301V1.49996ZM5.70218 3.37496C5.12682 3.37489 4.57307 3.5941 4.15366 3.98797C3.73425 4.38183 3.48072 4.92073 3.44468 5.49496L3.26135 8.43996C3.17663 9.79078 2.72294 11.0925 1.94968 12.2033C1.94007 12.2171 1.93419 12.2332 1.93263 12.2499C1.93106 12.2666 1.93385 12.2835 1.94072 12.2989C1.9476 12.3142 1.95833 12.3275 1.97188 12.3375C1.98542 12.3475 2.00131 12.3538 2.01801 12.3558L5.13218 12.73C6.37301 12.8783 7.62635 12.8783 8.86718 12.73L11.9813 12.3558C11.998 12.3538 12.0139 12.3475 12.0275 12.3375C12.041 12.3275 12.0518 12.3142 12.0586 12.2989C12.0655 12.2835 12.0683 12.2666 12.0667 12.2499C12.0652 12.2332 12.0593 12.2171 12.0497 12.2033C11.2767 11.0924 10.8233 9.7907 10.7388 8.43996L10.5547 5.49496C10.5186 4.92073 10.2651 4.38183 9.8457 3.98797C9.42629 3.5941 8.87253 3.37489 8.29718 3.37496H5.70218ZM6.99968 15.875C6.42468 15.875 5.95801 15.4083 5.95801 14.8333V14.2083H8.04135V14.8333C8.04135 15.4083 7.57468 15.875 6.99968 15.875Z" fill="black"/>
</svg>
