<svg width="20" height="20" viewBox="0 0 20 20" fill="none" xmlns="http://www.w3.org/2000/svg">
<path d="M8.75757 3.05416C8.91389 2.87957 9.10528 2.73991 9.31923 2.6443C9.53318 2.54869 9.76489 2.49927 9.99924 2.49927C10.2336 2.49927 10.4653 2.54869 10.6792 2.6443C10.8932 2.73991 11.0846 2.87957 11.2409 3.05416L11.8242 3.70583C11.991 3.89207 12.1974 4.03843 12.4284 4.13407C12.6593 4.22971 12.9088 4.27218 13.1584 4.25833L14.0334 4.20999C14.2674 4.19709 14.5016 4.2337 14.7205 4.31743C14.9394 4.40116 15.1382 4.53012 15.3039 4.6959C15.4696 4.86168 15.5985 5.06055 15.6821 5.27952C15.7658 5.49848 15.8023 5.73263 15.7892 5.96666L15.7409 6.84083C15.7272 7.09027 15.7697 7.33961 15.8653 7.5704C15.961 7.80119 16.1073 8.00753 16.2934 8.17416L16.9451 8.75749C17.1198 8.91382 17.2596 9.10525 17.3553 9.31928C17.451 9.53331 17.5004 9.76513 17.5004 9.99958C17.5004 10.234 17.451 10.4658 17.3553 10.6799C17.2596 10.8939 17.1198 11.0853 16.9451 11.2417L16.2934 11.825C16.1072 11.9917 15.9608 12.1982 15.8652 12.4291C15.7695 12.6601 15.7271 12.9096 15.7409 13.1592L15.7892 14.0342C15.8021 14.2682 15.7655 14.5023 15.6818 14.7213C15.5981 14.9402 15.4691 15.139 15.3033 15.3047C15.1375 15.4704 14.9387 15.5993 14.7197 15.6829C14.5007 15.7665 14.2666 15.803 14.0326 15.79L13.1584 15.7417C12.909 15.7279 12.6596 15.7705 12.4288 15.8661C12.198 15.9617 11.9917 16.108 11.8251 16.2942L11.2417 16.9458C11.0854 17.1206 10.894 17.2603 10.6799 17.356C10.4659 17.4517 10.2341 17.5012 9.99965 17.5012C9.7652 17.5012 9.53339 17.4517 9.31936 17.356C9.10533 17.2603 8.9139 17.1206 8.75757 16.9458L8.17424 16.2942C8.00752 16.1079 7.80104 15.9616 7.5701 15.8659C7.33915 15.7703 7.08965 15.7278 6.84007 15.7417L5.96507 15.79C5.73103 15.8029 5.49691 15.7663 5.27798 15.6826C5.05905 15.5988 4.86025 15.4699 4.69454 15.3041C4.52884 15.1383 4.39997 14.9394 4.31635 14.7205C4.23272 14.5015 4.19623 14.2674 4.20924 14.0333L4.25757 13.1592C4.2713 12.9097 4.22877 12.6604 4.13313 12.4296C4.0375 12.1988 3.89121 11.9925 3.70507 11.8258L3.0534 11.2425C2.87868 11.0862 2.7389 10.8947 2.64321 10.6807C2.54751 10.4667 2.49805 10.2349 2.49805 10.0004C2.49805 9.76596 2.54751 9.53415 2.64321 9.32012C2.7389 9.10609 2.87868 8.91466 3.0534 8.75833L3.70507 8.17499C3.89132 8.00828 4.03768 7.8018 4.13332 7.57085C4.22896 7.33991 4.27142 7.09041 4.25757 6.84083L4.20924 5.96583C4.19646 5.73186 4.23316 5.49782 4.31694 5.27899C4.40072 5.06017 4.52971 4.86146 4.69547 4.69586C4.86124 4.53025 5.06006 4.40145 5.27897 4.31788C5.49788 4.2343 5.73195 4.19782 5.9659 4.21083L6.84007 4.25916C7.08951 4.27288 7.33885 4.23036 7.56964 4.13472C7.80044 4.03909 8.00678 3.89279 8.1734 3.70666L8.75757 3.05416Z" stroke="black" stroke-width="1.5"/>
<path d="M7.91602 7.91663H7.92435V7.92496H7.91602V7.91663ZM12.0827 12.0833H12.091V12.0916H12.0827V12.0833Z" stroke="black" stroke-width="2.25" stroke-linejoin="round"/>
<path d="M12.5 7.5L7.5 12.5" stroke="black" stroke-width="1.5" stroke-linecap="round" stroke-linejoin="round"/>
</svg>
