<svg width="18" height="18" viewBox="0 0 18 18" fill="none" xmlns="http://www.w3.org/2000/svg">
<path d="M7.75757 2.05416C7.91389 1.87957 8.10528 1.73991 8.31923 1.6443C8.53318 1.54869 8.76489 1.49927 8.99924 1.49927C9.23358 1.49927 9.46529 1.54869 9.67925 1.6443C9.8932 1.73991 10.0846 1.87957 10.2409 2.05416L10.8242 2.70583C10.991 2.89207 11.1974 3.03843 11.4284 3.13407C11.6593 3.22971 11.9088 3.27218 12.1584 3.25833L13.0334 3.20999C13.2674 3.19709 13.5016 3.2337 13.7205 3.31743C13.9394 3.40116 14.1382 3.53012 14.3039 3.6959C14.4696 3.86168 14.5985 4.06055 14.6821 4.27952C14.7658 4.49848 14.8023 4.73263 14.7892 4.96666L14.7409 5.84083C14.7272 6.09027 14.7697 6.33961 14.8653 6.5704C14.961 6.80119 15.1073 7.00753 15.2934 7.17416L15.9451 7.75749C16.1198 7.91382 16.2596 8.10525 16.3553 8.31928C16.451 8.53331 16.5004 8.76513 16.5004 8.99958C16.5004 9.23403 16.451 9.46584 16.3553 9.67987C16.2596 9.8939 16.1198 10.0853 15.9451 10.2417L15.2934 10.825C15.1072 10.9917 14.9608 11.1982 14.8652 11.4291C14.7695 11.6601 14.7271 11.9096 14.7409 12.1592L14.7892 13.0342C14.8021 13.2682 14.7655 13.5023 14.6818 13.7213C14.5981 13.9402 14.4691 14.139 14.3033 14.3047C14.1375 14.4704 13.9387 14.5993 13.7197 14.6829C13.5007 14.7665 13.2666 14.803 13.0326 14.79L12.1584 14.7417C11.909 14.7279 11.6596 14.7705 11.4288 14.8661C11.198 14.9617 10.9917 15.108 10.8251 15.2942L10.2417 15.9458C10.0854 16.1206 9.89398 16.2603 9.67995 16.356C9.46592 16.4517 9.2341 16.5012 8.99965 16.5012C8.7652 16.5012 8.53339 16.4517 8.31936 16.356C8.10533 16.2603 7.9139 16.1206 7.75757 15.9458L7.17424 15.2942C7.00752 15.1079 6.80104 14.9616 6.5701 14.8659C6.33915 14.7703 6.08965 14.7278 5.84007 14.7417L4.96507 14.79C4.73103 14.8029 4.49691 14.7663 4.27798 14.6826C4.05905 14.5988 3.86025 14.4699 3.69454 14.3041C3.52884 14.1383 3.39997 13.9394 3.31635 13.7205C3.23272 13.5015 3.19623 13.2674 3.20924 13.0333L3.25757 12.1592C3.2713 11.9097 3.22877 11.6604 3.13313 11.4296C3.0375 11.1988 2.89121 10.9925 2.70507 10.8258L2.0534 10.2425C1.87868 10.0862 1.7389 9.89473 1.64321 9.6807C1.54751 9.46667 1.49805 9.23486 1.49805 9.00041C1.49805 8.76596 1.54751 8.53415 1.64321 8.32012C1.7389 8.10609 1.87868 7.91466 2.0534 7.75833L2.70507 7.17499C2.89132 7.00828 3.03768 6.8018 3.13332 6.57085C3.22896 6.33991 3.27142 6.09041 3.25757 5.84083L3.20924 4.96583C3.19646 4.73186 3.23316 4.49782 3.31694 4.27899C3.40072 4.06017 3.52971 3.86146 3.69547 3.69586C3.86124 3.53025 4.06006 3.40145 4.27897 3.31788C4.49788 3.2343 4.73195 3.19782 4.9659 3.21083L5.84007 3.25916C6.08951 3.27288 6.33885 3.23036 6.56964 3.13472C6.80044 3.03909 7.00678 2.89279 7.1734 2.70666L7.75757 2.05416Z" stroke="black" stroke-width="1.5"/>
<path d="M6.91602 6.91663H6.92435V6.92496H6.91602V6.91663ZM11.0827 11.0833H11.091V11.0916H11.0827V11.0833Z" stroke="black" stroke-width="2.25" stroke-linejoin="round"/>
<path d="M11.5 6.5L6.5 11.5" stroke="black" stroke-width="1.5" stroke-linecap="round" stroke-linejoin="round"/>
</svg>
