<svg xmlns="http://www.w3.org/2000/svg" data-name="Layer 1" viewBox="0 0 1500 1500" id="Boycheckoutonlineorderinsaleperiod"><polygon fill="#364163" points="411.43 1401.81 395.91 1401.81 395.91 1205.55 364.65 1148.22 411.43 1148.22 411.43 1401.81" class="color633e36 svgShape"></polygon><polygon fill="#364163" points="574.06 1416.54 558.53 1416.54 558.53 1206.34 527.28 1149.02 574.06 1149.02 574.06 1416.54" class="color633e36 svgShape"></polygon><path fill="#31384c" d="M214.85,1376.64a17.34,17.34,0,1,1-17.34-17.34A17.34,17.34,0,0,1,214.85,1376.64Z" class="color32314c svgShape"></path><circle cx="188.99" cy="1376.64" r="17.34" fill="#515a77" class="color515177 svgShape"></circle><path fill="#646e8b" d="M199.71,1376.64A10.72,10.72,0,1,1,189,1365.92,10.72,10.72,0,0,1,199.71,1376.64Z" class="color64648b svgShape"></path><rect width="44.56" height="167.31" x="171.97" y="1189.2" fill="#515a77" class="color515177 svgShape"></rect><polygon fill="#31384c" points="216.53 1233.76 171.97 1245.11 171.97 1189.2 216.53 1189.2 216.53 1233.76" class="color32314c svgShape"></polygon><path fill="#404861" d="M67.77,1164.38H339a19.49,19.49,0,0,1,19.49,19.49V1223a0,0,0,0,1,0,0H67.77a0,0,0,0,1,0,0v-58.67A0,0,0,0,1,67.77,1164.38Z" class="color404061 svgShape"></path><path fill="#31384c" d="M67.77,1164.38h78.28a26.38,26.38,0,0,1,26.38,26.38v5.9A26.38,26.38,0,0,1,146.06,1223H67.77a0,0,0,0,1,0,0v-58.67A0,0,0,0,1,67.77,1164.38Z" class="color32314c svgShape"></path><path fill="#404861" d="M67.77,1164.38,1.23,854.21a54.42,54.42,0,0,1,53.21-65.84H213.7a43.64,43.64,0,0,1,43.48,39.93l28.6,336.08Z" class="color404061 svgShape"></path><path fill="#31384c" d="M285.78,1164.38l-1.38-16.16L72.06,1164.38Z" class="color32314c svgShape"></path><path fill="#31384c" d="M51.55,856.5a55.58,55.58,0,0,1,54.34-67.24H222.41a43.91,43.91,0,0,0-8.71-.89H54.44A54.42,54.42,0,0,0,1.23,854.21l66.54,310.17H117.6Z" class="color32314c svgShape"></path><rect width="175.72" height="23.12" x="106.81" y="1348.95" fill="#515a77" class="color515177 svgShape"></rect><rect width="175.77" height="11.57" x="106.76" y="1348.95" fill="#646e8b" class="color64648b svgShape"></rect><path fill="#31384c" d="M152.74,1388.94a17.34,17.34,0,1,1-17.34-17.35A17.35,17.35,0,0,1,152.74,1388.94Z" class="color32314c svgShape"></path><path fill="#515a77" d="M144.22,1388.94a17.34,17.34,0,1,1-17.34-17.35A17.34,17.34,0,0,1,144.22,1388.94Z" class="color515177 svgShape"></path><path fill="#646e8b" d="M137.6,1388.94a10.72,10.72,0,1,1-10.72-10.72A10.72,10.72,0,0,1,137.6,1388.94Z" class="color64648b svgShape"></path><path fill="#31384c" d="M280.11,1388.94a17.34,17.34,0,1,1-17.34-17.35A17.34,17.34,0,0,1,280.11,1388.94Z" class="color32314c svgShape"></path><path fill="#515a77" d="M271.6,1388.94a17.34,17.34,0,1,1-17.34-17.35A17.34,17.34,0,0,1,271.6,1388.94Z" class="color515177 svgShape"></path><path fill="#646e8b" d="M265,1388.94a10.72,10.72,0,1,1-10.72-10.72A10.72,10.72,0,0,1,265,1388.94Z" class="color64648b svgShape"></path><path fill="#aab4d1" d="M394.07,1411.85s-3.69.68-4.61,6v.94a6.94,6.94,0,0,0,5,6.66c6.84,2,21.32,4,46.44,7.21,38.43,4.86,57.56-2.52,62.17-6.58s5-16.1-1.48-15.55S394.07,1411.85,394.07,1411.85Z" class="coloraac1d1 svgShape"></path><path fill="#d6dae8" d="M387,1379.05l.69,3.52a9.82,9.82,0,0,1,.17,2c-.1,4.14-.12,20.26,4.68,30.08a9,9,0,0,0,5.68,4.62c5.17,1.46,17.3,3.93,45.58,7.18,29.94,3.44,46-1.19,53.79-5a9.29,9.29,0,0,0,4.63-11.06c-2.86-9.46-10.53-25.5-29.93-27.05-13.92-1.12-22.06-2.59-26.68-3.76a9.24,9.24,0,0,1-6.73-7l-2.37-10.75a9.31,9.31,0,0,0-9.38-7.29l-21.1.65A20,20,0,0,0,387,1379.05Z" class="colord6e0e8 svgShape"></path><path fill="#aab4d1" d="M408.7 1391c.34 6.45-2.4 11.83-6.13 12s-7-4.86-7.38-11.3 2.4-11.83 6.13-12S408.35 1384.57 408.7 1391zM289.15 1409.09s-3.75.08-5.52 5.21l-.15.93a7 7 0 003.88 7.39c6.43 3.06 20.39 7.4 44.68 14.57 37.15 11 57.21 6.76 62.42 3.5s7.5-15.1 1-15.59S289.15 1409.09 289.15 1409.09z" class="coloraac1d1 svgShape"></path><path fill="#d6dae8" d="M285.55,1376.43l.12,3.59a9.78,9.78,0,0,1-.16,2c-.76,4.08-1.5,19.14,1.66,29.6a9,9,0,0,0,4.86,5.47c4.88,2.27,16.45,6.66,43.84,14.41,29,8.21,45.62,6.22,53.9,3.66a9.27,9.27,0,0,0,6.34-10.17c-1.29-9.79-6.29-26.86-25.19-31.51-13.56-3.33-21.36-6.09-25.73-8-3.21-1.39-7.2-3.64-7.39-7.14l-.62-11a9.31,9.31,0,0,0-8.08-8.71l-20.93-2.74A20,20,0,0,0,285.55,1376.43Z" class="colord6e0e8 svgShape"></path><path fill="#aab4d1" d="M305.66,1389.88c.43,6.44-2.24,11.86-6,12.11s-7.1-4.76-7.54-11.2,2.24-11.86,6-12.11S305.23,1383.44,305.66,1389.88Z" class="coloraac1d1 svgShape"></path><path fill="#1b54ff" d="M279.89,1097.66s117.32,36.4,123.22,57S430,1363.15,430,1363.15c-5.16,5.72-11.9,6.77-20.84,6.64a71.79,71.79,0,0,1-19.43-3c-17.22-69.85-32.4-120.88-49.62-190.73l-69.36-13.77s-32-30.74-27.05-58.78Z" class="colorffb11b svgShape"></path><path fill="#1b54ff" d="M237.84,1103.31s78.7,29,84.6,49.68S333,1366.47,333,1366.47a61.3,61.3,0,0,1-40.83,0c-22.3-69.85-13.86-120.51-36.15-190.36l-74.77-13.77S154,1132.09,168,1098.39Z" class="colorffb11b svgShape"></path><path fill="#98b1fd" d="M243.74,961.16l3.93,93.46s22.63,18.19,48,24.59,57.55,19.43,57.55,19.43,4.19,4.18,18,3.2,30.84,7.58,35.83,4-5.33-14.61-9.27-17.81-29.51-8.85-37.38-9.83S287,1037.89,287,1037.89s-1.85-54.48-4.55-66.53S243.74,961.16,243.74,961.16Z" class="colorfdbf98 svgShape"></path><path fill="#7a95e7" d="M285.3,1000.82c-.76-12.5-1.72-24.53-2.82-29.46-2.71-12.05-38.74-10.2-38.74-10.2l1.5,35.67C257.05,1000.7,271.33,1001.51,285.3,1000.82Z" class="colore7a27a svgShape"></path><path fill="#033ded" d="M239.31,890.57s53.13,11.8,53.13,93.7H248.17Z" class="colored3f03 svgShape"></path><path fill="#003fff" d="M226.32,884.85c-24.1-5.81-58.12-5.08-95.12-2a37.06,37.06,0,0,0-34,38.47c1,25.15,6.65,55.33,27,91.85,36.88,66.19,39.31,89.17,39.31,89.17s72.47,10.27,122-3.78l-17.6-102.47s3.37-18.74,1.48-48.21C267.28,916.1,257.28,892.3,226.32,884.85Z" class="colorff4900 svgShape"></path><path fill="#98b1fd" d="M95.68,974l3.93,93.45s22.63,18.2,48,24.6,57.56,19.43,57.56,19.43,4.18,4.18,18,3.2,30.84,7.58,35.83,4-5.33-14.61-9.27-17.81-29.51-8.85-37.38-9.84S139,1050.68,139,1050.68s7.13-53.37,4.42-65.42S95.68,974,95.68,974Z" class="colorfdbf98 svgShape"></path><path fill="#7a95e7" d="M143.77,1002.11c.36-7.37.35-13.61-.38-16.85-2.7-12-47.71-11.32-47.71-11.32l1.2,28.53A77.79,77.79,0,0,0,143.77,1002.11Z" class="colore7a27a svgShape"></path><path fill="#033ded" d="M119.78,888.85s-41.32,2.46-31,92c0,0,17.22,20.66,67.88,13.28C156.67,994.11,180.78,884.42,119.78,888.85Z" class="colored3f03 svgShape"></path><path fill="#7a95e7" d="M174.89,848.9,163.4,882.19s16.66,33.15,43.39,34.3,8.62-32.29,8.62-32.29l4.88-18.36Z" class="colore7a27a svgShape"></path><path fill="#98b1fd" d="M156.52,817.76c1.54,48.93,33.63,70.89,65.7,67.39s57.27-50.07,51.64-95.14c-4.91-39.29-35-53.35-67-49.85S155.26,778.19,156.52,817.76Z" class="colorfdbf98 svgShape"></path><path fill="#98b1fd" d="M209.74,918.74c17.94-3.75,9.69-26.25,6.48-32.91a124.36,124.36,0,0,1-51.93-2C168.07,890.54,179.88,925,209.74,918.74Z" class="colorfdbf98 svgShape"></path><path fill="#31384c" d="M178.41,800s21.59,4.39,33.17-25c0,0,29.73,19.71,62.91,20.34L274.17,811s12.21-6.11,12.37-26.76c.85,0,6.13-17,9.23-28,0,0-47.89-41.63-104.85-24.41l-4.06-15.65-.32,17.21-18.46-11.27L179.34,734s-20,7.82-21.28,14.39-6.57,47.89-1.88,75.12Z" class="color32314c svgShape"></path><path fill="#98b1fd" d="M183.19,803.56c1,10.33-4.18,19.27-11.53,20s-14.09-7.12-15.07-17.45,4.18-19.27,11.53-20S182.21,793.23,183.19,803.56Z" class="colorfdbf98 svgShape"></path><path fill="#ecf1ff" d="M238.38,857.35A229.57,229.57,0,0,1,210.31,848s-1.57,13.51,10,17.64C233.22,870.26,238.38,857.35,238.38,857.35Z" class="colorecf5ff svgShape"></path><path fill="#3b4871" d="M221.86 823.15c-1 4.73-4.74 7.93-8.33 7.17s-5.68-5.23-4.67-10 4.74-7.94 8.33-7.17S222.87 818.42 221.86 823.15zM257.41 834c-1.32 4.36-5.12 7.07-8.47 6.06s-5-5.38-3.66-9.75 5.12-7.07 8.47-6S258.74 829.62 257.41 834z" class="color714c3b svgShape"></path><path fill="#6a85d5" d="M236.2,822.9l4.07,18.36s-5.11,9.39-15,.62l11.79-.83S233.59,826.44,236.2,822.9Z" class="colord5906a svgShape"></path><path fill="#31384c" d="M210.48 799.07l18.57 3.54S223.75 791 210.48 799.07zM251.06 809.78l14.23 7.12S262.13 805.68 251.06 809.78z" class="color32314c svgShape"></path><path fill="#7a95e7" d="M168.29,803.78c.31-10.64,14.08-15,15.54,2,0,0-8-.83-7.72,7.83,0,0-2.71-7.46,4.88-9.65,0,0-.24-6-5.09-6.58S168.29,803.78,168.29,803.78Z" class="colore7a27a svgShape"></path><path fill="#404861" d="M268.17,739.1c-21.25,16.18-55.66,30.3-92.41-3.59a86.47,86.47,0,0,0-10.11,5.25c16.27,22.34,83.91,29.12,126.92,12.9A137.59,137.59,0,0,0,268.17,739.1Z" class="color404061 svgShape"></path><polygon fill="#d6dae8" points="499.89 1102.81 315.53 1102.78 354.03 973.16 538.19 973.16 499.89 1102.81" class="colord6e0e8 svgShape"></polygon><rect width="269.6" height="9.21" x="230.27" y="1102.76" fill="#c6cfea" class="colorc6daea svgShape"></rect><rect width="184.33" height="9.21" x="315.54" y="1102.76" fill="#ecf1ff" class="colorecf5ff svgShape"></rect><polygon fill="#aab4d1" points="354.03 973.16 347.03 973.16 307.99 1103.18 315.54 1102.76 354.03 973.16" class="coloraac1d1 svgShape"></polygon><path fill="#aab4d1" d="M460.4,1053.37c-4.82,14.8-19,23.45-31.67,19.32s-19-19.46-14.22-34.26,19-23.45,31.67-19.32S465.21,1038.57,460.4,1053.37Z" class="coloraac1d1 svgShape"></path><polygon fill="#364163" points="118.03 1401.81 133.56 1401.81 133.56 1205.55 164.81 1148.22 118.03 1148.22 118.03 1401.81" class="color633e36 svgShape"></polygon><polygon fill="#364163" points="268.71 1416.54 284.24 1416.54 284.24 1206.34 315.49 1149.02 268.71 1149.02 268.71 1416.54" class="color633e36 svgShape"></polygon><rect width="486.88" height="35.43" x="105.29" y="1107.61" fill="#4e5d8a" class="color8a614e svgShape"></rect><rect width="493.99" height="11.73" x="101.73" y="1107.55" fill="#556cb0" class="colorb07455 svgShape"></rect><rect width="476.03" height="10" x="110.96" y="1143" fill="#29324f" class="color4f2d29 svgShape"></rect><path fill="#89a6ff" d="M1410.57,54.88H770.32A73.17,73.17,0,0,0,697.16,128V1366a79.08,79.08,0,0,0,79.09,79.08h628.4a79.08,79.08,0,0,0,79.08-79.08V128A73.16,73.16,0,0,0,1410.57,54.88ZM1442,1370A32.06,32.06,0,0,1,1410,1402H771.8A32.07,32.07,0,0,1,739.73,1370V126.85A28.45,28.45,0,0,1,768.18,98.4h645.41A28.44,28.44,0,0,1,1442,126.85Z" class="color89cdff svgShape"></path><path fill="#ffffff" d="M739.73,376.49V1370A32.07,32.07,0,0,0,771.8,1402H1410A32.06,32.06,0,0,0,1442,1370V376.49Zm566.51,157.24-44.22,2-63.94,252.33a3.79,3.79,0,0,1-3.68,2.86h-25.92a20.28,20.28,0,1,1-30,0H1056.4a20.28,20.28,0,1,1-30,0h-20.57a11.06,11.06,0,0,1,0-22.12H1181l2.39-27.75H980a11.32,11.32,0,0,1-10.48-7l-35.89-87.79a17,17,0,0,1,12.19-23.08l58.64-12.33c-.24-2.74-.36-5.5-.36-8.3a96.06,96.06,0,0,1,189.16-23.67l33.26-3.71,3.63-34.09a33.13,33.13,0,0,1,33-29.64h42.68a11.17,11.17,0,0,1,.5,22.33ZM836.06,144.28h33.12a1.14,1.14,0,0,0,1.14-1.14v-8.86a1.14,1.14,0,0,0-1.14-1.14H836.06a1.14,1.14,0,0,0-1.14,1.14v8.86A1.14,1.14,0,0,0,836.06,144.28Zm-59.06,0h33.12a1.14,1.14,0,0,0,1.13-1.14v-8.86a1.14,1.14,0,0,0-1.13-1.14H777a1.14,1.14,0,0,0-1.14,1.14v8.86A1.14,1.14,0,0,0,777,144.28Zm599,2h-4.39v-6.73a1.42,1.42,0,0,0-1.42-1.41h-22.62v29h22.62a1.42,1.42,0,0,0,1.42-1.41V159H1376a.89.89,0,0,0,.88-.88v-11A.89.89,0,0,0,1376,146.26Z" class="colorffffff svgShape"></path><path fill="#ffffff" d="M739.73,376.49V1370A32.07,32.07,0,0,0,771.8,1402H1410A32.06,32.06,0,0,0,1442,1370V376.49Zm566.51,157.24-44.22,2-63.94,252.33a3.79,3.79,0,0,1-3.68,2.86h-25.92a20.28,20.28,0,1,1-30,0H1056.4a20.28,20.28,0,1,1-30,0h-20.57a11.06,11.06,0,0,1,0-22.12H1181l2.39-27.75H980a11.32,11.32,0,0,1-10.48-7l-35.89-87.79a17,17,0,0,1,12.19-23.08l58.64-12.33c-.24-2.74-.36-5.5-.36-8.3a96.06,96.06,0,0,1,189.16-23.67l33.26-3.71,3.63-34.09a33.13,33.13,0,0,1,33-29.64h42.68a11.17,11.17,0,0,1,.5,22.33ZM836.06,144.28h33.12a1.14,1.14,0,0,0,1.14-1.14v-8.86a1.14,1.14,0,0,0-1.14-1.14H836.06a1.14,1.14,0,0,0-1.14,1.14v8.86A1.14,1.14,0,0,0,836.06,144.28Zm-59.06,0h33.12a1.14,1.14,0,0,0,1.13-1.14v-8.86a1.14,1.14,0,0,0-1.13-1.14H777a1.14,1.14,0,0,0-1.14,1.14v8.86A1.14,1.14,0,0,0,777,144.28Zm599,2h-4.39v-6.73a1.42,1.42,0,0,0-1.42-1.41h-22.62v29h22.62a1.42,1.42,0,0,0,1.42-1.41V159H1376a.89.89,0,0,0,.88-.88v-11A.89.89,0,0,0,1376,146.26Z" class="colorffffff svgShape"></path><path fill="#d0dcff" d="M811.25,143.14a1.14,1.14,0,0,1-1.13,1.14H777a1.14,1.14,0,0,1-1.14-1.14v-8.86a1.14,1.14,0,0,1,1.14-1.14h33.12a1.14,1.14,0,0,1,1.13,1.14Zm59.07,0a1.14,1.14,0,0,1-1.14,1.14H836.06a1.14,1.14,0,0,1-1.14-1.14v-8.86a1.14,1.14,0,0,1,1.14-1.14h33.12a1.14,1.14,0,0,1,1.14,1.14ZM1413.59,98.4H1250v26.51a23.61,23.61,0,0,1-23.62,23.62H956.69a23.61,23.61,0,0,1-23.61-23.62V98.4H768.18a28.45,28.45,0,0,0-28.45,28.45V376.49H1442V126.85A28.44,28.44,0,0,0,1413.59,98.4Zm-36.7,59.72a.89.89,0,0,1-.88.88h-4.39v6.73a1.42,1.42,0,0,1-1.42,1.41h-43.94a2.71,2.71,0,0,1-2.72-2.71v-23.6a2.71,2.71,0,0,1,2.71-2.71h44a1.42,1.42,0,0,1,1.42,1.41v6.73H1376a.89.89,0,0,1,.88.88Z" class="colord0ebff svgShape"></path><path fill="#7593ef" d="M1250 98.4v26.51a23.61 23.61 0 01-23.62 23.62H956.69a23.61 23.61 0 01-23.61-23.62V98.4zM697.16 260.35v70.49h-4.47a11.8 11.8 0 01-11.8-11.8V272.15a11.8 11.8 0 0111.8-11.8zM1500 272.15V319a11.79 11.79 0 01-11.79 11.8h-4.48V260.35h4.48A11.79 11.79 0 011500 272.15zM697.16 362.08v70.49h-4.47a11.8 11.8 0 01-11.8-11.8v-46.9a11.79 11.79 0 0111.8-11.79z" class="color75c1ef svgShape"></path><path fill="#ffffff" d="M1150.11,558.05a6.75,6.75,0,0,1-1.17,3.81l-50.22,74.2a10.5,10.5,0,0,1-16.38,1.28l-36.11-38.62A8.87,8.87,0,0,1,1058,585.51l28,20.49a2.17,2.17,0,0,0,2.85-.26l49.57-52.38a6.81,6.81,0,0,1,11.75,4.69Z" class="colorffffff svgShape"></path><path fill="#0140ff" d="M1061.67,804.57a20.28,20.28,0,1,1-35.29-13.65h30A20.26,20.26,0,0,1,1061.67,804.57Z" class="color016eff svgShape"></path><line x1="1005.62" x2="1004.42" y1="610.56" y2="610.81" fill="none"></line><path fill="#0140ff" d="M1173.76,804.57a20.28,20.28,0,1,1-35.29-13.65h30A20.22,20.22,0,0,1,1173.76,804.57Z" class="color016eff svgShape"></path><line x1="1193.22" x2="1192.45" y1="578.84" y2="578.93" fill="none"></line><rect width="35.4" height="11.14" x="775.86" y="133.14" fill="#ffffff" rx="1.14" class="colorffffff svgShape"></rect><rect width="35.4" height="11.14" x="834.92" y="133.14" fill="#ffffff" rx="1.14" class="colorffffff svgShape"></rect><path fill="#3d6dfe" d="M1347.58,138.12v29h-21.32a2.71,2.71,0,0,1-2.72-2.71v-23.6a2.71,2.71,0,0,1,2.71-2.71Z" class="color026cfc svgShape"></path><path fill="#ffffff" d="M1376.89,147.14v11a.89.89,0,0,1-.88.88h-4.39v6.73a1.42,1.42,0,0,1-1.42,1.41h-22.62v-29h22.62a1.42,1.42,0,0,1,1.42,1.41v6.73H1376A.89.89,0,0,1,1376.89,147.14Z" class="colorffffff svgShape"></path><path fill="#0140ff" d="M840.33 345.57l-10.85-17.05 10.27-11.63a6.16 6.16 0 00-9.23-8.15l-13.33 15.1a6.2 6.2 0 00-.58 7.38l13.34 21a6.14 6.14 0 005.19 2.84 6.16 6.16 0 005.19-9.46zM1340.56 345.57l10.85-17.05-10.27-11.63a6.16 6.16 0 019.23-8.15l13.34 15.1a6.2 6.2 0 01.58 7.38l-13.35 21a6.12 6.12 0 01-5.18 2.84 6.23 6.23 0 01-3.32-1A6.17 6.17 0 011340.56 345.57zM1031.62 330.33c0 17-10.35 26.07-23 26.07-13.07 0-22.25-10.14-22.25-25.11 0-15.72 9.77-26 23-26C1022.89 305.29 1031.62 315.64 1031.62 330.33zm-38.4.81c0 10.57 5.73 20 15.79 20s15.86-9.32 15.86-20.56c0-9.84-5.14-20.12-15.79-20.12S993.22 320.27 993.22 331.14zM1039.92 306.76a66.65 66.65 0 0112.27-1c6.82 0 11.23 1.25 14.31 4a12.32 12.32 0 013.9 9.4c0 6.53-4.12 10.87-9.33 12.63V332c3.82 1.32 6.09 4.85 7.27 10 1.62 6.9 2.79 11.67 3.82 13.58h-6.61c-.81-1.39-1.91-5.65-3.3-11.82-1.47-6.83-4.12-9.4-9.92-9.62h-6v21.44h-6.39zm6.39 22.54h6.54c6.83 0 11.16-3.74 11.16-9.4 0-6.38-4.63-9.18-11.38-9.25a26.47 26.47 0 00-6.32.59zM1079.43 306.76a91.13 91.13 0 0113.58-1c9.18 0 15.72 2.13 20 6.17s7 9.77 7 17.77-2.49 14.69-7.12 19.24S1100.65 356 1091 356a102.36 102.36 0 01-11.6-.59zm6.39 43.76a39.49 39.49 0 006.46.37c13.66 0 21.07-7.64 21.07-21 .08-11.68-6.53-19.09-20-19.09a36.08 36.08 0 00-7.49.66zM1154 332.39h-19.24v17.84h21.44v5.36h-27.83V306.1h26.73v5.36h-20.34V327.1H1154zM1164.46 306.76a66.61 66.61 0 0112.26-1c6.83 0 11.24 1.25 14.32 4a12.31 12.31 0 013.89 9.4c0 6.53-4.11 10.87-9.32 12.63V332c3.82 1.32 6.09 4.85 7.27 10 1.61 6.9 2.79 11.67 3.82 13.58h-6.61c-.81-1.39-1.91-5.65-3.31-11.82-1.47-6.83-4.11-9.4-9.91-9.62h-6v21.44h-6.39zm6.39 22.54h6.53c6.83 0 11.17-3.74 11.17-9.4 0-6.38-4.63-9.18-11.39-9.25a26.43 26.43 0 00-6.31.59z" class="color016eff svgShape"></path><path fill="#0341fe" d="M1193.22,578.84a96.06,96.06,0,0,0-189.16,23.67c0,2.8.12,5.56.36,8.3a96.05,96.05,0,1,0,188.8-32Zm-44.28-17-50.22,74.2a10.5,10.5,0,0,1-16.38,1.28l-36.11-38.62A8.87,8.87,0,0,1,1058,585.51l28,20.49a2.17,2.17,0,0,0,2.85-.26l49.57-52.38a6.81,6.81,0,0,1,10.58,8.5Z" class="colorfeb903 svgShape"></path><path fill="#0140ff" d="M1316.9,522.57a11.17,11.17,0,0,1-10.66,11.16l-44.22,2-63.94,252.33a3.79,3.79,0,0,1-3.68,2.86H1005.81a11.06,11.06,0,0,1,0-22.12H1181l2.39-27.75H980a11.32,11.32,0,0,1-10.48-7l-35.89-87.79a17,17,0,0,1,12.19-23.08l58.64-12.33a96.05,96.05,0,1,0,188.8-32l33.26-3.71,3.63-34.09a33.13,33.13,0,0,1,33-29.64h42.68a11.16,11.16,0,0,1,11.16,11.17Z" class="color016eff svgShape"></path><path fill="#202c51" d="M890.89 890.73H871.33v-7.06H919v7.06H899.29V948h-8.4zM925.15 880.24h8.4v28.82h.19a15.62 15.62 0 016-5.92 17.3 17.3 0 018.59-2.39c6.2 0 16.13 3.82 16.13 19.76V948h-8.4V921.46c0-7.44-2.77-13.74-10.69-13.74a12.07 12.07 0 00-11.26 8.4 10.12 10.12 0 00-.57 4V948h-8.4zM1003.69 948l-.67-5.82h-.28A17.2 17.2 0 01988.61 949c-9.35 0-14.12-6.58-14.12-13.26 0-11.17 9.92-17.27 27.77-17.18v-1c0-3.82-1-10.69-10.5-10.69a23 23 0 00-12 3.43l-1.91-5.53A28.68 28.68 0 01993 900.75c14.13 0 17.56 9.64 17.56 18.9v17.27a64.16 64.16 0 00.77 11.07zm-1.24-23.57c-9.16-.19-19.56 1.43-19.56 10.4 0 5.44 3.62 8 7.92 8a11.48 11.48 0 0011.16-7.73 8.65 8.65 0 00.48-2.67zM1024.11 914.31c0-4.78-.09-8.69-.38-12.51h7.45l.47 7.64h.19a17 17 0 0115.27-8.69c6.4 0 16.32 3.82 16.32 19.66V948H1055V921.37c0-7.45-2.77-13.65-10.69-13.65a12.34 12.34 0 00-11.84 12.5V948h-8.4zM1085.38 923h.19c1.15-1.62 2.77-3.63 4.11-5.25l13.55-15.94h10.12l-17.85 19L1115.83 948h-10.22l-15.93-22.14-4.3 4.78V948h-8.3V880.24h8.3zM1152.28 948V920.7l-20.33-37h9.45l9.07 17.75c2.48 4.87 4.39 8.78 6.39 13.27h.19c1.82-4.2 4-8.4 6.49-13.27l9.26-17.75h9.45l-21.57 36.93V948zM1223.86 924.52c0 17.08-11.84 24.52-23 24.52-12.51 0-22.14-9.16-22.14-23.76 0-15.46 10.11-24.53 22.9-24.53C1214.89 900.75 1223.86 910.39 1223.86 924.52zm-36.65.47c0 10.12 5.82 17.76 14 17.76 8 0 14-7.54 14-18 0-7.82-3.92-17.75-13.84-17.75S1187.21 916.21 1187.21 925zM1273.1 935.4c0 4.77.1 9 .38 12.59H1266l-.48-7.53h-.19A17.37 17.37 0 011250.1 949c-7.25 0-15.94-4-15.94-20.23v-27h8.4v25.58c0 8.78 2.67 14.7 10.31 14.7a11.81 11.81 0 0011.83-11.93V901.8h8.4zM1305.64 943.13a5.6 5.6 0 015.63-5.92c3.44 0 5.63 2.48 5.63 5.92s-2.19 5.91-5.63 5.91A5.59 5.59 0 011305.64 943.13zm2.39-13.65l-1.34-45.81h9.16l-1.33 45.81z" class="color242051 svgShape"></path><path fill="#00175d" d="M838.08 1006.45a5.91 5.91 0 00-1.39.34 5.49 5.49 0 00-1.36.63 9.72 9.72 0 00-1.36 1 17.21 17.21 0 00-1.39 1.75q-2 2.83-3.7 5.73c-1.13 1.94-2.55 4.4-4.24 7.38a13.24 13.24 0 00-1.26 2.65 10.23 10.23 0 00-.31 2.9v7a3.26 3.26 0 00.37 1.6 2.66 2.66 0 001.28 1.1 17.09 17.09 0 001.92.5 14.33 14.33 0 002.24.32v1.82H811.81v-1.82l2.16-.19a8.05 8.05 0 002-.38 2.39 2.39 0 001.27-1 3.56 3.56 0 00.35-1.65v-8.86a4.49 4.49 0 00-.51-1.51c-.33-.73-.73-1.54-1.19-2.43q-1.54-3-3.42-6.45t-3.26-5.94a14.91 14.91 0 00-1.51-2.21 7.88 7.88 0 00-1.5-1.31 5.26 5.26 0 00-1.48-.59 10.1 10.1 0 00-1.55-.25v-1.83h15.56v1.83a16.63 16.63 0 00-3.7.35q-1.08.32-1.08.87a1.71 1.71 0 00.15.54c.11.26.25.58.44 1s.49.95.8 1.53l.87 1.65q1.2 2.29 2.46 4.57l3.28 5.92c2.69-4.34 4.74-7.71 6.15-10.14s2.12-3.87 2.12-4.35a1.17 1.17 0 00-.43-1 3.14 3.14 0 00-1.16-.56 8.06 8.06 0 00-1.62-.27l-1.62-.14v-1.83h12.68zM863.27 1028.16a16.6 16.6 0 01-.85 5.26 12.38 12.38 0 01-2.42 4.38 11.25 11.25 0 01-4.11 3.06 13.25 13.25 0 01-5.25 1A11.81 11.81 0 01846 1041a11.5 11.5 0 01-3.88-2.66 12.69 12.69 0 01-2.67-4.2 14.9 14.9 0 01-1-5.57 13.86 13.86 0 013.46-9.71 12.66 12.66 0 0117.86-.19A13.14 13.14 0 01863.27 1028.16zm-5.32.06a22.83 22.83 0 00-.39-4.08 12.57 12.57 0 00-1.16-3.64 7 7 0 00-2.16-2.55 5.39 5.39 0 00-3.27-1 5.76 5.76 0 00-3.38 1 7.12 7.12 0 00-2.28 2.67 11.77 11.77 0 00-1.16 3.58 22.8 22.8 0 00-.34 3.88 25 25 0 00.4 4.56 13.08 13.08 0 001.28 3.74 7.1 7.1 0 002.2 2.58 5.5 5.5 0 003.28.94 5.73 5.73 0 005.1-3.11Q857.95 1033.7 858 1028.22zM894.09 1040.63l-8.28.57-.38-.36v-3.22h-.16q-.62.64-1.38 1.38a10 10 0 01-1.77 1.32 11.55 11.55 0 01-2.24 1.06 10 10 0 01-3 .36 6.18 6.18 0 01-5.12-2.2q-1.76-2.19-1.76-6.38V1021a3.06 3.06 0 00-.35-1.55 3.08 3.08 0 00-2.18-1.54 11.25 11.25 0 00-1.48-.2v-1.69l8.46-.62.39.36v17.61a6.09 6.09 0 001.23 4.14 3.83 3.83 0 003 1.38 6.77 6.77 0 002.51-.43 7.16 7.16 0 001.85-1 9 9 0 001.23-1.14 6.72 6.72 0 00.81-1.12v-14.35a3.08 3.08 0 00-.36-1.5 3.36 3.36 0 00-1-1.12 2.88 2.88 0 00-1.37-.37l-2-.12v-1.69l9.23-.62.39.36v20.1a2.88 2.88 0 00.36 1.49 3.15 3.15 0 001 1.06 2.85 2.85 0 001.11.37 11.55 11.55 0 001.41.11zM916.61 1019a4.25 4.25 0 01-.65 2.33 2.18 2.18 0 01-2 1 3 3 0 01-2.19-.75A2.25 2.25 0 01911 1020a5.41 5.41 0 01.09-1c.06-.31.11-.62.16-.93a5.71 5.71 0 00-2.82 1 8.37 8.37 0 00-2.75 2.77v14.76a2.74 2.74 0 00.34 1.46 2.14 2.14 0 001.1.85 7 7 0 001.65.39c.68.08 1.27.14 1.76.18v1.69H897.2v-1.69l1.22-.11a4.61 4.61 0 001.09-.2 1.82 1.82 0 001.07-.81 2.9 2.9 0 00.35-1.5v-15.64a3.52 3.52 0 00-.38-1.56 3.08 3.08 0 00-1-1.24 3.49 3.49 0 00-1.15-.44 10.41 10.41 0 00-1.44-.2V1016l8.43-.57.36.36v3.57h.13a11.61 11.61 0 013.54-3.16 7.51 7.51 0 013.58-1.08 3.48 3.48 0 012.63 1.06A3.87 3.87 0 01916.61 1019zM961.59 1008.94a17.72 17.72 0 013.77 6.08 23.22 23.22 0 010 15.77 17.68 17.68 0 01-3.86 6 16.7 16.7 0 01-5.55 3.8 17.79 17.79 0 01-13.76-.09 16.23 16.23 0 01-5.54-4 18 18 0 01-3.64-6 21.8 21.8 0 01-1.32-7.62 21.16 21.16 0 011.39-7.93 18.22 18.22 0 013.83-6 16.52 16.52 0 015.61-3.86 17.69 17.69 0 0113.53 0A16.27 16.27 0 01961.59 1008.94zm-3.83 25.86a17.17 17.17 0 002.09-5.3 32.87 32.87 0 00-.08-13.49 16.91 16.91 0 00-2.14-5.35 10.32 10.32 0 00-3.55-3.41 9.69 9.69 0 00-4.88-1.22 9.4 9.4 0 00-5.25 1.42 10.94 10.94 0 00-3.52 3.78 18.22 18.22 0 00-1.91 5.29 31.31 31.31 0 00-.63 6.38 30.4 30.4 0 00.67 6.68 16.74 16.74 0 002.1 5.29 10.4 10.4 0 003.5 3.54 9.53 9.53 0 005 1.27 9.68 9.68 0 005-1.29A10.07 10.07 0 00957.76 1034.8zM990 1019a4.25 4.25 0 01-.64 2.33 2.18 2.18 0 01-2 1 3 3 0 01-2.2-.75 2.29 2.29 0 01-.76-1.64 5.41 5.41 0 01.09-1c.06-.31.12-.62.17-.93a5.71 5.71 0 00-2.83 1 8.47 8.47 0 00-2.75 2.77v14.76a2.74 2.74 0 00.35 1.46 2.07 2.07 0 001.09.85 7.13 7.13 0 001.66.39c.68.08 1.26.14 1.76.18v1.69H970.63v-1.69l1.23-.11a4.71 4.71 0 001.09-.2 1.79 1.79 0 001.06-.81 2.8 2.8 0 00.35-1.5v-15.64a3.5 3.5 0 00-.37-1.56 3.16 3.16 0 00-1-1.24 3.55 3.55 0 00-1.16-.44 10 10 0 00-1.44-.2V1016l8.43-.57.36.36v3.57h.13a11.64 11.64 0 013.55-3.16 7.48 7.48 0 013.57-1.08 3.49 3.49 0 012.64 1.06A3.91 3.91 0 01990 1019zM1020 1040.63l-8.87.57-.38-.36v-2.37l-.21 0a10.51 10.51 0 01-3.3 2.44 9.07 9.07 0 01-4 1 9.57 9.57 0 01-4.17-1 10.46 10.46 0 01-3.5-2.71 13.61 13.61 0 01-2.41-4.27 16.31 16.31 0 01-.88-5.5 14.51 14.51 0 01.95-5.22 13.7 13.7 0 012.62-4.32 11.7 11.7 0 013.83-2.75 11.24 11.24 0 014.64-1 13.62 13.62 0 013.48.45 12.61 12.61 0 012.93 1.14v-8.83a5.16 5.16 0 00-.36-2 3 3 0 00-1-1.36 5 5 0 00-1.94-.7 24.5 24.5 0 00-2.63-.33v-1.59l10.38-.57.39.39v34.16a3.15 3.15 0 00.34 1.53 3.06 3.06 0 001 1.07 3.22 3.22 0 001.41.38c.62.05 1.19.09 1.7.1zm-9.31-4.45v-14.83a6.61 6.61 0 00-1.82-2.85 6.55 6.55 0 00-1.74-1.07 6 6 0 00-2.34-.42 5.31 5.31 0 00-2.83.8 7.67 7.67 0 00-2.3 2.28 11.89 11.89 0 00-1.5 3.67 20.3 20.3 0 00-.55 4.92 17.54 17.54 0 00.41 3.92 10.67 10.67 0 001.39 3.28 7.12 7.12 0 002.29 2.31 6.17 6.17 0 003.33.87 6 6 0 003.39-.9A10.8 10.8 0 001010.65 1036.18zM1044.94 1035.13a13 13 0 01-4.26 4.83 10.76 10.76 0 01-6.15 1.8 12.51 12.51 0 01-5.36-1.08 10.54 10.54 0 01-3.79-2.93 12.46 12.46 0 01-2.22-4.32 18.12 18.12 0 01-.73-5.21 15.48 15.48 0 01.78-4.85 13.71 13.71 0 012.3-4.28 11 11 0 013.64-2.94A10.43 10.43 0 011034 1015a11.75 11.75 0 014.75.87 8.63 8.63 0 013.22 2.39 9.64 9.64 0 011.76 3.4 15 15 0 01.58 4.24v1.69h-16.79a19.83 19.83 0 00.48 4.54 10.79 10.79 0 001.5 3.58 7.18 7.18 0 002.62 2.36 8.18 8.18 0 003.86.86 7.12 7.12 0 003.94-1.07 10.47 10.47 0 003.2-3.87zm-5.68-9.66a21.29 21.29 0 00-.24-3.08 9.29 9.29 0 00-.79-2.74 5.12 5.12 0 00-1.61-1.92 4.4 4.4 0 00-2.65-.75 5.51 5.51 0 00-4.49 2.25 10.41 10.41 0 00-1.94 6.24zM1067.28 1019a4.33 4.33 0 01-.64 2.33 2.18 2.18 0 01-2 1 3 3 0 01-2.2-.75 2.25 2.25 0 01-.76-1.64 5.41 5.41 0 01.09-1c.06-.31.12-.62.17-.93a5.71 5.71 0 00-2.83 1 8.37 8.37 0 00-2.75 2.77v14.76a2.74 2.74 0 00.35 1.46 2.07 2.07 0 001.09.85 7.13 7.13 0 001.66.39c.67.08 1.26.14 1.76.18v1.69h-13.37v-1.69l1.22-.11a4.7 4.7 0 001.1-.2 1.79 1.79 0 001.06-.81 2.9 2.9 0 00.35-1.5v-15.64a3.5 3.5 0 00-.37-1.56 3.16 3.16 0 00-1-1.24 3.55 3.55 0 00-1.16-.44 10.41 10.41 0 00-1.44-.2V1016l8.43-.57.36.36v3.57h.13a11.53 11.53 0 013.55-3.16 7.48 7.48 0 013.57-1.08 3.45 3.45 0 012.63 1.06A3.87 3.87 0 011067.28 1019zM1098.74 1041.09h-16.42v-1.82l2-.16a7.5 7.5 0 001.85-.3 2.58 2.58 0 001.24-.92 2.91 2.91 0 00.38-1.6v-26.43a3.49 3.49 0 00-.28-1.5 2.37 2.37 0 00-1.34-1 14.19 14.19 0 00-1.94-.57 12.34 12.34 0 00-1.91-.32v-1.83h16.42v1.83a15.18 15.18 0 00-1.9.19 13.09 13.09 0 00-1.93.42 2 2 0 00-1.31 1 3.59 3.59 0 00-.33 1.55V1036a3 3 0 00.37 1.51 2.6 2.6 0 001.27 1 11.57 11.57 0 001.76.45 13.38 13.38 0 002.07.27zM1119.38 1028.68a6.63 6.63 0 011.62 2.13 6.91 6.91 0 01.57 3 7.21 7.21 0 01-2.64 5.76A11.27 11.27 0 011108 1041a11.06 11.06 0 01-2.66-1.46l-.51 1.67h-1.93l-.26-8.82h1.78a9.31 9.31 0 00.87 2.35 11.69 11.69 0 001.62 2.43 9 9 0 002.4 1.9 6.4 6.4 0 003.15.78 5.77 5.77 0 003.81-1.13 4 4 0 001.33-3.22 3.87 3.87 0 00-.42-1.86 4 4 0 00-1.25-1.37 9.59 9.59 0 00-2.08-1.07c-.82-.32-1.74-.63-2.75-.94a25.58 25.58 0 01-2.69-1 10.6 10.6 0 01-2.53-1.48 7.23 7.23 0 01-1.85-2.21 6.29 6.29 0 01-.72-3.08 7 7 0 012.31-5.27 8.73 8.73 0 016.2-2.16 12.57 12.57 0 013.05.39 10.32 10.32 0 012.53.92l.59-1.34h1.85l.38 8.15h-1.77a8.13 8.13 0 00-2.33-4.45 6.06 6.06 0 00-4.35-1.72 4.85 4.85 0 00-3.32 1.07 3.3 3.3 0 00-1.21 2.56 4.28 4.28 0 00.4 1.93 3.64 3.64 0 001.2 1.31 10 10 0 001.94 1c.78.3 1.74.64 2.89 1a26.29 26.29 0 013.2 1.25A10.62 10.62 0 011119.38 1028.68zM1154.81 1042a15.62 15.62 0 01-6.25-1.29 16.16 16.16 0 01-5.31-3.7 18.05 18.05 0 01-3.64-5.91 21.37 21.37 0 01-1.36-7.85 22.49 22.49 0 011.33-7.94 18.51 18.51 0 013.7-6.13 16.28 16.28 0 015.52-3.94 17.67 17.67 0 0111.69-.72 18 18 0 014.15 1.88l1.06-1.75h2l.24 13h-2.11a32.67 32.67 0 00-1.23-4.13 15.73 15.73 0 00-1.93-3.76 9.29 9.29 0 00-2.93-2.74 7.53 7.53 0 00-3.87-1 10.07 10.07 0 00-4.64 1.1 10.64 10.64 0 00-3.71 3.27 16.13 16.13 0 00-2.33 5.3 28 28 0 00-.85 7.18 22 22 0 00.89 6.41 16.77 16.77 0 002.52 5.14 12.37 12.37 0 003.89 3.42 10.31 10.31 0 005 1.23 11 11 0 003.83-.65 10.44 10.44 0 003-1.74 13.57 13.57 0 002.26-2.57 14.17 14.17 0 001.59-3.13l1.93.92q-2.2 5.43-5.86 7.75A15.79 15.79 0 011154.81 1042zM1196.62 1028.16a16.6 16.6 0 01-.85 5.26 12.54 12.54 0 01-2.42 4.38 11.2 11.2 0 01-4.12 3.06 13.16 13.16 0 01-5.24 1 11.81 11.81 0 01-4.61-.91 11.63 11.63 0 01-3.89-2.66 12.83 12.83 0 01-2.66-4.2 14.9 14.9 0 01-1-5.57 13.81 13.81 0 013.46-9.71 12.66 12.66 0 0117.86-.19A13.14 13.14 0 011196.62 1028.16zm-5.32.06a22.83 22.83 0 00-.39-4.08 12.57 12.57 0 00-1.16-3.64 7.11 7.11 0 00-2.16-2.55 5.39 5.39 0 00-3.27-1 5.81 5.81 0 00-3.39 1 7.19 7.19 0 00-2.27 2.67 11.77 11.77 0 00-1.16 3.58 22.8 22.8 0 00-.34 3.88 24.11 24.11 0 00.4 4.56 13.08 13.08 0 001.28 3.74 7.1 7.1 0 002.2 2.58 5.5 5.5 0 003.28.94 5.73 5.73 0 005.1-3.11Q1191.3 1033.7 1191.3 1028.22zM1228.26 1041.09h-12.39v-1.69l1.3-.11a4.87 4.87 0 001.17-.2 1.93 1.93 0 001.07-.81 2.92 2.92 0 00.34-1.5v-13a6.14 6.14 0 00-1.27-4.16 4 4 0 00-3.11-1.47 7.17 7.17 0 00-2.5.43 9.06 9.06 0 00-2 1 5.91 5.91 0 00-1.35 1.27 12.81 12.81 0 00-.73 1.09v14.58a2.65 2.65 0 00.36 1.44 2.31 2.31 0 001.08.87 5.36 5.36 0 001.17.39q.63.12 1.29.18v1.69h-12.41v-1.69l1.22-.11a4.61 4.61 0 001.09-.2 1.82 1.82 0 001.07-.81 2.9 2.9 0 00.35-1.5v-15.64a3.46 3.46 0 00-.38-1.6 3.09 3.09 0 00-1-1.2 3.49 3.49 0 00-1.15-.44 10.41 10.41 0 00-1.44-.2V1016l8.43-.57.36.36v3.57h.13c.41-.41.92-.9 1.54-1.47a12.44 12.44 0 011.75-1.4 8.59 8.59 0 012.26-1 9.65 9.65 0 013-.41 6.39 6.39 0 015.41 2.27 9.58 9.58 0 011.76 6v13.19a3 3 0 00.31 1.45 2 2 0 001.06.86 7 7 0 001.06.36 8.83 8.83 0 001.25.16zM1250.24 1004.39a3.09 3.09 0 01-.62 2 2.23 2.23 0 01-1.88.8 2.9 2.9 0 01-1.4-.33 4.92 4.92 0 01-1.12-.9 8.61 8.61 0 01-1-1.29c-.29-.48-.54-.86-.74-1.16-1.15 0-2 .85-2.66 2.4a21.19 21.19 0 00-.94 7.4v2.59h6.53v2.47h-6.53v18.2a2.74 2.74 0 00.35 1.46 2.07 2.07 0 001.09.85 7.31 7.31 0 001.64.37c.69.1 1.28.16 1.78.2v1.69h-13.37v-1.69l1.22-.11a4.7 4.7 0 001.1-.2 1.91 1.91 0 001.06-.81 2.92 2.92 0 00.35-1.5v-18.46h-5v-2.47h5v-1.61a14.15 14.15 0 013-9.36 9.41 9.41 0 017.5-3.58 5.54 5.54 0 013.44.9A2.7 2.7 0 011250.24 1004.39z" class="color0d005d svgShape"></path><path fill="#00175d" d="M1260.78 1041.09h-12.24v-1.69l1.22-.11a4.52 4.52 0 001.09-.2 1.82 1.82 0 001.07-.81 2.9 2.9 0 00.35-1.5v-15.64a3.1 3.1 0 00-.38-1.5 3.23 3.23 0 00-1-1.14 4.63 4.63 0 00-1.41-.53 11.87 11.87 0 00-1.7-.27V1016l9-.57.36.36v20.67a2.93 2.93 0 00.34 1.49 2.05 2.05 0 001.09.87 7.12 7.12 0 001.1.37 6.52 6.52 0 001.2.2zm-3.22-35.65a3.76 3.76 0 01-1 2.56 3 3 0 01-2.38 1.09 3 3 0 01-2.27-1 3.36 3.36 0 01-1-2.38 3.49 3.49 0 011-2.46 3 3 0 012.27-1.06 3.14 3.14 0 012.4 1A3.23 3.23 0 011257.56 1005.44zM1283.32 1019a4.25 4.25 0 01-.65 2.33 2.15 2.15 0 01-2 1 3 3 0 01-2.2-.75 2.25 2.25 0 01-.76-1.64 5.41 5.41 0 01.09-1c.06-.31.12-.62.17-.93a5.71 5.71 0 00-2.83 1 8.37 8.37 0 00-2.75 2.77v14.76a2.65 2.65 0 00.35 1.46 2.07 2.07 0 001.09.85 7.13 7.13 0 001.66.39c.67.08 1.26.14 1.76.18v1.69h-13.37v-1.69l1.22-.11a4.52 4.52 0 001.09-.2 1.82 1.82 0 001.07-.81 2.9 2.9 0 00.35-1.5v-15.64a3.64 3.64 0 00-.37-1.56 3.11 3.11 0 00-1-1.24 3.49 3.49 0 00-1.15-.44 10.41 10.41 0 00-1.44-.2V1016l8.43-.57.36.36v3.57h.13a11.61 11.61 0 013.54-3.16 7.55 7.55 0 013.58-1.08 3.45 3.45 0 012.63 1.06A3.87 3.87 0 011283.32 1019zM1328.84 1041.09H1316.5v-1.69l1.2-.11a4.54 4.54 0 001.06-.2 1.9 1.9 0 001.07-.81 2.92 2.92 0 00.35-1.5v-13.09a6.23 6.23 0 00-1.22-4.12 3.83 3.83 0 00-3-1.46 7.1 7.1 0 00-2.37.39 7.76 7.76 0 00-2 1.08 6.53 6.53 0 00-1.24 1.22 10.81 10.81 0 00-.76 1.09v14.63a3.09 3.09 0 00.31 1.48 2 2 0 001 .88 8.23 8.23 0 001.07.35 7.9 7.9 0 001.24.17v1.69H1301.1v-1.69l1.15-.11a4.41 4.41 0 001-.2 1.9 1.9 0 001.07-.81 2.92 2.92 0 00.35-1.5v-13.09a6.18 6.18 0 00-1.23-4.12 3.82 3.82 0 00-3-1.46 7.1 7.1 0 00-2.37.4 7.73 7.73 0 00-2 1.1 6.31 6.31 0 00-1.26 1.27l-.77 1.06v14.53a2.75 2.75 0 00.36 1.46 2.2 2.2 0 001.08.9 5.78 5.78 0 001.1.39 10.6 10.6 0 001.26.18v1.69h-12.31v-1.69l1.22-.11a4.52 4.52 0 001.09-.2 1.82 1.82 0 001.07-.81 2.9 2.9 0 00.35-1.5V1021a3 3 0 00-.37-1.48 3.46 3.46 0 00-1-1.11 4.17 4.17 0 00-1.2-.5 8.14 8.14 0 00-1.49-.25V1016l8.48-.57.36.36v3.63h.18c.43-.43 1-.94 1.57-1.52a13.77 13.77 0 011.72-1.41 7.83 7.83 0 012.25-1 9.75 9.75 0 012.91-.41 6.89 6.89 0 014.24 1.32 7.46 7.46 0 012.55 3.2L1311 1018a13.44 13.44 0 011.86-1.45 8.16 8.16 0 012.3-1.08 9.65 9.65 0 012.93-.41 6.48 6.48 0 015.09 2.1c1.24 1.41 1.87 3.57 1.87 6.48v12.88a3.09 3.09 0 00.31 1.48 2 2 0 001 .88 6.5 6.5 0 001.17.35 11.15 11.15 0 001.3.17zM1354.36 1035.13a13 13 0 01-4.26 4.83 10.76 10.76 0 01-6.15 1.8 12.51 12.51 0 01-5.36-1.08 10.54 10.54 0 01-3.79-2.93 12.46 12.46 0 01-2.22-4.32 18.12 18.12 0 01-.73-5.21 15.48 15.48 0 01.78-4.85 13.71 13.71 0 012.3-4.28 11 11 0 013.64-2.94 10.4 10.4 0 014.87-1.12 11.75 11.75 0 014.75.87 8.63 8.63 0 013.22 2.39 9.81 9.81 0 011.76 3.4 15 15 0 01.58 4.24v1.69H1337a19.83 19.83 0 00.48 4.54 10.59 10.59 0 001.5 3.58 7.18 7.18 0 002.62 2.36 8.18 8.18 0 003.86.86 7.12 7.12 0 003.94-1.07 10.57 10.57 0 003.2-3.87zm-5.68-9.66a21.29 21.29 0 00-.24-3.08 9.6 9.6 0 00-.79-2.74 5.05 5.05 0 00-1.62-1.92 4.35 4.35 0 00-2.64-.75 5.51 5.51 0 00-4.49 2.25 10.41 10.41 0 00-1.94 6.24zM1385.05 1040.63l-8.86.57-.39-.36v-2.37l-.21 0a10.51 10.51 0 01-3.3 2.44 9 9 0 01-4 1 9.57 9.57 0 01-4.17-1 10.56 10.56 0 01-3.5-2.71 13.4 13.4 0 01-2.4-4.27 16.31 16.31 0 01-.89-5.5 14.51 14.51 0 011-5.22 13.89 13.89 0 012.62-4.32 11.64 11.64 0 013.84-2.75 11.19 11.19 0 014.63-1 13.62 13.62 0 013.48.45 12.52 12.52 0 012.94 1.14v-8.83a5.16 5.16 0 00-.36-2 3 3 0 00-1-1.36 4.93 4.93 0 00-1.94-.7 24.5 24.5 0 00-2.63-.33v-1.59l10.38-.57.39.39v34.16a3.15 3.15 0 00.35 1.53 3 3 0 001 1.07 3.27 3.27 0 001.42.38c.61.05 1.18.09 1.69.1zm-9.3-4.45v-14.83a7 7 0 00-.67-1.44 6.65 6.65 0 00-1.15-1.41 6.77 6.77 0 00-1.75-1.07 6 6 0 00-2.33-.42 5.35 5.35 0 00-2.84.8 7.53 7.53 0 00-2.29 2.28 11.42 11.42 0 00-1.5 3.67 20.28 20.28 0 00-.56 4.92 17.54 17.54 0 00.41 3.92 10.67 10.67 0 001.39 3.28 7.05 7.05 0 002.3 2.31 6.15 6.15 0 003.32.87 6 6 0 003.4-.9A11.33 11.33 0 001375.75 1036.18z" class="color0d005d svgShape"></path><rect width="354.39" height="144.21" x="928.37" y="1145.27" fill="#0341fe" rx="19.29" class="colorfeb903 svgShape"></rect><path fill="#ffffff" d="M1038.83 1217.74a29.36 29.36 0 01-2.93 13.52 27.86 27.86 0 01-7.62 9.39 33.26 33.26 0 01-10.64 5.47 41.54 41.54 0 01-12.19 1.8H980.13v-3.05a28.31 28.31 0 003.25-.24 10.42 10.42 0 002.65-.54 3.67 3.67 0 001.88-1.66 5.65 5.65 0 00.58-2.64v-44.1a6.62 6.62 0 00-.5-2.62 3.69 3.69 0 00-2-1.86 11.72 11.72 0 00-2.88-.94 25.32 25.32 0 00-2.67-.39v-3.06h26.7a35.68 35.68 0 0110.85 1.7 32.57 32.57 0 019.3 4.59 26.41 26.41 0 018.44 10A32.65 32.65 0 011038.83 1217.74zm-10.55 0a35.56 35.56 0 00-1.64-11.13 25.73 25.73 0 00-4.78-8.67 21.06 21.06 0 00-7.3-5.55 22.54 22.54 0 00-9.62-2c-1.18 0-2.51 0-4 .07l-3.29.1v47c0 2.61.76 4.41 2.28 5.42s3.86 1.5 7 1.5a22.14 22.14 0 009.56-1.93 17.24 17.24 0 006.63-5.38 24.07 24.07 0 003.9-8.37A44.08 44.08 0 001028.28 1217.72zM1095.71 1194.06a29.86 29.86 0 016.33 10.18 36.69 36.69 0 012.28 13.2 36 36 0 01-2.32 13.22 29.57 29.57 0 01-6.46 10.12 28 28 0 01-9.31 6.37 29.85 29.85 0 01-23-.15 27.19 27.19 0 01-9.28-6.65 30.15 30.15 0 01-6.1-10.15 36.26 36.26 0 01-2.21-12.76 35.68 35.68 0 012.32-13.29 30.86 30.86 0 016.42-10.09 27.44 27.44 0 019.41-6.46 28.66 28.66 0 0111.21-2.24 29.09 29.09 0 0111.46 2.28A27.28 27.28 0 011095.71 1194.06zm-6.42 43.31a28.38 28.38 0 003.51-8.87 51.34 51.34 0 001.1-11.06 50.62 50.62 0 00-1.23-11.54 28.66 28.66 0 00-3.59-9 17.13 17.13 0 00-5.95-5.7 16.11 16.11 0 00-8.18-2 15.67 15.67 0 00-8.78 2.37 18.42 18.42 0 00-5.9 6.33 30 30 0 00-3.21 8.87 52.71 52.71 0 00-1 10.68 51.08 51.08 0 001.12 11.19 28.16 28.16 0 003.53 8.87 17.36 17.36 0 005.85 5.92 16 16 0 008.44 2.14 16.19 16.19 0 008.31-2.16A16.75 16.75 0 001089.29 1237.37zM1174.68 1189.88a19.42 19.42 0 00-3.7.69 13.21 13.21 0 00-3.58 1.33c-1 .72-1.73 2.1-2.08 4.14a45.77 45.77 0 00-.54 7.75v44.74H1161l-37-50v31.52a37.37 37.37 0 00.67 8.14 7.48 7.48 0 002 4 10.18 10.18 0 004.09 1.77 25.93 25.93 0 004.09.86v3.05h-25.06v-3.05a24.64 24.64 0 003.92-.84 10.4 10.4 0 003.45-1.36 6.29 6.29 0 002.06-3.68 43.13 43.13 0 00.56-8.46v-30.1a12 12 0 00-.69-4 7.37 7.37 0 00-1.85-3.06 12.84 12.84 0 00-4.2-2.43 14.81 14.81 0 00-4.28-1.1v-3.06h17.46l34.34 46.58v-29.06a37.13 37.13 0 00-.69-8.2 6.51 6.51 0 00-2-3.81 14.7 14.7 0 00-3.94-1.59 21.45 21.45 0 00-4.15-.86v-3.06h24.84zM1231 1229.92l-1.16 18h-50.72v-3.05c.86-.06 2-.18 3.44-.37a11.89 11.89 0 002.8-.58 3.93 3.93 0 001.92-1.68 5.65 5.65 0 00.53-2.63v-43.92a6.23 6.23 0 00-.47-2.52 3.7 3.7 0 00-2-1.78 13.86 13.86 0 00-3.12-1 23.73 23.73 0 00-3.12-.52v-3.06h47.28v14.73h-3.23a20 20 0 00-3.73-7q-2.87-3.67-5.44-4c-.89-.12-2-.2-3.19-.26s-2.64-.09-4.22-.09H1197v24.29h6.89a13.63 13.63 0 004.84-.63 6.57 6.57 0 002.69-2.08 11.42 11.42 0 001.62-3.34 21.08 21.08 0 00.88-3.94h3.23v23.94h-3.23a19.15 19.15 0 00-.93-4.37 11 11 0 00-1.57-3.34 6.16 6.16 0 00-3-2.19 15.78 15.78 0 00-4.5-.52H1197v18.31a19.78 19.78 0 00.38 4.35 4 4 0 001.51 2.4 6.46 6.46 0 003.06 1.06 50.81 50.81 0 005.51.23h3.75a36.2 36.2 0 003.92-.17 22.84 22.84 0 003.38-.62 5.12 5.12 0 002.47-1.23 27.58 27.58 0 004.16-6.27 40.81 40.81 0 002.77-6.18z" class="colorffffff svgShape"></path><path fill="#6389fa" d="M852.62 522v18.23H377.93v-16.9a39.21 39.21 0 0139.19-39.19H814.76A37.86 37.86 0 01852.62 522zM377.93 593.17V758.05a39.21 39.21 0 0039.19 39.21H814.76a37.87 37.87 0 0037.86-37.89V593.17zm34.81 48.43a18.56 18.56 0 0118.56-18.53H549.84a18.55 18.55 0 010 37.09H431.3A18.57 18.57 0 01412.74 641.6zm93.68 108a12.55 12.55 0 01-12.54 12.57h-51a12.57 12.57 0 01-12.57-12.57v-.37a12.57 12.57 0 0112.57-12.57h51a12.55 12.55 0 0112.54 12.57zm98.56 0a12.57 12.57 0 01-12.57 12.57h-51a12.56 12.56 0 01-12.55-12.57v-.37a12.56 12.56 0 0112.55-12.57h51A12.57 12.57 0 01605 749.26zm98.57 0A12.58 12.58 0 01691 762.2h-51a12.58 12.58 0 01-12.57-12.57v-.37a12.58 12.58 0 0112.57-12.57h51a12.58 12.58 0 0112.57 12.57zm98.54 0a12.56 12.56 0 01-12.55 12.57H738.48a12.56 12.56 0 01-12.55-12.57v-.37a12.56 12.56 0 0112.55-12.57h51.06a12.56 12.56 0 0112.55 12.57zm-28.63-37.06l-25.39-25.39-25.42 25.39-39.71-39.69 39.71-39.72 25.42 25.42 25.39-25.42 39.72 39.72z" class="color63affa svgShape"></path><rect width="474.69" height="52.99" x="377.93" y="540.18" fill="#626a81" class="color626681 svgShape"></rect><polygon fill="#3264fc" points="813.18 672.88 773.46 712.57 748.07 687.18 733.75 672.88 748.07 658.58 773.46 633.16 813.18 672.88" class="colorfc4a32 svgShape"></polygon><polygon fill="#5f84f4" points="733.75 672.88 748.07 687.18 722.65 712.57 682.94 672.88 722.65 633.16 748.07 658.58 733.75 672.88" class="colorf4bc5f svgShape"></polygon><path fill="#82a0fb" d="M568.4,641.6a18.57,18.57,0,0,1-18.56,18.56H431.3a18.55,18.55,0,1,1,0-37.09H549.84A18.55,18.55,0,0,1,568.4,641.6Z" class="color82c8fb svgShape"></path><rect width="76.15" height="25.52" x="430.27" y="736.69" fill="#82a0fb" rx="12.57" class="color82c8fb svgShape"></rect><path fill="#82a0fb" d="M605,749.26v.37a12.57,12.57,0,0,1-12.57,12.57h-51a12.56,12.56,0,0,1-12.55-12.57v-.37a12.56,12.56,0,0,1,12.55-12.57h51A12.57,12.57,0,0,1,605,749.26Z" class="color82c8fb svgShape"></path><rect width="76.18" height="25.52" x="627.37" y="736.69" fill="#82a0fb" rx="12.57" class="color82c8fb svgShape"></rect><path fill="#82a0fb" d="M802.09,749.26v.37a12.56,12.56,0,0,1-12.55,12.57H738.48a12.56,12.56,0,0,1-12.55-12.57v-.37a12.56,12.56,0,0,1,12.55-12.57h51.06A12.56,12.56,0,0,1,802.09,749.26Z" class="color82c8fb svgShape"></path></svg>