<svg width="25" height="25" viewBox="0 0 25 25" fill="none" xmlns="http://www.w3.org/2000/svg">
<path d="M12.5 17.9414C13.0304 17.9414 13.5391 17.7307 13.9142 17.3556C14.2893 16.9805 14.5 16.4718 14.5 15.9414C14.5 15.411 14.2893 14.9023 13.9142 14.5272C13.5391 14.1521 13.0304 13.9414 12.5 13.9414C11.9696 13.9414 11.4609 14.1521 11.0858 14.5272C10.7107 14.9023 10.5 15.411 10.5 15.9414C10.5 16.4718 10.7107 16.9805 11.0858 17.3556C11.4609 17.7307 11.9696 17.9414 12.5 17.9414ZM18.5 8.94141C19.0304 8.94141 19.5391 9.15212 19.9142 9.52719C20.2893 9.90227 20.5 10.411 20.5 10.9414V20.9414C20.5 21.4718 20.2893 21.9805 19.9142 22.3556C19.5391 22.7307 19.0304 22.9414 18.5 22.9414H6.5C5.96957 22.9414 5.46086 22.7307 5.08579 22.3556C4.71071 21.9805 4.5 21.4718 4.5 20.9414V10.9414C4.5 10.411 4.71071 9.90227 5.08579 9.52719C5.46086 9.15212 5.96957 8.94141 6.5 8.94141H7.5V6.94141C7.5 5.61532 8.02678 4.34355 8.96447 3.40587C9.90215 2.46819 11.1739 1.94141 12.5 1.94141C13.1566 1.94141 13.8068 2.07074 14.4134 2.32201C15.02 2.57328 15.5712 2.94158 16.0355 3.40587C16.4998 3.87017 16.8681 4.42136 17.1194 5.02799C17.3707 5.63462 17.5 6.2848 17.5 6.94141V8.94141H18.5ZM12.5 3.94141C11.7044 3.94141 10.9413 4.25748 10.3787 4.82009C9.81607 5.3827 9.5 6.14576 9.5 6.94141V8.94141H15.5V6.94141C15.5 6.14576 15.1839 5.3827 14.6213 4.82009C14.0587 4.25748 13.2956 3.94141 12.5 3.94141Z" fill="#ABC2F7"/>
</svg>
