<svg width="19" height="18" viewBox="0 0 19 18" fill="none" xmlns="http://www.w3.org/2000/svg">
<g id="fluent:people-24-filled">
<path id="Vector" d="M6.96527 9C7.76092 9 8.52398 8.68393 9.08659 8.12132C9.6492 7.55871 9.96527 6.79565 9.96527 6C9.96527 5.20435 9.6492 4.44129 9.08659 3.87868C8.52398 3.31607 7.76092 3 6.96527 3C6.16962 3 5.40656 3.31607 4.84395 3.87868C4.28134 4.44129 3.96527 5.20435 3.96527 6C3.96527 6.79565 4.28134 7.55871 4.84395 8.12132C5.40656 8.68393 6.16962 9 6.96527 9ZM13.7153 9C14.312 9 14.8843 8.76295 15.3063 8.34099C15.7282 7.91903 15.9653 7.34674 15.9653 6.75C15.9653 6.15326 15.7282 5.58097 15.3063 5.15901C14.8843 4.73705 14.312 4.5 13.7153 4.5C13.1185 4.5 12.5462 4.73705 12.1243 5.15901C11.7023 5.58097 11.4653 6.15326 11.4653 6.75C11.4653 7.34674 11.7023 7.91903 12.1243 8.34099C12.5462 8.76295 13.1185 9 13.7153 9ZM4.15277 10.5C3.70522 10.5 3.276 10.6778 2.95953 10.9943C2.64306 11.3107 2.46527 11.7399 2.46527 12.1875V12.375C2.46527 12.375 2.46527 15.75 6.96527 15.75C11.4653 15.75 11.4653 12.375 11.4653 12.375V12.1875C11.4653 11.7399 11.2875 11.3107 10.971 10.9943C10.6545 10.6778 10.2253 10.5 9.77777 10.5H4.15277ZM13.7153 14.625C12.837 14.625 12.1643 14.4893 11.649 14.2815C11.9489 13.7754 12.1371 13.211 12.201 12.6263C12.2083 12.5552 12.2131 12.4839 12.2153 12.4125V12.1875C12.2162 11.5592 11.9738 10.9549 11.5388 10.5015C11.5643 10.5004 11.5898 10.4999 11.6153 10.5H15.8153C16.2529 10.5 16.6726 10.6738 16.982 10.9833C17.2914 11.2927 17.4653 11.7124 17.4653 12.15C17.4653 12.15 17.4653 14.625 13.7153 14.625Z" fill="black" fill-opacity="0.5"/>
</g>
</svg>
