<svg width="16" height="16" viewBox="0 0 16 16" fill="none" xmlns="http://www.w3.org/2000/svg">
<g id="ph:phone">
<path id="Vector" d="M12.6617 9.72577L10.1884 8.61748L10.1816 8.61433C10.0532 8.55941 9.91313 8.53738 9.77407 8.55021C9.63501 8.56304 9.50134 8.61034 9.38516 8.68783C9.37148 8.69687 9.35833 8.70669 9.34578 8.71723L8.06792 9.80662C7.25836 9.41339 6.42256 8.58388 6.02933 7.78482L7.12029 6.48754C7.13079 6.47441 7.14076 6.46129 7.15021 6.44711C7.22604 6.33124 7.27204 6.19843 7.28413 6.06048C7.29623 5.92254 7.27403 5.78375 7.21951 5.65645V5.65015L6.10808 3.17266C6.03602 3.00637 5.91211 2.86785 5.75485 2.77777C5.59759 2.68769 5.41541 2.65088 5.23552 2.67285C4.52412 2.76646 3.87113 3.11583 3.39849 3.65571C2.92586 4.19559 2.66591 4.88905 2.6672 5.60658C2.6672 9.77512 6.05873 13.1667 10.2273 13.1667C10.9448 13.1679 11.6383 12.908 12.1781 12.4354C12.718 11.9627 13.0674 11.3097 13.161 10.5983C13.183 10.4185 13.1463 10.2364 13.0563 10.0791C12.9663 9.92186 12.8279 9.79792 12.6617 9.72577ZM10.2273 12.3266C8.44559 12.3247 6.73745 11.6161 5.47761 10.3562C4.21778 9.0964 3.50915 7.38825 3.5072 5.60658C3.50523 5.09391 3.68993 4.59804 4.02682 4.21159C4.36371 3.82514 4.82974 3.57453 5.3379 3.50656C5.33769 3.50865 5.33769 3.51076 5.3379 3.51286L6.44041 5.98038L5.35522 7.27924C5.34421 7.29192 5.3342 7.30544 5.3253 7.31967C5.24629 7.4409 5.19994 7.58049 5.19074 7.7249C5.18155 7.86931 5.20981 8.01365 5.2728 8.14393C5.74845 9.11676 6.72863 10.0896 7.71197 10.5647C7.8432 10.6271 7.98838 10.6544 8.13331 10.6439C8.27824 10.6334 8.41797 10.5855 8.53885 10.5049C8.55233 10.4958 8.5653 10.486 8.5777 10.4755L9.85399 9.38662L12.3215 10.4918H12.3273C12.2601 11.0006 12.0099 11.4676 11.6234 11.8053C11.2369 12.143 10.7405 12.3284 10.2273 12.3266Z" fill="black"/>
</g>
</svg>
