<svg width="11" height="18" viewBox="0 0 11 18" fill="none" xmlns="http://www.w3.org/2000/svg">
<path d="M9.17033 0H1.82967C1.34441 0 0.879026 0.189263 0.535897 0.526153C0.192768 0.863044 0 1.31997 0 1.7964V16.2027C0 17.1954 0.8195 18 1.82967 18H9.16942C9.65476 18 10.1202 17.8108 10.4635 17.4739C10.8068 17.137 10.9998 16.6801 11 16.2036V1.7964C11 1.31997 10.8072 0.863044 10.4641 0.526153C10.121 0.189263 9.65559 0 9.17033 0ZM5.5 17.1C4.8675 17.1 4.35417 16.6977 4.35417 16.2C4.35417 15.7023 4.8675 15.3 5.5 15.3C6.1325 15.3 6.64583 15.7023 6.64583 16.2C6.64583 16.6977 6.1325 17.1 5.5 17.1ZM9.16667 14.4H1.83333V1.8H9.16667V14.4Z" fill="#3D6DFE"/>
</svg>
