<svg width="25" height="26" viewBox="0 0 25 26" fill="none" xmlns="http://www.w3.org/2000/svg">
<path d="M22.2221 6.40263H21.8749V3.27763C21.8712 2.63414 21.614 2.01803 21.159 1.563C20.7039 1.10797 20.0878 0.850724 19.4443 0.847078C19.3341 0.827016 19.2212 0.827016 19.111 0.847078L2.58324 6.40263H2.20824L1.97213 6.48597H1.77768L1.55546 6.61097L1.38879 6.84708L1.19435 7.01375L1.04157 7.15263L0.874904 7.36097C0.830467 7.40083 0.792924 7.44775 0.763793 7.49986C0.712242 7.58016 0.665852 7.66366 0.624904 7.74986L0.541571 7.90263C0.502901 8.00239 0.470432 8.10443 0.444348 8.20819C0.450596 8.25892 0.450596 8.31023 0.444348 8.36097C0.430009 8.51805 0.430009 8.67611 0.444348 8.83319V22.7221C0.447264 23.3492 0.691081 23.9512 1.12537 24.4036C1.55967 24.856 2.15122 25.1241 2.77768 25.1526H22.2221C22.8656 25.149 23.4817 24.8917 23.9367 24.4367C24.3918 23.9817 24.649 23.3656 24.6527 22.7221V8.83319C24.649 8.18969 24.3918 7.57359 23.9367 7.11856C23.4817 6.66353 22.8656 6.40628 22.2221 6.40263ZM19.5554 2.9443C19.6239 2.96953 19.683 3.01488 19.7252 3.07437C19.7673 3.13387 19.7905 3.20473 19.7916 3.27763V6.40263H9.19434L19.5554 2.9443ZM22.5693 22.7221C22.5693 22.8142 22.5328 22.9025 22.4676 22.9676C22.4025 23.0327 22.3142 23.0693 22.2221 23.0693H2.77768C2.68559 23.0693 2.59727 23.0327 2.53216 22.9676C2.46704 22.9025 2.43046 22.8142 2.43046 22.7221V8.83319C2.43046 8.7411 2.46704 8.65278 2.53216 8.58767C2.59727 8.52255 2.68559 8.48597 2.77768 8.48597H22.2221C22.3142 8.48597 22.4025 8.52255 22.4676 8.58767C22.5328 8.65278 22.5693 8.7411 22.5693 8.83319V22.7221Z" fill="#FF0000"/>
</svg>
