<svg width="51" height="50" viewBox="0 0 51 50" fill="none" xmlns="http://www.w3.org/2000/svg">
<circle cx="25.5" cy="25" r="25" fill="#F6F6F6"/>
<path d="M35.2221 18.4026H34.8749V15.2776C34.8712 14.6341 34.614 14.018 34.159 13.563C33.7039 13.108 33.0878 12.8507 32.4443 12.8471C32.3341 12.827 32.2212 12.827 32.111 12.8471L15.5832 18.4026H15.2082L14.9721 18.486H14.7777L14.5555 18.611L14.3888 18.8471L14.1943 19.0137L14.0416 19.1526L13.8749 19.361C13.8305 19.4008 13.7929 19.4478 13.7638 19.4999C13.7122 19.5802 13.6659 19.6637 13.6249 19.7499L13.5416 19.9026C13.5029 20.0024 13.4704 20.1044 13.4443 20.2082C13.4506 20.2589 13.4506 20.3102 13.4443 20.361C13.43 20.518 13.43 20.6761 13.4443 20.8332V34.7221C13.4473 35.3492 13.6911 35.9512 14.1254 36.4036C14.5597 36.856 15.1512 37.1241 15.7777 37.1526H35.2221C35.8656 37.149 36.4817 36.8917 36.9367 36.4367C37.3918 35.9817 37.649 35.3656 37.6527 34.7221V20.8332C37.649 20.1897 37.3918 19.5736 36.9367 19.1186C36.4817 18.6635 35.8656 18.4063 35.2221 18.4026ZM32.5554 14.9443C32.6239 14.9695 32.683 15.0149 32.7252 15.0744C32.7673 15.1339 32.7905 15.2047 32.7916 15.2776V18.4026H22.1943L32.5554 14.9443ZM35.5693 34.7221C35.5693 34.8142 35.5328 34.9025 35.4676 34.9676C35.4025 35.0327 35.3142 35.0693 35.2221 35.0693H15.7777C15.6856 35.0693 15.5973 35.0327 15.5322 34.9676C15.467 34.9025 15.4305 34.8142 15.4305 34.7221V20.8332C15.4305 20.7411 15.467 20.6528 15.5322 20.5877C15.5973 20.5225 15.6856 20.486 15.7777 20.486H35.2221C35.3142 20.486 35.4025 20.5225 35.4676 20.5877C35.5328 20.6528 35.5693 20.7411 35.5693 20.8332V34.7221Z" fill="#FF0000"/>
<path d="M31.7498 29.5132C32.7086 29.5132 33.4859 28.736 33.4859 27.7771C33.4859 26.8183 32.7086 26.041 31.7498 26.041C30.791 26.041 30.0137 26.8183 30.0137 27.7771C30.0137 28.736 30.791 29.5132 31.7498 29.5132Z" fill="#FF0000"/>
</svg>
