<svg width="21" height="14" viewBox="0 0 21 14" fill="none" xmlns="http://www.w3.org/2000/svg">
<g clip-path="url(#clip0_307_4361)">
<path d="M21 0.823413V2.47046C21.0018 2.57974 20.9821 2.68827 20.9423 2.78975C20.9025 2.89123 20.8433 2.98361 20.7682 3.06152C20.693 3.13943 20.6033 3.2013 20.5045 3.24354C20.4056 3.28577 20.2995 3.30752 20.1923 3.30752C20.0851 3.30752 19.979 3.28577 19.8801 3.24354C19.7813 3.2013 19.6916 3.13943 19.6165 3.06152C19.5413 2.98361 19.4821 2.89123 19.4423 2.78975C19.4025 2.68827 19.3829 2.57974 19.3846 2.47046V1.64705H1.61538V3.43582C2.08776 3.60605 2.49675 3.92141 2.78603 4.33849C3.07531 4.75557 3.23065 5.25383 3.23065 5.76466C3.23065 6.27549 3.07531 6.77376 2.78603 7.19083C2.49675 7.60791 2.08776 7.92328 1.61538 8.0935V9.88228H12.1153C12.2225 9.88049 12.3289 9.90048 12.4284 9.94106C12.528 9.98165 12.6186 10.042 12.695 10.1187C12.7714 10.1953 12.8321 10.2867 12.8735 10.3875C12.9149 10.4883 12.9363 10.5965 12.9363 10.7058C12.9363 10.8151 12.9149 10.9233 12.8735 11.0241C12.8321 11.1249 12.7714 11.2163 12.695 11.2929C12.6186 11.3696 12.528 11.4299 12.4284 11.4705C12.3289 11.5111 12.2225 11.5311 12.1153 11.5293H0.807585C0.593485 11.5289 0.388271 11.442 0.236899 11.2876C0.0855278 11.1332 0.000340736 10.924 0 10.7057V7.4116C0.000340893 7.19332 0.0855354 6.98408 0.236913 6.82974C0.388291 6.6754 0.593505 6.58853 0.807585 6.58818C1.01577 6.57902 1.21244 6.48825 1.35658 6.33482C1.50071 6.18138 1.58117 5.97712 1.58117 5.76466C1.58117 5.5522 1.50071 5.34794 1.35658 5.19451C1.21244 5.04107 1.01577 4.9503 0.807585 4.94114C0.593485 4.94073 0.388271 4.85382 0.236899 4.69944C0.0855278 4.54506 0.000340736 4.3358 0 4.11751V0.823413C0.000340893 0.605137 0.0855354 0.395901 0.236913 0.241556C0.388291 0.0872116 0.593505 0.000347574 0.807585 0H20.1922C20.4063 0.000347414 20.6115 0.0872041 20.7629 0.241543C20.9144 0.395881 20.9996 0.605117 21 0.823413ZM21 10.7057V13.1764C20.9965 13.3925 20.9099 13.5985 20.7588 13.7501C20.6077 13.9016 20.4043 13.9866 20.1923 13.9866C19.9803 13.9866 19.7769 13.9016 19.6258 13.7501C19.4747 13.5985 19.3881 13.3925 19.3846 13.1764V10.7057C19.3842 10.4874 19.299 10.2782 19.1476 10.1238C18.9962 9.96948 18.7909 9.88262 18.5768 9.88228H16.9614C16.7474 9.88262 16.5421 9.96949 16.3908 10.1238C16.2394 10.2782 16.1542 10.4874 16.1538 10.7057V12.353H16.9614C17.1756 12.353 17.381 12.4397 17.5325 12.5941C17.6839 12.7485 17.769 12.958 17.769 13.1764C17.769 13.3948 17.6839 13.6042 17.5325 13.7586C17.381 13.913 17.1756 13.9998 16.9614 13.9998H15.3458C15.1318 13.9994 14.9265 13.9126 14.7752 13.7582C14.6238 13.6039 14.5386 13.3946 14.5382 13.1764V10.7057C14.5382 9.64417 15.2043 8.74343 16.1281 8.39579C15.8818 8.16637 15.685 7.88716 15.5503 7.57595C15.4156 7.26474 15.346 6.92834 15.3458 6.58818C15.3458 5.22766 16.4346 4.11751 17.769 4.11751C19.1034 4.11751 20.192 5.22766 20.192 6.58818C20.192 7.30207 19.8858 7.9428 19.4093 8.39579C19.8742 8.56886 20.2758 8.88308 20.5601 9.29611C20.8444 9.70914 20.9976 10.2011 20.9991 10.7057H21ZM16.961 6.58753C16.9543 6.75164 16.996 6.91404 17.0806 7.05381C17.1652 7.19359 17.2889 7.30434 17.4357 7.37182C17.5826 7.4393 17.7459 7.46041 17.9047 7.43243C18.0634 7.40445 18.2103 7.32867 18.3265 7.21484C18.4426 7.10101 18.5227 6.95434 18.5564 6.79372C18.59 6.6331 18.5758 6.46587 18.5155 6.31357C18.4551 6.16127 18.3515 6.03087 18.2178 5.93915C18.0842 5.84743 17.9267 5.7986 17.7656 5.79894C17.5577 5.79938 17.3579 5.88163 17.208 6.02855C17.0581 6.17547 16.9696 6.37571 16.961 6.58753ZM13.7307 4.11751V7.4116C13.7303 7.62989 13.6451 7.83915 13.4938 7.99353C13.3424 8.14791 13.1372 8.23483 12.9231 8.23523H5.65374C5.43964 8.23483 5.23443 8.14791 5.08305 7.99353C4.93168 7.83915 4.8465 7.62989 4.84615 7.4116V4.11751C4.8465 3.89923 4.93169 3.68999 5.08307 3.53565C5.23444 3.3813 5.43966 3.29444 5.65374 3.29409H12.9231C13.1372 3.29444 13.3424 3.3813 13.4937 3.53565C13.6451 3.68999 13.7303 3.89923 13.7307 4.11751ZM12.1153 4.94114H6.46154V6.58818H12.1153V4.94114Z" fill="#3D6DFE"/>
</g>
<defs>
<clipPath id="clip0_307_4361">
<rect width="21" height="14" fill="white"/>
</clipPath>
</defs>
</svg>
