<svg width="36" height="36" viewBox="0 0 36 36" fill="none" xmlns="http://www.w3.org/2000/svg">
<rect x="0.75" y="0.75" width="34.5" height="34.5" rx="17.25" stroke="#3D6DFE" stroke-width="1.5"/>
<path d="M18 24C16.325 24 14.9062 23.4187 13.7437 22.2562C12.5812 21.0937 12 19.675 12 18C12 16.325 12.5812 14.9062 13.7437 13.7437C14.9062 12.5812 16.325 12 18 12C18.8625 12 19.6875 12.178 20.475 12.534C21.2625 12.89 21.9375 13.3995 22.5 14.0625V12H24V17.25H18.75V15.75H21.9C21.5 15.05 20.9532 14.5 20.2597 14.1C19.5662 13.7 18.813 13.5 18 13.5C16.75 13.5 15.6875 13.9375 14.8125 14.8125C13.9375 15.6875 13.5 16.75 13.5 18C13.5 19.25 13.9375 20.3125 14.8125 21.1875C15.6875 22.0625 16.75 22.5 18 22.5C18.9625 22.5 19.8312 22.225 20.6062 21.675C21.3812 21.125 21.925 20.4 22.2375 19.5H23.8125C23.4625 20.825 22.75 21.9062 21.675 22.7437C20.6 23.5812 19.375 24 18 24Z" fill="#3D6DFE"/>
</svg>
