<svg width="20" height="20" viewBox="0 0 20 20" fill="none" xmlns="http://www.w3.org/2000/svg">
<circle cx="10" cy="10" r="10" fill="#F4F3FF"/>
<path d="M6.69985 7.6658C6.16588 7.6658 5.73391 7.23382 5.73391 6.69985C5.73391 6.44367 5.83567 6.19798 6.01682 6.01682C6.19798 5.83567 6.44367 5.73391 6.69985 5.73391C7.23382 5.73391 7.6658 6.16588 7.6658 6.69985C7.6658 6.95604 7.56403 7.20173 7.38288 7.38288C7.20173 7.56403 6.95604 7.6658 6.69985 7.6658ZM6.69985 4C5.19993 4 4 5.19993 4 6.69985C4 8.72174 6.69985 11.7156 6.69985 11.7156C6.69985 11.7156 9.39971 8.72174 9.39971 6.69985C9.39971 5.19993 8.19977 4 6.69985 4ZM13.2995 7.6658C13.0433 7.6658 12.7976 7.56403 12.6165 7.38288C12.4353 7.20173 12.3335 6.95604 12.3335 6.69985C12.3335 6.573 12.3585 6.4474 12.4071 6.3302C12.4556 6.21301 12.5268 6.10652 12.6165 6.01682C12.7062 5.92713 12.8126 5.85598 12.9298 5.80743C13.047 5.75889 13.1726 5.73391 13.2995 5.73391C13.4263 5.73391 13.552 5.75889 13.6691 5.80743C13.7863 5.85598 13.8928 5.92713 13.9825 6.01682C14.0722 6.10652 14.1434 6.21301 14.1919 6.3302C14.2405 6.4474 14.2654 6.573 14.2654 6.69985C14.2654 6.95604 14.1637 7.20173 13.9825 7.38288C13.8014 7.56403 13.5557 7.6658 13.2995 7.6658ZM13.2995 4C11.7996 4 10.5996 5.19993 10.5996 6.69985C10.5996 8.72174 13.2995 11.7156 13.2995 11.7156C13.2995 11.7156 15.9993 8.72174 15.9993 6.69985C15.9993 5.19993 14.7994 4 13.2995 4ZM13.2995 12.3995C12.5375 12.3995 11.8596 12.8795 11.6076 13.5995H8.39176C8.23278 13.1504 7.90229 12.7827 7.47269 12.5769C7.04309 12.3711 6.54944 12.344 6.09989 12.5015C5.87645 12.5798 5.67063 12.7014 5.4942 12.8593C5.31777 13.0172 5.17419 13.2083 5.07167 13.4217C4.96914 13.6351 4.90968 13.8666 4.89669 14.103C4.8837 14.3394 4.91743 14.5761 4.99595 14.7994C5.15708 15.2496 5.4898 15.6178 5.92146 15.8235C6.35312 16.0292 6.84865 16.0558 7.29982 15.8974C7.80979 15.7174 8.19977 15.3094 8.39176 14.7994H11.6136C11.9436 15.7354 12.9755 16.2273 13.8995 15.8974C14.1236 15.8199 14.3302 15.6989 14.5074 15.5413C14.6846 15.3837 14.8289 15.1926 14.932 14.9791C15.0352 14.7656 15.0951 14.5338 15.1084 14.297C15.1217 14.0603 15.088 13.8232 15.0094 13.5995C14.7514 12.8795 14.0675 12.3995 13.2995 12.3995ZM13.2995 15.0994C13.0608 15.0994 12.8319 15.0046 12.6631 14.8358C12.4944 14.667 12.3995 14.4381 12.3995 14.1994C12.3995 13.9608 12.4944 13.7319 12.6631 13.5631C12.8319 13.3943 13.0608 13.2995 13.2995 13.2995C13.5382 13.2995 13.7671 13.3943 13.9359 13.5631C14.1046 13.7319 14.1994 13.9608 14.1994 14.1994C14.1994 14.4381 14.1046 14.667 13.9359 14.8358C13.7671 15.0046 13.5382 15.0994 13.2995 15.0994Z" fill="black"/>
</svg>
