<svg width="20" height="20" viewBox="0 0 20 20" fill="none" xmlns="http://www.w3.org/2000/svg">
<circle cx="10" cy="10" r="10" fill="#F4F3FF"/>
<path d="M10 5C12.7615 5 15 7.2385 15 10C15 12.7615 12.7615 15 10 15C7.2385 15 5 12.7615 5 10C5 7.2385 7.2385 5 10 5ZM10 6C8.93913 6 7.92172 6.42143 7.17157 7.17157C6.42143 7.92172 6 8.93913 6 10C6 11.0609 6.42143 12.0783 7.17157 12.8284C7.92172 13.5786 8.93913 14 10 14C11.0609 14 12.0783 13.5786 12.8284 12.8284C13.5786 12.0783 14 11.0609 14 10C14 8.93913 13.5786 7.92172 12.8284 7.17157C12.0783 6.42143 11.0609 6 10 6ZM10 7C10.1225 7.00002 10.2407 7.04498 10.3322 7.12636C10.4237 7.20774 10.4822 7.31987 10.4965 7.4415L10.5 7.5V9.793L11.8535 11.1465C11.9432 11.2365 11.9952 11.3572 11.9991 11.4842C12.003 11.6112 11.9584 11.7349 11.8744 11.8301C11.7904 11.9254 11.6732 11.9852 11.5468 11.9972C11.4203 12.0092 11.294 11.9727 11.1935 11.895L11.1465 11.8535L9.6465 10.3535C9.56879 10.2757 9.51888 10.1745 9.5045 10.0655L9.5 10V7.5C9.5 7.36739 9.55268 7.24022 9.64645 7.14645C9.74022 7.05268 9.86739 7 10 7Z" fill="black"/>
</svg>
