<svg width="20" height="21" viewBox="0 0 20 21" fill="none" xmlns="http://www.w3.org/2000/svg">
<ellipse cx="10" cy="10.8321" rx="10" ry="9.86014" fill="#B8B8B8" fill-opacity="0.57"/>
<ellipse cx="10" cy="10.8322" rx="5" ry="4.93007" fill="#3D6DFE"/>
<g clip-path="url(#clip0_3336_1166)">
<path d="M10 13.3131C8.83325 11.8119 8.25 10.7438 8.25 10.1086C8.25 9.65094 8.43437 9.21205 8.76256 8.88845C9.09075 8.56485 9.53587 8.38306 10 8.38306C10.4641 8.38306 10.9092 8.56485 11.2374 8.88845C11.5656 9.21205 11.75 9.65094 11.75 10.1086C11.75 10.7438 11.1668 11.8119 10 13.3131ZM10 11.0946C10.2652 11.0946 10.5196 10.9907 10.7071 10.8058C10.8946 10.6209 11 10.3701 11 10.1086C11 9.84707 10.8946 9.59628 10.7071 9.41136C10.5196 9.22645 10.2652 9.12257 10 9.12257C9.73478 9.12257 9.48043 9.22645 9.29289 9.41136C9.10536 9.59628 9 9.84707 9 10.1086C9 10.3701 9.10536 10.6209 9.29289 10.8058C9.48043 10.9907 9.73478 11.0946 10 11.0946Z" fill="white"/>
</g>
<defs>
<clipPath id="clip0_3336_1166">
<rect width="6" height="5.91608" fill="white" transform="translate(7 7.87402)"/>
</clipPath>
</defs>
</svg>
