<svg width="20" height="20" viewBox="0 0 20 20" fill="none" xmlns="http://www.w3.org/2000/svg">
<circle cx="10" cy="10" r="10" fill="#F4F3FF"/>
<path d="M10.0006 5.33398C10.6195 5.33398 11.213 5.57982 11.6506 6.0174C12.0881 6.45499 12.334 7.04848 12.334 7.66732C12.334 8.28616 12.0881 8.87965 11.6506 9.31723C11.213 9.75482 10.6195 10.0006 10.0006 10.0006C9.38181 10.0006 8.78832 9.75482 8.35073 9.31723C7.91315 8.87965 7.66732 8.28616 7.66732 7.66732C7.66732 7.04848 7.91315 6.45499 8.35073 6.0174C8.78832 5.57982 9.38181 5.33398 10.0006 5.33398ZM10.0006 14.6673C10.0006 14.6673 14.6673 14.6673 14.6673 13.5006C14.6673 12.1006 12.3923 10.584 10.0006 10.584C7.60898 10.584 5.33398 12.1006 5.33398 13.5006C5.33398 14.6673 10.0006 14.6673 10.0006 14.6673Z" fill="black"/>
</svg>
