<svg width="18" height="19" viewBox="0 0 18 19" fill="none" xmlns="http://www.w3.org/2000/svg">
<path d="M13 11.7734H12.21L11.93 11.5034C12.91 10.3634 13.5 8.88344 13.5 7.27344C13.5 3.68344 10.59 0.773438 7 0.773438C3.41 0.773438 0.5 3.68344 0.5 7.27344C0.5 10.8634 3.41 13.7734 7 13.7734C8.61 13.7734 10.09 13.1834 11.23 12.2034L11.5 12.4834V13.2734L16.5 18.2634L17.99 16.7734L13 11.7734ZM7 11.7734C4.51 11.7734 2.5 9.76344 2.5 7.27344C2.5 4.78344 4.51 2.77344 7 2.77344C9.49 2.77344 11.5 4.78344 11.5 7.27344C11.5 9.76344 9.49 11.7734 7 11.7734Z" fill="black" fill-opacity="0.56"/>
</svg>
