<svg width="30" height="30" viewBox="0 0 30 30" fill="none" xmlns="http://www.w3.org/2000/svg">
<rect width="30" height="30" rx="15" fill="#EEEEEE"/>
<path d="M15.8276 23.0483L15.8184 23.0499L15.7592 23.0791L15.7426 23.0824L15.7309 23.0791L15.6717 23.0499C15.6628 23.0472 15.6562 23.0486 15.6517 23.0541L15.6484 23.0624L15.6342 23.4191L15.6384 23.4358L15.6467 23.4466L15.7334 23.5083L15.7459 23.5116L15.7559 23.5083L15.8426 23.4466L15.8526 23.4333L15.8559 23.4191L15.8417 23.0633C15.8395 23.0544 15.8348 23.0494 15.8276 23.0483ZM16.0484 22.9541L16.0376 22.9558L15.8834 23.0333L15.8751 23.0416L15.8726 23.0508L15.8876 23.4091L15.8917 23.4191L15.8984 23.4249L16.0659 23.5024C16.0765 23.5052 16.0845 23.503 16.0901 23.4958L16.0934 23.4841L16.0651 22.9724C16.0623 22.9624 16.0567 22.9563 16.0484 22.9541ZM15.4526 22.9558C15.4489 22.9536 15.4445 22.9528 15.4403 22.9538C15.4361 22.9547 15.4324 22.9572 15.4301 22.9608L15.4251 22.9724L15.3967 23.4841C15.3973 23.4941 15.402 23.5008 15.4109 23.5041L15.4234 23.5024L15.5909 23.4249L15.5992 23.4183L15.6026 23.4091L15.6167 23.0508L15.6142 23.0408L15.6059 23.0324L15.4526 22.9558Z" fill="#E08F8F"/>
<path d="M19.0167 7C19.2872 6.99997 19.5537 7.06582 19.7931 7.19184C20.0326 7.31787 20.2377 7.50028 20.3908 7.72333L20.4633 7.84L23.4467 13.0608C23.5664 13.2705 23.6392 13.5036 23.66 13.7442L23.6667 13.8883V17.6367C23.6667 17.8433 23.6282 18.0482 23.5533 18.2408L23.4908 18.3825L22.5592 20.245C22.431 20.5016 22.2388 20.7208 22.0012 20.8814C21.7635 21.042 21.4884 21.1385 21.2025 21.1617L21.0683 21.1667H19.5C19.0795 21.1668 18.6745 21.008 18.3662 20.7221C18.0579 20.4362 17.869 20.0443 17.8375 19.625L17.8333 19.5H12.8333C12.8335 19.9205 12.6747 20.3255 12.3888 20.6338C12.1028 20.9421 11.711 21.131 11.2917 21.1625L11.1667 21.1667H9.59833C9.31179 21.1666 9.03011 21.0926 8.7805 20.9519C8.53088 20.8111 8.32176 20.6084 8.17333 20.3633L8.1075 20.245L7.17583 18.3817C7.0836 18.1969 7.02652 17.9965 7.0075 17.7908L7 17.6367V13.8883C6.99999 13.6472 7.05231 13.4089 7.15333 13.19L7.22 13.0608L10.2033 7.84C10.3376 7.60506 10.527 7.40634 10.7552 7.26101C10.9835 7.11567 11.2437 7.02809 11.5133 7.00583L11.65 7H19.0167ZM19.0167 8.66667H11.65L8.66667 13.8883V17.6367L9.59833 19.5H11.1667V18.75C11.1666 18.5241 11.2498 18.3061 11.4006 18.1379C11.5513 17.9697 11.7588 17.863 11.9833 17.8383L12.0833 17.8333H18.5833C18.8092 17.8332 19.0272 17.9165 19.1954 18.0672C19.3637 18.2179 19.4704 18.4255 19.495 18.65L19.5 18.75V19.5H21.0683L22 17.6367V13.8883L19.0167 8.66667ZM19.1283 12.9208C19.326 12.8225 19.5545 12.8065 19.7639 12.8765C19.9732 12.9465 20.1463 13.0967 20.245 13.2942C20.3416 13.4923 20.3567 13.7205 20.2869 13.9296C20.217 14.1387 20.068 14.3121 19.8717 14.4125C18.5017 15.0958 16.8417 15.3333 15.3333 15.3333C13.795 15.3333 12.1917 15.0983 10.7983 14.4142C10.6021 14.3133 10.453 14.1398 10.3826 13.9306C10.3123 13.7215 10.3263 13.4932 10.4217 13.2942C10.5151 13.1124 10.6714 12.9707 10.8616 12.8958C11.0517 12.8208 11.2626 12.8175 11.455 12.8867L11.6775 12.9825L11.8808 13.0633L12.0633 13.13L12.28 13.2017L12.5317 13.2783L12.815 13.3542L13.1292 13.4292L13.4717 13.4975C14.0858 13.61 14.7089 13.6666 15.3333 13.6667C16.5967 13.6667 17.9733 13.4733 19.1283 12.9208Z" fill="#E08F8F"/>
</svg>
