<svg width="18" height="18" viewBox="0 0 18 18" fill="none" xmlns="http://www.w3.org/2000/svg">
<path d="M9.34481 2.1416C5.43481 2.1416 2.26147 5.31493 2.26147 9.22493C2.26147 13.1349 5.43481 16.3083 9.34481 16.3083C13.2548 16.3083 16.4281 13.1349 16.4281 9.22493C16.4281 5.31493 13.2548 2.1416 9.34481 2.1416ZM12.1994 7.94994L8.89146 11.2508C8.7923 11.357 8.65771 11.4066 8.51605 11.4066C8.38146 11.4066 8.24688 11.357 8.14063 11.2508L6.49023 9.60037C6.28481 9.39496 6.28481 9.05491 6.49023 8.8495C6.69564 8.64408 7.03564 8.64408 7.24106 8.8495L8.51605 10.1245L11.4486 7.19911C11.654 6.98661 11.994 6.98661 12.1994 7.19911C12.4048 7.40453 12.4048 7.73744 12.1994 7.94994Z" fill="#34C759"/>
</svg>
