<svg width="16" height="16" viewBox="0 0 16 16" fill="none" xmlns="http://www.w3.org/2000/svg">
<path id="Vector" d="M4.61802 2.35105C5.12018 2.04928 5.65971 1.81458 6.22283 1.65296L6.55182 0.0481425L9.22386 0L9.60899 1.60481C10.1699 1.74702 10.7095 1.96287 11.2138 2.24674L12.5538 1.34804L14.4796 3.20963L13.6371 4.58977C13.9389 5.09192 14.1736 5.63145 14.3352 6.19458L15.94 6.52357L15.9881 9.20361L14.3833 9.58074C14.2439 10.1414 14.0308 10.681 13.7494 11.1856L14.6321 12.5336L12.7785 14.4594L11.3984 13.657C10.8957 13.9557 10.3562 14.1877 9.79356 14.347L9.46457 15.9519L6.79256 16L6.4074 14.3952C5.84696 14.2515 5.30752 14.0357 4.80258 13.7533L3.44651 14.6359L1.52074 12.7824L2.36326 11.4022C2.06056 10.9005 1.82582 10.3609 1.66516 9.79739L0.0603495 9.4684L0.012207 6.79639L1.61702 6.41123C1.75793 5.8511 1.97102 5.31165 2.25093 4.80642L1.36828 3.45035L3.22987 1.5326L4.61001 2.335L4.61802 2.35105ZM6.0383 5.92176C5.64352 6.3305 5.37884 6.84714 5.27774 7.40632C5.17663 7.96551 5.24365 8.54211 5.47031 9.0632C5.69696 9.58429 6.07307 10.0265 6.55106 10.3338C7.02906 10.6411 7.58745 10.7997 8.15561 10.7896C8.72377 10.7795 9.27618 10.6011 9.74294 10.277C10.2097 9.95288 10.5698 9.49763 10.7778 8.9688C10.9858 8.43998 11.0323 7.86135 10.9113 7.30612C10.7904 6.75088 10.5075 6.24399 10.0985 5.84955C9.55034 5.32101 8.81476 5.03171 8.05342 5.04525C7.29209 5.05879 6.56729 5.37406 6.0383 5.92176Z" fill="white" fill-opacity="0.57"/>
</svg>
