<svg width="1024" height="500" viewBox="0 0 1024 500" fill="none" xmlns="http://www.w3.org/2000/svg">
<rect width="1024" height="500" rx="6" fill="black"/>
<g filter="url(#filter0_d_566_545)">
<path d="M271.174 256.62L269.934 143.745C269.883 139.09 271.882 134.648 275.399 131.6C278.279 129.104 281.963 127.729 285.774 127.729H299.092C303.021 127.729 306.788 129.29 309.566 132.068C312.344 134.846 313.904 138.613 313.904 142.542V255.52C313.904 257.031 313.304 258.48 312.236 259.548C311.167 260.617 309.718 261.217 308.207 261.217H275.822C274.19 261.217 272.677 260.36 271.836 258.96C271.412 258.253 271.183 257.445 271.174 256.62Z" fill="#FEC200"/>
</g>
<circle cx="291.879" cy="95.0254" r="16.8567" fill="#FEC200" stroke="white" stroke-width="10.3375"/>
<circle cx="292.215" cy="94.5371" r="12.0604" fill="#FEC200" stroke="black" stroke-width="1.72292"/>
<g filter="url(#filter1_d_566_545)">
<path d="M412.013 107.625L425.98 109.705C426.018 109.711 426.057 109.714 426.096 109.714H448.453C454.143 109.714 458.763 114.313 458.79 120.003L459.366 243.387C459.395 249.431 458.212 255.42 455.887 261C453.802 266.002 450.837 270.589 447.13 274.542L445.35 276.442C443.601 278.307 441.721 280.045 439.725 281.642C435.082 285.356 429.854 288.273 424.254 290.273L420.804 291.505C416.301 293.113 411.618 294.167 406.859 294.643C402.748 295.054 398.604 295.031 394.498 294.575L388.661 293.927L383.751 292.836C379.033 291.787 374.461 290.164 370.138 288.003C366.478 286.172 363.018 283.967 359.813 281.422L344.419 269.197C343.065 268.122 342.875 266.139 344 264.826L364.672 240.709C365.403 239.856 366.668 239.712 367.572 240.378L374.665 245.605C377.309 247.553 380.209 249.126 383.284 250.279C387.281 251.778 391.515 252.546 395.784 252.546H406.682C408.433 252.546 410.155 252.099 411.685 251.249L412.487 250.803C414.259 249.819 415.358 247.951 415.358 245.924C415.358 245.89 415.348 245.856 415.329 245.827L414.835 245.086C414.321 244.315 413.49 243.813 412.569 243.716L401.342 242.534C392.086 241.652 383.09 238.98 374.854 234.666L373.31 233.857L371.291 232.608C363.385 227.714 356.624 221.177 351.467 213.44C349.568 210.593 347.898 207.599 346.472 204.488L346.303 204.119C342.974 196.856 340.914 189.076 340.212 181.117L339.921 177.823C339.49 172.937 339.812 168.014 340.876 163.226L342.451 156.139C342.999 153.672 343.785 151.264 344.798 148.949L346.527 144.998C350.539 135.828 356.534 127.662 364.082 121.089L369.333 116.515C371.963 114.224 374.982 112.424 378.248 111.199C389.017 107.161 400.637 105.931 412.013 107.625Z" fill="#FEC200" stroke="#FEC200" stroke-width="1.72292"/>
<circle cx="399.339" cy="174.453" r="32.5104" fill="white" stroke="black" stroke-width="1.72292"/>
</g>
<g filter="url(#filter2_d_566_545)">
<path d="M188.226 105.684L189.799 105.881C192.438 106.211 195.038 106.8 197.561 107.642C201.679 109.014 205.991 109.714 210.332 109.714H229.161C237.259 109.714 243.825 116.279 243.825 124.378V237.609C243.825 242.619 242.799 247.576 240.81 252.174L238.359 257.843C234.918 265.801 229.932 272.998 223.69 279.017L221.863 280.778C216.974 285.493 211.203 289.198 204.882 291.682L203.631 292.173C198.436 294.214 192.904 295.262 187.322 295.262H184.005C179.881 295.262 175.804 294.386 172.043 292.694L170.791 292.131C166.615 290.251 163.052 287.234 160.512 283.423C158.688 280.687 157.634 277.51 157.461 274.226L157.354 272.185C157.163 268.567 158.329 265.008 160.623 262.204C162.223 260.248 164.305 258.743 166.663 257.836L168.492 257.133C170.645 256.305 172.915 255.821 175.218 255.7L179.626 255.468C182.816 255.3 185.983 254.825 189.083 254.05L191.104 253.545C191.973 253.328 192.766 252.878 193.4 252.245L193.948 251.697C195.048 250.597 195.367 248.938 194.755 247.509C194.155 246.11 192.78 245.204 191.259 245.204H181.086H171.386C165.877 245.204 160.408 244.28 155.205 242.47C150.243 240.744 145.589 238.235 141.419 235.038L137.136 231.754C130.871 226.952 125.326 221.277 120.668 214.904L117.907 211.126C115.983 208.492 114.396 205.628 113.185 202.599L111.948 199.506C110.433 195.719 109.302 191.789 108.573 187.777C107.53 182.04 107.315 176.184 107.937 170.387L107.968 170.089C108.654 163.694 110.314 157.441 112.892 151.548L113.496 150.168C116.708 142.827 121.109 136.067 126.524 130.161L133.03 123.063L138.802 118.309C142.503 115.262 146.583 112.707 150.941 110.71C157.189 107.846 163.915 106.17 170.776 105.766L177.919 105.346C181.358 105.144 184.808 105.257 188.226 105.684Z" fill="#FEC200"/>
<circle cx="175.078" cy="174.453" r="32.5104" fill="white" stroke="black" stroke-width="1.72292"/>
</g>
<g filter="url(#filter3_d_566_545)">
<path d="M524.816 203.818V82.1445C524.816 80.111 524.139 78.1355 522.89 76.5303C521.158 74.3028 518.494 73 515.672 73H495.025C492.305 73 489.697 74.0804 487.774 76.0035C485.851 77.9266 484.77 80.5348 484.77 83.2545V245.199C484.77 246.305 485.667 247.201 486.773 247.201H553.186C554.277 247.201 555.349 246.916 556.297 246.375C558.286 245.238 559.497 243.107 559.454 240.816L558.872 209.34C558.861 208.785 558.692 208.244 558.384 207.782C557.845 206.973 556.937 206.487 555.965 206.487H551.514H539.5H532.826H527.486C526.012 206.487 524.816 205.292 524.816 203.818Z" fill="#FEC200"/>
<path d="M524.816 203.818V82.1445C524.816 80.111 524.139 78.1355 522.89 76.5303C521.158 74.3028 518.494 73 515.672 73H495.025C492.305 73 489.697 74.0804 487.774 76.0035C485.851 77.9266 484.77 80.5348 484.77 83.2545V245.199C484.77 246.305 485.667 247.201 486.773 247.201H553.186C554.277 247.201 555.349 246.916 556.297 246.375C558.286 245.238 559.497 243.107 559.454 240.816L558.872 209.34C558.861 208.785 558.692 208.244 558.384 207.782C557.845 206.973 556.937 206.487 555.965 206.487H551.514H539.5H532.826H527.486C526.012 206.487 524.816 205.292 524.816 203.818Z" stroke="#FEC200" stroke-width="1.72292"/>
</g>
<g filter="url(#filter4_d_566_545)">
<path d="M604.18 109.71H576.297C570.949 109.71 566.825 114.42 567.532 119.721L571.536 137.075L573.291 145.85C574.344 151.113 575.876 156.268 577.87 161.251L581.548 170.447L587.055 182.309C589.164 186.851 591.658 191.205 594.508 195.322L596.232 197.812L607.578 211.828L616.544 222.209C618.94 224.984 620.259 228.529 620.259 232.196V233.674C620.259 236.78 619.025 239.759 616.829 241.956L615.413 243.371C613.752 245.033 611.963 246.561 610.063 247.943L606.709 250.382C601.201 254.388 594.565 256.546 587.754 256.546H584.602C582.584 256.546 580.586 256.931 578.713 257.68C578.382 257.813 578.081 258.011 577.828 258.263L575.999 260.092C573.142 262.95 571.536 266.825 571.536 270.867V271.401C571.536 274.348 572.324 277.241 573.818 279.781L574.986 281.765C577.102 285.363 580.086 288.373 583.665 290.521L584.221 290.854C589 293.722 594.538 295.071 600.101 294.723L605.13 294.409C610.281 294.087 615.334 292.856 620.056 290.773L624.297 288.902C631.781 285.6 638.625 281.008 644.517 275.334L647.613 272.353C651.616 268.498 655.244 264.272 658.449 259.732L669.65 243.865L676.521 231.954C678.612 228.33 680.441 224.562 681.995 220.677L687.67 206.488L693.677 188.467L699.684 165.775L703.689 145.751L705.691 126.396V112.95C705.691 112.136 705.502 111.333 705.138 110.605C704.25 108.829 702.435 107.708 700.449 107.708H668.306C666.227 107.708 664.285 108.747 663.131 110.477C662.59 111.289 662.247 112.217 662.131 113.186L660.305 128.398L656.968 150.423L654.962 157.645C654.092 160.778 652.365 163.606 649.976 165.811L648.824 166.875C646.336 169.171 643.074 170.447 639.688 170.447C637.029 170.447 634.43 169.659 632.217 168.185L630.277 166.891C627.211 164.847 624.732 162.039 623.084 158.743L620.673 153.92C619.069 150.713 617.888 147.311 617.159 143.8L611.284 115.491C611.042 114.325 610.516 113.236 609.754 112.321C608.375 110.666 606.333 109.71 604.18 109.71Z" fill="#FEC200"/>
<path d="M604.18 109.71H576.297C570.949 109.71 566.825 114.42 567.532 119.721L571.536 137.075L573.291 145.85C574.344 151.113 575.876 156.268 577.87 161.251L581.548 170.447L587.055 182.309C589.164 186.851 591.658 191.205 594.508 195.322L596.232 197.812L607.578 211.828L616.544 222.209C618.94 224.984 620.259 228.529 620.259 232.196V233.674C620.259 236.78 619.025 239.759 616.829 241.956L615.413 243.371C613.752 245.033 611.963 246.561 610.063 247.943L606.709 250.382C601.201 254.388 594.565 256.546 587.754 256.546H584.602C582.584 256.546 580.586 256.931 578.713 257.68C578.382 257.813 578.081 258.011 577.828 258.263L575.999 260.092C573.142 262.95 571.536 266.825 571.536 270.867V271.401C571.536 274.348 572.324 277.241 573.818 279.781L574.986 281.765C577.102 285.363 580.086 288.373 583.665 290.521L584.221 290.854C589 293.722 594.538 295.071 600.101 294.723L605.13 294.409C610.281 294.087 615.334 292.856 620.056 290.773L624.297 288.902C631.781 285.6 638.625 281.008 644.517 275.334L647.613 272.353C651.616 268.498 655.244 264.272 658.449 259.732L669.65 243.865L676.521 231.954C678.612 228.33 680.441 224.562 681.995 220.677L687.67 206.488L693.677 188.467L699.684 165.775L703.689 145.751L705.691 126.396V112.95C705.691 112.136 705.502 111.333 705.138 110.605C704.25 108.829 702.435 107.708 700.449 107.708H668.306C666.227 107.708 664.285 108.747 663.131 110.477C662.59 111.289 662.247 112.217 662.131 113.186L660.305 128.398L656.968 150.423L654.962 157.645C654.092 160.778 652.365 163.606 649.976 165.811L648.824 166.875C646.336 169.171 643.074 170.447 639.688 170.447C637.029 170.447 634.43 169.659 632.217 168.185L630.277 166.891C627.211 164.847 624.732 162.039 623.084 158.743L620.673 153.92C619.069 150.713 617.888 147.311 617.159 143.8L611.284 115.491C611.042 114.325 610.516 113.236 609.754 112.321C608.375 110.666 606.333 109.71 604.18 109.71Z" stroke="#FEC200" stroke-width="1.72292"/>
</g>
<circle cx="175.055" cy="175.513" r="12.5773" fill="#FEC200" stroke="black" stroke-width="0.689167"/>
<circle cx="399.034" cy="175.513" r="12.5773" fill="#FEC200" stroke="black" stroke-width="0.689167"/>
<rect x="107" y="336.982" width="477.701" height="89.6993" rx="44.8497" stroke="white" stroke-width="4.17206"/>
<path d="M225.477 381.849C225.477 392.48 216.799 400.832 206.006 400.832H191.47V362.866H206.006C216.799 362.866 225.477 371.273 225.477 381.849ZM205.518 367.856H197.165V395.842H205.518C213.436 395.842 219.728 389.659 219.728 381.849C219.728 374.039 213.436 367.856 205.518 367.856ZM249.493 378.053H247.215C243.635 378.053 241.032 380.819 241.032 385.103V400.832H235.554V373.171H240.977V376.588C242.333 374.364 244.557 372.954 247.594 372.954H249.493V378.053ZM261.328 369.32C259.484 369.32 258.02 367.856 258.02 366.012C258.02 364.222 259.484 362.758 261.328 362.758C263.118 362.758 264.528 364.222 264.528 366.012C264.528 367.856 263.118 369.32 261.328 369.32ZM264.04 373.171V400.832H258.562V373.171H264.04ZM283.685 400.832L271.862 373.171H277.774L286.018 393.456L294.262 373.171H300.011L288.296 400.832H283.685ZM305.296 387.002C305.296 379.192 311.425 372.629 319.506 372.629C327.479 372.629 333.336 378.758 333.336 387.002V388.791H310.828C311.587 393.293 315.33 396.656 319.994 396.656C323.194 396.656 325.906 395.354 327.967 392.588L331.926 395.517C329.16 399.205 325.038 401.429 319.994 401.429C311.696 401.429 305.296 395.246 305.296 387.002ZM319.397 377.402C315.33 377.402 311.913 380.222 310.936 384.453H327.804C326.882 380.222 323.465 377.402 319.397 377.402ZM356.992 378.053H354.714C351.134 378.053 348.531 380.819 348.531 385.103V400.832H343.053V373.171H348.476V376.588C349.832 374.364 352.056 372.954 355.093 372.954H356.992V378.053ZM388.254 400.832H382.56V362.866H396.715C403.17 362.866 408.105 367.748 408.105 373.985C408.105 378.758 405.014 382.771 400.512 384.236L410.275 400.832H403.929L394.6 384.832H388.254V400.832ZM395.956 367.856H388.254V380.005H395.956C399.753 380.005 402.356 377.347 402.356 373.985C402.356 370.568 399.753 367.856 395.956 367.856ZM421.464 369.32C419.62 369.32 418.156 367.856 418.156 366.012C418.156 364.222 419.62 362.758 421.464 362.758C423.254 362.758 424.664 364.222 424.664 366.012C424.664 367.856 423.254 369.32 421.464 369.32ZM424.176 373.171V400.832H418.698V373.171H424.176ZM463.727 400.832H458.303V397.361C455.808 399.91 452.337 401.483 448.486 401.483C440.296 401.483 433.896 395.029 433.896 387.056C433.896 379.029 440.351 372.575 448.486 372.575C452.283 372.575 455.754 374.093 458.249 376.642V362.866H463.727V400.832ZM458.357 387.056C458.357 381.686 454.127 377.456 448.866 377.456C443.605 377.456 439.374 381.686 439.374 387.056C439.374 392.371 443.605 396.656 448.866 396.656C454.127 396.656 458.357 392.371 458.357 387.056ZM473.43 387.002C473.43 379.192 479.559 372.629 487.64 372.629C495.613 372.629 501.47 378.758 501.47 387.002V388.791H478.962C479.721 393.293 483.464 396.656 488.128 396.656C491.328 396.656 494.04 395.354 496.101 392.588L500.06 395.517C497.294 399.205 493.172 401.429 488.128 401.429C479.83 401.429 473.43 395.246 473.43 387.002ZM487.532 377.402C483.464 377.402 480.047 380.222 479.071 384.453H495.938C495.016 380.222 491.599 377.402 487.532 377.402Z" fill="#FEC200"/>
<g filter="url(#filter5_d_566_545)">
<path fill-rule="evenodd" clip-rule="evenodd" d="M796.26 173.593L805.55 155.179C806.88 152.543 810.658 152.584 811.931 155.248L820.69 173.593L796.26 173.593ZM786.399 193.14L760.534 244.41C759.627 246.207 757.786 247.34 755.774 247.34H741.049C737.08 247.34 734.489 243.182 736.26 239.631C740.489 231.154 745.079 221.86 749.831 212.239C774.338 162.619 803.146 104.291 808.811 104.291C816.73 104.288 858.485 190.293 881.694 239.791C883.349 243.321 880.756 247.34 876.857 247.34H870.562H859.264C857.209 247.34 855.338 246.16 854.453 244.306L830.023 193.14L786.399 193.14Z" fill="white"/>
</g>
<g filter="url(#filter6_d_566_545)">
<path d="M893.872 243.716L893.156 117.045C893.134 113.225 894.552 109.537 897.128 106.716C898.538 105.171 900.534 104.291 902.626 104.291H906.503H909.787C912.202 104.291 914.45 105.525 915.747 107.563C917.218 109.876 918 112.56 918 115.301V243.192C918 243.955 917.827 244.708 917.493 245.394C916.65 247.127 914.892 248.227 912.965 248.227H898.408C896.393 248.227 894.619 246.896 894.054 244.961C893.936 244.557 893.875 244.138 893.872 243.716Z" fill="white"/>
</g>
<defs>
<filter id="filter0_d_566_545" x="269.933" y="127.729" width="50.8628" height="140.379" filterUnits="userSpaceOnUse" color-interpolation-filters="sRGB">
<feFlood flood-opacity="0" result="BackgroundImageFix"/>
<feColorMatrix in="SourceAlpha" type="matrix" values="0 0 0 0 0 0 0 0 0 0 0 0 0 0 0 0 0 0 127 0" result="hardAlpha"/>
<feOffset dx="6.89167" dy="6.89167"/>
<feComposite in2="hardAlpha" operator="out"/>
<feColorMatrix type="matrix" values="0 0 0 0 1 0 0 0 0 1 0 0 0 0 1 0 0 0 1 0"/>
<feBlend mode="normal" in2="BackgroundImageFix" result="effect1_dropShadow_566_545"/>
<feBlend mode="normal" in="SourceGraphic" in2="effect1_dropShadow_566_545" result="shape"/>
</filter>
<filter id="filter1_d_566_545" x="338.874" y="104.302" width="126.523" height="191.495" filterUnits="userSpaceOnUse" color-interpolation-filters="sRGB">
<feFlood flood-opacity="0" result="BackgroundImageFix"/>
<feColorMatrix in="SourceAlpha" type="matrix" values="0 0 0 0 0 0 0 0 0 0 0 0 0 0 0 0 0 0 127 0" result="hardAlpha"/>
<feOffset dx="5.16876" dy="-1.72292"/>
<feComposite in2="hardAlpha" operator="out"/>
<feColorMatrix type="matrix" values="0 0 0 0 1 0 0 0 0 1 0 0 0 0 1 0 0 0 1 0"/>
<feBlend mode="normal" in2="BackgroundImageFix" result="effect1_dropShadow_566_545"/>
<feBlend mode="normal" in="SourceGraphic" in2="effect1_dropShadow_566_545" result="shape"/>
</filter>
<filter id="filter2_d_566_545" x="107.59" y="103.526" width="143.126" height="191.736" filterUnits="userSpaceOnUse" color-interpolation-filters="sRGB">
<feFlood flood-opacity="0" result="BackgroundImageFix"/>
<feColorMatrix in="SourceAlpha" type="matrix" values="0 0 0 0 0 0 0 0 0 0 0 0 0 0 0 0 0 0 127 0" result="hardAlpha"/>
<feOffset dx="6.89167" dy="-1.72292"/>
<feComposite in2="hardAlpha" operator="out"/>
<feColorMatrix type="matrix" values="0 0 0 0 1 0 0 0 0 1 0 0 0 0 1 0 0 0 1 0"/>
<feBlend mode="normal" in2="BackgroundImageFix" result="effect1_dropShadow_566_545"/>
<feBlend mode="normal" in="SourceGraphic" in2="effect1_dropShadow_566_545" result="shape"/>
</filter>
<filter id="filter3_d_566_545" x="477.017" y="72.1387" width="83.2998" height="182.816" filterUnits="userSpaceOnUse" color-interpolation-filters="sRGB">
<feFlood flood-opacity="0" result="BackgroundImageFix"/>
<feColorMatrix in="SourceAlpha" type="matrix" values="0 0 0 0 0 0 0 0 0 0 0 0 0 0 0 0 0 0 127 0" result="hardAlpha"/>
<feOffset dx="-6.89167" dy="6.89167"/>
<feComposite in2="hardAlpha" operator="out"/>
<feColorMatrix type="matrix" values="0 0 0 0 1 0 0 0 0 1 0 0 0 0 1 0 0 0 1 0"/>
<feBlend mode="normal" in2="BackgroundImageFix" result="effect1_dropShadow_566_545"/>
<feBlend mode="normal" in="SourceGraphic" in2="effect1_dropShadow_566_545" result="shape"/>
</filter>
<filter id="filter4_d_566_545" x="559.699" y="101.677" width="146.853" height="193.961" filterUnits="userSpaceOnUse" color-interpolation-filters="sRGB">
<feFlood flood-opacity="0" result="BackgroundImageFix"/>
<feColorMatrix in="SourceAlpha" type="matrix" values="0 0 0 0 0 0 0 0 0 0 0 0 0 0 0 0 0 0 127 0" result="hardAlpha"/>
<feOffset dx="-6.89167" dy="-5.16876"/>
<feComposite in2="hardAlpha" operator="out"/>
<feColorMatrix type="matrix" values="0 0 0 0 1 0 0 0 0 1 0 0 0 0 1 0 0 0 1 0"/>
<feBlend mode="normal" in2="BackgroundImageFix" result="effect1_dropShadow_566_545"/>
<feBlend mode="normal" in="SourceGraphic" in2="effect1_dropShadow_566_545" result="shape"/>
</filter>
<filter id="filter5_d_566_545" x="730.362" y="98.9596" width="151.84" height="148.38" filterUnits="userSpaceOnUse" color-interpolation-filters="sRGB">
<feFlood flood-opacity="0" result="BackgroundImageFix"/>
<feColorMatrix in="SourceAlpha" type="matrix" values="0 0 0 0 0 0 0 0 0 0 0 0 0 0 0 0 0 0 127 0" result="hardAlpha"/>
<feOffset dx="-5.33097" dy="-5.33097"/>
<feComposite in2="hardAlpha" operator="out"/>
<feColorMatrix type="matrix" values="0 0 0 0 0.996078 0 0 0 0 0.760784 0 0 0 0 0 0 0 0 1 0"/>
<feBlend mode="normal" in2="BackgroundImageFix" result="effect1_dropShadow_566_545"/>
<feBlend mode="normal" in="SourceGraphic" in2="effect1_dropShadow_566_545" result="shape"/>
</filter>
<filter id="filter6_d_566_545" x="893.155" y="104.291" width="28.8742" height="147.966" filterUnits="userSpaceOnUse" color-interpolation-filters="sRGB">
<feFlood flood-opacity="0" result="BackgroundImageFix"/>
<feColorMatrix in="SourceAlpha" type="matrix" values="0 0 0 0 0 0 0 0 0 0 0 0 0 0 0 0 0 0 127 0" result="hardAlpha"/>
<feOffset dx="4.0297" dy="4.0297"/>
<feComposite in2="hardAlpha" operator="out"/>
<feColorMatrix type="matrix" values="0 0 0 0 0.996078 0 0 0 0 0.760784 0 0 0 0 0 0 0 0 1 0"/>
<feBlend mode="normal" in2="BackgroundImageFix" result="effect1_dropShadow_566_545"/>
<feBlend mode="normal" in="SourceGraphic" in2="effect1_dropShadow_566_545" result="shape"/>
</filter>
</defs>
</svg>
