<svg width="743" height="323" viewBox="0 0 743 323" fill="none" xmlns="http://www.w3.org/2000/svg">
<g filter="url(#filter0_d_600_791)">
<path d="M151.194 167.865L150.067 65.2897C150.02 61.0597 151.837 57.0234 155.034 54.2529C157.651 51.9845 160.998 50.7358 164.462 50.7358H176.565C180.135 50.7358 183.558 52.154 186.083 54.6783C188.607 57.2027 190.025 60.6264 190.025 64.1963V166.866C190.025 168.239 189.48 169.556 188.509 170.527C187.538 171.498 186.221 172.043 184.848 172.043H155.418C153.934 172.043 152.559 171.265 151.796 169.992C151.41 169.349 151.202 168.615 151.194 167.865Z" fill="#FEC200"/>
</g>
<circle cx="170.009" cy="21.0157" r="15.3186" fill="#FEC200" stroke="white" stroke-width="9.39426"/>
<circle cx="170.314" cy="20.5719" r="10.96" fill="#FEC200" stroke="black" stroke-width="1.56571"/>
<g filter="url(#filter1_d_600_791)">
<path d="M279.182 32.4657L291.874 34.3561C291.909 34.3613 291.945 34.3639 291.98 34.3639H312.297C317.468 34.3639 321.667 38.5432 321.691 43.7143L322.215 155.84C322.24 161.333 321.165 166.775 319.053 171.846C317.158 176.391 314.463 180.56 311.095 184.152L309.477 185.878C307.888 187.573 306.18 189.153 304.365 190.604C300.146 193.98 295.395 196.63 290.306 198.448L287.171 199.567C283.078 201.029 278.823 201.987 274.498 202.419C270.762 202.793 266.997 202.772 263.265 202.357L257.961 201.768L253.499 200.776C249.211 199.824 245.057 198.349 241.128 196.384C237.802 194.721 234.658 192.717 231.745 190.405L217.755 179.295C216.525 178.318 216.353 176.515 217.375 175.323L236.161 153.406C236.825 152.631 237.974 152.5 238.796 153.106L245.242 157.856C247.644 159.626 250.28 161.055 253.074 162.103C256.707 163.465 260.555 164.163 264.434 164.163H274.337C275.928 164.163 277.493 163.757 278.884 162.984L279.613 162.58C281.224 161.685 282.222 159.988 282.222 158.145C282.222 158.114 282.213 158.083 282.196 158.057L281.747 157.384C281.28 156.683 280.525 156.227 279.687 156.139L269.485 155.065C261.074 154.264 252.898 151.835 245.414 147.915L244.011 147.18L242.176 146.044C234.992 141.597 228.847 135.656 224.16 128.626C222.435 126.038 220.918 123.318 219.622 120.49L219.468 120.155C216.443 113.554 214.571 106.484 213.932 99.2516L213.668 96.2587C213.277 91.8184 213.569 87.3443 214.536 82.9929L215.967 76.5527C216.466 74.311 217.18 72.1229 218.1 70.0191L219.671 66.4282C223.317 58.0952 228.765 50.6746 235.624 44.7008L240.396 40.5444C242.786 38.4628 245.53 36.8266 248.498 35.7137C258.285 32.0438 268.844 30.9261 279.182 32.4657Z" fill="#FEC200" stroke="#FEC200" stroke-width="1.56571"/>
<circle cx="267.665" cy="93.196" r="29.544" fill="white" stroke="black" stroke-width="1.56571"/>
</g>
<g filter="url(#filter2_d_600_791)">
<path d="M75.8142 30.7018L77.2436 30.8805C79.6418 31.1802 82.0046 31.7162 84.2975 32.4805C88.0399 33.7279 91.9589 34.3639 95.9037 34.3639H113.014C120.374 34.3639 126.34 40.3301 126.34 47.6897V150.589C126.34 155.142 125.408 159.647 123.601 163.825L121.373 168.976C118.246 176.209 113.715 182.749 108.043 188.218L106.382 189.819C101.939 194.104 96.6954 197.471 90.9504 199.728L89.8142 200.174C85.0929 202.029 80.0654 202.981 74.9929 202.981H71.9786C68.2308 202.981 64.5256 202.186 61.1079 200.648L59.97 200.136C56.175 198.428 52.9378 195.686 50.6293 192.223C48.9716 189.736 48.0139 186.849 47.8568 183.865L47.7592 182.01C47.5861 178.722 48.6456 175.488 50.7305 172.94C52.1845 171.163 54.076 169.795 56.219 168.97L57.881 168.331C59.8375 167.579 61.9003 167.139 63.9936 167.029L67.999 166.818C70.8984 166.666 73.7764 166.234 76.5931 165.53L78.4301 165.071C79.2196 164.874 79.9406 164.465 80.5161 163.89L81.0146 163.391C82.014 162.392 82.3043 160.885 81.7475 159.586C81.2029 158.315 79.9532 157.491 78.5706 157.491H69.3255H60.511C55.5052 157.491 50.5348 156.651 45.8068 155.007C41.2971 153.438 37.0675 151.158 33.2783 148.253L29.3859 145.269C23.693 140.904 18.6537 135.748 14.4213 129.956L11.9122 126.522C10.1633 124.129 8.72147 121.526 7.62058 118.774L6.49617 115.963C5.11963 112.521 4.09212 108.95 3.42909 105.304C2.48127 100.091 2.28662 94.7686 2.85108 89.5003L2.88005 89.2299C3.50275 83.418 5.01175 77.7358 7.35458 72.3808L7.90316 71.1269C10.8218 64.4558 14.822 58.3124 19.7423 52.9448L25.6549 46.4946L30.9003 42.1749C34.2632 39.4054 37.9713 37.084 41.9317 35.2689C47.6096 32.6665 53.7221 31.1431 59.9572 30.7763L66.4479 30.3945C69.5728 30.2107 72.708 30.3135 75.8142 30.7018Z" fill="#FEC200"/>
<circle cx="63.8669" cy="93.196" r="29.544" fill="white" stroke="black" stroke-width="1.56571"/>
</g>
<g filter="url(#filter3_d_600_791)">
<path d="M381.692 119.881V9.31008C381.692 7.46212 381.077 5.66688 379.942 4.20818C378.368 2.18396 375.947 1 373.382 1H354.619C352.148 1 349.777 1.9818 348.03 3.72941C346.282 5.47703 345.3 7.84729 345.3 10.3188V157.486C345.3 158.491 346.115 159.306 347.12 159.306H407.474C408.465 159.306 409.439 159.047 410.3 158.555C412.108 157.522 413.208 155.585 413.17 153.503L412.64 124.9C412.631 124.395 412.477 123.904 412.197 123.484C411.707 122.749 410.882 122.307 409.999 122.307H405.954H395.036H388.971H384.119C382.779 122.307 381.692 121.221 381.692 119.881Z" fill="#FEC200"/>
<path d="M381.692 119.881V9.31008C381.692 7.46212 381.077 5.66688 379.942 4.20818C378.368 2.18396 375.947 1 373.382 1H354.619C352.148 1 349.777 1.9818 348.03 3.72941C346.282 5.47703 345.3 7.84729 345.3 10.3188V157.486C345.3 158.491 346.115 159.306 347.12 159.306H407.474C408.465 159.306 409.439 159.047 410.3 158.555C412.108 157.522 413.208 155.585 413.17 153.503L412.64 124.9C412.631 124.395 412.477 123.904 412.197 123.484C411.707 122.749 410.882 122.307 409.999 122.307H405.954H395.036H388.971H384.119C382.779 122.307 381.692 121.221 381.692 119.881Z" stroke="#FEC200" stroke-width="1.56571"/>
</g>
<g filter="url(#filter4_d_600_791)">
<path d="M453.814 34.3606H428.475C423.615 34.3606 419.868 38.6412 420.51 43.4587L424.149 59.2286L425.744 67.2031C426.701 71.9857 428.093 76.6705 429.905 81.199L433.247 89.5554L438.252 100.336C440.169 104.463 442.435 108.42 445.025 112.161L446.591 114.423L456.902 127.161L465.05 136.595C467.228 139.117 468.426 142.338 468.426 145.671V147.014C468.426 149.836 467.305 152.544 465.309 154.54L464.022 155.826C462.513 157.336 460.887 158.725 459.161 159.98L456.113 162.197C451.107 165.838 445.077 167.799 438.887 167.799H436.022C434.189 167.799 432.373 168.148 430.671 168.829C430.37 168.95 430.096 169.13 429.867 169.359L428.205 171.021C425.608 173.618 424.149 177.14 424.149 180.813V181.298C424.149 183.976 424.865 186.605 426.223 188.913L427.284 190.717C429.207 193.986 431.919 196.722 435.171 198.673L435.676 198.976C440.02 201.582 445.052 202.809 450.107 202.493L454.678 202.207C459.359 201.914 463.951 200.796 468.242 198.903L472.096 197.202C478.897 194.202 485.116 190.028 490.471 184.872L493.284 182.163C496.922 178.66 500.219 174.82 503.132 170.694L513.31 156.274L519.555 145.45C521.455 142.157 523.117 138.733 524.529 135.203L529.687 122.308L535.145 105.932L540.604 85.3097L544.243 67.1136L546.063 49.524V37.3048C546.063 36.5653 545.891 35.8359 545.56 35.1744C544.753 33.5605 543.104 32.541 541.299 32.541H512.089C510.199 32.541 508.435 33.4855 507.386 35.0578C506.894 35.7957 506.583 36.6391 506.477 37.5196L504.819 51.3436L501.786 71.3593L499.963 77.922C499.172 80.7688 497.603 83.3387 495.432 85.3428L494.385 86.3095C492.124 88.3965 489.16 89.5554 486.083 89.5554C483.666 89.5554 481.304 88.8402 479.293 87.4998L477.53 86.3242C474.744 84.467 472.491 81.9149 470.994 78.9202L468.802 74.5369C467.345 71.6221 466.271 68.5307 465.609 65.3399L460.27 39.6143C460.05 38.5543 459.572 37.5648 458.879 36.7331C457.626 35.2298 455.771 34.3606 453.814 34.3606Z" fill="#FEC200"/>
<path d="M453.814 34.3606H428.475C423.615 34.3606 419.868 38.6412 420.51 43.4587L424.149 59.2286L425.744 67.2031C426.701 71.9857 428.093 76.6705 429.905 81.199L433.247 89.5554L438.252 100.336C440.169 104.463 442.435 108.42 445.025 112.161L446.591 114.423L456.902 127.161L465.05 136.595C467.228 139.117 468.426 142.338 468.426 145.671V147.014C468.426 149.836 467.305 152.544 465.309 154.54L464.022 155.826C462.513 157.336 460.887 158.725 459.161 159.98L456.113 162.197C451.107 165.838 445.077 167.799 438.887 167.799H436.022C434.189 167.799 432.373 168.148 430.671 168.829C430.37 168.95 430.096 169.13 429.867 169.359L428.205 171.021C425.608 173.618 424.149 177.14 424.149 180.813V181.298C424.149 183.976 424.865 186.605 426.223 188.913L427.284 190.717C429.207 193.986 431.919 196.722 435.171 198.673L435.676 198.976C440.02 201.582 445.052 202.809 450.107 202.493L454.678 202.207C459.359 201.914 463.951 200.796 468.242 198.903L472.096 197.202C478.897 194.202 485.116 190.028 490.471 184.872L493.284 182.163C496.922 178.66 500.219 174.82 503.132 170.694L513.31 156.274L519.555 145.45C521.455 142.157 523.117 138.733 524.529 135.203L529.687 122.308L535.145 105.932L540.604 85.3097L544.243 67.1136L546.063 49.524V37.3048C546.063 36.5653 545.891 35.8359 545.56 35.1744C544.753 33.5605 543.104 32.541 541.299 32.541H512.089C510.199 32.541 508.435 33.4855 507.386 35.0578C506.894 35.7957 506.583 36.6391 506.477 37.5196L504.819 51.3436L501.786 71.3593L499.963 77.922C499.172 80.7688 497.603 83.3387 495.432 85.3428L494.385 86.3095C492.124 88.3965 489.16 89.5554 486.083 89.5554C483.666 89.5554 481.304 88.8402 479.293 87.4998L477.53 86.3242C474.744 84.467 472.491 81.9149 470.994 78.9202L468.802 74.5369C467.345 71.6221 466.271 68.5307 465.609 65.3399L460.27 39.6143C460.05 38.5543 459.572 37.5648 458.879 36.7331C457.626 35.2298 455.771 34.3606 453.814 34.3606Z" stroke="#FEC200" stroke-width="1.56571"/>
</g>
<circle cx="63.8454" cy="94.1593" r="11.4297" fill="#FEC200" stroke="black" stroke-width="0.626284"/>
<circle cx="267.388" cy="94.1593" r="11.4297" fill="#FEC200" stroke="black" stroke-width="0.626284"/>
<rect x="2" y="240.895" width="435" height="68.3962" rx="10.9434" stroke="white" stroke-width="3.19496"/>
<path d="M72.3864 275.056C72.3864 283.197 65.7409 289.593 57.4756 289.593H46.3443V260.519H57.4756C65.7409 260.519 72.3864 266.957 72.3864 275.056ZM57.1017 264.34H50.7054V285.772H57.1017C63.1658 285.772 67.9838 281.037 67.9838 275.056C67.9838 269.075 63.1658 264.34 57.1017 264.34ZM90.7777 272.149H89.0333C86.292 272.149 84.2984 274.267 84.2984 277.548V289.593H80.1034V268.411H84.2568V271.027C85.2952 269.324 86.9981 268.245 89.324 268.245H90.7777V272.149ZM99.8413 265.462C98.4292 265.462 97.3077 264.34 97.3077 262.928C97.3077 261.558 98.4292 260.436 99.8413 260.436C101.212 260.436 102.292 261.558 102.292 262.928C102.292 264.34 101.212 265.462 99.8413 265.462ZM101.918 268.411V289.593H97.7231V268.411H101.918ZM116.963 289.593L107.908 268.411H112.435L118.749 283.945L125.062 268.411H129.464L120.493 289.593H116.963ZM133.512 279.002C133.512 273.021 138.205 267.995 144.394 267.995C150.499 267.995 154.985 272.689 154.985 279.002V280.373H137.748C138.33 283.82 141.196 286.395 144.768 286.395C147.218 286.395 149.295 285.398 150.873 283.28L153.905 285.523C151.787 288.347 148.63 290.05 144.768 290.05C138.413 290.05 133.512 285.315 133.512 279.002ZM144.311 271.65C141.196 271.65 138.579 273.81 137.831 277.05H150.749C150.043 273.81 147.426 271.65 144.311 271.65ZM173.1 272.149H171.356C168.615 272.149 166.621 274.267 166.621 277.548V289.593H162.426V268.411H166.579V271.027C167.618 269.324 169.321 268.245 171.647 268.245H173.1V272.149Z" fill="#FEC200"/>
<path d="M216 241.093H426.057C432.1 241.093 437 245.993 437 252.037V298.15C437 304.194 432.1 309.093 426.057 309.093H216V241.093Z" fill="white"/>
<path d="M285.805 289.593H281.444V260.519H292.284C297.227 260.519 301.006 264.257 301.006 269.034C301.006 272.689 298.639 275.762 295.192 276.884L302.668 289.593H297.808L290.664 277.341H285.805V289.593ZM291.703 264.34H285.805V273.644H291.703C294.61 273.644 296.604 271.609 296.604 269.034C296.604 266.417 294.61 264.34 291.703 264.34ZM311.237 265.462C309.825 265.462 308.703 264.34 308.703 262.928C308.703 261.558 309.825 260.436 311.237 260.436C312.608 260.436 313.687 261.558 313.687 262.928C313.687 264.34 312.608 265.462 311.237 265.462ZM313.314 268.411V289.593H309.119V268.411H313.314ZM343.601 289.593H339.448V286.935C337.537 288.887 334.879 290.092 331.93 290.092C325.658 290.092 320.757 285.149 320.757 279.044C320.757 272.896 325.7 267.954 331.93 267.954C334.838 267.954 337.496 269.117 339.406 271.069V260.519H343.601V289.593ZM339.489 279.044C339.489 274.932 336.25 271.692 332.221 271.692C328.192 271.692 324.952 274.932 324.952 279.044C324.952 283.114 328.192 286.395 332.221 286.395C336.25 286.395 339.489 283.114 339.489 279.044ZM351.032 279.002C351.032 273.021 355.725 267.995 361.914 267.995C368.02 267.995 372.505 272.689 372.505 279.002V280.373H355.269C355.85 283.82 358.716 286.395 362.288 286.395C364.738 286.395 366.815 285.398 368.393 283.28L371.426 285.523C369.307 288.347 366.151 290.05 362.288 290.05C355.933 290.05 351.032 285.315 351.032 279.002ZM361.831 271.65C358.716 271.65 356.099 273.81 355.352 277.05H368.269C367.563 273.81 364.946 271.65 361.831 271.65Z" fill="black"/>
<g filter="url(#filter5_d_600_791)">
<path fill-rule="evenodd" clip-rule="evenodd" d="M628.369 92.4147L636.811 75.6806C638.02 73.285 641.453 73.3224 642.609 75.7437L650.569 92.4147L628.369 92.4147ZM619.407 110.178L595.902 156.77C595.078 158.403 593.405 159.432 591.577 159.432H578.195C574.589 159.432 572.234 155.654 573.843 152.427C577.686 144.723 581.857 136.277 586.175 127.534C608.446 82.442 634.626 29.4355 639.774 29.4355C646.97 29.433 684.916 107.591 706.007 152.572C707.511 155.78 705.155 159.432 701.612 159.432H695.89H685.623C683.756 159.432 682.056 158.36 681.251 156.675L659.05 110.178L619.407 110.178Z" fill="white"/>
</g>
<g filter="url(#filter6_d_600_791)">
<path d="M717.074 156.139L716.423 41.0264C716.403 37.5551 717.692 34.2037 720.032 31.6398C721.314 30.2356 723.127 29.4355 725.029 29.4355H728.552H731.536C733.731 29.4355 735.774 30.5571 736.953 32.4092C738.29 34.511 739 36.9506 739 39.4418V155.663C739 156.356 738.842 157.041 738.539 157.664C737.773 159.239 736.176 160.238 734.425 160.238H721.196C719.364 160.238 717.752 159.029 717.239 157.271C717.132 156.903 717.076 156.522 717.074 156.139Z" fill="white"/>
</g>
<defs>
<filter id="filter0_d_600_791" x="150.066" y="50.7358" width="46.2218" height="127.57" filterUnits="userSpaceOnUse" color-interpolation-filters="sRGB">
<feFlood flood-opacity="0" result="BackgroundImageFix"/>
<feColorMatrix in="SourceAlpha" type="matrix" values="0 0 0 0 0 0 0 0 0 0 0 0 0 0 0 0 0 0 127 0" result="hardAlpha"/>
<feOffset dx="6.26284" dy="6.26284"/>
<feComposite in2="hardAlpha" operator="out"/>
<feColorMatrix type="matrix" values="0 0 0 0 1 0 0 0 0 1 0 0 0 0 1 0 0 0 1 0"/>
<feBlend mode="normal" in2="BackgroundImageFix" result="effect1_dropShadow_600_791"/>
<feBlend mode="normal" in="SourceGraphic" in2="effect1_dropShadow_600_791" result="shape"/>
</filter>
<filter id="filter1_d_600_791" x="212.717" y="29.4455" width="114.978" height="174.022" filterUnits="userSpaceOnUse" color-interpolation-filters="sRGB">
<feFlood flood-opacity="0" result="BackgroundImageFix"/>
<feColorMatrix in="SourceAlpha" type="matrix" values="0 0 0 0 0 0 0 0 0 0 0 0 0 0 0 0 0 0 127 0" result="hardAlpha"/>
<feOffset dx="4.69713" dy="-1.56571"/>
<feComposite in2="hardAlpha" operator="out"/>
<feColorMatrix type="matrix" values="0 0 0 0 1 0 0 0 0 1 0 0 0 0 1 0 0 0 1 0"/>
<feBlend mode="normal" in2="BackgroundImageFix" result="effect1_dropShadow_600_791"/>
<feBlend mode="normal" in="SourceGraphic" in2="effect1_dropShadow_600_791" result="shape"/>
</filter>
<filter id="filter2_d_600_791" x="2.53613" y="28.7404" width="130.067" height="174.241" filterUnits="userSpaceOnUse" color-interpolation-filters="sRGB">
<feFlood flood-opacity="0" result="BackgroundImageFix"/>
<feColorMatrix in="SourceAlpha" type="matrix" values="0 0 0 0 0 0 0 0 0 0 0 0 0 0 0 0 0 0 127 0" result="hardAlpha"/>
<feOffset dx="6.26284" dy="-1.56571"/>
<feComposite in2="hardAlpha" operator="out"/>
<feColorMatrix type="matrix" values="0 0 0 0 1 0 0 0 0 1 0 0 0 0 1 0 0 0 1 0"/>
<feBlend mode="normal" in2="BackgroundImageFix" result="effect1_dropShadow_600_791"/>
<feBlend mode="normal" in="SourceGraphic" in2="effect1_dropShadow_600_791" result="shape"/>
</filter>
<filter id="filter3_d_600_791" x="338.255" y="0.217285" width="75.6989" height="166.134" filterUnits="userSpaceOnUse" color-interpolation-filters="sRGB">
<feFlood flood-opacity="0" result="BackgroundImageFix"/>
<feColorMatrix in="SourceAlpha" type="matrix" values="0 0 0 0 0 0 0 0 0 0 0 0 0 0 0 0 0 0 127 0" result="hardAlpha"/>
<feOffset dx="-6.26284" dy="6.26284"/>
<feComposite in2="hardAlpha" operator="out"/>
<feColorMatrix type="matrix" values="0 0 0 0 1 0 0 0 0 1 0 0 0 0 1 0 0 0 1 0"/>
<feBlend mode="normal" in2="BackgroundImageFix" result="effect1_dropShadow_600_791"/>
<feBlend mode="normal" in="SourceGraphic" in2="effect1_dropShadow_600_791" result="shape"/>
</filter>
<filter id="filter4_d_600_791" x="413.392" y="27.0612" width="133.453" height="176.263" filterUnits="userSpaceOnUse" color-interpolation-filters="sRGB">
<feFlood flood-opacity="0" result="BackgroundImageFix"/>
<feColorMatrix in="SourceAlpha" type="matrix" values="0 0 0 0 0 0 0 0 0 0 0 0 0 0 0 0 0 0 127 0" result="hardAlpha"/>
<feOffset dx="-6.26284" dy="-4.69713"/>
<feComposite in2="hardAlpha" operator="out"/>
<feColorMatrix type="matrix" values="0 0 0 0 1 0 0 0 0 1 0 0 0 0 1 0 0 0 1 0"/>
<feBlend mode="normal" in2="BackgroundImageFix" result="effect1_dropShadow_600_791"/>
<feBlend mode="normal" in="SourceGraphic" in2="effect1_dropShadow_600_791" result="shape"/>
</filter>
<filter id="filter5_d_600_791" x="568.483" y="24.591" width="137.985" height="134.841" filterUnits="userSpaceOnUse" color-interpolation-filters="sRGB">
<feFlood flood-opacity="0" result="BackgroundImageFix"/>
<feColorMatrix in="SourceAlpha" type="matrix" values="0 0 0 0 0 0 0 0 0 0 0 0 0 0 0 0 0 0 127 0" result="hardAlpha"/>
<feOffset dx="-4.84454" dy="-4.84454"/>
<feComposite in2="hardAlpha" operator="out"/>
<feColorMatrix type="matrix" values="0 0 0 0 0.996078 0 0 0 0 0.760784 0 0 0 0 0 0 0 0 1 0"/>
<feBlend mode="normal" in2="BackgroundImageFix" result="effect1_dropShadow_600_791"/>
<feBlend mode="normal" in="SourceGraphic" in2="effect1_dropShadow_600_791" result="shape"/>
</filter>
<filter id="filter6_d_600_791" x="716.422" y="29.4355" width="26.2396" height="134.465" filterUnits="userSpaceOnUse" color-interpolation-filters="sRGB">
<feFlood flood-opacity="0" result="BackgroundImageFix"/>
<feColorMatrix in="SourceAlpha" type="matrix" values="0 0 0 0 0 0 0 0 0 0 0 0 0 0 0 0 0 0 127 0" result="hardAlpha"/>
<feOffset dx="3.66201" dy="3.66201"/>
<feComposite in2="hardAlpha" operator="out"/>
<feColorMatrix type="matrix" values="0 0 0 0 0.996078 0 0 0 0 0.760784 0 0 0 0 0 0 0 0 1 0"/>
<feBlend mode="normal" in2="BackgroundImageFix" result="effect1_dropShadow_600_791"/>
<feBlend mode="normal" in="SourceGraphic" in2="effect1_dropShadow_600_791" result="shape"/>
</filter>
</defs>
</svg>
