<svg width="18" height="16" viewBox="0 0 18 16" fill="none" xmlns="http://www.w3.org/2000/svg">
<g id="Iconly/Bold/Star">
<g id="Star">
<path id="Vector" d="M13.932 9.93398C13.7162 10.1432 13.617 10.4457 13.6662 10.7423L14.407 14.8423C14.4695 15.1898 14.3228 15.5415 14.032 15.7423C13.747 15.9507 13.3678 15.9757 13.057 15.809L9.36616 13.884C9.23782 13.8157 9.09532 13.779 8.94949 13.7748H8.72366C8.64532 13.7865 8.56866 13.8115 8.49866 13.8498L4.80699 15.784C4.62449 15.8757 4.41782 15.9082 4.21532 15.8757C3.72199 15.7823 3.39282 15.3123 3.47366 14.8165L4.21532 10.7165C4.26449 10.4173 4.16532 10.1132 3.94949 9.90065L0.940323 6.98398C0.688656 6.73982 0.601156 6.37315 0.716156 6.04232C0.827823 5.71232 1.11282 5.47148 1.45699 5.41732L5.59866 4.81648C5.91366 4.78398 6.19032 4.59232 6.33199 4.30898L8.15699 0.567318C8.20032 0.483984 8.25616 0.407318 8.32366 0.342318L8.39866 0.283984C8.43782 0.240651 8.48282 0.204818 8.53282 0.175651L8.62366 0.142318L8.76532 0.0839844H9.11616C9.42949 0.116484 9.70532 0.303984 9.84949 0.583984L11.6987 4.30898C11.832 4.58148 12.0912 4.77065 12.3903 4.81648L16.532 5.41732C16.882 5.46732 17.1745 5.70898 17.2903 6.04232C17.3995 6.37648 17.3053 6.74315 17.0487 6.98398L13.932 9.93398Z" fill="#DEDEDE"/>
</g>
</g>
</svg>
