<svg width="10" height="10" viewBox="0 0 10 10" fill="none" xmlns="http://www.w3.org/2000/svg">
<path d="M4.92604 5.09554C5.2063 5.09554 5.4463 4.99567 5.64604 4.79592C5.84579 4.59618 5.94549 4.35635 5.94515 4.07643C5.94515 3.79618 5.84528 3.55618 5.64553 3.35643C5.44579 3.15669 5.20596 3.05699 4.92604 3.05732C4.64579 3.05732 4.40579 3.1572 4.20604 3.35694C4.0063 3.55669 3.90659 3.79652 3.90693 4.07643C3.90693 4.35669 4.00681 4.59669 4.20655 4.79643C4.4063 4.99618 4.64613 5.09588 4.92604 5.09554ZM4.92604 10C4.8581 10 4.79016 9.98726 4.72222 9.96178C4.65428 9.93631 4.59483 9.90234 4.54388 9.85987C3.30396 8.76433 2.37827 7.74726 1.76681 6.80866C1.15534 5.87006 0.849609 4.99329 0.849609 4.17834C0.849609 2.90446 1.25946 1.8896 2.07916 1.13376C2.89887 0.377919 3.84783 0 4.92604 0C6.0046 0 6.95373 0.377919 7.77343 1.13376C8.59313 1.8896 9.00282 2.90446 9.00248 4.17834C9.00248 4.99363 8.69674 5.87057 8.08528 6.80917C7.47381 7.74777 6.54812 8.76467 5.30821 9.85987C5.25725 9.90234 5.1978 9.93631 5.12986 9.96178C5.06192 9.98726 4.99398 10 4.92604 10Z" fill="#220000" fill-opacity="0.3"/>
</svg>
