<svg width="11" height="10" viewBox="0 0 11 10" fill="none" xmlns="http://www.w3.org/2000/svg">
<path d="M0.689354 0.123958C0.645713 0.12429 0.603953 0.141774 0.573093 0.172634C0.542232 0.203494 0.524749 0.245254 0.524417 0.288896V1.31108C0.524417 1.40074 0.599273 1.47602 0.689354 1.47602H9.46065C9.55073 1.47602 9.62558 1.40074 9.62558 1.31108V0.288473C9.62525 0.244831 9.60777 0.203071 9.57691 0.172211C9.54605 0.141351 9.50429 0.123867 9.46065 0.123535L0.689354 0.123958ZM0.670323 1.86891C0.629433 1.86856 0.589733 1.88267 0.558237 1.90875C0.526741 1.93482 0.505475 1.9712 0.498196 2.01143L0.00338333 4.68173C0 4.69315 0 4.70414 0 4.71556V5.61088C0 5.70815 0.0786625 5.78681 0.175933 5.78681H9.97407C10.0713 5.78681 10.15 5.70815 10.15 5.61088V4.71176C10.15 4.70034 10.15 4.68934 10.1462 4.67792L9.6518 2.01143C9.64452 1.9712 9.62326 1.93482 9.59176 1.90875C9.56027 1.88267 9.52057 1.86856 9.47968 1.86891H0.670323ZM0.718958 6.17632C0.693364 6.17615 0.66799 6.18107 0.644311 6.19078C0.620632 6.2005 0.599119 6.21482 0.581021 6.23292C0.562922 6.25102 0.548599 6.27253 0.538882 6.29621C0.529165 6.31989 0.524248 6.34526 0.524417 6.37086V9.68187C0.524417 9.79056 0.610269 9.87641 0.718958 9.87641H6.68547C6.79416 9.87641 6.88001 9.79056 6.88001 9.68187V6.89528C6.88001 6.78659 6.96628 6.70073 7.07497 6.70073H8.7751C8.88421 6.70073 8.97006 6.78659 8.97006 6.89528V9.68187C8.97006 9.79056 9.05634 9.87641 9.1646 9.87641H9.42681C9.45246 9.8767 9.4779 9.87186 9.50166 9.86219C9.52541 9.85252 9.547 9.83821 9.56515 9.82009C9.58331 9.80197 9.59767 9.78042 9.60739 9.75669C9.61711 9.73295 9.622 9.70752 9.62178 9.68187V6.37086C9.62189 6.34528 9.61693 6.31993 9.6072 6.29628C9.59746 6.27263 9.58313 6.25113 9.56505 6.23305C9.54696 6.21496 9.52547 6.20063 9.50181 6.1909C9.47816 6.18116 9.45281 6.17621 9.42724 6.17632H0.718958ZM1.49797 6.83184H4.8166C4.90626 6.83184 4.98154 6.90669 4.98154 6.99678V9.06019C4.98154 9.14984 4.90626 9.22512 4.8166 9.22512H1.49797C1.45433 9.22479 1.41257 9.20731 1.38171 9.17645C1.35085 9.14559 1.33337 9.10383 1.33303 9.06019V6.99635C1.33303 6.90289 1.40831 6.83184 1.49797 6.83184Z" fill="black" fill-opacity="0.3"/>
</svg>
