<svg width="11" height="10" viewBox="0 0 11 10" fill="none" xmlns="http://www.w3.org/2000/svg">
<g clip-path="url(#clip0_485_7098)">
<path d="M1.69775 0.666992C1.60935 0.666992 1.52456 0.702111 1.46205 0.764623C1.39954 0.827135 1.36442 0.91192 1.36442 1.00033V8.66699H1.03109C0.942682 8.66699 0.857897 8.70211 0.795385 8.76462C0.732873 8.82714 0.697754 8.91192 0.697754 9.00033C0.697754 9.08873 0.732873 9.17352 0.795385 9.23603C0.857897 9.29854 0.942682 9.33366 1.03109 9.33366H5.69775C5.78616 9.33366 5.87094 9.29854 5.93346 9.23603C5.99597 9.17352 6.03109 9.08873 6.03109 9.00033C6.03109 8.91192 5.99597 8.82714 5.93346 8.76462C5.87094 8.70211 5.78616 8.66699 5.69775 8.66699H4.69775V6.73299L9.21509 3.69766C9.25142 3.67324 9.28259 3.6419 9.30682 3.60543C9.33104 3.56896 9.34784 3.52807 9.35626 3.48511C9.36468 3.44214 9.36455 3.39794 9.35589 3.35503C9.34722 3.31211 9.33018 3.27132 9.30575 3.23499L9.11975 2.95833C9.07044 2.88513 8.99411 2.83448 8.9075 2.81748C8.82089 2.80048 8.73108 2.81853 8.65775 2.86766L4.69775 5.52699V1.33366H5.03109C5.11949 1.33366 5.20428 1.29854 5.26679 1.23603C5.3293 1.17352 5.36442 1.08873 5.36442 1.00033C5.36442 0.91192 5.3293 0.827135 5.26679 0.764623C5.20428 0.702111 5.11949 0.666992 5.03109 0.666992H1.69775ZM2.03109 2.33366C2.03109 2.24525 2.06621 2.16047 2.12872 2.09796C2.19123 2.03544 2.27601 2.00033 2.36442 2.00033H3.69775C3.78616 2.00033 3.87094 2.03544 3.93346 2.09796C3.99597 2.16047 4.03109 2.24525 4.03109 2.33366V5.00033C4.03109 5.08873 3.99597 5.17352 3.93346 5.23603C3.87094 5.29854 3.78616 5.33366 3.69775 5.33366H2.36442C2.27601 5.33366 2.19123 5.29854 2.12872 5.23603C2.06621 5.17352 2.03109 5.08873 2.03109 5.00033V2.33366Z" fill="black"/>
</g>
<defs>
<clipPath id="clip0_485_7098">
<rect width="10" height="10" fill="white" transform="translate(0.0317383)"/>
</clipPath>
</defs>
</svg>
