<svg width="18" height="21" viewBox="0 0 18 21" fill="none" xmlns="http://www.w3.org/2000/svg">
<path id="trash-alt" d="M1.26 19.0312V5.25H16.38V19.0312C16.38 20.1387 15.5137 21 14.49 21H3.15C2.08687 21 1.26 20.1387 1.26 19.0312ZM11.97 8.53125V17.7188C11.97 18.0879 12.2456 18.375 12.6 18.375C12.915 18.375 13.23 18.0879 13.23 17.7188V8.53125C13.23 8.20312 12.915 7.875 12.6 7.875C12.2456 7.875 11.97 8.20312 11.97 8.53125ZM8.19 8.53125V17.7188C8.19 18.0879 8.46562 18.375 8.82 18.375C9.135 18.375 9.45 18.0879 9.45 17.7188V8.53125C9.45 8.20312 9.135 7.875 8.82 7.875C8.46562 7.875 8.19 8.20312 8.19 8.53125ZM4.41 8.53125V17.7188C4.41 18.0879 4.68562 18.375 5.04 18.375C5.355 18.375 5.67 18.0879 5.67 17.7188V8.53125C5.67 8.20312 5.355 7.875 5.04 7.875C4.68562 7.875 4.41 8.20312 4.41 8.53125ZM17.01 1.3125C17.325 1.3125 17.64 1.64062 17.64 1.96875V3.28125C17.64 3.65039 17.325 3.9375 17.01 3.9375H0.63C0.275625 3.9375 0 3.65039 0 3.28125V1.96875C0 1.64062 0.275625 1.3125 0.63 1.3125H5.355L5.70937 0.574219C5.8275 0.246094 6.22125 0 6.53625 0H11.0644C11.3794 0 11.7337 0.246094 11.8912 0.574219L12.285 1.3125H17.01Z" fill="#F21B5B"/>
</svg>
