<svg width="20" height="20" viewBox="0 0 20 20" fill="none" xmlns="http://www.w3.org/2000/svg">
<g id="ph:phone">
<path id="Vector" d="M15.8271 12.1572L12.7355 10.7718L12.727 10.7679C12.5665 10.6993 12.3914 10.6717 12.2176 10.6878C12.0438 10.7038 11.8767 10.7629 11.7314 10.8598C11.7143 10.8711 11.6979 10.8833 11.6822 10.8965L10.0849 12.2583C9.07295 11.7667 8.02819 10.7298 7.53666 9.73102L8.90036 8.10941C8.91348 8.09301 8.92595 8.0766 8.93776 8.05888C9.03254 7.91405 9.09005 7.74803 9.10516 7.5756C9.12028 7.40317 9.09253 7.22967 9.02439 7.07056V7.06269L7.63509 3.96581C7.54502 3.75795 7.39013 3.5848 7.19356 3.4722C6.99698 3.3596 6.76926 3.3136 6.5444 3.34106C5.65515 3.45807 4.8389 3.89478 4.24811 4.56963C3.65732 5.24448 3.33238 6.1113 3.33399 7.00822C3.33399 12.2189 7.57341 16.4583 12.7841 16.4583C13.681 16.4599 14.5478 16.135 15.2227 15.5442C15.8975 14.9534 16.3342 14.1371 16.4512 13.2479C16.4787 13.0231 16.4328 12.7954 16.3204 12.5989C16.2079 12.4023 16.0349 12.2474 15.8271 12.1572ZM12.7841 15.4083C10.557 15.4059 8.42181 14.5201 6.84701 12.9453C5.27222 11.3705 4.38643 9.23531 4.384 7.00822C4.38153 6.36737 4.61241 5.74754 5.03352 5.26448C5.45463 4.78142 6.03718 4.46815 6.67237 4.38319C6.67211 4.38581 6.67211 4.38845 6.67237 4.39107L8.0505 7.47547L6.69402 9.09905C6.68025 9.11489 6.66775 9.13179 6.65662 9.14958C6.55786 9.30112 6.49992 9.47561 6.48843 9.65612C6.47693 9.83663 6.51226 10.0171 6.59099 10.1799C7.18556 11.3959 8.41079 12.612 9.63996 13.2059C9.804 13.2839 9.98547 13.318 10.1666 13.3049C10.3478 13.2918 10.5225 13.2319 10.6736 13.1311C10.6904 13.1197 10.7066 13.1075 10.7221 13.0943L12.3175 11.7333L15.4019 13.1147H15.4091C15.3252 13.7508 15.0124 14.3345 14.5292 14.7566C14.0461 15.1788 13.4257 15.4105 12.7841 15.4083Z" fill="#3D6DFE"/>
</g>
</svg>
