<svg width="18" height="18" viewBox="0 0 18 18" fill="none" xmlns="http://www.w3.org/2000/svg">
<path d="M9.34993 2.1416C5.43993 2.1416 2.2666 5.31493 2.2666 9.22493C2.2666 13.1349 5.43993 16.3083 9.34993 16.3083C13.2599 16.3083 16.4333 13.1349 16.4333 9.22493C16.4333 5.31493 13.2599 2.1416 9.34993 2.1416ZM12.2045 7.94994L8.89659 11.2508C8.79742 11.357 8.66284 11.4066 8.52118 11.4066C8.38659 11.4066 8.25201 11.357 8.14576 11.2508L6.49535 9.60037C6.28994 9.39496 6.28994 9.05491 6.49535 8.8495C6.70077 8.64408 7.04077 8.64408 7.24618 8.8495L8.52118 10.1245L11.4537 7.19911C11.6591 6.98661 11.9991 6.98661 12.2045 7.19911C12.4099 7.40453 12.4099 7.73744 12.2045 7.94994Z" fill="#718096"/>
</svg>
