<svg width="26" height="37" viewBox="0 0 26 37" fill="none" xmlns="http://www.w3.org/2000/svg">
<rect width="25.3774" height="36.7285" rx="4" fill="#2AD47C"/>
<path d="M13.689 10.9805C13.689 10.4282 13.2412 9.98047 12.689 9.98047C12.1367 9.98047 11.689 10.4282 11.689 10.9805L13.689 10.9805ZM11.9819 26.7276C12.3724 27.1181 13.0055 27.1181 13.3961 26.7276L19.76 20.3636C20.1506 19.9731 20.1506 19.3399 19.76 18.9494C19.3695 18.5589 18.7363 18.5589 18.3458 18.9494L12.689 24.6063L7.03211 18.9494C6.64159 18.5589 6.00842 18.5589 5.6179 18.9494C5.22737 19.3399 5.22737 19.9731 5.6179 20.3636L11.9819 26.7276ZM11.689 10.9805L11.689 26.0205L13.689 26.0205L13.689 10.9805L11.689 10.9805Z" fill="white"/>
</svg>
