<svg width="16" height="16" viewBox="0 0 16 16" fill="none" xmlns="http://www.w3.org/2000/svg">
<g id="icon/fill/user">
<g id="Vector">
<path fill-rule="evenodd" clip-rule="evenodd" d="M5.18777 4.25C5.18777 2.6967 6.44697 1.4375 8.00027 1.4375C9.55357 1.4375 10.8128 2.6967 10.8128 4.25C10.8128 5.8033 9.55357 7.0625 8.00027 7.0625C6.44697 7.0625 5.18777 5.8033 5.18777 4.25Z" fill="#0B87AC"/>
<path fill-rule="evenodd" clip-rule="evenodd" d="M2.8448 13.0658C2.89313 10.2597 5.18276 8 8.00027 8C10.8178 8 13.1075 10.2598 13.1557 13.066C13.1589 13.2521 13.0517 13.4225 12.8826 13.5001C11.3957 14.1824 9.74184 14.5625 8.00047 14.5625C6.25893 14.5625 4.60491 14.1823 3.11797 13.4999C2.9488 13.4223 2.84159 13.2519 2.8448 13.0658Z" fill="#0B87AC"/>
</g>
</g>
</svg>
