<svg width="18" height="13" viewBox="0 0 18 13" fill="none" xmlns="http://www.w3.org/2000/svg">
<path d="M17.3363 4.95875L12.5038 3.22188L10.4838 0.685628C10.3081 0.47088 10.0869 0.297934 9.83605 0.179342C9.58524 0.0607498 9.31118 -0.000511906 9.03375 3.22188e-06H4.03625C3.73061 -9.93946e-05 3.42958 0.0745684 3.15941 0.217496C2.88924 0.360423 2.65814 0.567271 2.48625 0.820003L0.791251 3.30938C0.438221 3.82746 0.249596 4.43995 0.250001 5.06688V10C0.250001 10.1658 0.315849 10.3247 0.433059 10.4419C0.550269 10.5592 0.70924 10.625 0.875001 10.625H2.21375C2.34971 11.1614 2.66064 11.6372 3.09736 11.977C3.53408 12.3168 4.07164 12.5013 4.625 12.5013C5.17836 12.5013 5.71592 12.3168 6.15264 11.977C6.58936 11.6372 6.90029 11.1614 7.03625 10.625H10.9638C11.0997 11.1614 11.4106 11.6372 11.8474 11.977C12.2841 12.3168 12.8216 12.5013 13.375 12.5013C13.9284 12.5013 14.4659 12.3168 14.9026 11.977C15.3394 11.6372 15.6503 11.1614 15.7863 10.625H17.125C17.2908 10.625 17.4497 10.5592 17.5669 10.4419C17.6842 10.3247 17.75 10.1658 17.75 10V5.54688C17.75 5.41818 17.7102 5.29262 17.6362 5.18735C17.5621 5.08209 17.4574 5.00225 17.3363 4.95875ZM4.625 11.25C4.37777 11.25 4.1361 11.1767 3.93054 11.0393C3.72498 10.902 3.56476 10.7068 3.47015 10.4784C3.37554 10.25 3.35079 9.99862 3.39902 9.75614C3.44725 9.51366 3.5663 9.29094 3.74112 9.11612C3.91593 8.9413 4.13866 8.82225 4.38114 8.77402C4.62361 8.72579 4.87495 8.75054 5.10335 8.84515C5.33176 8.93976 5.52699 9.09998 5.66434 9.30554C5.80169 9.5111 5.875 9.75278 5.875 10C5.8745 10.3314 5.74265 10.649 5.50834 10.8833C5.27402 11.1177 4.95637 11.2495 4.625 11.25ZM13.375 11.25C13.1278 11.25 12.8861 11.1767 12.6805 11.0393C12.475 10.902 12.3148 10.7068 12.2202 10.4784C12.1255 10.25 12.1008 9.99862 12.149 9.75614C12.1973 9.51366 12.3163 9.29094 12.4911 9.11612C12.6659 8.9413 12.8887 8.82225 13.1311 8.77402C13.3736 8.72579 13.6249 8.75054 13.8534 8.84515C14.0818 8.93976 14.277 9.09998 14.4143 9.30554C14.5517 9.5111 14.625 9.75278 14.625 10C14.6245 10.3314 14.4927 10.649 14.2583 10.8833C14.024 11.1177 13.7064 11.2495 13.375 11.25ZM16.5 9.375H15.7863C15.6503 8.8386 15.3394 8.36285 14.9026 8.02302C14.4659 7.68319 13.9284 7.49867 13.375 7.49867C12.8216 7.49867 12.2841 7.68319 11.8474 8.02302C11.4106 8.36285 11.0997 8.8386 10.9638 9.375H7.03625C6.90029 8.8386 6.58936 8.36285 6.15264 8.02302C5.71592 7.68319 5.17836 7.49867 4.625 7.49867C4.07164 7.49867 3.53408 7.68319 3.09736 8.02302C2.66064 8.36285 2.34971 8.8386 2.21375 9.375H1.5V5.06688C1.49993 4.69055 1.61318 4.32293 1.825 4.01188L3.51938 1.52375C3.57667 1.43943 3.65372 1.3704 3.74381 1.32268C3.83391 1.27497 3.9343 1.25002 4.03625 1.25H9.03375C9.12474 1.24972 9.21468 1.26945 9.2972 1.30779C9.37971 1.34614 9.45279 1.40215 9.51125 1.47188L11.6363 4.13938C11.7085 4.23009 11.8046 4.29891 11.9138 4.33813L16.5 5.98625V9.375Z" fill="black"/>
</svg>
