<svg width="20" height="20" viewBox="0 0 20 20" fill="none" xmlns="http://www.w3.org/2000/svg">
<path d="M12.9167 11.4583C12.9167 11.2926 12.9825 11.1336 13.0997 11.0164C13.2169 10.8992 13.3759 10.8333 13.5417 10.8333H15.2083C15.3741 10.8333 15.5331 10.8992 15.6503 11.0164C15.7675 11.1336 15.8333 11.2926 15.8333 11.4583C15.8333 11.6241 15.7675 11.7831 15.6503 11.9003C15.5331 12.0175 15.3741 12.0833 15.2083 12.0833H13.5417C13.3759 12.0833 13.2169 12.0175 13.0997 11.9003C12.9825 11.7831 12.9167 11.6241 12.9167 11.4583ZM2.5 4.16667H2.51167C2.56291 3.70832 2.78128 3.28495 3.12504 2.97748C3.46879 2.67001 3.9138 2.50001 4.375 2.5H13.9583C14.2046 2.5 14.4484 2.5485 14.6759 2.64273C14.9033 2.73695 15.11 2.87506 15.2842 3.04917C15.4583 3.22328 15.5964 3.42998 15.6906 3.65747C15.7848 3.88495 15.8333 4.12877 15.8333 4.375V5.0725C16.4265 5.21334 16.9549 5.55015 17.3329 6.02847C17.711 6.50679 17.9167 7.09865 17.9167 7.70833V14.7917C17.9167 15.51 17.6313 16.1988 17.1234 16.7067C16.6155 17.2147 15.9266 17.5 15.2083 17.5H5.20833C4.49004 17.5 3.80116 17.2147 3.29325 16.7067C2.78534 16.1988 2.5 15.51 2.5 14.7917V4.16667ZM15.2083 6.25H3.75V14.7917C3.75 15.5967 4.40333 16.25 5.20833 16.25H15.2083C15.5951 16.25 15.966 16.0964 16.2395 15.8229C16.513 15.5494 16.6667 15.1784 16.6667 14.7917V7.70833C16.6667 7.32156 16.513 6.95063 16.2395 6.67714C15.966 6.40365 15.5951 6.25 15.2083 6.25ZM14.5833 5V4.375C14.5833 4.20924 14.5175 4.05027 14.4003 3.93306C14.2831 3.81585 14.1241 3.75 13.9583 3.75H4.375C4.20924 3.75 4.05027 3.81585 3.93306 3.93306C3.81585 4.05027 3.75 4.20924 3.75 4.375C3.75 4.54076 3.81585 4.69973 3.93306 4.81694C4.05027 4.93415 4.20924 5 4.375 5H14.5833Z" fill="black"/>
</svg>
