<svg width="25" height="24" viewBox="0 0 25 24" fill="none" xmlns="http://www.w3.org/2000/svg">
<g id="zondicons:minus-solid" clip-path="url(#clip0_2228_7419)">
<path id="Vector" d="M12.5 24C9.3174 24 6.26516 22.7357 4.01472 20.4853C1.76428 18.2348 0.5 15.1826 0.5 12C0.5 8.8174 1.76428 5.76516 4.01472 3.51472C6.26516 1.26428 9.3174 0 12.5 0C15.6826 0 18.7348 1.26428 20.9853 3.51472C23.2357 5.76516 24.5 8.8174 24.5 12C24.5 15.1826 23.2357 18.2348 20.9853 20.4853C18.7348 22.7357 15.6826 24 12.5 24ZM18.5 10.8H6.5V13.2H18.5V10.8Z" fill="black" fill-opacity="0.15"/>
</g>
<defs>
<clipPath id="clip0_2228_7419">
<rect width="24" height="24" fill="white" transform="translate(0.5)"/>
</clipPath>
</defs>
</svg>
