<svg width="16" height="16" viewBox="0 0 16 16" fill="none" xmlns="http://www.w3.org/2000/svg">
<path d="M2 8H8V9H2V8ZM1 5.5H6V6.5H1V5.5Z" fill="#009965"/>
<path d="M14.9592 8.303L13.4592 4.803C13.4207 4.71304 13.3566 4.63637 13.2749 4.5825C13.1932 4.52863 13.0975 4.49995 12.9997 4.5H11.4997V3.5C11.4997 3.36739 11.447 3.24021 11.3532 3.14645C11.2595 3.05268 11.1323 3 10.9997 3H2.99968V4H10.4997V10.278C10.2718 10.4103 10.0725 10.5864 9.91301 10.7961C9.75356 11.0059 9.63722 11.2451 9.57068 11.5H6.42868C6.30698 11.0287 6.01756 10.6179 5.61468 10.3447C5.21179 10.0715 4.72309 9.9546 4.24018 10.0159C3.75727 10.0773 3.31331 10.3126 2.99152 10.6779C2.66972 11.0431 2.49219 11.5132 2.49219 12C2.49219 12.4868 2.66972 12.9569 2.99152 13.3221C3.31331 13.6874 3.75727 13.9227 4.24018 13.9841C4.72309 14.0454 5.21179 13.9285 5.61468 13.6553C6.01756 13.3821 6.30698 12.9713 6.42868 12.5H9.57068C9.67945 12.9291 9.92819 13.3097 10.2776 13.5816C10.6269 13.8535 11.057 14.0011 11.4997 14.0011C11.9424 14.0011 12.3724 13.8535 12.7218 13.5816C13.0712 13.3097 13.3199 12.9291 13.4287 12.5H14.4997C14.6323 12.5 14.7595 12.4473 14.8532 12.3536C14.947 12.2598 14.9997 12.1326 14.9997 12V8.5C14.9997 8.43226 14.9859 8.36523 14.9592 8.303ZM4.49968 13C4.3019 13 4.10856 12.9414 3.94411 12.8315C3.77966 12.7216 3.65149 12.5654 3.5758 12.3827C3.50011 12.2 3.48031 11.9989 3.51889 11.8049C3.55748 11.6109 3.65272 11.4327 3.79257 11.2929C3.93242 11.153 4.11061 11.0578 4.30459 11.0192C4.49857 10.9806 4.69964 11.0004 4.88236 11.0761C5.06509 11.1518 5.22127 11.28 5.33115 11.4444C5.44103 11.6089 5.49968 11.8022 5.49968 12C5.49941 12.2651 5.39397 12.5193 5.20649 12.7068C5.01901 12.8943 4.76481 12.9997 4.49968 13ZM11.4997 5.5H12.6697L13.7417 8H11.4997V5.5ZM11.4997 13C11.3019 13 11.1086 12.9414 10.9441 12.8315C10.7797 12.7216 10.6515 12.5654 10.5758 12.3827C10.5001 12.2 10.4803 11.9989 10.5189 11.8049C10.5575 11.6109 10.6527 11.4327 10.7926 11.2929C10.9324 11.153 11.1106 11.0578 11.3046 11.0192C11.4986 10.9806 11.6996 11.0004 11.8824 11.0761C12.0651 11.1518 12.2213 11.28 12.3311 11.4444C12.441 11.6089 12.4997 11.8022 12.4997 12C12.4994 12.2651 12.394 12.5193 12.2065 12.7068C12.019 12.8943 11.7648 12.9997 11.4997 13ZM13.9997 11.5H13.4287C13.3185 11.0717 13.0694 10.6921 12.7203 10.4206C12.3712 10.1492 11.9419 10.0012 11.4997 10V9H13.9997V11.5Z" fill="#009965"/>
</svg>
