<svg width="20" height="20" viewBox="0 0 20 20" fill="none" xmlns="http://www.w3.org/2000/svg">
<circle cx="10" cy="10" r="10" fill="#009965"/>
<path d="M9.99831 10.0955C10.2786 10.0955 10.5186 9.99567 10.7183 9.79592C10.9181 9.59618 11.0178 9.35635 11.0174 9.07643C11.0174 8.79618 10.9175 8.55618 10.7178 8.35643C10.5181 8.15669 10.2782 8.05699 9.99831 8.05732C9.71805 8.05732 9.47805 8.1572 9.27831 8.35694C9.07856 8.55669 8.97886 8.79652 8.9792 9.07643C8.9792 9.35669 9.07907 9.59669 9.27882 9.79643C9.47856 9.99618 9.71839 10.0959 9.99831 10.0955ZM9.99831 15C9.93037 15 9.86243 14.9873 9.79449 14.9618C9.72655 14.9363 9.6671 14.9023 9.61614 14.8599C8.37623 13.7643 7.45054 12.7473 6.83907 11.8087C6.22761 10.8701 5.92188 9.99329 5.92188 9.17834C5.92188 7.90446 6.33173 6.8896 7.15143 6.13376C7.97113 5.37792 8.92009 5 9.99831 5C11.0769 5 12.026 5.37792 12.8457 6.13376C13.6654 6.8896 14.0751 7.90446 14.0747 9.17834C14.0747 9.99363 13.769 10.8706 13.1575 11.8092C12.5461 12.7478 11.6204 13.7647 10.3805 14.8599C10.3295 14.9023 10.2701 14.9363 10.2021 14.9618C10.1342 14.9873 10.0662 15 9.99831 15Z" fill="white"/>
</svg>
