<svg width="20" height="20" viewBox="0 0 20 20" fill="none" xmlns="http://www.w3.org/2000/svg">
<circle cx="10" cy="10" r="10" fill="#009965"/>
<g clip-path="url(#clip0_2448_5863)">
<path d="M5.61123 5.12542C5.56759 5.12575 5.52583 5.14324 5.49497 5.1741C5.46411 5.20496 5.44662 5.24672 5.44629 5.29036V6.31255C5.44629 6.40221 5.52115 6.47749 5.61123 6.47749H14.3825C14.4726 6.47749 14.5475 6.40221 14.5475 6.31255V5.28994C14.5471 5.2463 14.5296 5.20454 14.4988 5.17368C14.4679 5.14282 14.4262 5.12533 14.3825 5.125L5.61123 5.12542ZM5.5922 6.87038C5.55131 6.87002 5.51161 6.88413 5.48011 6.91021C5.44862 6.93629 5.42735 6.97266 5.42007 7.0129L4.92526 9.68319C4.92188 9.69461 4.92188 9.70561 4.92188 9.71703V10.6123C4.92188 10.7096 5.00054 10.7883 5.09781 10.7883H14.8959C14.9932 10.7883 15.0719 10.7096 15.0719 10.6123V9.71322C15.0719 9.7018 15.0719 9.69081 15.0681 9.67939L14.5737 7.0129C14.5664 6.97266 14.5451 6.93629 14.5136 6.91021C14.4821 6.88413 14.4424 6.87002 14.4016 6.87038H5.5922ZM5.64083 11.1778C5.61524 11.1776 5.58987 11.1825 5.56619 11.1922C5.54251 11.202 5.52099 11.2163 5.5029 11.2344C5.4848 11.2525 5.47047 11.274 5.46076 11.2977C5.45104 11.3214 5.44612 11.3467 5.44629 11.3723V14.6833C5.44629 14.792 5.53214 14.8779 5.64083 14.8779H11.6073C11.716 14.8779 11.8019 14.792 11.8019 14.6833V11.8967C11.8019 11.7881 11.8882 11.7022 11.9968 11.7022H13.697C13.8061 11.7022 13.8919 11.7881 13.8919 11.8967V14.6833C13.8919 14.792 13.9782 14.8779 14.0865 14.8779H14.3487C14.3743 14.8782 14.3998 14.8733 14.4235 14.8637C14.4473 14.854 14.4689 14.8397 14.487 14.8216C14.5052 14.8034 14.5195 14.7819 14.5293 14.7582C14.539 14.7344 14.5439 14.709 14.5437 14.6833V11.3723C14.5438 11.3467 14.5388 11.3214 14.5291 11.2977C14.5193 11.2741 14.505 11.2526 14.4869 11.2345C14.4688 11.2164 14.4473 11.2021 14.4237 11.1924C14.4 11.1826 14.3747 11.1777 14.3491 11.1778H5.64083ZM6.41985 11.8333H9.73847C9.82813 11.8333 9.90341 11.9082 9.90341 11.9982V14.0617C9.90341 14.1513 9.82813 14.2266 9.73847 14.2266H6.41985C6.3762 14.2263 6.33444 14.2088 6.30358 14.1779C6.27272 14.1471 6.25524 14.1053 6.25491 14.0617V11.9978C6.25491 11.9044 6.33019 11.8333 6.41985 11.8333Z" fill="white"/>
</g>
<defs>
<clipPath id="clip0_2448_5863">
<rect width="10.15" height="10.15" fill="white" transform="translate(4.92188 4.92578)"/>
</clipPath>
</defs>
</svg>
