<svg width="11" height="11" viewBox="0 0 11 11" fill="none" xmlns="http://www.w3.org/2000/svg">
<path d="M2.16669 1.16663C2.07828 1.16663 1.9935 1.20174 1.93098 1.26426C1.86847 1.32677 1.83335 1.41155 1.83335 1.49996V9.16663H1.50002C1.41161 9.16663 1.32683 9.20175 1.26432 9.26426C1.20181 9.32677 1.16669 9.41155 1.16669 9.49996C1.16669 9.58836 1.20181 9.67315 1.26432 9.73566C1.32683 9.79817 1.41161 9.83329 1.50002 9.83329H6.16669C6.25509 9.83329 6.33988 9.79817 6.40239 9.73566C6.4649 9.67315 6.50002 9.58836 6.50002 9.49996C6.50002 9.41155 6.4649 9.32677 6.40239 9.26426C6.33988 9.20175 6.25509 9.16663 6.16669 9.16663H5.16669V7.23263L9.68402 4.19729C9.72036 4.17287 9.75153 4.14153 9.77575 4.10506C9.79997 4.06859 9.81677 4.0277 9.82519 3.98474C9.83361 3.94178 9.83348 3.89757 9.82482 3.85466C9.81615 3.81174 9.79912 3.77096 9.77469 3.73463L9.58869 3.45796C9.53937 3.38476 9.46304 3.33411 9.37643 3.31711C9.28982 3.30012 9.20001 3.31816 9.12669 3.36729L5.16669 6.02663V1.83329H5.50002C5.58843 1.83329 5.67321 1.79817 5.73572 1.73566C5.79823 1.67315 5.83335 1.58836 5.83335 1.49996C5.83335 1.41155 5.79823 1.32677 5.73572 1.26426C5.67321 1.20174 5.58843 1.16663 5.50002 1.16663H2.16669ZM2.50002 2.83329C2.50002 2.74489 2.53514 2.6601 2.59765 2.59759C2.66016 2.53508 2.74495 2.49996 2.83335 2.49996H4.16669C4.25509 2.49996 4.33988 2.53508 4.40239 2.59759C4.4649 2.6601 4.50002 2.74489 4.50002 2.83329V5.49996C4.50002 5.58837 4.4649 5.67315 4.40239 5.73566C4.33988 5.79817 4.25509 5.83329 4.16669 5.83329H2.83335C2.74495 5.83329 2.66016 5.79817 2.59765 5.73566C2.53514 5.67315 2.50002 5.58837 2.50002 5.49996V2.83329Z" fill="black"/>
</svg>
