<svg width="32" height="31" viewBox="0 0 32 31" fill="none" xmlns="http://www.w3.org/2000/svg">
<path d="M5.03707 6.81079H5.03868M5.03868 6.81079H30.2643C30.3671 6.81052 30.4685 6.83319 30.5613 6.87717C30.6541 6.92114 30.736 6.9853 30.8008 7.06496C30.8656 7.14461 30.9119 7.23771 30.9361 7.33752C30.9603 7.43733 30.9619 7.54126 30.9408 7.64177L28.4735 19.4244C28.4421 19.5743 28.3618 19.7094 28.2452 19.8086C28.1285 19.9077 27.9822 19.9652 27.8293 19.972H8.38053M5.03868 6.81079L8.32898 19.972H8.38053M5.03868 6.81079L3.8195 1.93407C3.75214 1.66727 3.59772 1.43058 3.38069 1.2614C3.16367 1.09221 2.89645 1.00023 2.62128 1H0.0444336M8.38053 19.972V23.0255C8.37968 23.2686 8.42692 23.5094 8.51953 23.7341C8.61214 23.9588 8.7483 24.1629 8.92016 24.3348C9.09201 24.5066 9.29618 24.6428 9.52088 24.7355C9.74558 24.8281 9.98638 24.8753 10.2294 24.8744H28.7376" stroke="#F4B5A4" stroke-width="1.911" stroke-miterlimit="10"/>
<path d="M9.46066 31C10.5814 31 11.4899 30.0915 11.4899 28.9707C11.4899 27.85 10.5814 26.9415 9.46066 26.9415C8.33993 26.9415 7.4314 27.85 7.4314 28.9707C7.4314 30.0915 8.33993 31 9.46066 31Z" fill="#F4B5A4"/>
<path d="M24.0005 31C25.1212 31 26.0298 30.0915 26.0298 28.9707C26.0298 27.85 25.1212 26.9415 24.0005 26.9415C22.8798 26.9415 21.9712 27.85 21.9712 28.9707C21.9712 30.0915 22.8798 31 24.0005 31Z" fill="#F4B5A4"/>
</svg>
