<svg width="13" height="13" viewBox="0 0 13 13" fill="none" xmlns="http://www.w3.org/2000/svg">
<path d="M4.94011 3.204C5.57361 2.068 5.89011 1.5 6.36361 1.5C6.83711 1.5 7.15361 2.068 7.78711 3.204L7.95111 3.498C8.13111 3.821 8.22111 3.9825 8.36111 4.089C8.50111 4.1955 8.67611 4.235 9.02611 4.314L9.34411 4.386C10.5741 4.6645 11.1886 4.8035 11.3351 5.274C11.4811 5.744 11.0621 6.2345 10.2236 7.215L10.0066 7.4685C9.76861 7.747 9.64911 7.8865 9.59561 8.0585C9.54211 8.231 9.56011 8.417 9.59611 8.7885L9.62911 9.127C9.75561 10.4355 9.81911 11.0895 9.43611 11.38C9.05311 11.6705 8.47711 11.4055 7.32611 10.8755L7.02761 10.7385C6.70061 10.5875 6.53711 10.5125 6.36361 10.5125C6.19011 10.5125 6.02661 10.5875 5.69961 10.7385L5.40161 10.8755C4.25011 11.4055 3.67411 11.6705 3.29161 11.3805C2.90811 11.0895 2.97161 10.4355 3.09811 9.127L3.13111 8.789C3.16711 8.417 3.18511 8.231 3.13111 8.059C3.07811 7.8865 2.95861 7.747 2.72061 7.469L2.50361 7.215C1.66511 6.235 1.24611 5.7445 1.39211 5.274C1.53811 4.8035 2.15361 4.664 3.38361 4.386L3.70161 4.314C4.05111 4.235 4.22561 4.1955 4.36611 4.089C4.50661 3.9825 4.59611 3.821 4.77611 3.498L4.94011 3.204Z" fill="black"/>
</svg>
