<svg width="32" height="32" viewBox="0 0 32 32" fill="none" xmlns="http://www.w3.org/2000/svg">
<path fill-rule="evenodd" clip-rule="evenodd" d="M15.0468 0.00998859C12.9028 0.141905 10.467 0.810568 8.76898 1.73322C7.09288 2.64406 5.94997 3.47823 4.76314 4.65704C1.64163 7.75747 -0.0155985 11.7589 0.000110655 16.1576C0.00653448 17.9479 0.224595 19.2636 0.800928 20.9894C2.2175 25.2315 5.70861 28.9666 9.94588 30.7736C10.5404 31.0272 12.1171 31.5259 12.7693 31.6667C14.2774 31.9923 16.35 32.0933 17.7066 31.9075C18.85 31.7508 19.8778 31.543 20.4918 31.3444C23.2288 30.4591 25.4605 29.1086 27.3981 27.1651C28.9399 25.6186 30.1552 23.7795 30.9275 21.824C31.8292 19.5408 32.1678 17.0461 31.9225 14.4932C31.7122 12.3038 31.2044 10.5893 30.1914 8.64776C29.4081 7.14639 28.5169 5.93021 27.2538 4.63893C25.7962 3.14879 23.994 1.95666 22.0159 1.17401C20.0658 0.402419 18.3321 0.0408433 16.4192 0.0066708C15.8571 -0.00340047 15.2395 -0.00188736 15.0468 0.00998859ZM14.1124 1.46072C12.5441 1.67815 10.8803 2.18073 9.5702 2.83268C8.62502 3.30306 7.04074 4.37667 6.26316 5.07374C5.71176 5.56805 4.64518 6.76083 4.25367 7.32103C3.33396 8.63693 2.5603 10.1125 2.15332 11.3268C1.88264 12.1344 1.59725 13.3439 1.46001 14.2656C1.35887 14.9445 1.35927 17.3552 1.4606 17.9913C1.57161 18.6879 1.91108 20.0324 2.14718 20.7102C3.03478 23.2584 4.99743 25.8744 7.32963 27.6178C9.98822 29.6052 12.7703 30.5555 15.952 30.5631C18.0249 30.5681 19.5252 30.2625 21.5582 29.4212C25.8712 27.6364 29.255 23.6775 30.2579 19.243C30.6026 17.719 30.7028 16.0512 30.5504 14.3797C30.3436 12.1115 29.3244 9.49328 27.8776 7.51256C25.3294 4.02423 21.7819 1.94373 17.5579 1.46037C16.6032 1.3511 14.9016 1.35127 14.1124 1.46072ZM16.4016 2.3974C16.3931 2.4059 16.0322 2.41731 15.5997 2.42273C12.7381 2.45888 10.1874 3.36495 7.70572 5.22697C6.14654 6.39681 4.62637 8.23833 3.70257 10.0766C3.22668 11.0235 2.75815 12.4473 2.58266 13.4799C1.96778 17.098 2.62576 20.4519 4.49708 23.2386C5.0678 24.0885 6.03231 25.2465 6.64526 25.8179C9.26887 28.2636 12.6266 29.6355 15.952 29.6206C18.0301 29.6112 19.9228 29.1701 21.8893 28.2368C24.5128 26.9916 26.9268 24.6086 28.2628 21.9451C28.9444 20.5861 29.2406 19.6376 29.5258 17.901C29.6575 17.0985 29.6721 15.5488 29.5582 14.4475C29.2031 11.0162 27.3272 7.63499 24.5663 5.44976C22.6162 3.90629 20.2703 2.87495 17.9516 2.5416C17.1998 2.4335 16.4366 2.36253 16.4016 2.3974ZM14.3576 3.95711C13.7717 4.11412 13.2951 4.65756 13.0914 5.40097L12.9913 5.7661L12.2087 5.80132C11.3974 5.83788 11.1174 5.90314 10.5533 6.18723C10.1374 6.39663 9.6463 6.88896 9.42421 7.31899C9.15172 7.84654 8.14487 10.1036 7.92938 10.6698C7.75244 11.1348 7.74134 11.1492 7.55593 11.1501C7.26347 11.1516 6.64824 11.4586 6.30982 11.772C5.88965 12.1611 5.70575 12.4719 5.45499 13.217L5.2392 13.858L5.23862 15.1388C5.23798 16.3798 5.24288 16.434 5.39659 16.8852C5.63666 17.5899 6.06385 18.1592 6.57834 18.4597L6.82881 18.6061L6.82507 19.172C6.82063 19.8449 6.92756 20.1434 7.30908 20.5238C7.80774 21.0209 8.48948 21.1914 9.82318 21.1527C10.49 21.1333 10.5859 21.1165 10.8846 20.9657C11.5181 20.6463 11.8104 20.1926 11.8528 19.4633L11.8796 19.0011L16.0327 19.0202L20.1859 19.0392L20.2009 19.4261C20.2457 20.5813 21.119 21.1829 22.721 21.1623C24.522 21.1391 25.2142 20.6003 25.2839 19.1673L25.3116 18.5969L25.5253 18.4882C26.0481 18.2223 26.553 17.4061 26.7328 16.536C26.8109 16.1582 26.8228 15.8613 26.796 14.9641C26.7571 13.6634 26.6774 13.2464 26.3462 12.612C25.9637 11.879 25.2428 11.2725 24.5762 11.1228L24.2811 11.0565L23.8484 10.0996C23.6105 9.57321 23.287 8.85856 23.1297 8.51142C22.6268 7.40178 22.4262 7.06675 22.0259 6.66844C21.3758 6.02172 20.7915 5.79521 19.7727 5.79521H19.1798L19.0757 5.51868C18.774 4.71682 18.4618 4.3191 17.9233 4.05084L17.5685 3.8741L16.1032 3.878C15.1016 3.88073 14.5493 3.90571 14.3576 3.95711ZM14.6893 5.00563C14.5891 5.04912 14.4426 5.17253 14.3637 5.27983C14.2314 5.45983 13.6746 6.70482 13.6743 6.82125C13.6742 6.84926 13.2199 6.87243 12.6647 6.87272L11.6551 6.87318L11.2695 7.06244C10.5267 7.42704 10.4278 7.60355 8.62502 11.7814L8.49118 12.0915L8.17746 12.1071C7.45665 12.1428 6.89293 12.5909 6.5416 13.4073C6.35169 13.8487 6.3472 13.8785 6.32693 14.8388C6.30486 15.8848 6.35905 16.3635 6.56023 16.8995C6.75587 17.4208 7.34446 17.9622 7.71547 17.9622C7.78806 17.9622 7.83659 18.0021 7.83968 18.0641C7.91216 19.5212 7.92722 19.6487 8.04612 19.8082C8.25291 20.086 8.37566 20.1144 9.37048 20.1153C10.4035 20.1163 10.5665 20.0729 10.7324 19.7533C10.8148 19.5943 10.8233 19.4503 10.7896 18.7728L10.7502 17.9787L13.2619 17.9359C14.6433 17.9123 16.9937 17.9123 18.4851 17.9358L21.1965 17.9785L21.2314 18.1523C21.2505 18.2479 21.2662 18.6272 21.2662 18.9951V19.6642L21.4968 19.8941L21.7275 20.1239L22.7275 20.1055L23.7276 20.0871L23.9613 19.8372L24.1949 19.5874L24.1759 18.7832L24.1569 17.9791L24.4425 17.878C24.8166 17.7457 25.2328 17.3509 25.4742 16.8993C25.6657 16.5413 25.6688 16.523 25.7165 15.4884C25.7728 14.266 25.7207 13.7977 25.4706 13.2753C25.1428 12.5905 24.4507 12.0825 23.8459 12.0825H23.6269L23.162 11.0831C22.0769 8.75075 21.5666 7.77634 21.2619 7.45528C20.7832 6.95067 20.5462 6.87481 19.3978 6.85857L18.4345 6.845L18.3318 6.53838C18.2752 6.36979 18.1042 5.98295 17.9518 5.67878C17.5674 4.91167 17.5922 4.92157 16.0688 4.92436C15.1926 4.92593 14.8227 4.94776 14.6893 5.00563ZM15.847 5.79684C15.7918 5.89481 15.6827 5.98691 15.6016 6.00426C15.5213 6.02137 15.3976 6.04705 15.3268 6.06131C15.2338 6.08 15.1872 6.14374 15.1597 6.2901C15.0995 6.61034 15.1493 6.66844 15.4844 6.66844C15.7456 6.66844 15.7861 6.6852 15.8352 6.81398C15.9106 7.01162 16.0934 7.00108 16.3405 6.78487C16.4502 6.68881 16.6031 6.61022 16.68 6.61022C16.973 6.61022 16.9358 6.10485 16.6386 6.04559C16.5225 6.02248 16.4243 5.94476 16.3479 5.81564C16.1953 5.55786 15.9864 5.55 15.847 5.79684ZM14.1039 8.06247C11.4477 8.09903 11.6362 8.062 11.3619 8.60107C11.186 8.94705 10.2289 11.0844 10.2289 11.1315C10.2289 11.1509 10.1237 11.3725 9.99517 11.624L9.76134 12.0814L16.0394 12.0965C19.4923 12.1048 22.3174 12.0924 22.3174 12.069C22.3174 12.0456 22.2396 11.8622 22.1445 11.6615C22.0495 11.4608 21.7634 10.8512 21.5088 10.3069C21.1195 9.47489 20.7436 8.7575 20.4096 8.20899C20.2933 8.01816 19.1871 7.99243 14.1039 8.06247ZM12.2187 9.18585C12.1903 9.25809 11.9807 9.70653 11.7528 10.1823C11.5249 10.6581 11.3385 11.0641 11.3384 11.0846C11.3384 11.1052 13.316 11.1039 15.7329 11.0819C18.1499 11.0599 20.2654 11.0564 20.4341 11.0741C20.6027 11.0918 20.7397 11.0836 20.7385 11.0558C20.7373 11.0281 20.5205 10.5732 20.2567 10.0449L19.7771 9.08438L16.0237 9.06942L12.2703 9.0544L12.2187 9.18585ZM8.78095 13.4735C8.36194 13.6177 8.07071 13.8657 7.87811 14.2422C7.55464 14.8743 7.62367 15.4948 8.07415 16.005C8.43062 16.4087 8.7045 16.5332 9.23616 16.5335C9.72945 16.5337 9.92678 16.4549 10.2568 16.1259C10.5898 15.7939 10.7172 15.4903 10.7199 15.0224C10.7218 14.6923 10.693 14.5591 10.5684 14.3214C10.3543 13.913 9.95972 13.5664 9.58147 13.4544C9.19931 13.3413 9.16229 13.3422 8.78095 13.4735ZM22.4258 13.4405C21.4614 13.8001 21.0361 14.7826 21.4658 15.6582C21.725 16.1863 22.3002 16.5651 22.843 16.5651C23.3744 16.5651 23.9137 16.2126 24.1977 15.6797C24.3859 15.3264 24.389 14.5492 24.2035 14.2018C24.0642 13.941 23.7623 13.6516 23.4751 13.5035C23.2249 13.3744 22.6892 13.3424 22.4258 13.4405ZM12.646 13.5672C12.5533 13.6069 12.4138 13.708 12.3362 13.7919C12.2146 13.9232 12.2044 13.9643 12.2621 14.0904C12.2988 14.1709 12.4148 14.289 12.5199 14.3528C12.7049 14.4652 12.8173 14.4689 16.1316 14.4691L19.5523 14.4693L19.6793 14.3346C19.8643 14.1383 19.838 13.9633 19.5858 13.7119L19.3654 13.4922L16.0901 13.4936C13.6145 13.4946 12.7736 13.5126 12.646 13.5672ZM22.632 14.3505C22.31 14.4835 22.1734 14.8922 22.3422 15.2177C22.4805 15.4843 22.9195 15.6051 23.2021 15.4543C23.3932 15.3524 23.5038 15.0215 23.4256 14.7855C23.3196 14.4651 22.9049 14.2378 22.632 14.3505ZM8.79234 14.5508C8.51319 14.8291 8.5157 15.1017 8.80005 15.3852C8.99369 15.5782 9.02307 15.5885 9.28183 15.5544C9.63876 15.5073 9.82015 15.3152 9.82015 14.9842C9.82015 14.6586 9.52319 14.3529 9.20696 14.3529C9.03907 14.3529 8.94657 14.3971 8.79234 14.5508ZM14.7156 15.3838L12.5157 15.4021L12.3651 15.5806C12.1769 15.8034 12.1776 15.8235 12.3796 16.0489C12.5334 16.2204 12.5805 16.2362 13.0658 16.2785C13.3524 16.3035 14.8992 16.3258 16.5031 16.3281L19.4194 16.3322L19.6124 16.2012C19.7383 16.1158 19.8056 16.0227 19.8059 15.9337C19.8063 15.7694 19.6432 15.4791 19.5174 15.4201C19.4112 15.3704 17.7904 15.3582 14.7156 15.3838ZM14.9982 19.8588C14.8108 19.9041 14.4166 20.064 14.1222 20.2142C13.7062 20.4265 13.4815 20.5921 13.1146 20.9567C12.4807 21.5868 12.2477 21.9493 12.0273 22.6486C11.8675 23.1555 11.8434 23.3172 11.8407 23.9002C11.8371 24.6794 11.9102 25.0282 12.2155 25.6858C12.6959 26.721 13.2897 27.3276 14.3182 27.8344C14.859 28.1008 15.3394 28.2064 16.0104 28.2064C16.9589 28.2064 17.696 27.9522 18.5335 27.3363C19.029 26.9718 19.3925 26.5165 19.7198 25.8504C20.0504 25.1777 20.1547 24.7224 20.1558 23.9477C20.1572 22.9103 19.8976 22.0576 19.3566 21.3229C18.8961 20.6976 17.8694 20.0475 17.0433 19.8581C16.5496 19.7449 15.4685 19.7453 14.9982 19.8588ZM15.3605 20.7831C15.2118 20.8239 14.8707 20.9722 14.6024 21.1126C12.95 21.9774 12.3459 23.8248 13.1774 25.4707C13.9761 27.0518 15.8342 27.6896 17.4032 26.9214C19.0222 26.1285 19.6789 23.962 18.8001 22.3132C18.576 21.8928 17.8916 21.2357 17.457 21.0238C16.8048 20.7056 15.9847 20.6115 15.3605 20.7831ZM15.4264 22.6777V23.4345H14.6964H13.9664V23.9875V24.5406H14.6964H15.4264V25.2974V26.0542H16.0104C16.4346 26.0542 16.5965 26.0343 16.602 25.9814C16.6061 25.9414 16.6032 25.5983 16.5956 25.219L16.5817 24.5292L17.2158 24.5415C17.5646 24.5481 17.8959 24.5507 17.9521 24.5471C18.0418 24.5414 18.0543 24.473 18.0543 23.9893V23.4381L17.3451 23.4217L16.6359 23.4054L16.6477 22.871C16.6543 22.5771 16.642 22.2431 16.6205 22.1288L16.5813 21.9209H16.0039H15.4264V22.6777Z" fill="#F4B5A4"/>
</svg>
