<svg width="31" height="26" viewBox="0 0 31 26" fill="none" xmlns="http://www.w3.org/2000/svg">
<g id="Group 1261156968">
<path id="Vector" d="M30.2167 14.6572L28.4505 11.4689L27.5942 9.9397C27.3447 9.47929 26.976 9.09441 26.5267 8.82538C26.0774 8.55635 25.5641 8.41306 25.0404 8.41052H19.2601C19.02 8.82994 18.7126 9.20707 18.3502 9.52682C18.1352 9.71938 17.9022 9.89092 17.6545 10.0391L17.4939 10.1232C17.288 10.2394 17.0733 10.3391 16.8516 10.4214C16.3521 10.6055 15.8243 10.7012 15.2919 10.7043C14.0752 10.7043 12.9083 10.221 12.048 9.36063C11.1876 8.5003 10.7043 7.33343 10.7043 6.11674C10.7051 5.86068 10.7255 5.60506 10.7655 5.35214H3.05837C2.24724 5.35214 1.46933 5.67436 0.895777 6.24792C0.32222 6.82147 0 7.59938 0 8.41052V19.8794C0 20.6905 0.32222 21.4685 0.895777 22.042C1.46933 22.6156 2.24724 22.9378 3.05837 22.9378H3.13483C3.31032 23.802 3.77918 24.579 4.46197 25.137C5.14476 25.6951 5.99949 26 6.88134 26C7.76319 26 8.61792 25.6951 9.30071 25.137C9.9835 24.579 10.4524 23.802 10.6278 22.9378H19.9559C20.1314 23.802 20.6002 24.579 21.283 25.137C21.9658 25.6951 22.8205 26 23.7024 26C24.5842 26 25.439 25.6951 26.1218 25.137C26.8045 24.579 27.2734 23.802 27.4489 22.9378H27.663C28.4376 22.9378 29.1805 22.6301 29.7283 22.0823C30.276 21.5346 30.5837 20.7917 30.5837 20.017V16.0564C30.5837 15.5663 30.4573 15.0844 30.2167 14.6572ZM27.5254 12.9981L28.3664 14.5273L28.7946 15.2919H23.7024C23.4996 15.2919 23.3051 15.2113 23.1617 15.0679C23.0184 14.9245 22.9378 14.73 22.9378 14.5273V13.7627C22.9378 13.5599 23.0184 13.3654 23.1617 13.222C23.3051 13.0786 23.4996 12.9981 23.7024 12.9981H27.5254ZM6.88134 24.467C6.34715 24.4653 5.83028 24.2773 5.4199 23.9353C5.00952 23.5933 4.73137 23.1189 4.63344 22.5937C4.60269 22.4557 4.58731 22.3146 4.58756 22.1732C4.58756 21.5648 4.82922 20.9814 5.25939 20.5512C5.68956 20.1211 6.27299 19.8794 6.88134 19.8794C7.48969 19.8794 8.07312 20.1211 8.50329 20.5512C8.93345 20.9814 9.17512 21.5648 9.17512 22.1732C9.17537 22.3146 9.15998 22.4557 9.12924 22.5937C9.03131 23.1189 8.75316 23.5933 8.34278 23.9353C7.9324 24.2773 7.41553 24.4653 6.88134 24.467ZM10.6278 21.4086V21.3398C10.5829 21.1339 10.5215 20.9319 10.4443 20.7358L10.322 20.4911C10.2649 20.364 10.1985 20.2413 10.1232 20.1241L9.93971 19.8794C9.8646 19.7773 9.78286 19.6803 9.69504 19.5889C9.62697 19.5093 9.55284 19.4352 9.47331 19.3671L9.17512 19.1148C9.09153 19.0518 9.00476 18.9931 8.91516 18.939L8.56344 18.7478L8.29584 18.6255C8.1536 18.5705 8.00804 18.5245 7.86002 18.4879L7.64593 18.4267C7.16706 18.3247 6.67208 18.3247 6.1932 18.4267L5.95618 18.4879C5.80816 18.5245 5.6626 18.5705 5.52036 18.6255L5.25276 18.7478L4.90104 18.939C4.79319 18.9914 4.68852 19.0501 4.58756 19.1148L4.29701 19.3595C4.21749 19.4276 4.14335 19.5017 4.07528 19.5812C3.98457 19.6748 3.90027 19.7745 3.82297 19.8794L3.63946 20.1317C3.56418 20.249 3.49773 20.3716 3.44067 20.4987C3.44067 20.5828 3.35656 20.6593 3.31833 20.7434C3.24113 20.9395 3.17977 21.1415 3.13483 21.3474V21.4162H3.05837C2.65281 21.4162 2.26385 21.2551 1.97707 20.9684C1.6903 20.6816 1.52919 20.2926 1.52919 19.8871V8.41052C1.52919 8.00495 1.6903 7.616 1.97707 7.32922C2.26385 7.04244 2.65281 6.88133 3.05837 6.88133H9.24393C9.41009 8.2551 10.0447 9.52963 11.0407 10.4902C12.1774 11.6017 13.7021 12.2269 15.2919 12.2335C15.8074 12.2317 16.3209 12.1675 16.8211 12.0423V15.2919H5.35215C5.14937 15.2919 4.95489 15.3724 4.8115 15.5158C4.66811 15.6592 4.58756 15.8537 4.58756 16.0564C4.58756 16.2592 4.66811 16.4537 4.8115 16.5971C4.95489 16.7405 5.14937 16.821 5.35215 16.821H16.8211V21.4086H10.6278ZM23.7024 24.467C23.1682 24.4653 22.6513 24.2773 22.2409 23.9353C21.8306 23.5933 21.5524 23.1189 21.4545 22.5937C21.4237 22.4557 21.4084 22.3146 21.4086 22.1732C21.4086 21.5648 21.6503 20.9814 22.0804 20.5512C22.5106 20.1211 23.094 19.8794 23.7024 19.8794C24.3107 19.8794 24.8942 20.1211 25.3243 20.5512C25.7545 20.9814 25.9962 21.5648 25.9962 22.1732C25.9964 22.3146 25.981 22.4557 25.9503 22.5937C25.8524 23.1189 25.5742 23.5933 25.1638 23.9353C24.7535 24.2773 24.2366 24.4653 23.7024 24.467ZM29.0545 20.017C29.0525 20.3855 28.9053 20.7383 28.6447 20.9988C28.3842 21.2593 28.0314 21.4066 27.663 21.4086H27.4489V21.3398C27.404 21.1339 27.3426 20.9319 27.2654 20.7358L27.1431 20.4911C27.086 20.364 27.0195 20.2413 26.9443 20.1241L26.7608 19.8794C26.6856 19.7773 26.6039 19.6803 26.5161 19.5889C26.448 19.5093 26.3739 19.4352 26.2944 19.3671L25.9962 19.1148C25.9126 19.0518 25.8258 18.9931 25.7362 18.939L25.3845 18.7478L25.1169 18.6255C24.9746 18.5705 24.8291 18.5245 24.6811 18.4879L24.467 18.4267C23.9881 18.3247 23.4931 18.3247 23.0143 18.4267L22.7772 18.4879C22.6292 18.5245 22.4837 18.5705 22.3414 18.6255L22.0738 18.7478L21.7221 18.939C21.6142 18.9914 21.5096 19.0501 21.4086 19.1148L21.1181 19.3595C21.0385 19.4276 20.9644 19.5017 20.8963 19.5812C20.8056 19.6748 20.7213 19.7745 20.644 19.8794L20.4605 20.1317C20.3852 20.249 20.3188 20.3716 20.2617 20.4987L20.1394 20.7434C20.0622 20.9395 20.0008 21.1415 19.9559 21.3474V21.4162H18.3502V11.4077C18.7155 11.1898 19.0564 10.9335 19.3671 10.6431C19.6202 10.4222 19.8531 10.1791 20.0629 9.91676H25.0404C25.2888 9.91719 25.5325 9.98406 25.7462 10.1104C25.96 10.2368 26.1361 10.4181 26.2561 10.6355L26.7072 11.4689H23.7024C23.094 11.4689 22.5106 11.7106 22.0804 12.1407C21.6503 12.5709 21.4086 13.1543 21.4086 13.7627V14.5273C21.4086 15.1356 21.6503 15.719 22.0804 16.1492C22.5106 16.5794 23.094 16.821 23.7024 16.821H29.0545V20.017Z" fill="#F4B5A4"/>
<path id="Vector_2" d="M15.292 0C14.0823 0 12.8997 0.358741 11.8938 1.03086C10.8879 1.70297 10.1039 2.65828 9.64091 3.77597C9.17794 4.89366 9.05681 6.12353 9.29283 7.31006C9.52884 8.4966 10.1114 9.5865 10.9668 10.4419C11.8223 11.2974 12.9122 11.8799 14.0987 12.116C15.2853 12.352 16.5151 12.2308 17.6328 11.7679C18.7505 11.3049 19.7058 10.5209 20.3779 9.51503C21.05 8.50913 21.4088 7.32652 21.4088 6.11675C21.4088 4.49448 20.7643 2.93867 19.6172 1.79155C18.4701 0.644441 16.9143 0 15.292 0Z" fill="white"/>
<path id="Vector_3" d="M17.2033 5.35216H16.0564V4.20527C16.0564 4.00248 15.9758 3.80801 15.8324 3.66462C15.6891 3.52123 15.4946 3.44067 15.2918 3.44067C15.089 3.44067 14.8945 3.52123 14.7511 3.66462C14.6078 3.80801 14.5272 4.00248 14.5272 4.20527V5.35216H13.3803C13.1775 5.35216 12.9831 5.43271 12.8397 5.5761C12.6963 5.71949 12.6157 5.91397 12.6157 6.11675C12.6157 6.31953 12.6963 6.51401 12.8397 6.6574C12.9831 6.80079 13.1775 6.88134 13.3803 6.88134H14.5272V8.02823C14.5272 8.23102 14.6078 8.42549 14.7511 8.56888C14.8945 8.71227 15.089 8.79283 15.2918 8.79283C15.4946 8.79283 15.6891 8.71227 15.8324 8.56888C15.9758 8.42549 16.0564 8.23102 16.0564 8.02823V6.88134H17.2033C17.4061 6.88134 17.6005 6.80079 17.7439 6.6574C17.8873 6.51401 17.9679 6.31953 17.9679 6.11675C17.9679 5.91397 17.8873 5.71949 17.7439 5.5761C17.6005 5.43271 17.4061 5.35216 17.2033 5.35216Z" fill="#1E1E1E"/>
</g>
</svg>
