<svg width="16" height="16" viewBox="0 0 16 16" fill="none" xmlns="http://www.w3.org/2000/svg">
<g id="Group">
<path id="Vector" d="M12.9399 10.8573L15.7145 9.76324C15.9727 9.66058 15.9727 9.2954 15.7145 9.19274L12.9399 8.0987C11.9455 7.70713 11.158 6.91959 10.7665 5.92528L9.67241 3.15061C9.62108 3.02155 9.50376 2.95703 9.3879 2.95703C9.27205 2.95703 9.15326 3.02156 9.1034 3.15061L8.00935 5.92528C7.61779 6.91961 6.83025 7.70715 5.83594 8.0987L3.06126 9.19274C2.80315 9.2954 2.80315 9.66057 3.06126 9.76324L5.83594 10.8573C6.83027 11.2488 7.61781 12.0364 8.00935 13.0307L9.1034 15.8054C9.15473 15.9344 9.27205 15.9989 9.3879 15.9989C9.50376 15.9989 9.62255 15.9344 9.67241 15.8054L10.7665 13.0307C11.158 12.0364 11.9456 11.2488 12.9399 10.8573Z" fill="#6D44FF"/>
<path id="Vector_2" d="M2.34638 7.15212L1.61604 5.81609C1.60577 5.79702 1.58964 5.78089 1.56911 5.76916L0.233075 5.03882C0.0453554 4.93616 0.0453554 4.66777 0.233075 4.56513L1.56911 3.83479C1.58817 3.82452 1.60431 3.80839 1.61457 3.78932L2.34491 2.45329C2.44757 2.26557 2.71596 2.26557 2.8186 2.45329L3.54894 3.78932C3.55921 3.80839 3.57534 3.82452 3.59587 3.83625L4.93191 4.56659C5.11963 4.66925 5.11963 4.93764 4.93191 5.04028L3.59587 5.77062C3.57681 5.78089 3.56068 5.79702 3.55041 5.81609L2.82007 7.15212C2.71741 7.33984 2.44902 7.33984 2.34638 7.15212Z" fill="#6D44FF"/>
<path id="Vector_3" d="M8.36875 0.879933C8.36875 2.05318 6.60889 2.05318 6.60889 0.879933C6.60889 -0.293311 8.36875 -0.293311 8.36875 0.879933Z" fill="#6D44FF"/>
</g>
</svg>
