<svg width="18" height="20" viewBox="0 0 18 20" fill="none" xmlns="http://www.w3.org/2000/svg">
<path id="Vector" d="M7.34033 10.127C7.29005 10.127 7.24167 10.1071 7.20657 10.071C7.13258 9.99704 7.13258 9.87752 7.20657 9.80352L15.3145 1.70891V1.70796C15.3885 1.63397 15.5081 1.63397 15.5821 1.70796C15.6181 1.74306 15.639 1.79144 15.639 1.84267C15.639 1.89294 15.6181 1.94132 15.5821 1.97642L7.48745 10.0844C7.44666 10.1185 7.39345 10.1346 7.34033 10.127ZM17.2213 2.05232C17.1094 1.77248 16.8324 1.59413 16.5307 1.60931L15.9767 1.62449C16.0583 1.83509 16.0071 2.0732 15.8477 2.23161L11.7781 6.30684L13.5919 6.25846V6.25941C13.6402 6.25656 13.6858 6.23664 13.7209 6.20344L17.0676 2.85675C17.2819 2.64711 17.3437 2.32647 17.2213 2.05232ZM15.0461 1.42718C15.1524 1.31998 15.2975 1.26022 15.4483 1.26022C15.5185 1.26117 15.5878 1.27445 15.6532 1.29816L15.6684 0.748915V0.749864C15.676 0.451039 15.5015 0.176889 15.2264 0.0592532C14.9522 -0.0583775 14.6325 0.00233442 14.421 0.21293L11.077 3.55767C11.0419 3.59087 11.0219 3.63736 11.021 3.68669L10.9707 5.50331L15.0461 1.42718ZM7.34057 7.01559C6.00017 7.01559 4.83244 7.92722 4.50605 9.22779C4.18068 10.5274 4.78115 11.8831 5.96314 12.5138C7.14607 13.1456 8.60605 12.8923 9.50629 11.8991C10.4056 10.9059 10.5147 9.42785 9.76905 8.31318L8.75686 9.32537H8.75781C9.04998 10.0027 8.82042 10.7919 8.21045 11.2065C7.60049 11.621 6.78183 11.5442 6.25912 11.0234C5.73739 10.5036 5.65769 9.6849 6.0713 9.07399C6.48394 8.46214 7.27225 8.23065 7.95052 8.52095L8.97505 7.49643C8.4903 7.17674 7.92115 7.00896 7.34057 7.01559ZM7.34057 10.5065C7.111 10.5065 6.90325 10.368 6.81597 10.1555C6.72775 9.9421 6.77613 9.69831 6.93835 9.53514L7.64127 8.83411H7.64222C7.54451 8.8047 7.44301 8.78952 7.34055 8.78857C6.87666 8.78857 6.45739 9.06841 6.27999 9.49815C6.10164 9.92692 6.2003 10.4212 6.52852 10.7494C6.8577 11.0776 7.35097 11.1763 7.78069 10.9989C8.20946 10.8205 8.48932 10.4022 8.48932 9.93734C8.48837 9.83679 8.47319 9.73623 8.44663 9.63852L7.74371 10.3395H7.74276C7.63651 10.4467 7.49136 10.5056 7.34055 10.5037L7.34057 10.5065ZM7.34057 5.24256C6.09598 5.24256 4.90165 5.7368 4.02133 6.61713C3.14006 7.49745 2.64581 8.69178 2.64581 9.93734C2.64581 11.1829 3.14006 12.3772 4.02133 13.2576C4.90165 14.1379 6.09598 14.6321 7.34057 14.6321C8.58611 14.6321 9.78046 14.1379 10.6608 13.2576C11.5411 12.3772 12.0363 11.1829 12.0363 9.93734C12.0344 8.88817 11.6777 7.86935 11.0241 7.04867L10.0299 8.04284C10.4227 8.59587 10.6333 9.25802 10.6323 9.93724C10.6361 11.4626 9.59549 12.7936 8.11472 13.1579C6.63296 13.5231 5.09418 12.8278 4.38846 11.4741C3.68365 10.1213 3.99573 8.46131 5.14263 7.45665C6.29047 6.45112 7.97715 6.36099 9.22539 7.23847L10.2196 6.2443C9.399 5.59733 8.38584 5.24445 7.34057 5.24256ZM13.6014 6.63893L11.3854 6.70913L11.3048 6.78976V6.79071C12.3957 8.15863 12.7078 9.99048 12.1301 11.6428C11.5524 13.2944 10.1665 14.5322 8.45995 14.9222C6.75433 15.3121 4.96804 14.797 3.73097 13.56C2.4939 12.323 1.97887 10.5368 2.36874 8.83005C2.75768 7.12443 3.99657 5.7386 5.64816 5.16086C7.29972 4.58315 9.13254 4.89429 10.5003 5.98616L10.5809 5.90553L10.6416 3.67341C10.6454 3.58519 10.6701 3.49887 10.7127 3.42107C8.43795 2.24098 5.71251 2.33394 3.52324 3.66581C1.33397 4.99769 -0.00194067 7.37483 2.11612e-06 9.93711C2.11612e-06 12.7194 3.44067 16.9219 5.49152 19.1804C5.96488 19.7021 6.6365 20 7.34039 20C8.04521 20 8.71686 19.7021 9.19022 19.1804C11.2421 16.9217 14.6846 12.7194 14.6846 9.93711C14.6846 8.76273 14.4019 7.60633 13.8594 6.56469C13.7806 6.60927 13.6924 6.63488 13.6013 6.63868L13.6014 6.63893Z" fill="#BEB2B2"/>
</svg>
