<svg width="32" height="32" viewBox="0 0 32 32" fill="none" xmlns="http://www.w3.org/2000/svg">
<g id="Group 11">
<rect id="Placeholder" width="32" height="32" rx="10" fill="#F8F8F9"/>
<path id="Vector" d="M15.3403 16.127C15.2901 16.127 15.2417 16.1071 15.2066 16.071C15.1326 15.997 15.1326 15.8775 15.2066 15.8035L23.3145 7.70891V7.70796C23.3885 7.63397 23.5081 7.63397 23.5821 7.70796C23.6181 7.74306 23.639 7.79144 23.639 7.84267C23.639 7.89294 23.6181 7.94132 23.5821 7.97642L15.4875 16.0844C15.4467 16.1185 15.3935 16.1346 15.3403 16.127ZM25.2213 8.05232C25.1094 7.77248 24.8324 7.59413 24.5307 7.60931L23.9767 7.62449C24.0583 7.83509 24.0071 8.0732 23.8477 8.23161L19.7781 12.3068L21.5919 12.2585V12.2594C21.6402 12.2566 21.6858 12.2366 21.7209 12.2034L25.0676 8.85675C25.2819 8.64711 25.3437 8.32647 25.2213 8.05232ZM23.0461 7.42718C23.1524 7.31998 23.2975 7.26022 23.4483 7.26022C23.5185 7.26117 23.5878 7.27445 23.6532 7.29816L23.6684 6.74891V6.74986C23.676 6.45104 23.5015 6.17689 23.2264 6.05925C22.9522 5.94162 22.6325 6.00233 22.421 6.21293L19.077 9.55767C19.0419 9.59087 19.0219 9.63736 19.021 9.68669L18.9707 11.5033L23.0461 7.42718ZM15.3406 13.0156C14.0002 13.0156 12.8324 13.9272 12.5061 15.2278C12.1807 16.5274 12.7811 17.8831 13.9631 18.5138C15.1461 19.1456 16.6061 18.8923 17.5063 17.8991C18.4056 16.9059 18.5147 15.4278 17.7691 14.3132L16.7569 15.3254H16.7578C17.05 16.0027 16.8204 16.7919 16.2105 17.2065C15.6005 17.621 14.7818 17.5442 14.2591 17.0234C13.7374 16.5036 13.6577 15.6849 14.0713 15.074C14.4839 14.4621 15.2723 14.2307 15.9505 14.521L16.9751 13.4964C16.4903 13.1767 15.9211 13.009 15.3406 13.0156ZM15.3406 16.5065C15.111 16.5065 14.9033 16.368 14.816 16.1555C14.7278 15.9421 14.7761 15.6983 14.9383 15.5351L15.6413 14.8341H15.6422C15.5445 14.8047 15.443 14.7895 15.3406 14.7886C14.8767 14.7886 14.4574 15.0684 14.28 15.4982C14.1016 15.9269 14.2003 16.4212 14.5285 16.7494C14.8577 17.0776 15.351 17.1763 15.7807 16.9989C16.2095 16.8205 16.4893 16.4022 16.4893 15.9373C16.4884 15.8368 16.4732 15.7362 16.4466 15.6385L15.7437 16.3395H15.7428C15.6365 16.4467 15.4914 16.5056 15.3406 16.5037L15.3406 16.5065ZM15.3406 11.2426C14.096 11.2426 12.9017 11.7368 12.0213 12.6171C11.1401 13.4974 10.6458 14.6918 10.6458 15.9373C10.6458 17.1829 11.1401 18.3772 12.0213 19.2576C12.9017 20.1379 14.096 20.6321 15.3406 20.6321C16.5861 20.6321 17.7805 20.1379 18.6608 19.2576C19.5411 18.3772 20.0363 17.1829 20.0363 15.9373C20.0344 14.8882 19.6777 13.8693 19.0241 13.0487L18.0299 14.0428C18.4227 14.5959 18.6333 15.258 18.6323 15.9372C18.6361 17.4626 17.5955 18.7936 16.1147 19.1579C14.633 19.5231 13.0942 18.8278 12.3885 17.4741C11.6836 16.1213 11.9957 14.4613 13.1426 13.4567C14.2905 12.4511 15.9771 12.361 17.2254 13.2385L18.2196 12.2443C17.399 11.5973 16.3858 11.2445 15.3406 11.2426ZM21.6014 12.6389L19.3854 12.7091L19.3048 12.7898V12.7907C20.3957 14.1586 20.7078 15.9905 20.1301 17.6428C19.5524 19.2944 18.1665 20.5322 16.4599 20.9222C14.7543 21.3121 12.968 20.797 11.731 19.56C10.4939 18.323 9.97887 16.5368 10.3687 14.8301C10.7577 13.1244 11.9966 11.7386 13.6482 11.1609C15.2997 10.5832 17.1325 10.8943 18.5003 11.9862L18.5809 11.9055L18.6416 9.67341C18.6454 9.58519 18.6701 9.49887 18.7128 9.42107C16.4379 8.24098 13.7125 8.33394 11.5232 9.66581C9.33397 10.9977 7.99806 13.3748 8 15.9371C8 18.7194 11.4407 22.9219 13.4915 25.1804C13.9649 25.7021 14.6365 26 15.3404 26C16.0452 26 16.7169 25.7021 17.1902 25.1804C19.2421 22.9217 22.6846 18.7194 22.6846 15.9371C22.6846 14.7627 22.4019 13.6063 21.8594 12.5647C21.7806 12.6093 21.6924 12.6349 21.6013 12.6387L21.6014 12.6389Z" fill="#231E1E"/>
</g>
</svg>
