<svg width="20" height="21" viewBox="0 0 20 21" fill="none" xmlns="http://www.w3.org/2000/svg">
<g id="ri:amazon-fill">
<path id="Vector" d="M18.3309 15.5745C18.3309 16.1803 17.9934 17.347 17.2351 17.9878C17.0834 18.1045 16.9318 18.0386 16.9984 17.8686C17.2193 17.3286 17.7243 16.0795 17.4876 15.792C17.3201 15.5736 16.6284 15.5903 16.0384 15.6403C15.7693 15.6745 15.5326 15.6903 15.3493 15.7278C15.1793 15.7411 15.1451 15.592 15.3151 15.4753C15.5366 15.3191 15.7812 15.1988 16.0401 15.1186C16.9984 14.832 18.1059 15.0045 18.2651 15.1878C18.2951 15.2228 18.3309 15.322 18.3309 15.5745ZM16.7293 16.652C16.5101 16.8209 16.2793 16.9741 16.0384 17.1103C14.2701 18.1728 11.9793 18.7295 9.99009 18.7295C6.78759 18.7295 3.92343 17.5486 1.75009 15.5728C1.56343 15.4211 1.71759 15.2011 1.93593 15.3203C4.27759 16.687 7.17593 17.5136 10.1759 17.5136C12.0643 17.5136 14.0993 17.1603 16.0384 16.4003C16.1743 16.3495 16.3259 16.2803 16.4584 16.232C16.7643 16.0945 17.0334 16.4336 16.7293 16.652ZM11.5876 7.46031C11.5876 6.59281 11.6226 6.08198 11.3351 5.64365C11.0801 5.28281 10.6409 5.06615 10.0276 5.10031C9.36259 5.13698 8.64843 5.57281 8.46676 6.37198C8.43093 6.55531 8.32426 6.73531 8.10259 6.77448L6.07343 6.51615C5.92843 6.48281 5.70759 6.37198 5.7801 6.08198C6.21593 3.78948 8.1751 2.99031 10.0284 2.88281H10.4634C11.4801 2.88281 12.7868 3.17365 13.6226 3.93615C14.6368 4.88281 14.5284 6.15448 14.5284 7.53615V10.8086C14.5284 11.7903 14.9268 12.2253 15.3268 12.737C15.4351 12.9195 15.4726 13.1345 15.2901 13.2828C14.7651 13.7509 14.2325 14.2104 13.6926 14.6611C13.5468 14.772 13.2851 14.7836 13.1843 14.6986C12.5426 14.1611 12.3859 13.8628 11.9884 13.317C11.2968 14.0428 10.7159 14.4436 10.0251 14.6611C9.53933 14.7848 9.03966 14.8453 8.53843 14.8411C6.79676 14.8411 5.41759 13.7553 5.41759 11.6078C5.41759 9.90031 6.32593 8.73948 7.6676 8.19031C9.00926 7.64031 10.9593 7.46531 11.5876 7.46198M11.1901 11.7886C11.6234 11.062 11.5876 10.467 11.5876 9.13448C11.0443 9.13448 10.4993 9.17198 10.0284 9.28281C9.1576 9.53531 8.46593 10.0828 8.46593 11.2453C8.46593 12.1536 8.93926 12.772 9.73759 12.772C9.8476 12.772 9.94426 12.7595 10.0276 12.7345C10.5859 12.5795 10.9343 12.2995 11.1901 11.7886Z" fill="black"/>
</g>
</svg>
