<svg width="20" height="20" viewBox="0 0 20 20" fill="none" xmlns="http://www.w3.org/2000/svg">
<g id="Group 11">
<rect id="Placeholder" width="20" height="20" rx="6.875" fill="#F8F8F9"/>
<path id="Vector" d="M9.99676 7.53055C10.8952 7.53055 11.7101 7.89491 12.297 8.48458C12.8867 9.07424 13.251 9.88642 13.251 10.7876C13.251 12.5844 11.7936 14.0419 9.99676 14.0419C8.19718 14.0419 6.73971 12.5844 6.73971 10.7876C6.73971 9.91145 7.08182 9.09649 7.69374 8.48458C8.2834 7.89491 9.09836 7.53055 9.99676 7.53055ZM16.828 11.8779V12.0559H16.1604C16.166 11.9892 16.1882 11.9252 16.2244 11.864C16.2605 11.8056 16.3329 11.7249 16.4386 11.6248C16.5248 11.5442 16.5776 11.4913 16.5971 11.4607C16.6249 11.4218 16.636 11.3828 16.636 11.3439C16.636 11.3022 16.6249 11.2688 16.6027 11.2465C16.5804 11.2243 16.547 11.2132 16.5081 11.2132C16.4691 11.2132 16.4358 11.2243 16.4135 11.2493C16.3885 11.2716 16.3774 11.3133 16.3718 11.3689L16.1827 11.3495C16.1938 11.2438 16.2272 11.1687 16.2884 11.1214C16.3495 11.0769 16.4219 11.0546 16.5137 11.0546C16.611 11.0546 16.6889 11.0797 16.7445 11.1325C16.8001 11.1853 16.828 11.2521 16.828 11.3328C16.828 11.3773 16.8224 11.419 16.8057 11.4607C16.789 11.4996 16.764 11.5442 16.7278 11.5887C16.7056 11.6165 16.6638 11.661 16.6027 11.7166C16.5415 11.7722 16.5053 11.8084 16.4886 11.8251C16.4719 11.8445 16.458 11.8612 16.4497 11.8779H16.828ZM14.1578 10.9211C14.1578 10.5623 14.2579 10.2953 14.4582 10.1228C14.8114 9.81688 15.3983 9.83079 15.7265 10.1673C15.8934 10.3426 15.9796 10.5846 15.9796 10.8933C15.9796 11.1436 15.9407 11.3383 15.8684 11.483C15.7933 11.6248 15.682 11.7361 15.5402 11.8167C15.1841 12.0114 14.6946 11.9697 14.4081 11.6749C14.2412 11.4996 14.1578 11.2465 14.1578 10.9211ZM14.4943 10.9211C14.4943 11.1687 14.55 11.355 14.6584 11.4802C14.8782 11.7277 15.2592 11.7277 15.479 11.4774C15.5874 11.355 15.6431 11.1659 15.6431 10.91C15.6431 10.6708 15.5874 10.49 15.479 10.3648C15.2592 10.1173 14.8782 10.1173 14.6584 10.3648C14.55 10.4872 14.4943 10.6736 14.4943 10.9211ZM4.51178 11.063C4.60357 10.9072 4.83443 11.0491 4.74264 11.202C4.60079 11.4385 4.62026 11.5803 4.85112 11.7389C4.99853 11.8418 4.84277 12.0643 4.69536 11.9641C4.34768 11.7194 4.29205 11.4218 4.51178 11.063ZM5.97482 11.4412C5.97482 11.9864 5.53257 12.4286 4.98741 12.4286C4.44225 12.4286 4 11.9864 4 11.4412C4 11.063 4.51456 10.1785 4.78158 9.71953L4.85112 9.59993C4.88728 9.53596 4.97072 9.51371 5.03747 9.54987C5.05972 9.56377 5.07919 9.58602 5.09032 9.60828C5.12092 9.66112 5.1682 9.739 5.22105 9.82801C5.50753 10.312 5.97482 11.0963 5.97482 11.4412ZM5.70223 11.4412C5.70223 11.1381 5.14317 10.2285 4.96794 9.93648C4.7037 10.3926 4.2698 11.1548 4.2698 11.4412C4.2698 11.8362 4.59244 12.1588 4.98741 12.1588C5.38237 12.1588 5.70223 11.8362 5.70223 11.4412ZM10.8451 4.64064C11.0954 4.3931 11.19 4.49045 10.9397 4.74077C11.215 4.73799 11.2595 4.56276 11.2957 4.28184C10.9786 4.32634 10.8395 4.34859 10.8451 4.64064ZM10.7116 4.77415L10.7088 4.55442C10.592 4.65177 10.6309 4.69627 10.6337 4.84925L10.7116 4.77415ZM11.0203 4.87428L10.8006 4.87706L10.7283 4.94938C10.8729 4.94938 10.9285 4.98554 11.0203 4.87428ZM10.4334 5.04951L10.5002 4.98276L10.4974 4.77415C10.4056 4.89375 10.4307 4.9021 10.4334 5.04951ZM10.35 5.13017L10.3166 4.9911C10.3111 5.00501 10.2916 5.18024 10.286 5.19415L10.35 5.13017ZM10.5225 5.15243C10.6699 5.15243 10.6838 5.17468 10.8006 5.08567H10.5892L10.5225 5.15243ZM10.5725 5.28037L10.4223 5.24421L10.3556 5.30262C10.3639 5.29984 10.5642 5.28315 10.5725 5.28037ZM11.5711 4.00648C11.5961 4.82422 10.9842 5.60302 10.1358 5.59745L10.1386 6.42354C10.1414 6.60155 9.86882 6.60155 9.86882 6.42354L9.86603 5.58911C9.01214 5.6058 8.39744 4.81865 8.41969 4.00091C9.05386 3.98144 9.57398 4.27349 9.86325 4.84369C9.86047 4.47376 10.1331 4.47376 10.1331 4.84369C10.4251 4.27349 10.9452 3.98979 11.5711 4.00648ZM9.28472 4.54886L9.28193 4.76581L9.35703 4.84369C9.35981 4.68793 9.40154 4.64621 9.28472 4.54886ZM9.14843 4.63508C9.15121 4.35694 8.97876 4.31522 8.69505 4.27628C8.73399 4.5572 8.7785 4.73243 9.05386 4.73243C8.80075 4.4821 8.89532 4.38475 9.14843 4.63508ZM9.19015 4.86872H8.97041C9.0622 4.9772 9.11783 4.94104 9.26525 4.94382L9.19015 4.86872ZM9.7214 5.04673L9.68524 5.16633L9.73531 5.22196C9.73253 5.20805 9.72696 5.06064 9.7214 5.04673ZM9.56008 5.04117C9.56286 4.89653 9.58511 4.88541 9.4961 4.76859L9.49054 4.97441L9.56008 5.04117ZM9.5712 5.25534L9.43213 5.29706C9.44048 5.29984 9.62127 5.29706 9.62961 5.29984L9.5712 5.25534ZM9.46829 5.14408L9.40432 5.08011L9.19015 5.07733C9.30975 5.16911 9.32366 5.14408 9.46829 5.14408ZM5.4074 8.94629C5.34065 9.11318 5.09032 9.01305 5.15707 8.84616C5.73561 7.39704 6.94831 6.27612 8.43638 5.80884C8.60605 5.756 8.68671 6.01745 8.51704 6.0703C7.10408 6.51254 5.95813 7.57227 5.4074 8.94629ZM11.5711 6.10089C11.4014 6.04526 11.4876 5.78659 11.6573 5.84222C13.1175 6.33453 14.2941 7.45545 14.8531 8.89067C14.9199 9.05755 14.6668 9.1549 14.6 8.98802C14.0688 7.6279 12.9562 6.56539 11.5711 6.10089ZM14.5555 12.6984C14.6251 12.5316 14.8754 12.6373 14.8059 12.8041C13.9937 14.74 12.0967 16 9.99676 16C7.92738 16 6.05269 14.7762 5.22105 12.882C5.14873 12.7179 5.39906 12.6094 5.46859 12.7735C6.25852 14.5703 8.03307 15.7274 9.99676 15.7274C11.9883 15.7274 13.7851 14.5342 14.5555 12.6984ZM9.39597 13.7081C9.05108 13.4161 8.7924 13.0378 8.60605 12.6289C8.11373 12.4871 7.65202 12.2673 7.25427 11.9641C7.63811 12.857 8.43916 13.5134 9.39597 13.7081ZM8.47532 12.3035C8.33903 11.9113 8.25837 11.4857 8.23612 11.0574C7.79665 10.8961 7.39056 10.668 7.0401 10.3815C7.02063 10.515 7.01229 10.6485 7.01229 10.7876C7.01229 11.0185 7.0401 11.2465 7.09017 11.4607C7.47679 11.8501 7.96076 12.1255 8.47532 12.3035ZM8.22777 10.7654C8.23055 10.337 8.28618 9.91145 8.40022 9.51093C8.0887 9.39132 7.80778 9.23835 7.56857 9.05199C7.35162 9.35517 7.1903 9.70284 7.09851 10.0756C7.42394 10.3648 7.80778 10.5957 8.22777 10.7654ZM8.48366 9.25225C8.67002 8.72378 8.96763 8.22869 9.39597 7.86432C8.81187 7.98392 8.29175 8.27319 7.88566 8.6765C7.83559 8.72934 7.78553 8.78219 7.73824 8.83782C7.94963 9.00471 8.20274 9.14378 8.48366 9.25225ZM9.86047 7.85876C9.31531 8.19531 8.95094 8.74603 8.73956 9.33848C9.0928 9.44695 9.47385 9.51093 9.86047 9.52761V7.85876ZM8.65889 9.59715C8.54486 10.0088 8.49479 10.4371 8.50035 10.8627C8.93426 11.0046 9.39597 11.0824 9.86047 11.0963V9.80019C9.44882 9.78072 9.03717 9.71397 8.65889 9.59715ZM8.51426 11.152C8.54764 11.5887 8.64499 12.017 8.80353 12.4036C9.14564 12.4898 9.50167 12.5399 9.86047 12.551V11.3661C9.40154 11.355 8.94538 11.2827 8.51426 11.152ZM8.95094 12.7151C9.16233 13.1157 9.47385 13.4772 9.86047 13.7137V12.8208C9.55451 12.8125 9.24856 12.7791 8.95094 12.7151ZM10.1331 12.551C10.5002 12.5399 10.8646 12.4898 11.2122 12.398C11.3708 12.0086 11.4654 11.5775 11.4987 11.1381C11.062 11.2799 10.5975 11.355 10.1331 11.3661V12.551ZM11.5377 12.2979C12.0467 12.1199 12.5251 11.8473 12.9034 11.4635C12.9534 11.2465 12.9785 11.0185 12.9785 10.7876C12.9785 10.6291 12.9673 10.4761 12.9451 10.3259C12.603 10.6318 12.208 10.8683 11.7797 11.0379C11.7574 11.4718 11.6767 11.9002 11.5377 12.2979ZM12.7365 11.9697C12.3499 12.2618 11.8965 12.4815 11.4097 12.6233C11.2234 13.0322 10.9647 13.4105 10.6254 13.7025C11.5655 13.5023 12.3554 12.8514 12.7365 11.9697ZM11.0648 12.7096C10.7589 12.7763 10.4474 12.8125 10.1331 12.8208V13.7248C10.5336 13.4856 10.8479 13.1212 11.0648 12.7096ZM10.1331 11.0963C10.6059 11.0824 11.076 11.0018 11.5126 10.8488C11.5182 10.4399 11.4709 10.0255 11.3624 9.63053C10.9814 9.74178 10.5586 9.80019 10.1331 9.80576V11.0963ZM11.7852 10.7431C12.1941 10.5679 12.5668 10.3259 12.8783 10.0144C12.7865 9.66947 12.6336 9.3496 12.4333 9.0659C12.208 9.26616 11.9326 9.4247 11.6211 9.54152C11.7268 9.92814 11.7824 10.3342 11.7852 10.7431ZM10.1331 9.53318C10.5336 9.5304 10.9285 9.47477 11.2846 9.37185C11.0732 8.75716 10.7005 8.18696 10.1331 7.84763V9.53318ZM11.5405 9.28285C11.8214 9.17437 12.0689 9.03252 12.2664 8.85173C12.2163 8.79054 12.1607 8.73213 12.1051 8.6765C11.7073 8.27875 11.1956 7.99226 10.6254 7.86988C11.0565 8.24259 11.3569 8.74603 11.5405 9.28285Z" fill="black"/>
</g>
</svg>
