<svg width="32" height="32" viewBox="0 0 32 32" fill="none" xmlns="http://www.w3.org/2000/svg">
<path d="M27 14.4187C26.3696 14.142 25.6885 13.9994 25 14H7C6.31157 13.9993 5.63051 14.1417 5 14.4181C4.10888 14.8078 3.35058 15.4487 2.81781 16.2624C2.28503 17.0761 2.00085 18.0274 2 19V26C2 26.2652 2.10536 26.5196 2.29289 26.7071C2.48043 26.8946 2.73478 27 3 27C3.26522 27 3.51957 26.8946 3.70711 26.7071C3.89464 26.5196 4 26.2652 4 26V25.5C4.00162 25.3679 4.05482 25.2417 4.14824 25.1482C4.24166 25.0548 4.3679 25.0016 4.5 25H27.5C27.6321 25.0016 27.7583 25.0548 27.8518 25.1482C27.9452 25.2417 27.9984 25.3679 28 25.5V26C28 26.2652 28.1054 26.5196 28.2929 26.7071C28.4804 26.8946 28.7348 27 29 27C29.2652 27 29.5196 26.8946 29.7071 26.7071C29.8946 26.5196 30 26.2652 30 26V19C29.999 18.0275 29.7148 17.0763 29.182 16.2628C28.6493 15.4492 27.891 14.8084 27 14.4187ZM23.5 5H8.5C7.57174 5 6.6815 5.36875 6.02513 6.02513C5.36875 6.6815 5 7.57174 5 8.5V13C5.00003 13.0387 5.00906 13.0769 5.02638 13.1116C5.0437 13.1463 5.06884 13.1764 5.09981 13.1997C5.13078 13.223 5.16674 13.2387 5.20484 13.2457C5.24295 13.2527 5.28216 13.2508 5.31938 13.24C5.86529 13.0803 6.43122 12.9995 7 13H7.26438C7.32608 13.0004 7.38575 12.9779 7.43191 12.937C7.47806 12.896 7.50743 12.8394 7.51438 12.7781C7.56892 12.2895 7.80154 11.8381 8.16781 11.5101C8.53408 11.1821 9.00833 11.0005 9.5 11H13C13.492 11 13.9667 11.1814 14.3334 11.5095C14.7 11.8375 14.9329 12.2892 14.9875 12.7781C14.9944 12.8394 15.0238 12.896 15.07 12.937C15.1161 12.9779 15.1758 13.0004 15.2375 13H16.7663C16.828 13.0004 16.8876 12.9779 16.9338 12.937C16.9799 12.896 17.0093 12.8394 17.0163 12.7781C17.0708 12.2898 17.3031 11.8387 17.669 11.5107C18.0349 11.1828 18.5087 11.001 19 11H22.5C22.992 11 23.4667 11.1814 23.8334 11.5095C24.2 11.8375 24.4329 12.2892 24.4875 12.7781C24.4944 12.8394 24.5238 12.896 24.57 12.937C24.6161 12.9779 24.6758 13.0004 24.7375 13H25C25.5688 12.9997 26.1347 13.0808 26.6806 13.2406C26.7179 13.2514 26.7572 13.2533 26.7953 13.2463C26.8335 13.2393 26.8695 13.2235 26.9004 13.2001C26.9314 13.1768 26.9565 13.1465 26.9738 13.1118C26.9911 13.0771 27.0001 13.0388 27 13V8.5C27 7.57174 26.6313 6.6815 25.9749 6.02513C25.3185 5.36875 24.4283 5 23.5 5Z" fill="#4285F4"/>
</svg>
