<svg width="13" height="12" viewBox="0 0 13 12" fill="none" xmlns="http://www.w3.org/2000/svg">
<g clip-path="url(#clip0_4122_18050)">
<path d="M0.883914 8.36543C0.883258 8.35828 0.882812 8.35106 0.882812 8.34375V6.50391C0.882812 5.45065 1.73971 4.59375 2.79297 4.59375H5.38895C5.5184 4.59375 5.62333 4.69868 5.62333 4.82812C5.62333 4.95757 5.5184 5.0625 5.38895 5.0625H2.79297C1.99818 5.0625 1.35156 5.70912 1.35156 6.50391V8.02465C1.57881 7.90331 1.83112 7.82304 2.09856 7.79377V6.9297C2.09856 6.42998 2.50511 6.02344 3.00482 6.02344H5.64543C5.91163 6.02344 6.15135 6.13884 6.31731 6.3222C6.48325 6.13884 6.72299 6.02344 6.9892 6.02344H9.6298C10.1295 6.02344 10.5361 6.42998 10.5361 6.9297V7.81291C10.7537 7.85135 10.9597 7.92387 11.1484 8.02465V6.50391C11.1484 5.70912 10.5018 5.0625 9.70703 5.0625H7.44531C7.31587 5.0625 7.21094 4.95757 7.21094 4.82812C7.21094 4.69868 7.31587 4.59375 7.44531 4.59375H9.70703C10.7603 4.59375 11.6172 5.45065 11.6172 6.50391V8.34375C11.6172 8.35106 11.6167 8.35828 11.6161 8.36543C12.0067 8.74315 12.25 9.27232 12.25 9.8573V11.7656C12.25 11.895 12.1451 12 12.0156 12H0.484375C0.35493 12 0.25 11.895 0.25 11.7656V9.8573C0.25 9.27232 0.493304 8.74315 0.883914 8.36543ZM6.08291 6.9297C6.08294 6.68845 5.88667 6.49219 5.64543 6.49219H3.0048C2.76355 6.49219 2.56729 6.68845 2.56729 6.9297V7.78125H6.08291V6.9297ZM9.6298 6.49219H6.98917C6.74793 6.49219 6.55166 6.68845 6.55166 6.9297V7.78125H10.0673V6.9297H10.0673C10.0673 6.68845 9.87105 6.49219 9.6298 6.49219ZM0.71875 11.5312H11.7812V9.8573C11.7812 8.97103 11.0602 8.25 10.1739 8.25H6.31729H2.33291H2.32605C1.43978 8.25 0.71875 8.97103 0.71875 9.8573V11.5312Z" fill="#0090FF"/>
<path d="M6.15461 4.66242C6.1982 4.61883 6.25867 4.59375 6.32031 4.59375C6.38195 4.59375 6.44242 4.61883 6.48602 4.66242C6.52961 4.70602 6.55469 4.76648 6.55469 4.82812C6.55469 4.88977 6.52961 4.95023 6.48602 4.99383C6.44242 5.03742 6.38195 5.0625 6.32031 5.0625C6.25867 5.0625 6.1982 5.03742 6.15461 4.99383C6.11101 4.95023 6.08593 4.88977 6.08593 4.82812C6.08593 4.76648 6.11101 4.70602 6.15461 4.66242Z" fill="#0090FF"/>
<path d="M3.59376 9.42188H10.75C10.8794 9.42188 10.9844 9.52683 10.9844 9.65625C10.9844 9.78567 10.8794 9.89062 10.75 9.89062H3.59376C3.46431 9.89062 3.35938 9.78567 3.35938 9.65625C3.35938 9.52683 3.46431 9.42188 3.59376 9.42188Z" fill="#0090FF"/>
<path d="M2.64453 9.42188H2.65039C2.77984 9.42188 2.88477 9.52683 2.88477 9.65625C2.88477 9.78567 2.77984 9.89062 2.65039 9.89062H2.64453C2.51509 9.89062 2.41016 9.78567 2.41016 9.65625C2.41016 9.52683 2.51509 9.42188 2.64453 9.42188Z" fill="#0090FF"/>
<path d="M3.625 0H8.875C9.00445 0 9.10938 0.10493 9.10938 0.234375V3.04688C9.10938 3.17632 9.00445 3.28125 8.875 3.28125H3.625C3.49555 3.28125 3.39062 3.17632 3.39062 3.04688V0.234375C3.39062 0.10493 3.49555 0 3.625 0ZM7.63059 2.81252L6.63742 1.81936L5.73639 2.72039C5.73637 2.72039 5.73637 2.72041 5.73634 2.72044C5.73632 2.72046 5.73632 2.72046 5.7363 2.72048L5.64426 2.81252H7.63059ZM4.98133 2.8125L5.23914 2.55469L4.84405 2.15958L4.19113 2.8125H4.98133ZM3.85938 2.48133L4.6783 1.6624C4.76983 1.57088 4.91823 1.57088 5.00978 1.6624L5.57062 2.22323L6.4717 1.32216C6.56322 1.23063 6.71163 1.23063 6.80317 1.32216L8.29352 2.8125H8.64062V0.46875H3.85938V2.48133Z" fill="#0090FF"/>
<path d="M7.84961 0.949219H8.0957C8.22515 0.949219 8.33008 1.05415 8.33008 1.18359C8.33008 1.31304 8.22515 1.41797 8.0957 1.41797H7.84961C7.72016 1.41797 7.61523 1.31304 7.61523 1.18359C7.61523 1.05415 7.72016 0.949219 7.84961 0.949219Z" fill="#0090FF"/>
<path d="M5.57617 0.667969H5.82227C5.95171 0.667969 6.05664 0.772898 6.05664 0.902344C6.05664 1.03179 5.95171 1.13672 5.82227 1.13672H5.57617C5.44673 1.13672 5.3418 1.03179 5.3418 0.902344C5.3418 0.772898 5.44673 0.667969 5.57617 0.667969Z" fill="#0090FF"/>
</g>
<defs>
<clipPath id="clip0_4122_18050">
<rect width="12" height="12" fill="white" transform="matrix(-1 0 0 1 12.25 0)"/>
</clipPath>
</defs>
</svg>
