<svg width="16" height="13" viewBox="0 0 16 13" fill="none" xmlns="http://www.w3.org/2000/svg">
<g id="Vector">
<path d="M7.91553 1.01113C5.12335 1.01113 2.85987 3.27461 2.85987 6.06678C2.85987 8.85896 5.12335 11.1224 7.91553 11.1224C10.7077 11.1224 12.9712 8.85896 12.9712 6.06678C12.968 3.27594 10.7064 1.01432 7.91553 1.01113ZM7.91553 10.6169C5.40258 10.6169 3.36544 8.57973 3.36544 6.06678C3.36544 3.55384 5.40258 1.5167 7.91553 1.5167C10.4285 1.5167 12.4656 3.55384 12.4656 6.06678C12.4627 8.57853 10.4273 10.6139 7.91553 10.6169Z" fill="#0090FF"/>
<path d="M15.1155 0.0480301C14.8837 -0.0485961 14.6164 0.00455148 14.4391 0.18251C13.8209 0.797562 13.4744 1.6343 13.4767 2.50634V5.814C13.4781 6.13421 13.6804 6.4191 13.9823 6.52584V11.3752C13.9823 11.794 14.3218 12.1336 14.7406 12.1336C15.1595 12.1336 15.499 11.794 15.499 11.3752V0.621594C15.4995 0.370265 15.348 0.143614 15.1155 0.0480301ZM14.9934 11.3752C14.9934 11.5148 14.8802 11.628 14.7406 11.628C14.6011 11.628 14.4879 11.5148 14.4879 11.3752V6.57235H14.9934V11.3752ZM14.9934 6.06678H14.2351C14.0955 6.06678 13.9823 5.9536 13.9823 5.814V2.50634C13.9804 1.7685 14.2737 1.06055 14.7968 0.540198C14.8171 0.518395 14.8456 0.505883 14.8754 0.505567C14.8916 0.505756 14.9075 0.509106 14.9224 0.515425C14.9664 0.532045 14.995 0.574829 14.9934 0.621847V6.06678Z" fill="#0090FF"/>
<path d="M5.89326 4.29731C5.33483 4.29731 4.88213 4.75001 4.88213 5.30844C4.88213 5.86687 5.33483 6.31957 5.89326 6.31957C6.45169 6.31957 6.90439 5.86687 6.90439 5.30844C6.90439 4.75001 6.45169 4.29731 5.89326 4.29731ZM5.89326 5.814C5.61403 5.814 5.3877 5.58767 5.3877 5.30844C5.3877 5.02921 5.61403 4.80287 5.89326 4.80287C6.17249 4.80287 6.39883 5.02921 6.39883 5.30844C6.39883 5.58767 6.17249 5.814 5.89326 5.814Z" fill="#0090FF"/>
<path d="M7.93725 4.46718L7.49286 4.02279C7.43952 3.96973 7.40966 3.89753 7.40994 3.82233C7.40937 3.38685 7.05649 3.03396 6.62101 3.03339H5.60988C5.40073 3.03393 5.20027 3.11694 5.05199 3.26444L4.10203 4.2144C3.95358 4.36202 3.87039 4.56292 3.87099 4.77229V5.84459C3.87039 6.05396 3.95358 6.25486 4.10203 6.40248L4.54642 6.84687C4.59976 6.89993 4.62962 6.97213 4.62933 7.04733C4.6299 7.48281 4.98279 7.8357 5.41827 7.83627H5.92383C6.13298 7.83573 6.33344 7.75269 6.48172 7.60522L7.1789 6.90805C7.23224 6.85515 7.30425 6.82536 7.37936 6.82513C7.81484 6.82457 8.16772 6.47168 8.16829 6.0362V5.02507C8.16889 4.8157 8.08569 4.6148 7.93725 4.46718ZM7.66272 6.0362C7.6626 6.19264 7.5358 6.31944 7.37936 6.31957C7.17021 6.32011 6.96975 6.40311 6.82146 6.55061L6.12429 7.24779C6.07095 7.30068 5.99894 7.33048 5.92383 7.3307H5.41827C5.26183 7.33057 5.13503 7.20377 5.1349 7.04733C5.1355 6.83796 5.0523 6.63706 4.90386 6.48944L4.45946 6.04505C4.40613 5.99199 4.37627 5.91979 4.37655 5.84459V4.77229C4.3763 4.69708 4.40613 4.62488 4.45946 4.57183L5.40942 3.62187C5.46276 3.56898 5.53477 3.53918 5.60988 3.53896H6.62101C6.77745 3.53909 6.90425 3.66589 6.90438 3.82233C6.90378 4.0317 6.98697 4.23259 7.13542 4.38022L7.57981 4.82461C7.63315 4.87767 7.66301 4.94987 7.66272 5.02507V6.0362Z" fill="#0090FF"/>
<path d="M10.3693 6.64642L9.35813 5.63529C9.25938 5.53657 9.09934 5.53661 9.00063 5.63535C8.95326 5.68275 8.92663 5.74702 8.92663 5.814V6.31957C8.92663 6.45917 8.81344 6.57235 8.67384 6.57235C8.25501 6.57235 7.9155 6.91187 7.9155 7.3307C7.9155 7.4703 7.80231 7.58348 7.66271 7.58348C7.24388 7.58348 6.90437 7.923 6.90437 8.34183C6.90437 8.48143 6.79118 8.59461 6.65158 8.59461H6.14602C6.00642 8.59464 5.89327 8.70783 5.8933 8.84746C5.8933 8.91448 5.91994 8.97871 5.9673 9.02611L6.97843 10.0372C7.02583 10.0846 7.0901 10.1113 7.15715 10.1113H7.66271C8.08154 10.1113 8.42106 9.77179 8.42106 9.35296C8.42106 9.21336 8.53424 9.10018 8.67384 9.10018C9.09267 9.10018 9.43219 8.76066 9.43219 8.34183C9.43219 8.20223 9.54537 8.08905 9.68497 8.08905C10.1038 8.08905 10.4433 7.74953 10.4433 7.3307V6.82513C10.4433 6.75808 10.4167 6.69381 10.3693 6.64642ZM9.93776 7.3307C9.93776 7.4703 9.82457 7.58348 9.68497 7.58348C9.26614 7.58348 8.92663 7.923 8.92663 8.34183C8.92663 8.48143 8.81344 8.59461 8.67384 8.59461C8.25501 8.59461 7.9155 8.93413 7.9155 9.35296C7.9155 9.49256 7.80231 9.60574 7.66271 9.60574H7.2618L6.74992 9.09386C7.12754 9.04447 7.40996 8.72268 7.40993 8.34183C7.40993 8.20223 7.52311 8.08905 7.66271 8.08905C8.08154 8.08905 8.42106 7.74953 8.42106 7.3307C8.42106 7.1911 8.53424 7.07792 8.67384 7.07792C9.05469 7.07795 9.37648 6.79553 9.42587 6.4179L9.93776 6.92979V7.3307Z" fill="#0090FF"/>
<path d="M11.6766 4.66738L11.6332 4.62415L9.31464 2.30588C8.93664 1.92804 8.32392 1.92813 7.94608 2.30614C7.56823 2.68411 7.56836 3.29685 7.94633 3.6747L7.98981 3.71793L10.3083 6.03619C10.6863 6.41404 11.299 6.41392 11.6769 6.03594C12.0547 5.65794 12.0546 5.04522 11.6766 4.66738ZM8.3346 2.63501C8.41736 2.56603 8.52163 2.52811 8.62935 2.52783H8.63036C8.75283 2.52821 8.87025 2.5768 8.95721 2.66306L9.58032 3.28617H8.27545C8.11197 3.09001 8.13844 2.79849 8.3346 2.63501ZM8.77849 3.79174H10.0859L10.8442 4.55009H9.53684L8.77849 3.79174ZM11.2881 5.70682C11.2054 5.7758 11.1011 5.81371 10.9934 5.814H10.9924C10.8698 5.81359 10.7524 5.76493 10.6655 5.67851L10.0424 5.05565H11.3473C11.5108 5.25181 11.4843 5.54333 11.2881 5.70682Z" fill="#0090FF"/>
<path d="M2.35429 0V2.02226H1.84873V0H1.34316V2.02226H0.837597V0H0.332031V3.28617C0.333264 3.68187 0.520512 4.05397 0.837597 4.29073V11.3752C0.837597 11.794 1.17712 12.1336 1.59594 12.1336C2.01477 12.1336 2.35429 11.794 2.35429 11.3752V4.29073C2.67138 4.05397 2.85863 3.68187 2.85986 3.28617V0H2.35429ZM1.84873 11.3752C1.84873 11.5148 1.73554 11.628 1.59594 11.628C1.45635 11.628 1.34316 11.5148 1.34316 11.3752V4.55009H1.84873V11.3752ZM2.35429 3.28617C2.35429 3.705 2.01477 4.04452 1.59594 4.04452C1.17712 4.04452 0.837597 3.705 0.837597 3.28617V2.52783H2.35429V3.28617Z" fill="#0090FF"/>
</g>
</svg>
