<svg width="16" height="16" viewBox="0 0 16 16" fill="none" xmlns="http://www.w3.org/2000/svg">
<g id="icon-park-outline:cake-two">
<g id="Group">
<path id="Vector" d="M13 6.09375L10.2056 3L3.3125 6.09375V9.875H13V6.09375Z" stroke="black" stroke-width="1.25" stroke-linecap="round" stroke-linejoin="round"/>
<path id="Vector_2" d="M3.3125 6.125H8.74562C8.76531 6.125 8.78125 6.14094 8.78125 6.16063V7.25781C8.78125 7.3758 8.80449 7.49263 8.84964 7.60163C8.89479 7.71063 8.96097 7.80968 9.0444 7.8931C9.12782 7.97653 9.22687 8.04271 9.33587 8.08786C9.44487 8.13301 9.5617 8.15625 9.67969 8.15625C9.79767 8.15625 9.9145 8.13301 10.0235 8.08786C10.1325 8.04271 10.2316 7.97653 10.315 7.8931C10.3984 7.80968 10.4646 7.71063 10.5097 7.60163C10.5549 7.49263 10.5781 7.3758 10.5781 7.25781V6.16063C10.5781 6.14094 10.5941 6.125 10.6137 6.125H13" stroke="black" stroke-width="1.25" stroke-linecap="round" stroke-linejoin="round"/>
<path id="Vector_3" d="M3.46875 7.98657C3.28063 8.08053 3.10583 8.18011 2.94438 8.28532C2.19312 8.77532 1.75 9.37876 1.75 10.0313C1.75 11.6709 4.54813 13 8 13C11.4519 13 14.25 11.6709 14.25 10.0313C14.25 9.36251 13.785 8.74595 13 8.2497" stroke="black" stroke-width="1.25"/>
</g>
</g>
</svg>
