<svg width="35" height="35" viewBox="0 0 35 35" fill="none" xmlns="http://www.w3.org/2000/svg">
<path d="M17.1836 30.3672C24.4647 30.3672 30.3672 24.4647 30.3672 17.1836C30.3672 9.9025 24.4647 4 17.1836 4C9.9025 4 4 9.9025 4 17.1836C4 24.4647 9.9025 30.3672 17.1836 30.3672Z" fill="#5CB154" stroke="white" stroke-width="8"/>
<path d="M16.9167 16.9583C17.0535 16.9583 17.1889 16.9314 17.3153 16.879C17.4417 16.8267 17.5565 16.75 17.6532 16.6532C17.75 16.5565 17.8267 16.4417 17.879 16.3153C17.9314 16.1889 17.9583 16.0535 17.9583 15.9167C17.9583 15.6404 17.8486 15.3754 17.6532 15.1801C17.4579 14.9847 17.1929 14.875 16.9167 14.875C16.6404 14.875 16.3754 14.9847 16.1801 15.1801C15.9847 15.3754 15.875 15.6404 15.875 15.9167C15.875 16.0535 15.9019 16.1889 15.9543 16.3153C16.0066 16.4417 16.0834 16.5565 16.1801 16.6532C16.3754 16.8486 16.6404 16.9583 16.9167 16.9583ZM16.9167 13C18.525 13 19.8333 14.3042 19.8333 15.9167C19.8333 18.1042 16.9167 21.3333 16.9167 21.3333C16.9167 21.3333 14 18.1042 14 15.9167C14 15.1431 14.3073 14.4013 14.8543 13.8543C15.4013 13.3073 16.1431 13 16.9167 13Z" fill="white"/>
</svg>
