<svg width="24" height="22" viewBox="0 0 24 22" fill="none" xmlns="http://www.w3.org/2000/svg">
<path d="M12.0557 1.19727C12.0557 0.828125 12.3039 0.5 12.7178 0.5C17.8076 0.5 21.9871 4.64258 21.9871 9.6875C21.9871 10.0566 21.6561 10.3438 21.2836 10.3438H12.0557V1.19727ZM0.799988 11.6562C0.799988 6.69336 4.52429 2.5918 9.3245 1.93555C9.73831 1.85352 10.0694 2.18164 10.0694 2.55078V12.3125L16.5248 18.752C16.8145 19.0391 16.7731 19.4902 16.4834 19.6953C14.8282 20.8438 12.8419 21.5 10.7315 21.5C5.22777 21.5 0.799988 17.1113 0.799988 11.6562ZM22.5665 12.3125C22.9389 12.3125 23.2699 12.6406 23.1872 13.0098C22.8975 15.3066 21.7802 17.3574 20.125 18.875C19.8767 19.0801 19.5043 19.0801 19.256 18.834L12.7178 12.3125H22.5665Z" fill="#42A68E"/>
</svg>
