<svg width="16" height="16" viewBox="0 0 16 16" fill="none" xmlns="http://www.w3.org/2000/svg">
<path d="M11.2 2.19998C11.2 2.04085 11.2632 1.88823 11.3757 1.77571C11.4882 1.66319 11.6408 1.59998 11.8 1.59998H13.8C13.9591 1.59998 14.1117 1.66319 14.2242 1.77571C14.3368 1.88823 14.4 2.04085 14.4 2.19998V4.19998C14.4 4.35911 14.3368 4.51172 14.2242 4.62424C14.1117 4.73676 13.9591 4.79998 13.8 4.79998C13.6408 4.79998 13.4882 4.73676 13.3757 4.62424C13.2632 4.51172 13.2 4.35911 13.2 4.19998V3.64798L9.62398 7.22398C9.51148 7.33634 9.35898 7.39945 9.19998 7.39945C9.04098 7.39945 8.88848 7.33634 8.77598 7.22398L6.79998 5.24798L3.42398 8.62397C3.36905 8.68292 3.30281 8.73021 3.22921 8.763C3.15561 8.79579 3.07616 8.81343 2.99559 8.81485C2.91503 8.81627 2.83501 8.80145 2.7603 8.77127C2.68559 8.7411 2.61772 8.69618 2.56075 8.63921C2.50377 8.58223 2.45886 8.51436 2.42868 8.43965C2.3985 8.36494 2.38368 8.28492 2.3851 8.20436C2.38652 8.1238 2.40416 8.04434 2.43695 7.97074C2.46975 7.89715 2.51703 7.8309 2.57598 7.77598L6.37598 3.97598C6.48848 3.86361 6.64098 3.8005 6.79998 3.8005C6.95898 3.8005 7.11148 3.86361 7.22398 3.97598L9.19998 5.95198L12.352 2.79998H11.8C11.6408 2.79998 11.4882 2.73676 11.3757 2.62424C11.2632 2.51172 11.2 2.35911 11.2 2.19998ZM2.99998 11.2C3.15911 11.2 3.31172 11.2632 3.42424 11.3757C3.53676 11.4882 3.59998 11.6408 3.59998 11.8V13.8C3.59998 13.9591 3.53676 14.1117 3.42424 14.2242C3.31172 14.3368 3.15911 14.4 2.99998 14.4C2.84085 14.4 2.68823 14.3368 2.57571 14.2242C2.46319 14.1117 2.39998 13.9591 2.39998 13.8V11.8C2.39998 11.6408 2.46319 11.4882 2.57571 11.3757C2.68823 11.2632 2.84085 11.2 2.99998 11.2ZM6.79998 9.39998C6.79998 9.24085 6.73676 9.08823 6.62424 8.97571C6.51172 8.86319 6.35911 8.79998 6.19998 8.79998C6.04085 8.79998 5.88823 8.86319 5.77571 8.97571C5.66319 9.08823 5.59998 9.24085 5.59998 9.39998V13.8C5.59998 13.9591 5.66319 14.1117 5.77571 14.2242C5.88823 14.3368 6.04085 14.4 6.19998 14.4C6.35911 14.4 6.51172 14.3368 6.62424 14.2242C6.73676 14.1117 6.79998 13.9591 6.79998 13.8V9.39998ZM9.39998 10.4C9.55911 10.4 9.71172 10.4632 9.82424 10.5757C9.93676 10.6882 9.99998 10.8408 9.99998 11V13.8C9.99998 13.9591 9.93676 14.1117 9.82424 14.2242C9.71172 14.3368 9.55911 14.4 9.39998 14.4C9.24085 14.4 9.08823 14.3368 8.97571 14.2242C8.86319 14.1117 8.79998 13.9591 8.79998 13.8V11C8.79998 10.8408 8.86319 10.6882 8.97571 10.5757C9.08823 10.4632 9.24085 10.4 9.39998 10.4ZM13.2 7.79998C13.2 7.64085 13.1368 7.48823 13.0242 7.37571C12.9117 7.26319 12.7591 7.19998 12.6 7.19998C12.4408 7.19998 12.2882 7.26319 12.1757 7.37571C12.0632 7.48823 12 7.64085 12 7.79998V13.8C12 13.9591 12.0632 14.1117 12.1757 14.2242C12.2882 14.3368 12.4408 14.4 12.6 14.4C12.7591 14.4 12.9117 14.3368 13.0242 14.2242C13.1368 14.1117 13.2 13.9591 13.2 13.8V7.79998Z" fill="#42A68E"/>
</svg>
