<svg width="18" height="18" viewBox="0 0 18 18" fill="none" xmlns="http://www.w3.org/2000/svg">
<g id="checkbox / checked" clip-path="url(#clip0_432_90)">
<path id="Vector" d="M18 4.5C18 3.30653 17.5259 2.16193 16.682 1.31802C15.8381 0.474106 14.6935 0 13.5 0H4.5C3.30653 0 2.16193 0.474106 1.31802 1.31802C0.474106 2.16193 0 3.30653 0 4.5L0 13.5C0 14.6935 0.474106 15.8381 1.31802 16.682C2.16193 17.5259 3.30653 18 4.5 18H13.5C14.6935 18 15.8381 17.5259 16.682 16.682C17.5259 15.8381 18 14.6935 18 13.5V4.5ZM13.7764 5.02971C13.8759 5.10806 13.959 5.20528 14.0208 5.31581C14.0827 5.42634 14.1221 5.54799 14.1368 5.67379C14.1515 5.79958 14.1412 5.92704 14.1065 6.04885C14.0718 6.17065 14.0134 6.2844 13.9346 6.38357L8.87914 12.771C8.75648 12.9584 8.59597 13.1181 8.40792 13.2398C8.21987 13.3615 8.00844 13.4425 7.78721 13.4776C7.56599 13.5127 7.33987 13.5012 7.12337 13.4437C6.90688 13.3862 6.70481 13.2841 6.53014 13.1439L4.23257 11.3709C4.03002 11.2147 3.89781 10.9844 3.86502 10.7308C3.83222 10.4771 3.90154 10.2208 4.05771 10.0183C4.21389 9.81574 4.44413 9.68352 4.69779 9.65073C4.95144 9.61794 5.20774 9.68725 5.41029 9.84343L7.22314 11.2436C7.29059 11.2947 7.37541 11.3173 7.45934 11.3064C7.54327 11.2956 7.61959 11.2523 7.67186 11.1857L12.429 5.18529C12.5875 4.98657 12.8181 4.85866 13.0706 4.82951C13.3231 4.80036 13.5769 4.87234 13.7764 5.02971Z" fill="#29ABE2"/>
<path id="Vector_2" d="M14.021 5.3159C13.9591 5.20537 13.8761 5.10814 13.7766 5.0298C13.577 4.87242 13.3232 4.80044 13.0707 4.82959C12.8183 4.85874 12.5876 4.98665 12.4291 5.18537L7.67198 11.1858C7.61971 11.2524 7.54339 11.2957 7.45946 11.3065C7.37553 11.3173 7.29071 11.2948 7.22327 11.2437L5.41041 9.84351C5.20786 9.68734 4.95157 9.61802 4.69791 9.65082C4.44425 9.68361 4.21401 9.81582 4.05784 10.0184C3.90166 10.2209 3.83235 10.4772 3.86514 10.7309C3.89793 10.9845 4.03015 11.2148 4.2327 11.3709L6.53027 13.1439C6.70494 13.2842 6.90701 13.3863 7.1235 13.4438C7.33999 13.5013 7.56611 13.5128 7.78734 13.4777C8.00856 13.4426 8.21999 13.3616 8.40804 13.2399C8.59609 13.1182 8.75661 12.9585 8.87927 12.7711L13.9347 6.38366C14.0135 6.28449 14.0719 6.17074 14.1066 6.04893C14.1413 5.92713 14.1516 5.79967 14.1369 5.67387C14.1222 5.54808 14.0828 5.42642 14.021 5.3159Z" fill="white"/>
</g>
<defs>
<clipPath id="clip0_432_90">
<rect width="18" height="18" fill="white"/>
</clipPath>
</defs>
</svg>
