<svg width="16" height="16" viewBox="0 0 16 16" fill="none" xmlns="http://www.w3.org/2000/svg">
<g id="hugeicons:chocolate">
<g id="Group">
<path id="Vector" d="M10.6249 9.68065L6.31931 5.3744C6.03056 5.08565 5.88618 4.94127 5.70806 4.89565C5.6425 4.8781 5.57453 4.87134 5.50681 4.87565C5.32306 4.88565 5.15306 4.99877 4.81306 5.22565L4.72618 5.28377C4.03681 5.74315 3.69243 5.97252 3.63806 6.24502C3.60868 6.39127 3.62931 6.54315 3.69556 6.67627C3.82056 6.92502 4.21306 7.05565 4.99868 7.31815C5.25118 7.4019 5.37743 7.4444 5.47368 7.5244C5.52785 7.56856 5.57389 7.62065 5.61181 7.68065C5.67931 7.78627 5.70556 7.91627 5.75743 8.17752L5.92618 9.02127C6.01118 9.44627 6.05368 9.65877 6.19743 9.80252C6.34118 9.94627 6.55368 9.98877 6.97868 10.0738L7.82243 10.2425C8.08368 10.2944 8.21368 10.3206 8.31993 10.3881C8.3791 10.4256 8.43118 10.4715 8.47618 10.5256C8.55556 10.6225 8.59806 10.7488 8.68243 11.0013C8.94368 11.7869 9.07493 12.18 9.32306 12.3044C9.45681 12.3706 9.60868 12.3913 9.75431 12.3619C10.0268 12.3075 10.2568 11.9631 10.7168 11.2738L10.7743 11.1863C11.0012 10.8469 11.1143 10.6763 11.1243 10.4925C11.1285 10.4252 11.1217 10.3577 11.1043 10.2925C11.0587 10.1138 10.9143 9.9694 10.6256 9.68002" stroke="black" stroke-width="0.9375" stroke-linecap="round" stroke-linejoin="round"/>
<path id="Vector_2" d="M8.9375 11.75L7.82875 12.91C6.935 13.8038 6.4875 14.25 5.93312 14.25C5.37875 14.25 4.93125 13.8031 4.03812 12.91L3.09 11.9619C2.19625 11.0688 1.75 10.6219 1.75 10.0669C1.75 9.51188 2.19688 9.065 3.09 8.17125L4.25 7.0625M6.125 5.3175L8.40375 3.03875C9.2625 2.17937 9.6925 1.75 10.2269 1.75C10.7606 1.75 11.19 2.17937 12.0494 3.03875L12.9612 3.95062C13.8206 4.81 14.25 5.23938 14.25 5.77313C14.25 6.30688 13.8206 6.73688 12.9612 7.59625L10.6825 9.875M12.75 3.25L8.25 7.75M8 3L13 8" stroke="black" stroke-width="0.9375" stroke-linecap="round" stroke-linejoin="round"/>
</g>
</g>
</svg>
