<svg width="16" height="16" viewBox="0 0 16 16" fill="none" xmlns="http://www.w3.org/2000/svg">
<g id="material-symbols:cookie-outline">
<path id="Vector" d="M8 14.25C7.13542 14.25 6.32292 14.0858 5.5625 13.7575C4.80208 13.4292 4.14062 12.984 3.57813 12.4219C3.01563 11.8598 2.57042 11.1983 2.2425 10.4375C1.91458 9.67667 1.75042 8.86417 1.75 8C1.75 7.21875 1.90104 6.45312 2.20312 5.70312C2.50521 4.95312 2.92708 4.28375 3.46875 3.695C4.01042 3.10625 4.66146 2.63229 5.42188 2.27312C6.18229 1.91396 7.01562 1.73437 7.92188 1.73438C8.14062 1.73438 8.36458 1.74479 8.59375 1.76563C8.82292 1.78646 9.05729 1.82292 9.29688 1.875C9.20312 2.34375 9.23438 2.78646 9.39062 3.20312C9.54688 3.61979 9.78125 3.96604 10.0938 4.24188C10.4062 4.51771 10.7788 4.70792 11.2113 4.8125C11.6438 4.91708 12.089 4.89104 12.5469 4.73438C12.276 5.34896 12.3152 5.9375 12.6644 6.5C13.0135 7.0625 13.5317 7.35417 14.2188 7.375C14.2292 7.48958 14.2371 7.59625 14.2425 7.695C14.2479 7.79375 14.2504 7.90062 14.25 8.01562C14.25 8.86979 14.0858 9.67438 13.7575 10.4294C13.4292 11.1844 12.984 11.8458 12.4219 12.4137C11.8598 12.9817 11.1983 13.4296 10.4375 13.7575C9.67667 14.0854 8.86417 14.2496 8 14.25ZM7.0625 6.75C7.32292 6.75 7.54437 6.65896 7.72687 6.47687C7.90937 6.29479 8.00042 6.07333 8 5.8125C7.99958 5.55167 7.90854 5.33042 7.72687 5.14875C7.54521 4.96708 7.32375 4.87583 7.0625 4.875C6.80125 4.87417 6.58 4.96542 6.39875 5.14875C6.2175 5.33208 6.12625 5.55333 6.125 5.8125C6.12375 6.07167 6.215 6.29312 6.39875 6.47687C6.5825 6.66062 6.80375 6.75167 7.0625 6.75ZM5.8125 9.875C6.07292 9.875 6.29437 9.78396 6.47687 9.60187C6.65937 9.41979 6.75042 9.19833 6.75 8.9375C6.74958 8.67667 6.65854 8.45542 6.47687 8.27375C6.29521 8.09208 6.07375 8.00083 5.8125 8C5.55125 7.99917 5.33 8.09042 5.14875 8.27375C4.9675 8.45708 4.87625 8.67833 4.875 8.9375C4.87375 9.19667 4.965 9.41812 5.14875 9.60187C5.3325 9.78562 5.55375 9.87667 5.8125 9.875ZM9.875 10.5C10.0521 10.5 10.2006 10.44 10.3206 10.32C10.4406 10.2 10.5004 10.0517 10.5 9.875C10.4996 9.69833 10.4396 9.55 10.32 9.43C10.2004 9.31 10.0521 9.25 9.875 9.25C9.69792 9.25 9.54958 9.31 9.43 9.43C9.31042 9.55 9.25042 9.69833 9.25 9.875C9.24958 10.0517 9.30958 10.2002 9.43 10.3206C9.55042 10.441 9.69875 10.5008 9.875 10.5ZM8 13C9.27083 13 10.3985 12.5625 11.3831 11.6875C12.3677 10.8125 12.9067 9.69792 13 8.34375C12.4792 8.11458 12.0702 7.80208 11.7731 7.40625C11.476 7.01042 11.2756 6.56771 11.1719 6.07812C10.3698 5.96354 9.68229 5.61979 9.10938 5.04688C8.53646 4.47396 8.18229 3.78646 8.04688 2.98437C7.21354 2.96354 6.48187 3.11458 5.85187 3.4375C5.22187 3.76042 4.69563 4.17458 4.27313 4.68C3.85063 5.18542 3.53292 5.73479 3.32 6.32812C3.10708 6.92146 3.00042 7.47875 3 8C3 9.38542 3.48708 10.5652 4.46125 11.5394C5.43542 12.5135 6.615 13.0004 8 13Z" fill="black"/>
</g>
</svg>
