<svg width="17" height="16" viewBox="0 0 17 16" fill="none" xmlns="http://www.w3.org/2000/svg">
<path d="M6.16918 13.9724H6.64865L8.35262 11.2831L7.35302 9.70568H4.53572C4.42316 9.70568 4.33208 9.61027 4.33208 9.49235V8.85235C4.33208 8.73443 4.42316 8.63901 4.53572 8.63901H7.74843L7.59581 7.16883C7.58965 7.10861 7.60813 7.0484 7.64672 7.00322C7.68531 6.95821 7.74039 6.9324 7.79827 6.9324H8.12674L7.64575 6.1372C7.58547 6.03762 7.61373 5.90594 7.70878 5.8428C7.80403 5.77928 7.92972 5.80925 7.98979 5.90882L8.27972 6.38813V5.86568C8.27972 5.74776 8.3708 5.65234 8.48336 5.65234C8.59592 5.65234 8.68699 5.74776 8.68699 5.86568V6.47954L9.03221 5.90882C9.09228 5.80946 9.21793 5.77944 9.31323 5.8428C9.40827 5.90594 9.43653 6.03757 9.37625 6.1372L8.89526 6.9324H9.22373C9.28161 6.9324 9.3367 6.95821 9.37529 7.00322C9.41387 7.04845 9.43235 7.10867 9.42619 7.16883L9.27357 8.63901H12.4819C12.5945 8.63901 12.6855 8.73443 12.6855 8.85235V9.49235C12.6855 9.61027 12.5945 9.70568 12.4819 9.70568H9.8408L8.8413 11.2831L10.5454 13.9724H11.0246C11.1372 13.9724 11.2283 14.0678 11.2283 14.1857C11.2283 14.3036 11.1372 14.399 11.0246 14.399H10.4362C10.368 14.399 10.3043 14.3632 10.2666 14.3036L8.59694 11.6688L6.92742 14.3036C6.88965 14.3632 6.82601 14.399 6.75779 14.399H6.16918C6.05662 14.399 5.96555 14.3036 5.96555 14.1857C5.96555 14.0678 6.05662 13.9724 6.16918 13.9724ZM8.99683 7.35901H8.02518L8.1582 8.63901H8.8638L8.99683 7.35901ZM12.2783 9.06568H9.04657H7.97549H4.7394V9.27901H12.2783V9.06568ZM9.35207 9.70568H7.8417L8.59694 10.8975L9.35207 9.70568Z" fill="#0090FF"/>
<path d="M2.70718 7.14844C2.81974 7.14844 2.91082 7.24385 2.91082 7.36177V10.3484H4.74354C5.30491 10.3484 5.76172 10.827 5.76172 11.4151C5.76172 11.533 5.67064 11.6284 5.55808 11.6284H5.35445V14.1884C5.35445 14.3064 5.26337 14.4018 5.15081 14.4018C5.03825 14.4018 4.94718 14.3064 4.94718 14.1884V11.6284H2.91082V14.1884C2.91082 14.3064 2.81974 14.4018 2.70718 14.4018C2.59462 14.4018 2.50354 14.3064 2.50354 14.1884V11.4151V10.5618V7.36177C2.50354 7.24385 2.59462 7.14844 2.70718 7.14844ZM5.31962 11.2018C5.23552 10.9535 5.00898 10.7751 4.74354 10.7751H2.91082V11.2018H5.31962Z" fill="#0090FF"/>
<path d="M12.4827 10.3484H14.3154V7.36177C14.3154 7.24385 14.4065 7.14844 14.519 7.14844C14.6316 7.14844 14.7227 7.24385 14.7227 7.36177V10.5618V11.4151V14.1884C14.7227 14.3064 14.6316 14.4018 14.519 14.4018C14.4065 14.4018 14.3154 14.3064 14.3154 14.1884V11.6284H12.279V14.1884C12.279 14.3064 12.1879 14.4018 12.0754 14.4018C11.9628 14.4018 11.8717 14.3064 11.8717 14.1884V11.6284H11.6681C11.5556 11.6284 11.4645 11.533 11.4645 11.4151C11.4645 10.827 11.9213 10.3484 12.4827 10.3484ZM14.3154 10.7751H12.4827C12.2172 10.7751 11.9907 10.9535 11.9066 11.2018H14.3154V10.7751Z" fill="#0090FF"/>
<path d="M11.6674 2.88156H11.6123C11.4837 3.25996 11.1376 3.52156 10.751 3.52156C10.3644 3.52156 10.0181 3.25996 9.88967 2.88156H9.37213C9.24384 3.2622 8.90438 3.52156 8.511 3.52156C8.12048 3.52156 7.7773 3.25858 7.64942 2.88156H7.33531C7.20691 3.26146 6.86552 3.52156 6.47464 3.52156C6.08411 3.52156 5.74094 3.25858 5.61305 2.88156H5.35464C4.79326 2.88156 4.33646 2.403 4.33646 1.8149C4.33646 1.69698 4.42753 1.60156 4.54009 1.60156H12.4819C12.5945 1.60156 12.6855 1.69698 12.6855 1.8149C12.6855 2.403 12.2287 2.88156 11.6674 2.88156ZM10.751 3.0949C10.913 3.0949 11.0622 3.01202 11.1567 2.88156H10.3454C10.4398 3.01202 10.589 3.0949 10.751 3.0949ZM8.511 3.0949C8.67595 3.0949 8.82333 3.01228 8.917 2.88156H8.10602C8.20005 3.01143 8.34769 3.0949 8.511 3.0949ZM6.47464 3.0949C6.63846 3.0949 6.78641 3.01218 6.88038 2.88156H6.06966C6.16369 3.01143 6.31132 3.0949 6.47464 3.0949ZM4.77855 2.02823C4.86265 2.27655 5.0892 2.4549 5.35464 2.4549H11.6674C11.9329 2.4549 12.1594 2.27655 12.2435 2.02823H4.77855Z" fill="#0090FF"/>
</svg>
