<svg width="20" height="20" viewBox="0 0 20 20" fill="none" xmlns="http://www.w3.org/2000/svg">
<g id="material-symbols:egg-outline">
<path id="Vector" d="M9.99996 17.5C8.37496 17.5 6.99663 16.9342 5.86496 15.8025C4.73329 14.6708 4.16718 13.2922 4.16663 11.6667C4.16663 10.5972 4.34385 9.52083 4.69829 8.4375C5.05274 7.35417 5.51107 6.37167 6.07329 5.49C6.63552 4.60833 7.26385 3.88945 7.95829 3.33333C8.65274 2.77722 9.33329 2.49945 9.99996 2.5C10.6805 2.5 11.3647 2.77778 12.0525 3.33333C12.7402 3.88889 13.3652 4.60778 13.9275 5.49C14.4897 6.37222 14.948 7.35472 15.3025 8.4375C15.6569 9.52028 15.8338 10.5967 15.8333 11.6667C15.8333 13.2917 15.2675 14.6703 14.1358 15.8025C13.0041 16.9347 11.6255 17.5006 9.99996 17.5ZM9.99996 15.8333C11.1527 15.8333 12.1355 15.4269 12.9483 14.6142C13.7611 13.8014 14.1672 12.8189 14.1666 11.6667C14.1666 10.875 14.0311 10.0417 13.76 9.16667C13.4888 8.29167 13.1486 7.48278 12.7391 6.74C12.3297 5.99722 11.8819 5.3825 11.3958 4.89583C10.9097 4.40917 10.4444 4.16611 9.99996 4.16667C9.5694 4.16667 9.10774 4.40972 8.61496 4.89583C8.12218 5.38195 7.67079 5.99667 7.26079 6.74C6.85079 7.48333 6.51051 8.29222 6.23996 9.16667C5.9694 10.0411 5.83385 10.8744 5.83329 11.6667C5.83329 12.8194 6.23968 13.8022 7.05246 14.615C7.86524 15.4278 8.84774 15.8339 9.99996 15.8333ZM10.8333 15C11.0694 15 11.2675 14.92 11.4275 14.76C11.5875 14.6 11.6672 14.4022 11.6666 14.1667C11.6661 13.9311 11.5861 13.7333 11.4266 13.5733C11.2672 13.4133 11.0694 13.3333 10.8333 13.3333C10.1388 13.3333 9.54857 13.0903 9.06246 12.6042C8.57635 12.1181 8.33329 11.5278 8.33329 10.8333C8.33329 10.5972 8.25329 10.3994 8.09329 10.24C7.93329 10.0806 7.73552 10.0006 7.49996 10C7.2644 9.99945 7.06663 10.0794 6.90663 10.24C6.74663 10.4006 6.66663 10.5983 6.66663 10.8333C6.66663 11.9861 7.07302 12.9689 7.88579 13.7817C8.69857 14.5944 9.68107 15.0006 10.8333 15Z" fill="#C7C7C7"/>
</g>
</svg>
