<svg width="18" height="19" viewBox="0 0 18 19" fill="none" xmlns="http://www.w3.org/2000/svg">
<g id="simple-icons:flipkart" clip-path="url(#clip0_657_725)">
<path id="Vector" d="M2.875 1.76537C2.78976 1.76632 2.7053 1.78179 2.62525 1.81113V1.51562C2.62525 1.10238 2.962 0.765625 3.37525 0.765625H14.3755C14.7888 0.765625 15.1255 1.10238 15.1255 1.51562V1.76537H2.875ZM15.8755 3.51588H2.125C1.71175 3.51588 1.375 3.85262 1.375 4.26587V18.0156C1.375 18.4289 1.71175 18.7656 2.125 18.7656H7.6L8.4235 14.5319H6.7435C6.70525 14.5319 2.875 14.3511 2.875 14.3511L6.35425 14.1059L6.29575 13.8314L4.81225 13.6176L6.22375 13.4991L6.13075 13.1624L3.8245 12.8121C3.8245 12.8121 6.33025 12.5324 6.3685 12.5324H8.7925L8.97775 11.5341C9.1945 10.3221 9.6865 9.42887 10.4575 8.76437C11.2323 8.09538 12.2155 7.76538 13.4103 7.76538C13.8925 7.76538 14.2 7.87862 14.3335 8.11262C14.422 8.25212 14.4843 8.49962 14.5428 8.75688C14.5983 9.02087 14.6478 9.26013 14.614 9.43412C14.5713 9.69287 14.2683 9.78288 13.7163 9.78288H13.5265C12.5313 9.78288 11.926 10.3551 11.7228 11.5154L11.5405 12.5316H12.6955C13.126 12.5316 13.2813 12.8331 13.162 13.5111C13.0345 14.2169 12.7578 14.5311 12.3288 14.5311H11.1753L10.3533 18.7656H15.8748C16.288 18.7656 16.6248 18.4289 16.6248 18.0156V4.26587C16.6248 4.06709 16.5458 3.87644 16.4053 3.73581C16.2649 3.59518 16.0743 3.51607 15.8755 3.51588ZM15.3753 2.51537C15.3751 2.4492 15.3487 2.38579 15.3019 2.33899C15.2551 2.2922 15.1917 2.26582 15.1255 2.26562H2.875C2.80882 2.26582 2.74541 2.2922 2.69862 2.33899C2.65182 2.38579 2.62545 2.4492 2.62525 2.51537V3.01562H15.3753V2.51537Z" fill="black"/>
</g>
<defs>
<clipPath id="clip0_657_725">
<rect width="18" height="18" fill="white" transform="translate(0 0.765625)"/>
</clipPath>
</defs>
</svg>
