<svg width="18" height="19" viewBox="0 0 18 19" fill="none" xmlns="http://www.w3.org/2000/svg">
<g id="ri:google-fill">
<path id="Vector" d="M2.298 6.01531C2.92228 4.77296 3.87962 3.7286 5.0631 2.99886C6.24658 2.26912 7.60962 1.88272 9 1.88281C11.0212 1.88281 12.7192 2.62606 14.0175 3.83656L11.8672 5.98756C11.0895 5.24431 10.101 4.86556 9 4.86556C7.04625 4.86556 5.3925 6.18556 4.80375 7.95781C4.65375 8.40781 4.56825 8.88781 4.56825 9.38281C4.56825 9.87781 4.65375 10.3578 4.80375 10.8078C5.39325 12.5808 7.04625 13.9001 9 13.9001C10.0087 13.9001 10.8675 13.6338 11.5395 13.1838C11.9291 12.9273 12.2626 12.5945 12.5199 12.2054C12.7772 11.8164 12.9529 11.3792 13.0365 10.9203H9V8.01931H16.0635C16.152 8.50981 16.2 9.02131 16.2 9.55306C16.2 11.8376 15.3825 13.7606 13.9635 15.0656C12.723 16.2116 11.025 16.8828 9 16.8828C8.01498 16.8832 7.03953 16.6895 6.12941 16.3127C5.21929 15.9359 4.39234 15.3835 3.69582 14.687C2.9993 13.9905 2.44687 13.1635 2.0701 12.2534C1.69333 11.3433 1.49961 10.3678 1.5 9.38281C1.5 8.17231 1.7895 7.02781 2.298 6.01531Z" fill="black"/>
</g>
</svg>
