<svg width="21" height="20" viewBox="0 0 21 20" fill="none" xmlns="http://www.w3.org/2000/svg">
<g id="mingcute:ice-cream-fill">
<g id="Group">
<path id="Vector" fill-rule="evenodd" clip-rule="evenodd" d="M10.995 19.3817L10.985 19.3833L10.9259 19.4125L10.9092 19.4158L10.8975 19.4125L10.8384 19.3825C10.8295 19.3803 10.8228 19.3819 10.8184 19.3875L10.815 19.3958L10.8009 19.7525L10.805 19.7692L10.8134 19.78L10.9 19.8417L10.9125 19.845L10.9225 19.8417L11.0092 19.78L11.0192 19.7667L11.0225 19.7525L11.0084 19.3967C11.0061 19.3878 11.0017 19.3828 10.995 19.3817ZM11.215 19.2875L11.2034 19.2892L11.05 19.3667L11.0417 19.375L11.0392 19.3842L11.0542 19.7425L11.0584 19.7525L11.065 19.7592L11.2325 19.8358C11.2431 19.8386 11.2511 19.8364 11.2567 19.8292L11.26 19.8175L11.2317 19.3058C11.2289 19.2953 11.2234 19.2892 11.215 19.2875ZM10.6192 19.2892C10.6155 19.2869 10.6111 19.2862 10.6069 19.2872C10.6027 19.2881 10.5991 19.2906 10.5967 19.2942L10.5917 19.3058L10.5634 19.8175C10.5639 19.8275 10.5686 19.8342 10.5775 19.8375L10.59 19.8358L10.7575 19.7583L10.7659 19.7517L10.7684 19.7425L10.7834 19.3842L10.7809 19.3742L10.7725 19.3658L10.6192 19.2892Z" fill="#C7C7C7"/>
<path id="Vector_2" fill-rule="evenodd" clip-rule="evenodd" d="M10.5 1.66667C9.66653 1.6665 8.85214 1.91631 8.1621 2.38381C7.47206 2.85132 6.93809 3.51503 6.6292 4.28917C5.73854 4.52326 4.96515 5.07689 4.45645 5.84455C3.94776 6.61221 3.73932 7.54021 3.87086 8.45167C3.89753 8.63417 3.99503 8.83501 4.08753 8.99501L9.06003 17.52C9.70336 18.6217 11.2967 18.6217 11.94 17.52L16.9125 8.99501C17.005 8.83501 17.1025 8.63334 17.1292 8.45167C17.2607 7.54021 17.0523 6.61221 16.5436 5.84455C16.0349 5.07689 15.2615 4.52326 14.3709 4.28917C14.062 3.51503 13.528 2.85132 12.838 2.38381C12.1479 1.91631 11.3335 1.6665 10.5 1.66667ZM10.5 3.33334C9.70336 3.33334 8.9917 3.70667 8.5342 4.28834C9.3192 4.49334 10.0042 4.94667 10.5 5.55917C11.0029 4.93665 11.6918 4.49134 12.4659 4.28834C12.2319 3.99069 11.9334 3.75008 11.5928 3.58464C11.2523 3.41921 10.8786 3.33328 10.5 3.33334ZM15.4959 7.78917C15.4617 7.24948 15.219 6.74422 14.8191 6.38019C14.4192 6.01616 13.8934 5.82189 13.3529 5.83845C12.8124 5.855 12.2995 6.08109 11.9226 6.46891C11.5457 6.85673 11.3344 7.3759 11.3334 7.91667V8.72251C12.7604 8.62585 14.1642 8.31109 15.4959 7.78917ZM9.6667 8.72251V7.91667C9.66562 7.3759 9.45432 6.85673 9.07745 6.46891C8.70058 6.08109 8.18767 5.855 7.64715 5.83845C7.10663 5.82189 6.58085 6.01616 6.18095 6.38019C5.78105 6.74422 5.53836 7.24948 5.5042 7.78917C6.24086 8.08334 7.76753 8.59917 9.6667 8.72251Z" fill="#C7C7C7"/>
</g>
</g>
</svg>
