<svg width="21" height="20" viewBox="0 0 21 20" fill="none" xmlns="http://www.w3.org/2000/svg">
<g id="Group 20">
<path id="Vector" d="M20.4299 6.81909H16.3352V17.777H20.4299V6.81909ZM15.9608 10.7567H11.8661V17.777H15.9608V10.7567ZM11.4963 14.3801H7.40155V17.777H11.4963V14.3801ZM7.21669 18.1467C4.97519 18.1467 2.7337 18.1467 0.492204 18.1467V20H20.4299V18.1467H7.21669ZM2.8631 5.98258C2.20683 5.32631 1.14848 5.32631 0.492204 5.98258C-0.164068 6.63423 -0.164068 7.6972 0.492204 8.35348C1.14385 9.00975 2.20683 9.00975 2.8631 8.35348C3.51938 7.70183 3.51938 6.63885 2.8631 5.98258ZM19.4317 0.260993L18.0036 3.51C17.9343 3.66252 17.7032 3.6579 17.657 3.47765L17.2503 2.1004C16.8251 2.45165 15.6697 3.41295 12.8551 5.7515C12.7811 5.82082 12.6656 5.8162 12.5963 5.74225L9.93883 2.98776L6.00119 5.52041C5.79784 5.64982 5.59911 5.34017 5.80246 5.21076L9.8695 2.59492C9.94807 2.54408 10.0497 2.56257 10.1052 2.62727L12.7442 5.3679C15.4617 3.10792 16.594 2.16511 17.0146 1.81848L15.7251 1.16683C15.5726 1.08827 15.6003 0.861805 15.7667 0.824832L19.2283 0.00680255C19.3762 -0.0347922 19.501 0.122343 19.4317 0.260993ZM6.55117 7.48923H5.33568C4.44832 7.48923 3.97692 8.57532 4.61933 9.21772C5.01679 9.61518 5.43736 9.49502 5.92725 9.51351H6.55117C6.56503 9.51351 6.5789 9.50889 6.58814 9.49964C6.59739 9.4904 6.60201 9.47653 6.60201 9.46267V7.54007C6.60201 7.51234 6.5789 7.48923 6.55117 7.48923ZM6.9625 9.53662C7.63263 10.0912 8.44604 10.692 9.30567 10.7706V6.23677C8.44604 6.31534 7.63263 6.91153 6.9625 7.47074C6.97636 7.55393 6.96712 9.23159 6.96712 9.46729C6.97174 9.4904 6.96712 9.51351 6.9625 9.53662ZM1.81861 15.004C1.81861 14.7637 2.18834 14.7637 2.18834 15.004V17.777H3.40846C3.40846 17.3657 3.39921 16.1502 3.37611 13.0537L1.37032 11.3483C1.29175 11.2836 1.2825 11.1681 1.34721 11.0895C1.41191 11.0109 1.52745 11.0017 1.60602 11.0664L3.54711 12.7163L5.82557 10.5441C5.83482 10.5349 5.84868 10.5256 5.85792 10.521C6.44949 10.1744 6.11674 9.66602 5.48357 9.97105L5.47433 9.97567L3.43619 10.8307C3.34375 10.8769 3.23283 10.8445 3.18662 10.7521L2.32699 9.10218C1.98037 9.21772 1.60602 9.24083 1.24553 9.16689C1.1115 9.30091 0.95899 9.4904 0.829584 9.75845C0.667827 10.082 0.538421 10.521 0.487583 11.1218V17.777H1.81399V15.004H1.81861Z" fill="black"/>
</g>
</svg>
