<svg width="20" height="20" viewBox="0 0 20 20" fill="none" xmlns="http://www.w3.org/2000/svg">
<path id="Vector" d="M20 2.99065H0V1.7757C0 0.796262 0.796262 0 1.7757 0H18.2243C19.2037 0 20 0.796262 20 1.7757V2.99065ZM20 3.5514V15.9813C20 16.9607 19.2037 17.757 18.2243 17.757H17.2897V11.028C17.2897 10.5645 16.9121 10.1869 16.4486 10.1869H14.7664C14.3028 10.1869 13.9252 10.5645 13.9252 11.028V11.7346C13.8355 11.7009 13.7421 11.6822 13.6449 11.6822H11.9626C11.4991 11.6822 11.1215 12.0598 11.1215 12.5234V13.9776C11.0318 13.9439 10.9383 13.9252 10.8411 13.9252H9.15888C9.06168 13.9252 8.96822 13.9439 8.8785 13.9776V13.6449C8.8785 13.1813 8.50093 12.8037 8.03738 12.8037H6.35514C5.89159 12.8037 5.51402 13.1813 5.51402 13.6449V15.0991C5.4243 15.0654 5.33084 15.0467 5.23364 15.0467H3.5514C3.08785 15.0467 2.71028 15.4243 2.71028 15.8879V17.757H1.7757C0.796262 17.757 0 16.9607 0 15.9813V3.5514H20ZM15.3271 5.51402C15.3271 5.36075 15.2 5.23364 15.0467 5.23364H12.4561C12.2991 5.23364 12.1757 5.36075 12.1757 5.51402C12.1757 5.66729 12.2991 5.79439 12.4561 5.79439H14.3178L10.8112 8.96822L9.05794 7.31589C8.95327 7.21869 8.78878 7.21495 8.68037 7.30841L4.77009 10.7364C4.65047 10.8374 4.63925 11.0168 4.74393 11.1327C4.79626 11.1963 4.87477 11.2262 4.95327 11.2262C5.02056 11.2262 5.08411 11.2037 5.13645 11.1589L8.85981 7.89907L10.6168 9.55514C10.7215 9.65607 10.886 9.65607 10.9944 9.55888L14.7664 6.14579V8.10467C14.7664 8.26168 14.8935 8.38505 15.0467 8.38505C15.2 8.38505 15.3271 8.26168 15.3271 8.10467V5.51402ZM17.757 19.7196C17.757 19.5664 17.6299 19.4393 17.4766 19.4393H2.52336C2.37009 19.4393 2.24299 19.5664 2.24299 19.7196C2.24299 19.8729 2.37009 20 2.52336 20H17.4766C17.6299 20 17.757 19.8729 17.757 19.7196ZM5.23364 15.6075H3.5514C3.39813 15.6075 3.27103 15.7346 3.27103 15.8879V18.8785H5.51402V15.8879C5.51402 15.7346 5.38692 15.6075 5.23364 15.6075ZM8.03738 13.3645H6.35514C6.20187 13.3645 6.07477 13.4916 6.07477 13.6449V18.8785H8.31776V13.6449C8.31776 13.4916 8.19065 13.3645 8.03738 13.3645ZM10.8411 14.486H9.15888C9.00561 14.486 8.8785 14.6131 8.8785 14.7664V18.8785H11.1215V14.7664C11.1215 14.6131 10.9944 14.486 10.8411 14.486ZM13.6449 12.243H11.9626C11.8093 12.243 11.6822 12.3701 11.6822 12.5234V18.8785H13.9252V12.5234C13.9252 12.3701 13.7981 12.243 13.6449 12.243ZM16.4486 10.7477H14.7664C14.6131 10.7477 14.486 10.8748 14.486 11.028V18.8785H16.729V11.028C16.729 10.8748 16.6019 10.7477 16.4486 10.7477Z" fill="black"/>
</svg>
