<svg width="20" height="21" viewBox="0 0 20 21" fill="none" xmlns="http://www.w3.org/2000/svg">
<g id="mingcute:meta-fill">
<g id="Group">
<path id="Vector" fill-rule="evenodd" clip-rule="evenodd" d="M13.3527 4.13344C14.8777 4.02844 16.056 4.91844 16.8402 5.94511C17.6302 6.98094 18.1743 8.33344 18.4735 9.66344C18.771 10.9934 18.851 12.4226 18.6035 13.6409C18.366 14.8109 17.7318 16.1493 16.2977 16.5784C14.9477 16.9818 13.7643 16.3951 12.921 15.6851C12.0743 14.9726 11.3577 13.9743 10.7943 13.0384C10.5306 12.5988 10.2832 12.1496 10.0527 11.6918C9.82234 12.1493 9.57522 12.5983 9.31182 13.0376C8.74849 13.9743 8.03182 14.9726 7.18515 15.6851C6.34099 16.3951 5.15849 16.9818 3.80849 16.5784C2.37432 16.1493 1.74015 14.8118 1.50265 13.6409C1.25599 12.4226 1.33599 10.9934 1.63349 9.66344C1.93182 8.33344 2.47599 6.98011 3.26682 5.94511C4.05015 4.91844 5.22849 4.02844 6.75349 4.13344C8.18349 4.23344 9.22265 5.20261 9.87015 6.02427L10.0535 6.26511L10.236 6.02344C10.8835 5.20261 11.9227 4.23261 13.3527 4.13344ZM6.58015 6.62761C6.23015 6.60344 5.77182 6.78261 5.25349 7.46261C4.74182 8.13344 4.31682 9.12344 4.07265 10.2109C3.82849 11.2984 3.79349 12.3601 3.95265 13.1443C4.09015 13.8193 4.31099 14.0618 4.44599 14.1468L4.50265 14.1751L4.52515 14.1834C4.71849 14.2418 5.03682 14.2251 5.57515 13.7718C6.11265 13.3201 6.66099 12.5943 7.17015 11.7493C7.39682 11.3718 7.60765 10.9851 7.79682 10.6134L8.01349 10.1759L8.20765 9.76177L8.37932 9.38011L8.52515 9.04094L8.64432 8.75261C8.48288 8.42886 8.29823 8.11721 8.09182 7.82011C7.55515 7.05677 7.01682 6.65844 6.58015 6.62844V6.62761ZM13.526 6.62761C13.0893 6.65844 12.551 7.05677 12.0143 7.82011C11.8079 8.11721 11.6233 8.42886 11.4618 8.75261L11.651 9.20511L11.8093 9.56677L11.8985 9.76177L12.0935 10.1759L12.3102 10.6134C12.4993 10.9851 12.7093 11.3718 12.936 11.7493C13.4452 12.5943 13.9943 13.3201 14.5302 13.7718C15.031 14.1934 15.341 14.2368 15.5385 14.1943L15.5818 14.1834C15.6902 14.1501 15.9843 13.9759 16.1535 13.1434C16.3118 12.3601 16.2777 11.2984 16.0335 10.2101C15.7902 9.12344 15.3652 8.13344 14.8527 7.46261C14.3335 6.78261 13.876 6.60427 13.526 6.62761Z" fill="black"/>
</g>
</g>
</svg>
