<svg width="20" height="20" viewBox="0 0 20 20" fill="none" xmlns="http://www.w3.org/2000/svg">
<g id="money-rupee-circle-fill">
<path id="Vector" d="M9.99984 18.3334C14.6022 18.3334 18.3332 14.6024 18.3332 10C18.3332 5.39764 14.6022 1.66669 9.99984 1.66669C5.39746 1.66669 1.6665 5.39764 1.6665 10C1.6665 14.6024 5.39746 18.3334 9.99984 18.3334ZM11.2501 6.66669C11.523 7.03007 11.7186 7.45489 11.8123 7.91669H13.3332V9.16669H11.8123C11.5228 10.5931 10.2617 11.6667 8.74984 11.6667H8.59209L11.6918 14.7664L10.8079 15.6503L6.6665 11.5089V10.4167H8.74984C9.56625 10.4167 10.2608 9.89494 10.5182 9.16669H6.6665V7.91669H10.5182C10.2608 7.18844 9.56625 6.66669 8.74984 6.66669H6.6665V5.41669H13.3332V6.66669H11.2501Z" fill="black"/>
</g>
</svg>
