<svg width="27" height="26" viewBox="0 0 27 26" fill="none" xmlns="http://www.w3.org/2000/svg">
<path id="Vector" d="M5.80378 2.50387L18.4417 7.91959L13.3816 10.0874L0.816276 4.70227C1.0992 4.41361 1.44521 4.18039 1.83901 4.02937L5.80378 2.50387ZM8.36157 1.52128L11.3246 0.381939C12.6493 -0.127313 14.1157 -0.127313 15.4404 0.381939L24.926 4.02937C25.3179 4.1823 25.6639 4.4117 25.9469 4.70227L20.8695 6.87774L8.36157 1.52128ZM26.7517 6.43806L14.3374 11.7582V26C14.7134 25.9363 15.081 25.8356 15.4404 25.698L24.926 22.0486C25.4668 21.8404 25.9318 21.4732 26.2598 20.9954C26.5877 20.5177 26.7632 19.9518 26.7631 19.3723V6.70569C26.7631 6.61648 26.7587 6.52727 26.7498 6.43806M12.4257 26V11.7582L0.0133815 6.43806C0.00579513 6.52708 0.00133193 6.61635 0 6.70569V19.3723C7.67385e-05 19.952 0.175858 20.5181 0.504162 20.9959C0.832466 21.4736 1.29787 21.8407 1.83901 22.0486L11.3227 25.698C11.6821 25.8356 12.0498 25.9363 12.4257 26Z" fill="#F4B5A4"/>
</svg>
