<svg width="12" height="14" viewBox="0 0 12 14" fill="none" xmlns="http://www.w3.org/2000/svg">
<g clip-path="url(#clip0_4122_18039)">
<path d="M7.60579 7.15363C7.11081 6.20629 6.2678 5.64062 5.35068 5.64062C4.43365 5.64062 3.59056 6.20629 3.09566 7.15363L1.90294 9.43637C1.70505 9.81516 1.61374 10.2526 1.63884 10.7014C1.66393 11.1504 1.80316 11.5684 2.04142 11.9105C2.27984 12.2525 2.59489 12.4863 2.95249 12.5865C3.31009 12.6867 3.67666 12.644 4.01252 12.4629L4.03443 12.4509C4.87962 12.004 5.84566 12.008 6.68876 12.4629C6.9062 12.5802 7.13657 12.6395 7.36904 12.6395C7.49543 12.6395 7.62257 12.6219 7.74854 12.5866C8.10614 12.4865 8.42119 12.2527 8.6597 11.9107C8.89804 11.5687 9.03735 11.1506 9.06253 10.7016C9.08771 10.2526 8.9964 9.81516 8.79851 9.43626L7.60579 7.15363ZM8.16967 11.3965C7.86628 11.8316 7.3755 11.9692 6.94833 11.7388C6.44059 11.4648 5.8956 11.3279 5.35043 11.3279C4.80577 11.3279 4.26085 11.4647 3.75345 11.7384L3.73902 11.7462C3.31512 11.9661 2.83155 11.8268 2.53153 11.3965C2.22848 10.9613 2.19399 10.3452 2.44576 9.86324L3.63856 7.5805C4.01437 6.86122 4.65437 6.43177 5.35068 6.43177C6.04699 6.43177 6.68708 6.86122 7.06297 7.5805L8.25561 9.86314C8.50746 10.3453 8.47288 10.9615 8.16967 11.3965Z" fill="#0090FF"/>
<path d="M2.22431 7.14838C2.57913 6.98117 2.8487 6.63038 2.98339 6.16057C3.11146 5.71352 3.10097 5.20881 2.95368 4.73931C2.80631 4.27012 2.53826 3.8871 2.19896 3.66069C1.84237 3.42296 1.4507 3.38424 1.09646 3.55176C0.383783 3.88793 0.0567335 4.96839 0.367502 5.96083C0.615747 6.75074 1.19473 7.24938 1.7801 7.24938C1.92957 7.24938 2.07945 7.21684 2.22431 7.14838ZM0.969232 5.67666C0.786111 5.09184 0.946992 4.46976 1.32809 4.28999C1.39691 4.25745 1.46967 4.24129 1.54394 4.24129C1.65858 4.24129 1.77699 4.27969 1.89096 4.35578C2.0959 4.49241 2.25964 4.72963 2.35195 5.02358C2.44418 5.31774 2.45241 5.62827 2.37503 5.89813C2.30412 6.14544 2.16841 6.32727 1.99301 6.40994L1.99268 6.41015C1.61208 6.59012 1.15294 6.26096 0.969232 5.67666Z" fill="#0090FF"/>
<path d="M4.53943 5.36114C5.43036 5.36114 6.15521 4.34801 6.15521 3.1027C6.15521 1.85709 5.43036 0.84375 4.53943 0.84375C3.64859 0.84375 2.92383 1.85709 2.92383 3.1027C2.92383 4.34801 3.64859 5.36114 4.53943 5.36114ZM4.53943 1.6348C5.07478 1.6348 5.51043 2.29333 5.51043 3.1027C5.51043 3.91177 5.07478 4.5701 4.53943 4.5701C4.00409 4.5701 3.56861 3.91177 3.56861 3.1027C3.56861 2.29333 4.00409 1.6348 4.53943 1.6348Z" fill="#0090FF"/>
<path d="M7.32875 5.91749H7.32883C7.46588 5.97329 7.60569 5.99996 7.74492 5.99996C8.39466 5.99996 9.02786 5.41978 9.26947 4.52814C9.40862 4.01488 9.39947 3.47218 9.24371 3.0001C9.08073 2.50599 8.77869 2.14728 8.39315 1.98996C8.0076 1.83284 7.59042 1.89832 7.21872 2.17446C6.86364 2.43835 6.59156 2.86625 6.45267 3.37951C6.15936 4.46224 6.55237 5.60078 7.32875 5.91749ZM7.06455 3.62898C7.15528 3.29385 7.32866 3.01771 7.55282 2.85112C7.7602 2.69699 7.98645 2.65776 8.1898 2.74064C8.39306 2.82363 8.55503 3.02111 8.64601 3.29683C8.74428 3.5948 8.74848 3.94342 8.65759 4.27856C8.4764 4.94739 7.97151 5.34585 7.53218 5.1668C7.09317 4.98765 6.88336 4.29781 7.06455 3.62898Z" fill="#0090FF"/>
<path d="M10.7315 5.65161L10.7313 5.6513C10.1169 5.09449 9.19799 5.33583 8.68278 6.18958C8.16808 7.04374 8.24856 8.19206 8.86204 8.74928C9.08578 8.95263 9.35014 9.04983 9.62071 9.04983C10.0923 9.04983 10.5829 8.75453 10.9108 8.21152C11.4255 7.35736 11.3451 6.20904 10.7315 5.65161ZM10.3926 7.74089C10.0883 8.24467 9.57396 8.41178 9.24574 8.1135C8.91777 7.81564 8.89779 7.16348 9.20118 6.66001C9.40284 6.3258 9.69742 6.13985 9.96891 6.13985C10.1062 6.13985 10.2376 6.18742 10.3481 6.2876C10.6758 6.58577 10.6957 7.23772 10.3926 7.74089Z" fill="#0090FF"/>
</g>
<defs>
<clipPath id="clip0_4122_18039">
<rect width="11" height="13.4952" fill="white" transform="translate(0.25)"/>
</clipPath>
</defs>
</svg>
