<svg width="25" height="25" viewBox="0 0 25 25" fill="none" xmlns="http://www.w3.org/2000/svg">
<g id="refresh-fill">
<path id="Vector" d="M12.5 22.5C6.97715 22.5 2.5 18.0228 2.5 12.5C2.5 6.97715 6.97715 2.5 12.5 2.5C18.0228 2.5 22.5 6.97715 22.5 12.5C22.5 18.0228 18.0228 22.5 12.5 22.5ZM17.3201 17.5761C18.6628 16.3007 19.5 14.4981 19.5 12.5C19.5 8.63401 16.366 5.5 12.5 5.5C11.4391 5.5 10.4334 5.73599 9.53241 6.15834L10.5072 7.91292C11.1177 7.64729 11.7917 7.5 12.5 7.5C15.2614 7.5 17.5 9.73858 17.5 12.5H14.5L17.3201 17.5761ZM15.4676 18.8417L14.4928 17.0871C13.8823 17.3527 13.2083 17.5 12.5 17.5C9.73858 17.5 7.5 15.2614 7.5 12.5H10.5L7.67993 7.42387C6.33719 8.69929 5.5 10.5019 5.5 12.5C5.5 16.366 8.63401 19.5 12.5 19.5C13.5609 19.5 14.5666 19.264 15.4676 18.8417Z" fill="black"/>
</g>
</svg>
