<svg width="20" height="20" viewBox="0 0 20 20" fill="none" xmlns="http://www.w3.org/2000/svg">
<path fill-rule="evenodd" clip-rule="evenodd" d="M14.2499 1.63991L2.15813 8.62065C1.96803 8.73003 1.72499 8.66405 1.61561 8.47395C1.50624 8.28385 1.57221 8.04081 1.76231 7.93143L13.737 1.01846L12.671 0.788421C12.4557 0.741547 12.3195 0.529737 12.3655 0.314475C12.4123 0.0992017 12.6241 -0.0370733 12.8394 0.00892579L14.9131 0.456828C15.1284 0.503702 15.2647 0.715512 15.2187 0.930774L14.7708 3.00451C14.7239 3.21978 14.5121 3.35606 14.2968 3.31006C14.0816 3.26318 13.9453 3.05138 13.9913 2.83611L14.25 1.63909L14.2499 1.63991ZM1.23015 17.4036H3.04783V14.0017H1.23015V17.4036ZM5.2534 17.4036H7.07108V11.7257H5.2534V17.4036ZM9.22555 17.4036H9.9712C9.7186 16.7769 9.57885 16.0929 9.57885 15.3758C9.57885 13.9427 10.1353 12.639 11.0432 11.6693V9.13798H9.22555V17.4036ZM10.3722 18.2013H0V18.9357H10.9113C10.7117 18.7065 10.5311 18.4609 10.3722 18.2013ZM15.0006 9.95325C15.0266 9.95325 15.0518 9.95325 15.0778 9.95412V5.9802H13.2602V10.2388C13.807 10.0539 14.3921 9.95325 15.0006 9.95325ZM18.2705 12.106C19.1073 12.9428 19.6247 14.099 19.6247 15.3759C19.6247 16.6528 19.1073 17.809 18.2705 18.6459C17.4337 19.4827 16.2775 20 15.0006 20C13.7237 20 12.5675 19.4827 11.7306 18.6459C10.8939 17.8091 10.3765 16.6528 10.3765 15.3759C10.3765 14.099 10.8938 12.9429 11.7306 12.106C12.5674 11.2692 13.7237 10.7518 15.0006 10.7518C16.2775 10.7518 17.4336 11.2692 18.2705 12.106ZM15.4235 18.6041V18.197C15.7333 18.1258 16.012 17.9808 16.2342 17.7855C16.5736 17.4869 16.7837 17.0729 16.7837 16.6119C16.7837 15.3316 15.9287 15.1545 15.0754 14.9774C14.545 14.8672 14.0164 14.7578 14.0164 14.1389C14.0164 13.9167 14.1214 13.7136 14.2916 13.5634C14.4756 13.4011 14.7351 13.3012 15.0251 13.3012C15.315 13.3012 15.5737 13.4011 15.7585 13.5634C15.9287 13.7127 16.0337 13.9167 16.0337 14.1389C16.0337 14.3594 16.2125 14.5382 16.433 14.5382C16.6535 14.5382 16.8323 14.3594 16.8323 14.1389C16.8323 13.678 16.6223 13.2639 16.2828 12.9653C16.0493 12.7605 15.7533 12.6112 15.4252 12.5435V12.1468C15.4252 11.9263 15.2464 11.7475 15.0259 11.7475C14.8054 11.7475 14.6266 11.9263 14.6266 12.1468V12.5435C14.2976 12.6112 14.0025 12.7596 13.769 12.9653C13.4296 13.2639 13.2195 13.678 13.2195 14.1389C13.2195 15.4045 14.0676 15.5798 14.9174 15.756C15.4512 15.8663 15.9868 15.9774 15.9868 16.6111C15.9868 16.8333 15.8818 17.0364 15.7116 17.1866C15.5276 17.3489 15.2681 17.4487 14.9781 17.4487C14.6882 17.4487 14.4295 17.3489 14.2446 17.1866C14.0745 17.0373 13.9695 16.8333 13.9695 16.6111C13.9695 16.3906 13.7907 16.2118 13.5702 16.2118C13.3497 16.2118 13.1709 16.3906 13.1709 16.6111C13.1709 17.072 13.3809 17.4861 13.7203 17.7846C13.9651 17.9999 14.2776 18.1527 14.6257 18.2152V18.6023C14.6257 18.8228 14.8045 19.0016 15.025 19.0016C15.2455 19.0016 15.4243 18.8228 15.4243 18.6023L15.4235 18.6041Z" fill="#4476D9"/>
</svg>
