<svg width="20" height="20" viewBox="0 0 20 20" fill="none" xmlns="http://www.w3.org/2000/svg">
<g id="ri:whatsapp-fill">
<path id="Vector" d="M10.0008 1.66663C14.6033 1.66663 18.3342 5.39746 18.3342 9.99996C18.3342 14.6025 14.6033 18.3333 10.0008 18.3333C8.52812 18.3358 7.08131 17.9461 5.80916 17.2041L1.67083 18.3333L2.79749 14.1933C2.05496 12.9207 1.66491 11.4733 1.66749 9.99996C1.66749 5.39746 5.39833 1.66663 10.0008 1.66663ZM7.16083 6.08329L6.99416 6.08996C6.8864 6.09738 6.78112 6.12569 6.68416 6.17329C6.59381 6.22455 6.51129 6.28854 6.43916 6.36329C6.33916 6.45746 6.28249 6.53913 6.22166 6.61829C5.91343 7.01904 5.74747 7.51105 5.74999 8.01663C5.75166 8.42496 5.85833 8.82246 6.02499 9.19413C6.36583 9.94579 6.92666 10.7416 7.66666 11.4791C7.84499 11.6566 8.01999 11.835 8.20833 12.0008C9.12785 12.8103 10.2236 13.3941 11.4083 13.7058L11.8817 13.7783C12.0358 13.7866 12.19 13.775 12.345 13.7675C12.5876 13.7547 12.8246 13.689 13.0392 13.575C13.1482 13.5186 13.2547 13.4574 13.3583 13.3916C13.3583 13.3916 13.3936 13.3677 13.4625 13.3166C13.575 13.2333 13.6442 13.1741 13.7375 13.0766C13.8075 13.0044 13.8658 12.9205 13.9125 12.825C13.9775 12.6891 14.0425 12.43 14.0692 12.2141C14.0892 12.0491 14.0833 11.9591 14.0808 11.9033C14.0775 11.8141 14.0033 11.7216 13.9225 11.6825L13.4375 11.465C13.4375 11.465 12.7125 11.1491 12.2692 10.9475C12.2228 10.9273 12.1731 10.9157 12.1225 10.9133C12.0655 10.9073 12.0078 10.9137 11.9535 10.9319C11.8991 10.9502 11.8493 10.9799 11.8075 11.0191C11.8033 11.0175 11.7475 11.065 11.145 11.795C11.1104 11.8414 11.0628 11.8765 11.0082 11.8958C10.9535 11.9151 10.8944 11.9177 10.8383 11.9033C10.784 11.8888 10.7308 11.8704 10.6792 11.8483C10.5758 11.805 10.54 11.7883 10.4692 11.7583C9.99072 11.5499 9.54786 11.2679 9.15666 10.9225C9.05166 10.8308 8.95416 10.7308 8.85416 10.6341C8.52634 10.3201 8.24062 9.96495 8.00416 9.57746L7.95499 9.49829C7.92021 9.44479 7.89169 9.38747 7.86999 9.32746C7.83833 9.20496 7.92083 9.10663 7.92083 9.10663C7.92083 9.10663 8.12333 8.88496 8.21749 8.76496C8.30916 8.64829 8.38666 8.53496 8.43666 8.45413C8.53499 8.29579 8.56583 8.13329 8.51416 8.00746C8.28083 7.43746 8.03972 6.87051 7.79083 6.30663C7.74166 6.19496 7.59583 6.11496 7.46333 6.09913C7.41833 6.09357 7.37333 6.08913 7.32833 6.08579C7.21643 6.07937 7.10424 6.08049 6.99249 6.08913L7.16083 6.08329Z" fill="#00A991"/>
</g>
</svg>
