<svg width="32" height="32" viewBox="0 0 32 32" fill="none" xmlns="http://www.w3.org/2000/svg">
<path fill-rule="evenodd" clip-rule="evenodd" d="M15.2026 0.0330537C14.0635 0.202471 12.9684 0.809093 11.9825 1.81686C11.1812 2.63581 10.7081 3.52761 10.441 4.72283C10.3335 5.20451 10.3212 5.40609 10.3466 6.28113C10.3705 7.10321 10.4043 7.40002 10.5322 7.91141C10.9127 9.43283 11.6374 11.0387 12.7303 12.7827C13.5666 14.1171 13.9709 14.6843 14.7448 15.6094C15.579 16.6066 16.0318 16.8643 16.4397 16.574C16.6909 16.3951 17.2071 15.8395 17.3628 15.5805C17.445 15.4436 17.6763 15.1185 17.8769 14.8581C18.0774 14.5976 18.3111 14.2714 18.3962 14.1332C18.4814 13.995 18.5947 13.8113 18.6481 13.7249C18.7015 13.6385 18.8566 13.3841 18.9927 13.1596C19.2216 12.7821 19.3781 12.5185 19.8699 11.6834C20.208 11.1092 21.0054 9.3001 21.2543 8.54253C21.8871 6.61682 21.7499 4.58507 20.88 2.99788C20.06 1.50171 18.7473 0.459391 17.2633 0.125897C16.7502 0.0105651 15.6785 -0.0376781 15.2026 0.0330537ZM14.1835 1.39392C13.9725 1.45384 13.7177 1.65699 13.0038 2.33454C12.1676 3.12816 11.868 3.52862 11.6252 4.17676C11.3287 4.96857 11.27 5.31701 11.27 6.28741C11.27 7.8876 11.5352 8.82521 11.9878 8.82521C12.395 8.82521 12.4683 8.61565 12.2953 7.94577C12.1681 7.4536 12.1186 6.13313 12.2065 5.57764C12.2885 5.05909 12.5725 4.3845 12.942 3.83071C13.2428 3.37981 13.5215 3.09996 14.0359 2.73223C14.5395 2.37223 14.7937 2.1077 14.7937 1.94375C14.7937 1.75109 14.5468 1.38318 14.41 1.37187C14.3465 1.36665 14.2445 1.37658 14.1835 1.39392ZM15.4691 2.96314C15.0147 3.072 14.7427 3.22126 14.3615 3.57077C13.8011 4.08442 13.7597 4.13832 13.534 4.64789C13.0587 5.72105 13.2818 7.11226 14.0569 7.9089C15.01 8.88846 16.3823 9.09953 17.449 8.43072C17.8314 8.19094 18.3307 7.59048 18.5564 7.09906C18.7533 6.67053 18.7578 6.64295 18.7578 5.87282C18.7578 5.10319 18.7532 5.07479 18.5569 4.64657C18.1823 3.82895 17.4108 3.1673 16.6261 2.99053C16.3214 2.92194 15.7023 2.90724 15.4691 2.96314ZM15.4517 4.1701C15.009 4.33368 14.7351 4.59173 14.5147 5.05306C14.3639 5.36884 14.3239 5.52946 14.3239 5.81905C14.3239 6.52058 14.6622 7.1502 15.2151 7.47785C15.493 7.64249 15.5833 7.66303 16.027 7.66234C16.5751 7.66153 16.829 7.56102 17.2269 7.18726C17.7549 6.69145 17.9216 5.69574 17.5959 4.98396C17.2343 4.19366 16.3236 3.84798 15.4517 4.1701ZM26.5572 5.45904L26.3924 5.61056V6.52171C26.3924 7.39958 26.3976 7.43884 26.5347 7.59513C26.7319 7.8197 27.108 7.82271 27.315 7.60135C27.4475 7.45969 27.4643 7.37967 27.499 6.72907C27.5456 5.8573 27.5138 5.6642 27.2906 5.46325C27.0637 5.25903 26.7764 5.2574 26.5572 5.45904ZM26.5347 8.75755C26.2934 9.0156 26.3026 9.27567 26.5627 9.55388C26.8763 9.88932 27.3039 9.81306 27.511 9.38478C27.6213 9.15656 27.5507 8.95298 27.2861 8.73714C27.0129 8.51426 26.7556 8.52124 26.5347 8.75755ZM23.8084 8.70931C23.4962 8.89192 23.4427 9.3278 23.6989 9.60187C23.8789 9.79434 23.8371 9.78762 24.748 9.77047C25.43 9.7576 25.4581 9.75163 25.6179 9.58447C25.942 9.24551 25.8018 8.81377 25.3295 8.69662C25.01 8.61735 23.9504 8.6262 23.8084 8.70931ZM28.7317 8.69668C28.4205 8.73444 28.2148 8.87238 28.1514 9.08577C28.1031 9.24866 28.2293 9.62995 28.3555 9.70219C28.4126 9.73492 28.8345 9.7667 29.293 9.77292C30.0886 9.78373 30.1333 9.77763 30.2699 9.64025C30.4597 9.44961 30.4995 9.29407 30.4146 9.0749C30.2983 8.77445 30.1039 8.68487 29.5396 8.67175C29.2621 8.66521 28.8986 8.67646 28.7317 8.69668ZM26.642 10.5263C26.3998 10.6772 26.3443 10.9414 26.3867 11.7427C26.431 12.5801 26.5175 12.8325 26.7962 12.9374C27.0334 13.0266 27.3681 12.8222 27.4609 12.5313C27.5593 12.2225 27.5571 11.1326 27.4575 10.8776C27.3197 10.5248 26.9204 10.3528 26.642 10.5263ZM10.3533 13.1902C9.71671 13.3383 9.22944 13.6613 8.42182 14.4706C8.13106 14.7619 7.60251 15.2603 7.24721 15.5783C6.89191 15.8963 6.20985 16.5705 5.73146 17.0764L4.8617 17.9965L3.82281 17.9972C2.36232 17.9983 1.82631 18.1807 1.03249 18.9471C0.555156 19.4078 0.215535 20.0854 0.081401 20.8444C-0.0127979 21.3774 -0.0261284 22.6823 0.0460477 24.3095C0.0872156 25.2386 0.0909741 25.2585 0.313728 25.7332C0.617407 26.3802 1.02045 26.813 1.58001 27.093C1.96767 27.2869 2.09793 27.3185 2.66647 27.3568C3.02177 27.3807 3.31934 27.3947 3.3278 27.388C3.3362 27.3813 3.30296 27.2541 3.25386 27.1053C3.09618 26.6272 3.02823 25.732 3.10358 25.1261C3.25351 23.9215 3.709 23.0423 4.56595 22.304C5.63115 21.3862 6.61548 21.1113 7.85598 21.3852C9.38801 21.7234 10.4008 22.5889 10.9902 24.0639L11.2389 24.6864L11.2391 25.6601C11.2392 26.3873 11.214 26.7285 11.1396 27.008C11.0848 27.2138 11.0543 27.3976 11.0718 27.4163C11.0893 27.4351 13.2828 27.4552 15.9462 27.461C20.4443 27.4709 20.7867 27.4641 20.7587 27.3668C20.5331 26.5801 20.4843 25.4649 20.6421 24.6988C20.7254 24.2941 21.0676 23.4586 21.2893 23.1183C21.6317 22.5928 22.4718 21.8939 23.0583 21.6466C23.8427 21.3159 24.9029 21.2367 25.6844 21.4505C26.2899 21.6161 27.176 22.1407 27.5961 22.5821C27.9948 23.001 28.4777 23.764 28.6576 24.259C28.8585 24.8121 28.8897 26.1354 28.7185 26.8418C28.6504 27.1229 28.5947 27.3748 28.5946 27.4016C28.5945 27.4888 29.8461 27.3775 30.1509 27.2631C31.2981 26.8326 31.8552 26.1409 31.9479 25.0319C32.0323 24.0223 32.0094 21.0635 31.9135 20.5759C31.8027 20.0121 31.536 19.4459 31.201 19.0628C30.9268 18.7493 30.3224 18.3707 29.8444 18.2131C29.5083 18.1024 28.3987 17.9999 27.5142 17.9979L26.8741 17.9965L25.987 17.0699C24.7112 15.7374 23.0302 14.0415 22.7186 13.7723C22.5714 13.6452 22.2675 13.4493 22.0432 13.3371C21.6685 13.1495 21.578 13.1309 20.9246 13.1076L20.2138 13.0822L20.1772 13.325C20.1415 13.5625 19.8065 14.206 19.4012 14.8154C19.2896 14.9833 19.1983 15.1387 19.1982 15.1608C19.1982 15.183 19.588 15.1817 20.0644 15.158C20.855 15.1187 20.952 15.1258 21.1744 15.2391C21.3084 15.3073 21.824 15.779 22.3202 16.2872C22.8163 16.7955 23.4202 17.3842 23.6622 17.5956C24.1277 18.0024 24.6012 18.5156 24.7082 18.7294C24.7723 18.8576 24.7698 18.8577 23.0278 18.8354C22.0682 18.8231 20.2229 18.813 18.9272 18.813L16.5713 18.8131L16.5417 18.3711C16.5255 18.1281 16.4983 17.9144 16.4814 17.8963C16.4469 17.8593 15.8651 18.0316 15.7416 18.1152C15.6977 18.145 15.6485 18.2957 15.6322 18.4501L15.6027 18.7309L14.5081 18.7718C12.9277 18.8309 11.5006 18.8236 9.86059 18.7481C7.67904 18.6476 7.45276 18.6268 7.45276 18.5269C7.45276 18.3958 7.77194 18.034 8.39105 17.4633C8.69866 17.1798 9.26239 16.6336 9.64377 16.2494C10.1216 15.768 10.4523 15.4903 10.7076 15.3558L11.0779 15.1608L12.0256 15.1809C12.5468 15.1921 12.9733 15.1925 12.9732 15.1821C12.9732 15.1716 12.831 14.9737 12.6574 14.7424C12.2306 14.1739 11.7986 13.4729 11.7986 13.3489C11.7986 13.2931 11.7669 13.2136 11.7281 13.1721C11.6342 13.0716 10.8167 13.0824 10.3533 13.1902ZM2.12759 19.2176C1.57472 19.4025 1.34663 19.6775 1.1725 20.3692C1.08928 20.6997 1.08118 21.5711 1.16052 21.656C1.2539 21.7559 1.40383 21.6584 1.40383 21.4979C1.40383 21.2939 1.56398 20.6585 1.68302 20.3902C1.73775 20.2667 1.96162 19.9641 2.1805 19.7176C2.39932 19.4712 2.57838 19.2375 2.57838 19.1984C2.57838 19.1078 2.43796 19.1138 2.12759 19.2176ZM29.513 20.2587C29.1614 20.5889 29.0169 21.2057 29.1856 21.656C29.4738 22.4249 29.9765 22.8962 30.5085 22.8962C30.7326 22.8962 30.8232 22.8698 30.8494 22.7968C30.9167 22.6092 30.8836 21.4198 30.8019 21.0918C30.5737 20.1748 29.9984 19.8029 29.513 20.2587ZM16.7743 20.682C16.6444 20.8354 16.5464 21.1334 16.5841 21.2602C16.6014 21.3187 16.6944 21.4472 16.7907 21.5459L16.9659 21.7254L17.8128 21.7297C18.5845 21.7337 18.6744 21.7224 18.8262 21.6022C19.1274 21.3638 19.0719 20.9305 18.71 20.6944C18.5481 20.5889 18.4111 20.5724 17.6951 20.5722C16.9809 20.572 16.8546 20.587 16.7743 20.682ZM6.37241 22.4267C5.8801 22.5601 5.42924 22.8499 4.96894 23.329C4.45871 23.86 4.25998 24.1952 4.10917 24.7794C3.92347 25.4985 3.94162 26.2984 4.15862 26.9653C4.71958 28.6891 5.78725 29.4917 7.41729 29.4147C8.29891 29.373 8.58779 29.2351 9.21975 28.5546C10.0632 27.6464 10.3634 26.7917 10.3175 25.4292C10.2951 24.765 10.2815 24.7006 10.0668 24.2359C9.52907 23.072 8.55249 22.4073 7.30594 22.3567C6.91076 22.3407 6.60544 22.3635 6.37241 22.4267ZM24.0849 22.3969C23.4559 22.5168 22.6258 23.0603 22.1546 23.6607C21.2941 24.757 21.2696 26.577 22.0976 27.9092C22.5904 28.7021 22.9571 29.0074 23.7677 29.2994C24.2186 29.4618 25.0746 29.4764 25.5448 29.3295C26.6434 28.9863 27.4146 28.0554 27.7765 26.6356C27.9399 25.9947 27.9161 25.0647 27.7225 24.5315C27.4001 23.6429 26.657 22.8871 25.7464 22.5212C25.3435 22.3593 24.581 22.3023 24.0849 22.3969ZM6.57003 24.0605C6.21795 24.1766 5.84639 24.5254 5.72077 24.8577C5.42795 25.6325 5.78367 26.7397 6.45011 27.1278C6.82502 27.346 7.43737 27.3608 7.83443 27.1611C8.50087 26.8261 8.89399 25.8527 8.68944 25.0441C8.60041 24.6921 8.26202 24.2959 7.89322 24.1119C7.55042 23.9408 6.99827 23.9193 6.57003 24.0605ZM24.102 24.0475C23.4064 24.3392 23.1189 24.7669 23.1185 25.5104C23.118 26.545 23.688 27.2266 24.6428 27.3329C24.9635 27.3686 25.0459 27.3533 25.3288 27.2053C26.055 26.8252 26.4535 25.9204 26.2451 25.1245C26.1514 24.7665 25.7645 24.2943 25.4094 24.1046C25.2044 23.9951 25.0503 23.9651 24.7122 23.9688C24.4735 23.9715 24.1989 24.0068 24.102 24.0475ZM0.845916 30.6826C0.781316 30.7111 0.663743 30.8091 0.584579 30.9002C0.304331 31.2228 0.4424 31.669 0.901531 31.9243C1.03455 31.9983 1.19693 32.0131 1.60338 31.9884C2.12371 31.9566 2.13545 31.9523 2.3326 31.7222C2.50573 31.5202 2.52828 31.4578 2.49874 31.2631C2.45523 30.9759 2.24886 30.7552 1.95628 30.6826C1.67321 30.6123 1.00466 30.6123 0.845916 30.6826ZM3.87038 30.662C3.61169 30.7125 3.46704 30.8238 3.36703 31.0492C3.27717 31.2517 3.27688 31.2857 3.36362 31.4802C3.50275 31.7922 3.77102 31.9413 4.19338 31.9413C4.78829 31.9413 5.05145 31.6738 4.96142 31.1607C4.89547 30.7845 4.75646 30.6654 4.36363 30.6484C4.17306 30.6401 3.95113 30.6463 3.87038 30.662ZM10.4286 30.751C10.223 30.924 10.1733 31.2366 10.3043 31.5321C10.4832 31.9352 10.5556 31.9566 11.7742 31.9653L12.8638 31.9732L13.0653 31.7386C13.3118 31.4515 13.3358 31.1551 13.1329 30.9029C12.9519 30.6778 12.6674 30.6287 11.5276 30.6254C10.6612 30.6229 10.5683 30.6335 10.4286 30.751ZM18.4544 30.6919C18.2398 30.7579 17.965 31.0769 17.965 31.2597C17.965 31.4135 18.0585 31.6138 18.2175 31.8004C18.3306 31.9333 18.3841 31.9418 19.1074 31.9418C19.9654 31.9418 20.0554 31.9091 20.2201 31.538C20.3069 31.3421 20.3083 31.2947 20.2323 31.1003C20.1855 30.9804 20.0724 30.8419 19.981 30.7926C19.778 30.6829 18.7119 30.6127 18.4544 30.6919ZM27.5082 30.6676C27.3324 30.7131 27.1422 30.9252 27.1086 31.1133C27.0734 31.3103 27.1726 31.5362 27.3898 31.7533C27.5359 31.8995 27.5861 31.91 28.1148 31.9045C28.9287 31.8961 29.2994 31.8285 29.2994 31.6882C29.2994 31.5771 28.9501 31.0662 28.7344 30.8618C28.539 30.6766 27.8781 30.5719 27.5082 30.6676ZM29.729 30.6859C29.5414 30.7667 29.4756 30.9441 29.4756 31.3688C29.4756 31.8969 29.5469 31.9418 30.3843 31.9415C31.1109 31.9413 31.3307 31.8558 31.4988 31.508C31.6429 31.21 31.6132 31.0345 31.3822 30.8176C31.1757 30.6236 31.1712 30.6226 30.5159 30.6266C30.1537 30.6288 29.7996 30.6555 29.729 30.6859ZM14.5274 30.8949C14.2947 31.1438 14.2731 31.3181 14.439 31.6089C14.6463 31.9727 14.8231 32.0229 15.788 31.9925C16.7137 31.9633 16.8542 31.9211 16.9954 31.629C17.1276 31.3555 17.1037 31.1507 16.9128 30.922L16.7416 30.7169L15.7363 30.697L14.731 30.6771L14.5274 30.8949ZM21.343 30.8355C21.1589 31.0325 21.0915 31.411 21.2028 31.6232C21.3418 31.8881 21.5224 31.9478 22.1251 31.9282C22.6436 31.9113 22.6812 31.9008 22.8152 31.7341C22.9795 31.5296 22.9999 31.2313 22.8717 30.9033L22.7866 30.6855H22.135C21.5263 30.6855 21.4741 30.6954 21.343 30.8355ZM6.80676 30.7882C6.72601 30.8017 6.55006 30.8279 6.41569 30.8463C6.20991 30.8746 6.15676 30.913 6.07801 31.0906C5.94511 31.3902 5.96167 31.5638 6.14237 31.7656L6.30017 31.9418H7.31363C8.29891 31.9418 8.33167 31.9376 8.49106 31.791C8.6249 31.6678 8.6538 31.5918 8.64851 31.3768C8.64475 31.2215 8.5943 31.045 8.52571 30.9466C8.41131 30.7825 8.39716 30.7796 7.68145 30.7716C7.2811 30.7672 6.88751 30.7747 6.80676 30.7882ZM24.3076 30.8048C24.0484 30.8417 24.0413 30.849 23.9433 31.1762C23.8401 31.521 23.8636 31.7195 24.0245 31.8624C24.0743 31.9065 24.4073 31.9423 24.8777 31.954C25.586 31.9716 25.6627 31.9624 25.8152 31.8409C25.9065 31.7682 25.9903 31.6593 26.0014 31.5991C26.0391 31.3936 25.9495 31.0779 25.8066 30.913C25.6709 30.7564 25.637 30.7487 25.1179 30.7577C24.8175 30.7629 24.4529 30.7841 24.3076 30.8048Z" fill="#F4B5A4"/>
</svg>
