<svg width="20" height="21" viewBox="0 0 20 21" fill="none" xmlns="http://www.w3.org/2000/svg">
<circle cx="10" cy="10.5" r="10" fill="white"/>
<g clip-path="url(#clip0_586_1787)">
<path d="M6.99964 12.3V11.9C6.91787 11.9 6.83806 11.925 6.77096 11.9718C6.70387 12.0185 6.65271 12.0847 6.62438 12.1614C6.59605 12.2381 6.59191 12.3217 6.61252 12.4008C6.63313 12.4799 6.67749 12.5509 6.73964 12.604L6.99964 12.3ZM6.59964 6.3H15.3996V5.5H6.59964V6.3ZM6.99964 12.7H9.39964V11.9H6.99964V12.7ZM9.39964 5.5H6.99964V6.3H9.39964V5.5ZM6.73964 12.604L12.3396 17.404L12.8596 16.796L7.25964 11.996L6.73964 12.604ZM12.9996 9.1C12.9996 8.62724 12.9065 8.15911 12.7256 7.72234C12.5447 7.28557 12.2795 6.88871 11.9452 6.55442C11.6109 6.22012 11.2141 5.95495 10.7773 5.77403C10.3405 5.59312 9.8724 5.5 9.39964 5.5V6.3C10.1422 6.3 10.8544 6.595 11.3795 7.1201C11.9046 7.6452 12.1996 8.35739 12.1996 9.1H12.9996ZM9.39964 12.7C9.8724 12.7 10.3405 12.6069 10.7773 12.426C11.2141 12.245 11.6109 11.9799 11.9452 11.6456C12.2795 11.3113 12.5447 10.9144 12.7256 10.4777C12.9065 10.0409 12.9996 9.57276 12.9996 9.1H12.1996C12.1996 9.84261 11.9046 10.5548 11.3795 11.0799C10.8544 11.605 10.1422 11.9 9.39964 11.9V12.7ZM6.59964 9.5H15.3996V8.7H6.59964V9.5Z" fill="#736968"/>
</g>
<defs>
<clipPath id="clip0_586_1787">
<rect width="12" height="12" fill="white" transform="translate(4 4.5)"/>
</clipPath>
</defs>
</svg>
