<svg width="25" height="25" viewBox="0 0 25 25" fill="none" xmlns="http://www.w3.org/2000/svg">
<g id="shopping-cart-fill">
<path id="Vector" d="M6.50488 9.5H20.4433L20.9433 7.5H8.50488V5.5H22.2241C22.7764 5.5 23.2241 5.94772 23.2241 6.5C23.2241 6.58176 23.2141 6.66322 23.1942 6.74254L20.6942 16.7425C20.583 17.1877 20.183 17.5 19.7241 17.5H5.50488C4.9526 17.5 4.50488 17.0523 4.50488 16.5V4.5H2.50488V2.5H5.50488C6.05717 2.5 6.50488 2.94772 6.50488 3.5V9.5ZM6.50488 23.5C5.40031 23.5 4.50488 22.6046 4.50488 21.5C4.50488 20.3954 5.40031 19.5 6.50488 19.5C7.60945 19.5 8.50488 20.3954 8.50488 21.5C8.50488 22.6046 7.60945 23.5 6.50488 23.5ZM18.5049 23.5C17.4003 23.5 16.5049 22.6046 16.5049 21.5C16.5049 20.3954 17.4003 19.5 18.5049 19.5C19.6095 19.5 20.5049 20.3954 20.5049 21.5C20.5049 22.6046 19.6095 23.5 18.5049 23.5Z" fill="#6B4EFF"/>
</g>
</svg>
