<svg width="28" height="28" viewBox="0 0 28 28" fill="none" xmlns="http://www.w3.org/2000/svg">
<path d="M10.2055 0.000478853C9.39454 0.000478853 8.75192 0.420457 8.75192 0.940429V4.64023C8.75192 4.77018 8.67293 4.89481 8.53233 4.9867C8.39173 5.07859 8.20103 5.13021 8.00219 5.13021C7.80335 5.13021 7.61266 5.07859 7.47206 4.9867C7.33145 4.89481 7.25247 4.77018 7.25247 4.64023V0.980427C7.25247 0.460455 6.64044 0.0104783 5.86012 0.000478853C5.66742 -0.00354248 5.47544 0.0177977 5.29562 0.0632309C5.11579 0.108664 4.95177 0.177263 4.81332 0.264949C4.67486 0.352635 4.5648 0.457619 4.48966 0.573659C4.41453 0.6897 4.37587 0.814428 4.37596 0.940429V4.64023C4.37596 4.77018 4.29698 4.89481 4.15637 4.9867C4.01577 5.07859 3.82508 5.13021 3.62624 5.13021C3.4274 5.13021 3.2367 5.07859 3.0961 4.9867C2.9555 4.89481 2.87651 4.77018 2.87651 4.64023V0.980427C2.87651 0.460455 2.26449 0.0104783 1.48416 0.000478853C1.29146 -0.00354248 1.09949 0.0177977 0.919661 0.0632309C0.739831 0.108664 0.575814 0.177263 0.43736 0.264949C0.298906 0.352635 0.188842 0.457619 0.11371 0.573659C0.0385773 0.6897 -8.88491e-05 0.814428 9.36546e-06 0.940429V7.2601C-0.00160389 7.84755 0.205223 8.42725 0.604241 8.95366C1.00326 9.48006 1.5836 9.93883 2.29968 10.2939C3.59564 10.9139 3.59564 12.9108 3.59564 12.9108V26.7101C3.59564 27.42 4.48307 28 5.56941 28H6.05902C7.14536 28 8.03279 27.42 8.03279 26.7101V12.8998C8.03279 12.8998 8.03279 10.8629 9.30886 10.2929C10.0302 9.93837 10.6154 9.47892 11.018 8.95095C11.4206 8.42298 11.6296 7.841 11.6284 7.2511V0.940429C11.6317 0.817248 11.5972 0.694883 11.5271 0.580534C11.4569 0.466185 11.3525 0.362161 11.2199 0.274581C11.0873 0.187001 10.9293 0.117634 10.755 0.0705612C10.5808 0.0234884 10.394 -0.000339665 10.2055 0.000478853ZM24.5727 0.000478853C26.4699 0.000478853 28 1.00043 28 2.24036V15.8896L27.9847 15.8866V26.7001C27.9847 27.41 27.0973 27.99 26.0109 27.99H25.5213C24.435 27.99 23.5475 27.41 23.5475 26.7001V14.8367C22.3829 14.4906 21.3954 13.9325 20.7035 13.2291C20.0115 12.5258 19.6444 11.7071 19.6459 10.8709V3.22031C19.6306 1.4404 21.8492 0.000478853 24.5727 0.000478853Z" fill="#4285F4"/>
</svg>
