<svg width="28" height="28" viewBox="0 0 28 28" fill="none" xmlns="http://www.w3.org/2000/svg">
<path d="M11.6673 9.33352L7.87565 13.1252C8.23732 13.2652 8.52898 13.4402 8.77398 13.5802C9.20565 13.8485 9.46232 14.0002 10.1157 14.0002C10.769 14.0002 11.0257 13.8485 11.4573 13.5802C11.994 13.2652 12.7173 12.8335 14.0123 12.8335C15.3073 12.8335 16.0307 13.2652 16.5557 13.5802C16.9873 13.8369 17.2557 14.0002 17.8973 14.0002C18.539 14.0002 18.8073 13.8485 19.239 13.5802C19.379 13.4985 19.5423 13.4052 19.7173 13.3119L12.2273 5.83352C10.419 4.02519 8.75065 3.48852 5.83398 3.50019V6.41685C7.95732 6.40519 9.20565 6.87185 10.5007 8.16685L11.6673 9.33352ZM6.24232 18.0835C6.88398 18.0835 7.15232 18.2469 7.58398 18.5035C8.10898 18.8185 8.83232 19.2502 10.1273 19.2502C11.4223 19.2502 12.1457 18.8185 12.6707 18.5035C13.1023 18.2352 13.359 18.0835 14.0123 18.0835C14.654 18.0835 14.9223 18.2469 15.354 18.5035C15.879 18.8185 16.6023 19.2502 17.8973 19.2502C19.1923 19.2502 19.9157 18.8185 20.4407 18.5035C20.8723 18.2352 21.129 18.0835 21.7823 18.0835C22.424 18.0835 22.6923 18.2469 23.124 18.5035C23.649 18.8185 24.3607 19.2385 25.644 19.2502V16.9169C25.0023 16.9169 24.734 16.7535 24.3023 16.4969C23.7773 16.1819 23.054 15.7502 21.759 15.7502C20.464 15.7502 19.7407 16.1819 19.2157 16.4969C18.784 16.7652 18.5157 16.9169 17.874 16.9169C17.2323 16.9169 16.964 16.7535 16.5323 16.4969C16.0073 16.1819 15.284 15.7502 13.989 15.7502C12.694 15.7502 11.9707 16.1819 11.4457 16.4969C11.014 16.7652 10.7573 16.9169 10.104 16.9169C9.46232 16.9169 9.19398 16.7535 8.76232 16.4969C8.23732 16.1819 7.51398 15.7502 6.21898 15.7502C4.92398 15.7502 4.20065 16.1819 3.67565 16.4969C3.24398 16.7652 2.98732 16.9169 2.33398 16.9169V19.2502C3.62898 19.2502 4.35232 18.8185 4.90065 18.5035C5.33232 18.2352 5.60065 18.0835 6.24232 18.0835ZM21.7823 21.0002C20.4873 21.0002 19.764 21.4319 19.239 21.7469C18.8073 22.0152 18.539 22.1669 17.8973 22.1669C17.2557 22.1669 16.9873 22.0035 16.5557 21.7469C16.0307 21.4319 15.3073 21.0002 14.0123 21.0002C12.7173 21.0002 11.994 21.4319 11.4573 21.7469C11.0257 22.0152 10.769 22.1669 10.1157 22.1669C9.46232 22.1669 9.20565 22.0152 8.77398 21.7469C8.24898 21.4319 7.52565 21.0002 6.23065 21.0002C4.93565 21.0002 4.21232 21.4319 3.67565 21.7469C3.24398 22.0152 2.98732 22.1669 2.33398 22.1669V24.5002C3.62898 24.5002 4.35232 24.0685 4.88898 23.7535C5.32065 23.4852 5.58898 23.3335 6.23065 23.3335C6.87232 23.3335 7.14065 23.4852 7.57232 23.7535C8.09732 24.0685 8.82065 24.5002 10.1157 24.5002C11.4107 24.5002 12.134 24.0685 12.6707 23.7535C13.1023 23.4852 13.359 23.3335 14.0123 23.3335C14.654 23.3335 14.9223 23.4969 15.354 23.7535C15.879 24.0685 16.6023 24.5002 17.8973 24.5002C19.1923 24.5002 19.904 24.0685 20.4407 23.7535C20.8723 23.4852 21.129 23.3335 21.7823 23.3335C22.424 23.3335 22.6923 23.4969 23.124 23.7535C23.649 24.0685 24.3723 24.5002 25.6673 24.5002V22.1669C25.014 22.1669 24.7573 22.0152 24.3257 21.7469C23.8007 21.4319 23.0773 21.0002 21.7823 21.0002Z" fill="#4285F4"/>
<path d="M19.2507 9.33333C20.8615 9.33333 22.1673 8.0275 22.1673 6.41667C22.1673 4.80584 20.8615 3.5 19.2507 3.5C17.6398 3.5 16.334 4.80584 16.334 6.41667C16.334 8.0275 17.6398 9.33333 19.2507 9.33333Z" fill="#4285F4"/>
</svg>
