<svg width="18" height="14" viewBox="0 0 18 14" fill="none" xmlns="http://www.w3.org/2000/svg">
<g id="Group 1261156470">
<path id="Vector" d="M14.1315 2.04299H1.05565C0.473831 2.04299 0.000221569 2.5166 0.000221569 3.09842C-0.000545968 4.45935 0.000989105 10.1748 0.000221569 11.4144V12.9465C0.000221569 13.5283 0.473831 14.0019 1.05565 14.0019H14.1315C14.7133 14.0019 15.1869 13.5283 15.1869 12.9465L15.1877 3.0984C15.1877 2.51658 14.7141 2.04297 14.1323 2.04297L14.1315 2.04299ZM14.2819 9.46939L12.65 8.32645C12.2355 8.0363 11.6836 8.03553 11.2692 8.32569L10.0947 9.14701C10.0947 9.14701 10.9268 9.72116 11.4549 10.0988C11.6829 10.2615 11.709 10.5908 11.5109 10.7889C11.3551 10.9447 11.1103 10.967 10.9299 10.8403C10.4156 10.4795 9.68026 9.9668 9.30415 9.70197L5.8469 7.27949C5.55138 7.07148 5.15301 7.07148 4.85441 7.27949L0.902948 10.049C0.910624 9.43339 0.897575 3.86449 0.902948 3.09931C0.902948 3.01487 0.968961 2.94886 1.05339 2.94886H14.1292C14.2106 2.94886 14.2797 3.01487 14.2797 3.09931V9.47029L14.2819 9.46939Z" fill="black"/>
<path id="Vector_2" d="M16.0938 1.87399e-06H3.10702C2.51828 0.00998044 2.50676 0.89271 3.10702 0.904992H16.0938C16.2013 0.904992 16.2888 0.992496 16.2888 1.09996V11.7655C16.2888 12.015 16.4914 12.2176 16.7409 12.2176C16.9911 12.2176 17.193 12.015 17.193 11.7655L17.1938 1.09996C17.1938 0.493574 16.7002 1.87399e-06 16.0938 1.87399e-06Z" fill="black"/>
<path id="Vector_3" d="M7.78467 5.72898C7.78467 6.60096 8.49392 7.30944 9.36513 7.30944C10.2371 7.30944 10.9456 6.60019 10.9456 5.72898C10.8719 3.63722 7.85757 3.63722 7.78467 5.72898Z" fill="black"/>
</g>
</svg>
