<svg width="31" height="26" viewBox="0 0 31 26" fill="none" xmlns="http://www.w3.org/2000/svg">
<g id="Group 1261156969">
<path id="Vector" d="M26.8393 5.871H11.6671C11.7179 6.14767 11.7432 6.42842 11.7426 6.70971C11.7384 7.59429 11.5012 8.46215 11.0548 9.22584C10.9583 9.38879 10.8519 9.54565 10.7361 9.69552C10.7186 9.72483 10.6989 9.75286 10.6774 9.77939C10.4342 10.0931 10.1524 10.3749 9.83869 10.6181L9.71289 10.7104C9.59523 10.8018 9.47198 10.8859 9.34385 10.962L9.20127 11.0542C9.04068 11.1464 8.87552 11.2304 8.70643 11.3058C8.52433 11.3867 8.33651 11.4539 8.1445 11.5071H7.97676L7.54063 11.5994H7.3645C7.14976 11.6611 6.93124 11.7087 6.71031 11.742C5.47225 11.7415 4.27782 11.2846 3.35547 10.4587V22.6452C3.35547 23.5349 3.70892 24.3883 4.33808 25.0174C4.96723 25.6466 5.82055 26 6.71031 26H26.8393C27.7291 26 28.5824 25.6466 29.2116 25.0174C29.8407 24.3883 30.1942 23.5349 30.1942 22.6452V9.22584C30.1942 8.33608 29.8407 7.48277 29.2116 6.85361C28.5824 6.22446 27.7291 5.871 26.8393 5.871ZM5.03289 13.2097C5.58152 13.347 6.14476 13.4174 6.71031 13.4194C6.94852 13.4182 7.1865 13.4042 7.42321 13.3775H7.59934C7.78385 13.3775 7.95998 13.3271 8.13611 13.2852H8.31224C8.49471 13.2448 8.67408 13.1916 8.84901 13.1258L8.98321 13.0839C9.20064 13.0067 9.41346 12.9171 9.62063 12.8155C9.8429 12.7114 10.0586 12.5938 10.2664 12.4633H10.3168C10.4845 12.3542 10.6606 12.2284 10.82 12.1026L10.9709 11.9852L11.3484 11.6497L11.4993 11.4987C11.6335 11.3645 11.7677 11.2136 11.8935 11.0626L11.9439 11.0039H24.3232C24.5456 11.0039 24.759 11.0923 24.9163 11.2496C25.0735 11.4068 25.1619 11.6202 25.1619 11.8426V12.6813C24.2722 12.6813 23.4188 13.0348 22.7897 13.6639C22.1605 14.2931 21.8071 15.1464 21.8071 16.0362C21.8071 16.9259 22.1605 17.7792 22.7897 18.4084C23.4188 19.0375 24.2722 19.391 25.1619 19.391V20.2297C25.1619 20.4521 25.0735 20.6655 24.9163 20.8228C24.759 20.9801 24.5456 21.0684 24.3232 21.0684H5.03289V13.2097ZM23.4845 15.9355C23.4845 15.4906 23.6612 15.064 23.9758 14.7494C24.2904 14.4348 24.717 14.2581 25.1619 14.2581H28.5168V17.6129H25.1619C24.717 17.6129 24.2904 17.4362 23.9758 17.1216C23.6612 16.8071 23.4845 16.3804 23.4845 15.9355ZM28.5168 22.6452C28.5168 23.0901 28.34 23.5167 28.0254 23.8313C27.7109 24.1459 27.2842 24.3226 26.8393 24.3226H6.71031C6.26543 24.3226 5.83877 24.1459 5.52419 23.8313C5.20962 23.5167 5.03289 23.0901 5.03289 22.6452H24.3232C24.9905 22.6452 25.6305 22.3801 26.1024 21.9082C26.5742 21.4364 26.8393 20.7964 26.8393 20.1291V19.2904H28.5168V22.6452ZM26.8393 12.5807V11.742C26.8393 11.0746 26.5742 10.4347 26.1024 9.9628C25.6305 9.49093 24.9905 9.22584 24.3232 9.22584H12.9251C13.1466 8.68873 13.296 8.12471 13.3697 7.54842H26.8393C27.2842 7.54842 27.7109 7.72515 28.0254 8.03973C28.34 8.3543 28.5168 8.78096 28.5168 9.22584V12.5807H26.8393Z" fill="#F4B5A4"/>
<path id="Vector_2" d="M25.161 16.7741C25.6242 16.7741 25.9997 16.3986 25.9997 15.9354C25.9997 15.4722 25.6242 15.0967 25.161 15.0967C24.6978 15.0967 24.3223 15.4722 24.3223 15.9354C24.3223 16.3986 24.6978 16.7741 25.161 16.7741Z" fill="#939598"/>
<path id="Vector_3" d="M6.70968 0C5.38263 0 4.08538 0.393515 2.98198 1.13078C1.87858 1.86805 1.01859 2.91596 0.510747 4.14199C0.00290717 5.36803 -0.129967 6.71712 0.128928 8.01867C0.387822 9.32022 1.02686 10.5158 1.96522 11.4541C2.90359 12.3925 4.09914 13.0315 5.40068 13.2904C6.70223 13.5493 8.05133 13.4164 9.27736 12.9086C10.5034 12.4008 11.5513 11.5408 12.2886 10.4374C13.0258 9.33397 13.4194 8.03672 13.4194 6.70967C13.4194 4.93016 12.7124 3.22353 11.4541 1.96522C10.1958 0.70691 8.48919 0 6.70968 0Z" fill="white"/>
<path id="Vector_4" d="M8.80716 5.87091H7.54909V4.61285C7.54909 4.39041 7.46073 4.17708 7.30344 4.01979C7.14615 3.8625 6.93282 3.77414 6.71039 3.77414C6.48795 3.77414 6.27462 3.8625 6.11733 4.01979C5.96004 4.17708 5.87168 4.39041 5.87168 4.61285V5.87091H4.61361C4.39117 5.87091 4.17784 5.95928 4.02055 6.11657C3.86327 6.27385 3.7749 6.48718 3.7749 6.70962C3.7749 6.93206 3.86327 7.14539 4.02055 7.30268C4.17784 7.45997 4.39117 7.54833 4.61361 7.54833H5.87168V8.8064C5.87168 9.02884 5.96004 9.24216 6.11733 9.39945C6.27462 9.55674 6.48795 9.6451 6.71039 9.6451C6.93282 9.6451 7.14615 9.55674 7.30344 9.39945C7.46073 9.24216 7.54909 9.02884 7.54909 8.8064V7.54833H8.80716C9.0296 7.54833 9.24293 7.45997 9.40022 7.30268C9.5575 7.14539 9.64587 6.93206 9.64587 6.70962C9.64587 6.48718 9.5575 6.27385 9.40022 6.11657C9.24293 5.95928 9.0296 5.87091 8.80716 5.87091Z" fill="black"/>
</g>
</svg>
