<svg width="24" height="24" viewBox="0 0 24 24" fill="none" xmlns="http://www.w3.org/2000/svg">
<path d="M12.0004 21L15.6004 16.2C14.6004 15.45 13.3504 15 12.0004 15C10.6504 15 9.40039 15.45 8.40039 16.2L12.0004 21Z" fill="#4285F4"/>
<path d="M12.0008 9C9.30078 9 6.81078 9.89 4.80078 11.4L6.60078 13.8C8.10078 12.67 9.97078 12 12.0008 12C14.0308 12 15.9008 12.67 17.4008 13.8L19.2008 11.4C17.1908 9.89 14.7008 9 12.0008 9Z" fill="#4285F4"/>
<path d="M11.9992 3C7.94922 3 4.20922 4.34 1.19922 6.6L2.99922 9C5.49922 7.12 8.61922 6 11.9992 6C15.3792 6 18.4992 7.12 20.9992 9L22.7992 6.6C19.7892 4.34 16.0492 3 11.9992 3Z" fill="#4285F4"/>
</svg>
