<svg width="24" height="24" viewBox="0 0 24 24" fill="none" xmlns="http://www.w3.org/2000/svg">
<path d="M24 12C24 18.6274 18.6274 24 12 24C5.37258 24 0 18.6274 0 12C0 5.37258 5.37258 0 12 0C18.6274 0 24 5.37258 24 12Z" fill="#FA8919"/>
<path d="M4.88175 10.2L6.06975 13H5.61775L5.31775 12.264H4.00975L3.70975 13H3.27375L4.46175 10.2H4.88175ZM4.16175 11.896H5.16575L4.66575 10.672L4.16175 11.896ZM8.76991 10.96V13.064C8.76991 13.52 8.47791 13.804 8.01391 13.804H7.50191V13.46H7.92591C8.21791 13.46 8.36191 13.312 8.36191 13.032V12.732C8.17791 12.912 7.92991 13.02 7.65391 13.02C7.06191 13.02 6.59391 12.556 6.59391 11.964C6.59391 11.38 7.06591 10.916 7.65391 10.916C7.93391 10.916 8.18191 11.028 8.36591 11.212V10.96H8.76991ZM6.99391 11.964C6.99391 12.356 7.30191 12.664 7.68191 12.664C8.06591 12.664 8.36991 12.352 8.36991 11.964C8.36991 11.58 8.06191 11.272 7.68191 11.272C7.30191 11.272 6.99391 11.584 6.99391 11.964ZM9.60609 11.98C9.60609 11.404 10.0581 10.92 10.6541 10.92C11.2421 10.92 11.6741 11.372 11.6741 11.98V12.112H10.0141C10.0701 12.444 10.3461 12.692 10.6901 12.692C10.9261 12.692 11.1261 12.596 11.2781 12.392L11.5701 12.608C11.3661 12.88 11.0621 13.044 10.6901 13.044C10.0781 13.044 9.60609 12.588 9.60609 11.98ZM10.6461 11.272C10.3461 11.272 10.0941 11.48 10.0221 11.792H11.2661C11.1981 11.48 10.9461 11.272 10.6461 11.272ZM14.2987 11.696V13H13.8947V11.776C13.8947 11.48 13.7027 11.28 13.4147 11.28C13.1227 11.28 12.9147 11.484 12.9147 11.788V13H12.5107V10.96H12.9147V11.184C13.0587 11.016 13.2707 10.916 13.5147 10.916C13.9827 10.916 14.2987 11.26 14.2987 11.696ZM15.5384 11.984C15.5384 12.376 15.8464 12.692 16.2304 12.692C16.4664 12.692 16.6704 12.576 16.8024 12.392L17.0984 12.608C16.8984 12.872 16.6144 13.048 16.2304 13.048C15.6104 13.048 15.1344 12.572 15.1344 11.984C15.1344 11.392 15.6104 10.916 16.2304 10.916C16.6144 10.916 16.8984 11.092 17.0984 11.36L16.8024 11.572C16.6704 11.392 16.4664 11.276 16.2304 11.276C15.8464 11.276 15.5384 11.584 15.5384 11.984ZM18.3871 13.24L18.4991 12.96L17.6511 10.96H18.0871L18.7071 12.472L19.3071 10.96H19.7271L18.7511 13.372C18.6231 13.676 18.4631 13.804 18.1631 13.804H17.8951V13.46H18.0831C18.2351 13.46 18.3231 13.4 18.3871 13.24Z" fill="white"/>
</svg>
