<svg width="37" height="37" viewBox="0 0 37 37" fill="none" xmlns="http://www.w3.org/2000/svg">
<rect x="0.566406" y="0.213623" width="36" height="36" rx="18" fill="#99ACE6" fill-opacity="0.6"/>
<path d="M23.8664 24.2136C22.4331 24.2136 21.036 23.897 19.6751 23.2636C18.3137 22.6303 17.1082 21.7858 16.0584 20.7303C15.0082 19.6747 14.1637 18.4663 13.5251 17.105C12.886 15.7441 12.5664 14.347 12.5664 12.9136V12.5636C12.5664 12.4414 12.5775 12.3247 12.5997 12.2136H16.4997L17.1164 15.5636L15.2164 17.4803C15.6831 18.2803 16.2693 19.0303 16.9751 19.7303C17.6804 20.4303 18.4553 21.0358 19.2997 21.547L21.2331 19.6136L24.5664 20.2803V24.1803C24.4553 24.1914 24.3386 24.1998 24.2164 24.2056C24.0942 24.211 23.9775 24.2136 23.8664 24.2136Z" fill="#3D6DFE"/>
</svg>
