<svg width="25" height="25" viewBox="0 0 25 25" fill="none" xmlns="http://www.w3.org/2000/svg">
<circle cx="12.2891" cy="12.0925" r="12" fill="#3D6DFE"/>
<path d="M5.28906 17.4162C5.28906 18.1862 5.91906 18.8162 6.68906 18.8162H17.8891C18.6591 18.8162 19.2891 18.1862 19.2891 17.4162V8.31616H16.4261C16.0911 6.33306 14.366 4.81616 12.2891 4.81616C10.2122 4.81616 8.48701 6.33306 8.15241 8.31616H5.28906V17.4162ZM12.2891 6.21616C13.5907 6.21616 14.6848 7.11041 14.997 8.31616H9.58111C9.89331 7.11041 10.9874 6.21616 12.2891 6.21616Z" fill="white"/>
<path d="M10.2891 11.8162C10.2891 12.3466 10.4998 12.8553 10.8748 13.2304C11.2499 13.6054 11.7587 13.8162 12.2891 13.8162C12.8195 13.8162 13.3282 13.6054 13.7033 13.2304C14.0783 12.8553 14.2891 12.3466 14.2891 11.8162" stroke="#3D6DFE" stroke-linecap="round"/>
</svg>
