<svg width="21" height="21" viewBox="0 0 21 21" fill="none" xmlns="http://www.w3.org/2000/svg">
<circle cx="10.1953" cy="10.2136" r="10" fill="#3D6DFE" fill-opacity="0.1"/>
<path d="M9.69531 15.2136V12.7136C9.69531 12.247 9.62448 11.9011 9.48281 11.6761C9.34115 11.4511 9.15365 11.2303 8.92031 11.0136L9.63281 10.3011C9.73281 10.3928 9.82865 10.4906 9.92031 10.5946C10.012 10.699 10.1036 10.8095 10.1953 10.9261C10.312 10.7678 10.4308 10.6281 10.5518 10.5071C10.6725 10.3865 10.7953 10.2678 10.9203 10.1511C11.237 9.85946 11.5245 9.52196 11.7828 9.13862C12.0411 8.75529 12.1786 8.08446 12.1953 7.12612L11.4078 7.91362L10.6953 7.21362L12.6953 5.21362L14.6953 7.21362L13.9953 7.91362L13.1953 7.12612C13.1786 8.31779 12.9953 9.16562 12.6453 9.66962C12.2953 10.174 11.9453 10.5845 11.5953 10.9011C11.3286 11.1428 11.112 11.3781 10.9453 11.6071C10.7786 11.8365 10.6953 12.2053 10.6953 12.7136V15.2136H9.69531ZM7.29531 8.30112C7.26198 8.13446 7.23898 7.95112 7.22631 7.75112C7.21398 7.55112 7.20365 7.34279 7.19531 7.12612L6.39531 7.91362L5.69531 7.21362L7.69531 5.21362L9.69531 7.21362L8.98281 7.91362L8.19531 7.13862C8.19531 7.31362 8.20365 7.47829 8.22031 7.63262C8.23698 7.78662 8.25365 7.93029 8.27031 8.06362L7.29531 8.30112ZM8.37031 10.5011C8.20365 10.3261 8.04331 10.122 7.88931 9.88862C7.73498 9.65529 7.59948 9.36779 7.48281 9.02612L8.44531 8.78862C8.52865 9.01362 8.62448 9.20529 8.73281 9.36362C8.84115 9.52196 8.95781 9.66362 9.08281 9.78862L8.37031 10.5011Z" fill="#3D6DFE"/>
</svg>
