<svg width="24" height="24" viewBox="0 0 24 24" fill="none" xmlns="http://www.w3.org/2000/svg">
<path d="M24 12C24 18.6274 18.6274 24 12 24C5.37258 24 0 18.6274 0 12C0 5.37258 5.37258 0 12 0C18.6274 0 24 5.37258 24 12Z" fill="black"/>
<path d="M8.44936 10.96V13.064C8.44936 13.52 8.15736 13.804 7.69336 13.804H7.18136V13.46H7.60536C7.89736 13.46 8.04136 13.312 8.04136 13.032V12.732C7.85736 12.912 7.60936 13.02 7.33336 13.02C6.74136 13.02 6.27336 12.556 6.27336 11.964C6.27336 11.38 6.74536 10.916 7.33336 10.916C7.61336 10.916 7.86136 11.028 8.04536 11.212V10.96H8.44936ZM6.67336 11.964C6.67336 12.356 6.98136 12.664 7.36136 12.664C7.74536 12.664 8.04936 12.352 8.04936 11.964C8.04936 11.58 7.74136 11.272 7.36136 11.272C6.98136 11.272 6.67336 11.584 6.67336 11.964ZM9.56555 10.676C9.42955 10.676 9.32155 10.568 9.32155 10.432C9.32155 10.3 9.42955 10.192 9.56555 10.192C9.69755 10.192 9.80155 10.3 9.80155 10.432C9.80155 10.568 9.69755 10.676 9.56555 10.676ZM9.76555 10.96V13H9.36155V10.96H9.76555ZM12.7784 10.96V13.064C12.7784 13.52 12.4864 13.804 12.0224 13.804H11.5104V13.46H11.9344C12.2264 13.46 12.3704 13.312 12.3704 13.032V12.732C12.1864 12.912 11.9384 13.02 11.6624 13.02C11.0704 13.02 10.6024 12.556 10.6024 11.964C10.6024 11.38 11.0744 10.916 11.6624 10.916C11.9424 10.916 12.1904 11.028 12.3744 11.212V10.96H12.7784ZM11.0024 11.964C11.0024 12.356 11.3104 12.664 11.6904 12.664C12.0744 12.664 12.3784 12.352 12.3784 11.964C12.3784 11.58 12.0704 11.272 11.6904 11.272C11.3104 11.272 11.0024 11.584 11.0024 11.964ZM14.0946 13H13.6906V10.2H14.0946V13ZM15.5275 13.24L15.6395 12.96L14.7915 10.96H15.2275L15.8475 12.472L16.4475 10.96H16.8675L15.8915 13.372C15.7635 13.676 15.6035 13.804 15.3035 13.804H15.0355V13.46H15.2235C15.3755 13.46 15.4635 13.4 15.5275 13.24Z" fill="white"/>
</svg>
