<svg width="37" height="37" viewBox="0 0 37 37" fill="none" xmlns="http://www.w3.org/2000/svg">
<rect x="0.820312" y="0.582031" width="36" height="36" rx="18" fill="#99ACE6" fill-opacity="0.6"/>
<path d="M22.8204 15.9154H14.8204V14.5821H22.8204V15.9154ZM22.8204 17.9154H14.8204V16.5821H22.8204V17.9154ZM22.8204 19.9154H14.8204V18.5821H22.8204V19.9154ZM25.487 13.2487C25.487 12.8951 25.3465 12.556 25.0965 12.3059C24.8464 12.0559 24.5073 11.9154 24.1537 11.9154H13.487C13.1334 11.9154 12.7943 12.0559 12.5442 12.3059C12.2942 12.556 12.1537 12.8951 12.1537 13.2487V21.2487C12.1537 21.6024 12.2942 21.9415 12.5442 22.1915C12.7943 22.4416 13.1334 22.5821 13.487 22.5821H22.8204L25.487 25.2487V13.2487Z" fill="#3D6DFE"/>
</svg>
