<svg width="25" height="25" viewBox="0 0 25 25" fill="none" xmlns="http://www.w3.org/2000/svg">
<circle cx="12.2383" cy="12.6797" r="12" fill="#E92944"/>
<path d="M11.6308 18.6797V15.6797C11.6308 15.1197 11.5458 14.7047 11.3758 14.4347C11.2058 14.1647 10.9808 13.8997 10.7008 13.6397L11.5558 12.7847C11.6758 12.8947 11.7908 13.0121 11.9008 13.1369C12.0108 13.2621 12.1208 13.3947 12.2308 13.5347C12.3708 13.3447 12.5134 13.1771 12.6586 13.0319C12.8034 12.8871 12.9508 12.7447 13.1008 12.6047C13.4808 12.2547 13.8258 11.8497 14.1358 11.3897C14.4458 10.9297 14.6108 10.1247 14.6308 8.97469L13.6858 9.91969L12.8308 9.07969L15.2308 6.67969L17.6308 9.07969L16.7908 9.91969L15.8308 8.97469C15.8108 10.4047 15.5908 11.4221 15.1708 12.0269C14.7508 12.6321 14.3308 13.1247 13.9108 13.5047C13.5908 13.7947 13.3308 14.0771 13.1308 14.3519C12.9308 14.6271 12.8308 15.0697 12.8308 15.6797V18.6797H11.6308ZM8.75081 10.3847C8.71081 10.1847 8.68321 9.96469 8.66801 9.72469C8.65321 9.48469 8.64081 9.23469 8.63081 8.97469L7.67081 9.91969L6.83081 9.07969L9.23081 6.67969L11.6308 9.07969L10.7758 9.91969L9.83081 8.98969C9.83081 9.19969 9.84081 9.39729 9.86081 9.58249C9.88081 9.76729 9.90081 9.93969 9.92081 10.0997L8.75081 10.3847ZM10.0408 13.0247C9.84081 12.8147 9.64841 12.5697 9.46361 12.2897C9.27841 12.0097 9.11581 11.6647 8.97581 11.2547L10.1308 10.9697C10.2308 11.2397 10.3458 11.4697 10.4758 11.6597C10.6058 11.8497 10.7458 12.0197 10.8958 12.1697L10.0408 13.0247Z" fill="white"/>
</svg>
